<svg xmlns="http://www.w3.org/2000/svg" xmlns:xlink="http://www.w3.org/1999/xlink" width="100" height="100" xmlns:v="https://vecta.io/nano"><style><![CDATA[.B{stroke-width:2.5}.C{stroke-miterlimit:10}.D{stroke:#d59c31}.E{stroke:#343434}]]></style><path d="M77.223 11.073c1.524.63 4.074 20.26 1.9 26.126-3.27 8.8-24.7-.148-21.44-8.94 2.183-5.866 18.033-17.675 19.548-17.187zm-35.94 17.094c3.578 8.67-17.535 18.357-21.113 9.686-2.388-5.786-.528-25.494.973-26.176 1.497-.542 17.752 10.704 20.14 16.5z" fill="#ffb73a" class="B C D"/><path d="M77.346 11.05c1.524.63 4.074 20.26 1.9 26.126-3.27 8.8-9.6 2.332-6.338-6.46-1.436-6.834 3.984-19.973 4.447-19.666zM26.808 31.064c3.92 8.522-1.916 15.438-5.837 6.916-2.616-5.686-1.544-25.453-.07-26.194.44-.34 6.827 12.355 5.907 19.278z" fill="#e2a234" class="B C D"/><path d="M15.46 54.152c0-9.507 1.763-18.225 9.144-23.988 6.092-4.757 16.938-7.438 25.62-7.438 7.94 0 18.164 2.22 24.017 6.27 8.3 5.743 10.747 14.977 10.747 25.156 0 17.356-15.564 31.425-34.764 31.425S15.46 71.508 15.46 54.152z" fill="#ffb73a" class="B C D"/><g stroke="#dedede" class="B C"><path d="M85.83 68.38c0 11.636-15.976 21.068-35.683 21.068S14.465 80.017 14.465 68.38c0-4.196.383-9.993 3.963-13.277 6.35-5.823 19.118-7.792 31.72-7.792 9.858 0 22.622 2.48 29.08 6.295 6.45 3.812 6.602 8.96 6.602 14.774z" fill="#f8f8f8"/><path d="M46.815 48.435c0 7.58-4.552 13.725-10.167 13.725S26.48 56.015 26.48 48.435 31.033 34.7 36.648 34.7s10.167 6.145 10.167 13.725zm25.665-.267c0 7.58-4.552 13.725-10.167 13.725s-10.167-6.145-10.167-13.725 4.554-13.725 10.17-13.725S72.48 40.588 72.48 48.168z" fill="#fff"/></g><g class="E B C"><path d="M45.114 59.944c-.135-.96 2.74-2.18 4.616-2.18 1.82 0 4.232.736 4.43 1.796.096 1.556.112 1.558-1.353 2.92-.697.55-2.14 1.93-3.002 1.93-1.073 0-3.048-1.187-3.542-1.937-.704-1.248-.98-1.325-1.15-2.528z" fill="#505050"/><use xlink:href="#B" fill="#333"/></g><g fill="#ffdaf9" stroke="#ffd9fa" class="B C"><use xlink:href="#C"/><use xlink:href="#C" x="48.75"/></g><g fill="#333"><path d="M28.103 65.88c-.032.794-6.223-1.955-13.983-2.267S-.032 65.547 0 64.752s6.442-3.058 14.202-2.746 13.932 3.08 13.9 3.875zm-.405 2.463c.125.785-5.1-.812-11.035.26S6.3 73.014 6.165 72.23s4.313-4.144 10.26-5.217 11.15.547 11.274 1.33zm57.134-7.213c7.647-1.36 14.304.017 14.443.8s-6.497-.576-14.144.784-13.408 4.92-13.547 4.138 5.6-4.362 13.248-5.72zm-1.524 5.27c6.037.258 10.9 2.986 10.87 3.78S89.323 68.258 83.286 68s-10.986 2.03-10.97 1.235 4.954-3.103 11-2.845z"/><use xlink:href="#B" x="16.714" class="B C E"/></g><path d="M68.576 70.933C69.913 75.596 64.82 81.27 57.54 83.48s-14.265.224-15.603-4.44c-.447-1.56-2.26-5.01-2.066-5.9.39-1.78 7.98-5.075 12.824-6.547 2.838-.862 12.564-3.532 13.835-2.666.747.51 1.84 3.284 2.044 7.003z" fill="#505050"/><path d="M63.468 80.676c-7.225 3.036-10.69 4.02-17.6 2.656-.3-1.002-2.402-.978-3.016-1.817-3.913-5.347 26.69-11.74 24.97-5.654-1.106 3.916-4.344 4.815-4.344 4.815z" fill="#b93232"/><path d="M68.718 70.933c1.366 4.663-3.837 10.336-11.273 12.548s-14.572.224-15.938-4.44c-.457-1.56-2.3-5.01-2.1-5.9.4-1.78 8.15-5.075 13.1-6.547 2.9-.862 12.835-3.532 14.133-2.666.763.51 1.88 3.284 2.088 7.003z" fill="none" class="B C E"/><defs ><path id="B" d="M36.926 49.882a3.85 3.85 0 0 1 3.849-3.849 3.85 3.85 0 0 1 3.849 3.849 3.85 3.85 0 0 1-3.849 3.849 3.85 3.85 0 0 1-3.849-3.849z"/><path id="C" d="M28.276 60.504c0 .828-1.612 1.5-3.6 1.5s-3.6-.672-3.6-1.5 1.612-1.5 3.6-1.5 3.6.672 3.6 1.5z"/></defs></svg>