<svg xmlns="http://www.w3.org/2000/svg" xmlns:xlink="http://www.w3.org/1999/xlink" width="100" height="100" xmlns:v="https://vecta.io/nano"><style><![CDATA[.B{stroke-width:2.5}.C{stroke-miterlimit:10}.D{stroke:#d59c31}]]></style><path d="M82.146 14.1c1.38.902.228 20.664-3 26.02-4.852 8.028-24.25-4.75-19.398-12.778 3.238-5.357 21-14.005 22.4-13.243zm-40.092 14c4.53 8.215-15.363 20.2-19.892 11.995-3.022-5.48-3.386-25.274-1.97-26.12 1.427-.706 18.84 8.644 21.863 14.125z" fill="#ffb73a" class="B C D"/><path d="M82.27 14.1c1.38.902.228 20.664-3 26.02-4.852 8.028-9.876.5-5.023-7.528C74.1 25.6 81.883 13.712 82.28 14.1zM27.995 32.592c4.852 8.028-.17 15.555-5.023 7.528-3.238-5.357-4.4-25.12-3-26.02.398-.388 8.17 11.5 8.034 18.493z" fill="#e2a234" class="B C D"/><path d="M16.646 55.596c0-9.55 1.763-18.308 9.144-24.097 6.092-4.78 16.938-7.47 25.62-7.47 7.94 0 18.164 2.23 24.017 6.298 8.3 5.77 10.747 15.045 10.747 25.27 0 17.435-15.564 31.568-34.764 31.568S16.646 73.03 16.646 55.596z" fill="#ffb73a" class="B C D"/><g stroke="#dedede" class="B C"><path d="M86.446 69.54c0 10.6-15.72 19.21-35.11 19.21s-35.11-8.6-35.11-19.21c0-3.826.377-9.112 3.9-12.106 6.247-5.3 18.812-7.105 31.21-7.105 9.7 0 22.26 2.26 28.615 5.74 6.348 3.476 6.496 8.17 6.496 13.47z" fill="#f8f8f8"/><path d="M48.002 50.164c0 7.58-4.552 13.725-10.167 13.725s-10.167-6.145-10.167-13.725S32.22 36.44 37.835 36.44s10.167 6.145 10.167 13.725zm25.666-.267c0 7.58-4.552 13.725-10.167 13.725s-10.167-6.145-10.167-13.725S57.886 36.172 63.5 36.172s10.167 6.145 10.167 13.725z" fill="#fff"/></g><g stroke="#343434" class="B C"><path d="M46.3 63.388c-.135-.96 2.74-2.18 4.616-2.18 1.82 0 4.232.736 4.43 1.796.096 1.556.112 1.558-1.353 2.92-.697.55-2.14 1.93-3.002 1.93-1.073 0-3.048-1.187-3.542-1.937-.704-1.248-.98-1.325-1.15-2.528z" fill="#505050"/><g fill="#333"><use xlink:href="#B"/><use xlink:href="#B" x="17.444"/></g></g><path d="M44.83 76.5c-1.342-1.454 7.823 2.11 12.633-1.01s4.002-10.553 5.343-9.1 1.036 7.68-3.773 10.8-12.86.762-14.203-.69z" fill="#333"/><g fill="#ffdaf9" stroke="#ffd9fa" class="B C"><use xlink:href="#C"/><use xlink:href="#C" x="48.75"/></g><path d="M30.103 68.596c.032.794-6.36-1.448-14.12-1.134S2.033 70.526 2 69.732s6.175-3.566 13.935-3.88 14.135 1.95 14.167 2.744zm-.205 2.487c.188.772-5.137-.4-10.978 1.148S8.934 77.46 8.746 76.7s3.966-4.478 9.806-6.026 11.157-.352 11.345.42zm54.644-5.23c7.76.314 13.967 3.086 13.935 3.88s-6.222-1.956-13.982-2.27-14.152 1.93-14.12 1.134 6.407-3.058 14.167-2.744zm-2.617 4.81c5.84 1.548 9.994 5.254 9.806 6.026s-4.332-2.9-10.173-4.458-11.166-.376-10.978-1.148 5.504-1.968 11.345-.42z" fill="#333"/><defs ><path id="B" d="M40.113 51.11a1.78 1.78 0 0 1 1.778-1.778 1.78 1.78 0 0 1 1.778 1.778 1.78 1.78 0 0 1-1.778 1.778 1.78 1.78 0 0 1-1.778-1.778z"/><path id="C" d="M29.463 63.234c0 .828-1.612 1.5-3.6 1.5s-3.6-.672-3.6-1.5 1.612-1.5 3.6-1.5 3.6.672 3.6 1.5z"/></defs></svg>