<svg xmlns="http://www.w3.org/2000/svg" width="100" height="100" xmlns:v="https://vecta.io/nano"><style><![CDATA[.B{stroke-width:2.5}.C{stroke-miterlimit:10}.D{stroke:#d59c31}]]></style><path d="M82.003 12.243c1.38.902.228 20.664-3 26.02-4.852 8.028-24.25-4.75-19.398-12.778 3.238-5.357 21-14.005 22.4-13.243zM41.9 26.232c4.53 8.215-15.363 20.2-19.892 11.995-3.022-5.48-3.386-25.274-1.97-26.12C21.475 11.4 38.9 20.75 41.9 26.232z" fill="#ffb73a" class="B C D"/><path d="M82.128 12.243c1.38.902.228 20.664-3 26.02-4.852 8.028-9.876.5-5.023-7.528-.137-6.982 7.636-18.88 8.034-18.493zM27.852 30.735c4.852 8.028-.17 15.555-5.023 7.528-3.238-5.357-4.4-25.12-3-26.02.398-.388 8.17 11.5 8.034 18.493z" fill="#e2a234" class="B C D"/><path d="M16.503 53.74c0-9.55 1.763-18.308 9.144-24.097 6.092-4.78 16.938-7.47 25.62-7.47 7.94 0 18.164 2.23 24.017 6.298 8.3 5.77 10.747 15.045 10.747 25.27 0 17.435-15.564 31.568-34.764 31.568S16.503 71.174 16.503 53.74z" fill="#ffb73a" class="B C D"/><g stroke="#dedede" class="B C"><path d="M86.303 67.54c0 10.6-15.72 19.21-35.11 19.21s-35.11-8.6-35.11-19.21c0-3.826.377-9.112 3.9-12.106 6.247-5.3 18.812-7.105 31.21-7.105 9.7 0 22.26 2.26 28.615 5.74 6.348 3.476 6.496 8.17 6.496 13.47z" fill="#f8f8f8"/><path d="M47.86 48.307c0 7.58-4.552 13.725-10.167 13.725s-10.167-6.145-10.167-13.725 4.552-13.725 10.167-13.725S47.86 40.727 47.86 48.307zm25.665-.267c0 7.58-4.552 13.725-10.167 13.725S53.192 55.62 53.192 48.04s4.552-13.725 10.167-13.725S73.525 40.46 73.525 48.04z" fill="#fff"/></g><path d="M46.158 61.53c-.135-.96 2.74-2.18 4.616-2.18 1.82 0 4.232.736 4.43 1.796.096 1.556.112 1.558-1.353 2.92-.697.55-2.14 1.93-3.002 1.93-1.073 0-3.048-1.187-3.542-1.937-.704-1.248-.98-1.325-1.15-2.528z" fill="#505050" stroke="#343434" class="B C"/><path d="M29.32 61.377c0 .828-1.612 1.5-3.6 1.5s-3.6-.672-3.6-1.5 1.612-1.5 3.6-1.5 3.6.672 3.6 1.5zm48.75 0c0 .828-1.612 1.5-3.6 1.5s-3.6-.672-3.6-1.5 1.612-1.5 3.6-1.5 3.6.672 3.6 1.5z" fill="#ffdaf9" stroke="#ffd9fa" class="B C"/><g fill="#333"><path d="M30.102 66.74c.032.794-6.36-1.448-14.12-1.134S2.032 68.67 2 67.875s6.175-3.566 13.935-3.88 14.135 1.95 14.167 2.744zm-.347 2.486c.188.772-5.137-.4-10.978 1.148s-9.986 5.23-10.173 4.458 3.966-4.478 9.806-6.026 11.157-.352 11.345.42zm54.645-5.23c7.76.314 13.967 3.086 13.935 3.88s-6.222-1.956-13.982-2.27-14.152 1.93-14.12 1.134 6.407-3.06 14.167-2.744zm-2.618 4.81c5.84 1.548 9.994 5.254 9.806 6.026s-4.332-2.9-10.173-4.458-11.166-.376-10.978-1.148 5.504-1.968 11.345-.42zM65.05 62.968c.78.57-.15 7.16-5.163 9.373s-11.62.43-12.4-.138 5.553-.72 10.566-2.933 6.216-6.87 6.996-6.302z"/><path d="M19.88 46.77c0-1.8-.248-5.403.792-6.913 1.24-1.8 7.916-2.422 13.152-2.524 4.83-.093 11.1.622 13.14 2.427 1.543 1.366 1.067 3.984 1.067 7 0 5.52-6.302 9.997-14.076 9.997S19.88 52.3 19.88 46.77zm46.26 9.997c-7.774 0-14.076-4.476-14.076-9.997 0-3.025-.476-5.643 1.067-7 2.04-1.805 8.3-2.52 13.14-2.427 5.236.1 11.912.724 13.152 2.524 1.04 1.5.792 5.1.792 6.912 0 5.52-6.302 9.997-14.076 9.997z" stroke="#4f4f4f" class="B C"/></g><path d="M47.626 45.714l-.8-7.397s2.317.75 3.127.75c.854 0 3.263-.8 3.263-.8l-.58 7.436-2.58-.263c-.838 0-2.42.263-2.42.263zm-32.318 0l1.102-5.397 4.438-2.087-.58 7.484zm64.792 0l-.875-7.484 6.708 2.087 1.245 5.397z" fill="#505050"/></svg>