<svg xmlns="http://www.w3.org/2000/svg" width="100" height="100" xmlns:v="https://vecta.io/nano"><style><![CDATA[.B{stroke-width:2.5}.C{stroke-miterlimit:10}.D{stroke:#d59c31}]]></style><path d="M83.828 15.85c1.265 1.057-2.193 20.548-6.036 25.5-5.76 7.404-23.528-7.557-17.77-14.96 3.843-4.94 22.506-11.45 23.805-10.528zM41.9 27.413c5.492 7.604-12.797 21.925-18.3 14.32-3.665-5.074-6.43-24.676-5.127-25.687 1.33-.874 19.75 6.292 23.416 11.366z" fill="#ffb73a" class="B C D"/><path d="M83.953 15.865c1.265 1.057-2.193 20.548-6.036 25.5-5.76 7.404-9.866-.66-4.108-8.064.68-6.95 9.794-17.857 10.143-17.425zM28.502 33.6c5.8 7.38 1.72 15.46-4.072 8.082-3.864-4.924-7.407-24.4-6.147-25.463.348-.433 9.508 10.434 10.22 17.38z" fill="#e2a234" class="B C D"/><path d="M16.35 54.93c0-9.55 1.772-18.308 9.187-24.097 6.122-4.78 17.02-7.47 25.743-7.47 7.977 0 18.25 2.23 24.132 6.298 8.34 5.77 10.8 15.045 10.8 25.27 0 17.435-15.64 31.568-34.93 31.568S16.35 72.364 16.35 54.93z" fill="#ffb73a" class="B C D"/><path d="M86.817 67.54c0 10.6-15.87 19.21-35.444 19.21S15.93 78.15 15.93 67.54c0-3.826.38-9.112 3.937-12.106 6.306-5.3 19-7.105 31.507-7.105 9.793 0 22.472 2.26 28.886 5.74 6.408 3.476 6.558 8.17 6.558 13.47z" fill="#f8f8f8" stroke="#dedede" class="B C"/><path d="M51.21 62.707c.933.24 1.38 2.054 1.683 3.07.825 2.757.886 5.42 4.5 5.32 3.857-.1 4.822-6.22 5.332-8.877.546-1.153 1.6-.905 2.17.138 1.37 2.544-2.288 10.336-6.1 11.388-2.026.56-4.704-.484-6.016-1.9-1.006-1.084-1.556-3.19-1.77-5.71-.436 2.652-1.685 6.477-3.55 7.66-2.048 1.298-4.674.287-6.737-.446-2.638-.938-3.64-3.576-4.156-5.8-.354-1.535-1.128-4.302.46-4.846.646-.33.33-.25.708-.183 1.286.232 1.283 4.34 1.88 5.518 1.46 2.884 2.937 4.363 6.053 3.223 1.946-.712 3.448-5.642 4.273-8.504.338-1.175 1.27-.038 1.27-.038z" fill="#333"/><g class="B C"><path d="M48.04 48.83c0 7.58-4.552 13.725-10.167 13.725S27.706 56.4 27.706 48.83s4.552-13.725 10.167-13.725S48.04 41.25 48.04 48.83zm25.666-.333c0 7.58-4.552 13.725-10.167 13.725s-10.167-6.145-10.167-13.725 4.552-13.725 10.167-13.725 10.167 6.145 10.167 13.725z" stroke="#dedede" fill="#fff"/><path d="M46.34 60.388c-.135-.96 2.74-2.18 4.616-2.18 1.82 0 4.232.736 4.43 1.796.096 1.556.112 1.558-1.353 2.92-.697.55-2.14 1.93-3.002 1.93-1.073 0-3.048-1.187-3.542-1.937-.704-1.248-.98-1.325-1.15-2.528z" fill="#505050" stroke="#343434"/><path d="M29.5 60.234c0 .828-1.612 1.5-3.6 1.5s-3.6-.672-3.6-1.5 1.612-1.5 3.6-1.5 3.6.672 3.6 1.5zm48.75 0c0 .828-1.612 1.5-3.6 1.5s-3.6-.672-3.6-1.5 1.612-1.5 3.6-1.5 3.6.672 3.6 1.5z" fill="#ffdaf9" stroke="#ffd9fa"/></g><path d="M30.062 65.882c.054.793-6.397-1.275-14.145-.75S2.055 68.574 2 67.78s6.076-3.733 13.825-4.257 14.182 1.565 14.236 2.358zm-.137 2.492c.2.767-5.146-.26-10.943 1.446s-9.84 5.5-10.048 4.732 3.842-4.584 9.64-6.3 11.144-.655 11.352.112zm54.822-4.834c7.746.57 13.858 3.546 13.8 4.34s-6.154-2.16-13.9-2.73-14.208 1.46-14.15.667 6.504-2.844 14.25-2.274zm-2.775 4.722c5.786 1.74 9.815 5.58 9.602 6.347s-4.234-3.05-10.02-4.792-11.147-.745-10.934-1.5 5.566-1.785 11.353-.045zm-36.647-11.64c0 1.235-.15-4.982-2.412-9.6-1.08-2.202-2.278-4.607-4.845-4.607-3.058 0-3.814 2.658-4.818 5.496l-2.286 8.836c0-1.823-.884-17.937 7.064-17.937s7.296 15.987 7.296 17.8zM63.7 38.256c7.948 0 7.064 16.114 7.064 17.937 0 1.37-.458-6.533-2.92-10.92-.884-1.574-2.205-3.412-4.185-3.412-2.415 0-3.098 1.813-4.18 3.82-2.48 4.603-3.076 11.654-3.076 10.384 0-1.823-.652-17.8 7.296-17.8z" fill="#333"/></svg>