<svg xmlns="http://www.w3.org/2000/svg" xmlns:xlink="http://www.w3.org/1999/xlink" width="100" height="100" xmlns:v="https://vecta.io/nano"><style><![CDATA[.B{stroke-width:2.5}.C{stroke-miterlimit:10}.D{stroke:#d59c31}]]></style><path d="M82.146 14.1c1.38.902.228 20.664-3 26.02-4.852 8.028-24.25-4.75-19.398-12.778 3.238-5.357 21-14.005 22.4-13.243zm-40.092 14c4.53 8.215-15.363 20.2-19.892 11.995-3.022-5.48-3.386-25.274-1.97-26.12 1.427-.706 18.84 8.644 21.863 14.125z" fill="#ffb73a" class="B C D"/><path d="M82.27 14.1c1.38.902.228 20.664-3 26.02-4.852 8.028-9.876.5-5.023-7.528C74.1 25.6 81.883 13.712 82.28 14.1zM27.995 32.592c4.852 8.028-.17 15.555-5.023 7.528-3.238-5.357-4.4-25.12-3-26.02.398-.388 8.17 11.5 8.034 18.493z" fill="#e2a234" class="B C D"/><path d="M16.646 55.596c0-9.55 1.763-18.308 9.144-24.097 6.092-4.78 16.938-7.47 25.62-7.47 7.94 0 18.164 2.23 24.017 6.298 8.3 5.77 10.747 15.045 10.747 25.27 0 17.435-15.564 31.568-34.764 31.568S16.646 73.03 16.646 55.596z" fill="#ffb73a" class="B C D"/><g stroke="#dedede" class="B C"><path d="M86.446 69.54c0 10.6-15.72 19.21-35.11 19.21s-35.11-8.6-35.11-19.21c0-3.826.377-9.112 3.9-12.106 6.247-5.3 18.812-7.105 31.21-7.105 9.7 0 22.26 2.26 28.615 5.74 6.348 3.476 6.496 8.17 6.496 13.47z" fill="#f8f8f8"/><path d="M48.002 50.164c0 7.58-4.552 13.725-10.167 13.725s-10.167-6.145-10.167-13.725S32.22 36.44 37.835 36.44s10.167 6.145 10.167 13.725zm25.666-.334c0 7.58-4.552 13.725-10.167 13.725S53.335 57.4 53.335 49.83s4.552-13.725 10.167-13.725S73.668 42.25 73.668 49.83z" fill="#fff"/></g><g fill="#505050"><path d="M46.3 63.388c-.135-.96 2.74-2.18 4.616-2.18 1.82 0 4.232.736 4.43 1.796.096 1.556.112 1.558-1.353 2.92-.697.55-2.14 1.93-3.002 1.93-1.073 0-3.048-1.187-3.542-1.937-.704-1.248-.98-1.325-1.15-2.528z" stroke="#343434" class="B C"/><use xlink:href="#B"/></g><g fill="#fffbaa" stroke="#fffbaa" class="B C"><use xlink:href="#C"/><use xlink:href="#C" x="48.75"/></g><path d="M30.103 68.596c.032.794-6.36-1.448-14.12-1.134S2.033 70.526 2 69.732s6.175-3.566 13.935-3.88 14.135 1.95 14.167 2.744zm-.205 2.487c.188.772-5.137-.4-10.978 1.148S8.934 77.46 8.746 76.7s3.966-4.478 9.806-6.026 11.157-.352 11.345.42zm54.644-5.23c7.76.314 13.967 3.086 13.935 3.88s-6.222-1.956-13.982-2.27-14.152 1.93-14.12 1.134 6.407-3.058 14.167-2.744zm-2.617 4.81c5.84 1.548 9.994 5.254 9.806 6.026s-4.332-2.9-10.173-4.458-11.166-.376-10.978-1.148 5.504-1.968 11.345-.42z" fill="#333"/><path d="M63.38 80.6c-5.226 2.3-7.73 3.045-12.737 2.012-.216-.76-1.737-.74-2.18-1.377-2.83-4.05 19.303-8.894 18.06-4.283-.8 2.967-3.142 3.648-3.142 3.648z" fill="#b93232"/><g class="B C"><use xlink:href="#B" x="0.125" fill="none" stroke="#343434"/><path d="M19.373 48.76c1.163-2.385 8.35-4.322 8.85-4.475 1.853-2.122.853-9.04 3.123-9.622 2.06-.528 5.17 6.246 7.137 6.594 2.106-.15 10.228-2.534 10.285-.238.056 2.27-8.794 6.037-6.922 7.98 4.944 5.128 6.128 8.452 5.068 10.27-1.643 1.63-8.878-4.264-10.73-3.667-1.593.514-6.952 8.896-8.154 8.26-1.055-1.5-.577-6.606.264-10.884.366-1.86-9.482-2.593-8.742-4.1zm62.342.107c.74 1.518-9.108 2.25-8.742 4.1.84 4.278 1.32 9.373.264 10.884-1.203.637-6.56-7.745-8.154-8.26-1.853-.598-9.087 5.295-10.73 3.667-1.06-1.82.124-5.143 5.068-10.27 1.872-1.942-6.978-5.708-6.922-7.98.056-2.296 8.18.1 10.285.238 1.966-.348 5.077-7.122 7.137-6.594 2.27.582 1.27 7.5 3.123 9.622.5.153 7.688 2.1 8.85 4.475z" fill="#fff97b" stroke="#d7cf67"/></g><defs ><path id="B" d="M67.18 73.21c1.006 3.532-2.825 7.83-8.3 9.506s-10.73.17-11.737-3.363c-.337-1.18-1.7-3.796-1.554-4.47.294-1.348 6.003-3.845 9.647-4.96 2.135-.653 9.45-2.676 10.407-2.02.562.386 1.385 2.488 1.538 5.305z"/><path id="C" d="M29.463 63.233c0 .828-1.612 1.5-3.6 1.5s-3.6-.672-3.6-1.5 1.612-1.5 3.6-1.5 3.6.672 3.6 1.5z"/></defs></svg>