<?xml version="1.0" encoding="UTF-8"?>
<svg xmlns="http://www.w3.org/2000/svg" xmlns:xlink="http://www.w3.org/1999/xlink" width="17pt" height="19pt" viewBox="0 0 17 19" version="1.1">
<g id="surface1">
<path style="fill-rule:nonzero;fill:rgb(100%,78.823529%,24.313725%);fill-opacity:1;stroke-width:7;stroke-linecap:butt;stroke-linejoin:miter;stroke:rgb(37.647059%,21.960784%,7.45098%);stroke-opacity:1;stroke-miterlimit:4;" d="M 75.197834 146.322664 C 75.197834 144.273624 75.774863 141.306049 78.965491 140.634812 C 83.58172 139.680948 88.842862 144.344281 90.268462 145.722084 C 90.166634 146.252008 91.965605 157.274431 91.965605 158.228294 C 91.965605 161.478496 91.083091 161.584481 90.777605 161.655137 C 87.62092 162.114405 79.203091 153.282335 75.333606 148.124407 C 75.299663 147.84178 75.197834 147.2412 75.197834 146.322664 Z M 75.197834 146.322664 " transform="matrix(0.115083,0,0,0.11057,-0.0954082,0.575)"/>
<path style="fill-rule:nonzero;fill:rgb(100%,78.823529%,24.313725%);fill-opacity:1;stroke-width:7;stroke-linecap:butt;stroke-linejoin:miter;stroke:rgb(37.647059%,21.960784%,7.45098%);stroke-opacity:1;stroke-miterlimit:4;" d="M 62.43532 161.761122 C 60.127206 159.288143 59.821721 152.57577 59.821721 149.714179 C 59.821721 148.477689 59.889606 147.700467 59.889606 147.665139 L 59.889606 147.594482 C 59.889606 147.594482 59.889606 147.347184 59.889606 147.2412 C 59.889606 141.871301 64.845263 139.998903 65.693835 139.716276 C 68.545035 139.751605 73.500691 141.094079 74.688691 143.143119 C 74.824463 143.355089 74.926291 143.602387 74.926291 143.95567 C 74.926291 144.238296 74.824463 144.591579 74.586863 145.015518 C 74.485034 145.227488 72.448463 150.032134 70.717377 153.741603 L 69.495434 157.133118 C 68.545035 160.136021 67.119435 163.103597 65.52412 163.103597 C 64.268235 163.103597 63.283892 162.679657 62.43532 161.761122 Z M 62.43532 161.761122 " transform="matrix(0.115083,0,0,0.11057,-0.0954082,0.575)"/>
<path style="fill-rule:nonzero;fill:rgb(100%,78.823529%,24.313725%);fill-opacity:1;stroke-width:7;stroke-linecap:butt;stroke-linejoin:miter;stroke:rgb(37.647059%,21.960784%,7.45098%);stroke-opacity:1;stroke-miterlimit:4;" d="M 127.096461 122.723374 L 124.856233 118.801935 C 122.412347 114.562542 119.59509 110.676431 117.117261 107.249588 C 113.89269 102.833553 111.109376 98.240877 110.192919 95.026004 C 109.887433 93.860171 110.023204 92.764994 110.498404 92.129085 C 110.56629 91.987772 111.04149 91.705146 111.380919 91.634489 C 115.488004 90.751282 132.425489 100.501887 136.668346 105.695144 C 142.845946 113.326052 145.323775 123.995192 143.96606 129.400419 C 143.389032 131.590772 142.133146 133.145216 140.266289 133.88711 C 135.582175 135.794837 132.493375 132.367994 127.096461 122.723374 Z M 127.096461 122.723374 " transform="matrix(0.115083,0,0,0.11057,-0.0954082,0.575)"/>
<path style="fill-rule:nonzero;fill:rgb(100%,78.823529%,24.313725%);fill-opacity:1;stroke-width:7;stroke-linecap:round;stroke-linejoin:round;stroke:rgb(37.647059%,21.960784%,7.45098%);stroke-opacity:1;stroke-miterlimit:4;" d="M 60.330863 47.615454 C 66.372692 44.329924 60.161149 32.035683 54.119321 20.130053 C 50.860807 13.594322 44.988693 2.607227 46.889492 1.582707 C 50.589264 -0.431005 68.171663 20.342023 75.299663 28.714825 L 82.563434 36.981642 C 82.563434 36.981642 87.790634 43.37606 91.761948 47.580126 C 91.829834 47.650782 95.597491 47.050201 98.177148 44.895176 C 100.315548 43.128763 100.010062 41.150379 100.688919 36.981642 C 101.299891 33.166188 101.978748 26.277174 104.049262 26.241845 C 107.138062 26.171189 109.14069 38.924697 109.955319 43.623358 L 110.396576 46.131666 C 111.414862 51.748863 116.845719 68.600451 117.049376 69.342345 C 117.151204 69.518987 117.253033 69.730956 117.253033 69.730956 L 117.286976 69.836941 L 117.354861 69.907598 C 125.704804 80.258783 131.916347 92.835651 131.916347 104.599967 C 131.916347 129.506404 110.09109 147.064558 80.832348 147.064558 C 75.401491 147.064558 70.106406 146.287336 65.082863 144.803548 L 64.81132 144.732892 C 64.81132 144.732892 56.902635 144.061655 46.787664 157.380416 C 44.751093 160.030037 44.920807 162.538344 42.069607 161.761122 C 41.119207 161.513824 40.406407 160.807259 39.829378 159.535441 C 38.471664 156.497209 39.48995 149.29024 41.15315 144.697564 L 41.424693 143.990998 L 40.813721 143.496402 C 40.644007 143.390417 24.249608 131.414131 22.586408 114.279916 C 21.160808 99.371382 28.696122 90.857267 31.818864 86.158606 L 33.617836 83.191031 C 35.892007 77.644491 31.615207 69.978254 27.84755 63.195225 C 25.607322 59.132473 21.975436 53.23265 22.790065 51.854847 C 23.706522 50.300403 26.931093 51.960832 30.22355 53.515276 C 32.905036 54.787094 35.45075 56.588837 37.249721 55.387675 C 39.082636 54.151185 37.894636 51.077625 36.197493 46.767575 C 34.602179 42.77548 31.615207 36.381061 32.769264 33.766769 C 33.07475 33.060203 33.651779 32.530279 34.466407 32.212324 C 37.521264 31.046491 41.899893 36.20442 45.42995 40.231844 C 49.774635 45.142474 54.662406 50.724342 60.330863 47.615454 Z M 60.330863 47.615454 " transform="matrix(0.115083,0,0,0.11057,-0.0954082,0.575)"/>
<path style=" stroke:none;fill-rule:nonzero;fill:rgb(100%,100%,100%);fill-opacity:1;" d="M 7.421875 12.339844 C 7.421875 12.839844 7.839844 13.242188 8.359375 13.242188 C 8.875 13.242188 9.296875 12.839844 9.296875 12.339844 C 9.296875 11.84375 8.875 11.441406 8.359375 11.441406 C 7.839844 11.441406 7.421875 11.84375 7.421875 12.339844 Z M 7.421875 12.339844 "/>
<path style=" stroke:none;fill-rule:nonzero;fill:rgb(37.647059%,21.960784%,7.45098%);fill-opacity:1;" d="M 8.484375 11.683594 C 8.667969 11.683594 8.832031 11.753906 8.949219 11.871094 C 9.070312 11.984375 9.144531 12.140625 9.144531 12.316406 C 9.144531 12.492188 9.070312 12.652344 8.949219 12.765625 C 8.832031 12.878906 8.667969 12.949219 8.484375 12.949219 C 8.300781 12.949219 8.136719 12.878906 8.019531 12.765625 C 7.898438 12.652344 7.824219 12.492188 7.824219 12.316406 C 7.824219 12.140625 7.898438 11.984375 8.019531 11.871094 C 8.136719 11.753906 8.300781 11.683594 8.484375 11.683594 Z M 8.484375 11.683594 "/>
<path style=" stroke:none;fill-rule:nonzero;fill:rgb(100%,100%,100%);fill-opacity:1;" d="M 11.9375 12.339844 C 11.9375 12.839844 12.355469 13.242188 12.875 13.242188 C 13.390625 13.242188 13.808594 12.839844 13.808594 12.339844 C 13.808594 11.84375 13.390625 11.441406 12.875 11.441406 C 12.355469 11.441406 11.9375 11.84375 11.9375 12.339844 Z M 11.9375 12.339844 "/>
<path style=" stroke:none;fill-rule:nonzero;fill:rgb(37.647059%,21.960784%,7.45098%);fill-opacity:1;" d="M 12.339844 12.316406 C 12.339844 12.667969 12.632812 12.949219 13 12.949219 C 13.363281 12.949219 13.660156 12.667969 13.660156 12.316406 C 13.660156 11.96875 13.363281 11.683594 13 11.683594 C 12.632812 11.683594 12.339844 11.96875 12.339844 12.316406 Z M 12.339844 12.316406 "/>
<path style="fill-rule:nonzero;fill:rgb(100%,78.823529%,24.313725%);fill-opacity:1;stroke-width:7;stroke-linecap:butt;stroke-linejoin:miter;stroke:rgb(37.647059%,21.960784%,7.45098%);stroke-opacity:1;stroke-miterlimit:4;" d="M 9.145037 137.843878 C 7.481837 136.784029 6.531437 135.017615 6.361722 132.756605 C 5.988351 127.210066 10.400922 117.141506 17.868351 110.782416 C 22.993722 106.472366 41.424693 100.007291 45.294178 101.597064 C 45.599664 101.738377 46.040921 102.09166 46.040921 102.268301 C 46.414292 102.939538 46.38035 104.070043 45.837264 105.129892 C 44.343778 108.132795 40.745836 112.124891 36.808464 115.869688 C 33.753607 118.801935 30.257493 122.122794 27.066865 125.832263 L 24.181722 129.294434 C 17.087665 137.773221 13.421836 140.599483 9.145037 137.843878 Z M 9.145037 137.843878 " transform="matrix(0.115083,0,0,0.11057,-0.0954082,0.575)"/>
<path style="fill:none;stroke-width:4;stroke-linecap:round;stroke-linejoin:round;stroke:rgb(37.647059%,21.960784%,7.45098%);stroke-opacity:1;stroke-miterlimit:4;" d="M 100.722862 132.05004 C 100.722862 132.05004 93.289377 132.05004 88.130062 127.598677 " transform="matrix(0.115083,0,0,0.11057,-0.0954082,0.575)"/>
</g>
</svg>
