<svg xmlns="http://www.w3.org/2000/svg" width="22.667" height="25.333" viewBox="0 0 17 19"><style>.B{fill:#ffc93e}.C{stroke:#603813}.D{stroke-linecap:round}.E{stroke-linejoin:round}.F{fill:#fff}.G{fill:#603813}</style><g stroke-width=".79" class="B C"><path d="M8.559 16.754c0-.227.066-.555.434-.629.531-.105 1.137.41 1.301.562-.012.059.195 1.277.195 1.383 0 .359-.102.371-.137.379-.363.051-1.332-.926-1.777-1.496-.004-.031-.016-.098-.016-.199zM7.09 18.461c-.266-.273-.301-1.016-.301-1.332l.008-.227v-.047c0-.594.57-.801.668-.832.328.004.898.152 1.035.379a.15.15 0 0 1 .027.09c0 .031-.012.07-.039.117l-.445.965-.141.375c-.109.332-.273.66-.457.66a.46.46 0 0 1-.355-.148zm7.441-4.316-.258-.434c-.281-.469-.605-.898-.891-1.277-.371-.488-.691-.996-.797-1.352-.035-.129-.02-.25.035-.32.008-.016.062-.047.102-.055.473-.098 2.422.98 2.91 1.555.711.844.996 2.023.84 2.621-.066.242-.211.414-.426.496-.539.211-.895-.168-1.516-1.234zm0 0"/><path d="M6.848 5.84c.695-.363-.02-1.723-.715-3.039C5.758 2.078 5.082.863 5.301.75c.426-.223 2.449 2.074 3.27 3l.836.914 1.059 1.172a1.58 1.58 0 0 0 .738-.297c.246-.195.211-.414.289-.875.07-.422.148-1.184.387-1.187.355-.008.586 1.402.68 1.922l.051.277c.117.621.742 2.484.766 2.566l.023.043.004.012.008.008c.961 1.145 1.676 2.535 1.676 3.836 0 2.754-2.512 4.695-5.879 4.695a6.635 6.635 0 0 1-1.812-.25l-.031-.008s-.91-.074-2.074 1.398c-.234.293-.215.57-.543.484-.109-.027-.191-.105-.258-.246-.156-.336-.039-1.133.152-1.641l.031-.078-.07-.055c-.02-.012-1.906-1.336-2.098-3.23-.164-1.648.703-2.59 1.062-3.109l.207-.328c.262-.613-.23-1.461-.664-2.211-.258-.449-.676-1.102-.582-1.254.105-.172.477.012.855.184.309.141.602.34.809.207s.074-.477-.121-.953c-.184-.441-.527-1.148-.395-1.437a.33.33 0 0 1 .195-.172c.352-.129.855.441 1.262.887.5.543 1.062 1.16 1.715.816zm0 0" class="D E"/></g><path d="M7.422 12.34c0 .5.418.902.938.902s.938-.402.938-.902-.422-.898-.937-.898-.937.402-.937.898zm0 0" class="F"/><path d="M8.484 11.684a.65.65 0 0 1 .465.188c.121.113.195.27.195.445s-.074.336-.195.449-.281.184-.465.184-.348-.07-.465-.184-.195-.273-.195-.449.074-.332.195-.445a.65.65 0 0 1 .465-.187zm0 0" class="G"/><path d="M11.938 12.34c0 .5.418.902.938.902s.934-.402.934-.902-.418-.898-.934-.898-.937.402-.937.898zm0 0" class="F"/><path d="M12.34 12.316c0 .352.293.633.66.633s.66-.281.66-.633-.297-.633-.66-.633-.66.285-.66.633zm0 0" class="G"/><g class="C"><path d="M.957 15.816c-.191-.117-.301-.312-.32-.562-.043-.613.465-1.727 1.324-2.43.59-.477 2.711-1.191 3.156-1.016.035.016.086.055.086.074.043.074.039.199-.023.316-.172.332-.586.773-1.039 1.187L3.02 14.488l-.332.383c-.816.937-1.238 1.25-1.73.945zm0 0" stroke-width=".79" class="B"/><path d="M11.496 15.176s-.855 0-1.449-.492" fill="none" stroke-width=".451" class="D E"/></g></svg>