<svg xmlns="http://www.w3.org/2000/svg" width="100" height="100" xmlns:v="https://vecta.io/nano"><style><![CDATA[.B{stroke-width:2.5}.C{stroke-miterlimit:10}.D{stroke:#d59c31}]]></style><path d="M84.464 12.734c1.2 1.12-3.22 20.413-7.306 25.155-6.123 7.106-23.12-8.726-16.997-15.833 4.085-4.742 23.052-10.307 24.303-9.322zm-42.584 9.85c5.977 7.23-11.337 22.714-17.314 15.485-4-4.824-8.028-24.203-6.795-25.297 1.27-.96 20.12 4.988 24.1 9.812z" fill="#ffb73a" class="B C D"/><path d="M84.587 12.755c1.2 1.12-3.22 20.413-7.306 25.155-6.123 7.106-9.82-1.153-3.698-8.26 1.03-6.907 10.676-17.343 11.004-16.895zM28.902 29.623c6.26 6.985 2.725 15.316-3.536 8.33-4.178-4.66-8.986-23.864-7.797-25.007.32-.455 10.17 9.8 11.333 16.676z" fill="#e2a234" class="B C D"/><path d="M16.646 51.74c0-9.55 1.763-18.308 9.144-24.097 6.092-4.78 16.938-7.47 25.62-7.47 7.94 0 18.164 2.23 24.017 6.298 8.3 5.77 10.747 15.045 10.747 25.27 0 17.435-15.564 31.568-34.764 31.568S16.646 69.174 16.646 51.74z" fill="#ffb73a" class="B C D"/><g stroke="#dedede" class="B C"><path d="M86.875 66.682c0 11.083-15.912 20.068-35.54 20.068s-35.54-8.985-35.54-20.068c0-3.996.382-9.52 3.948-12.646 6.323-5.547 19.042-7.422 31.592-7.422 9.82 0 22.532 2.36 28.964 5.996 6.426 3.63 6.576 8.534 6.576 14.072z" fill="#f8f8f8"/><path d="M48.002 46.216c0 7.58-4.552 13.725-10.167 13.725s-10.167-6.145-10.167-13.725S32.22 32.5 37.835 32.5s10.167 6.145 10.167 13.725zm25.666-.176c0 7.58-4.552 13.725-10.167 13.725S53.335 53.62 53.335 46.04s4.552-13.725 10.167-13.725S73.668 38.46 73.668 46.04z" fill="#fff"/></g><path d="M46.3 59.53c-.135-.96 2.74-2.18 4.616-2.18 1.82 0 4.232.736 4.43 1.796.096 1.556.112 1.558-1.353 2.92-.697.55-2.14 1.93-3.002 1.93-1.073 0-3.048-1.187-3.542-1.937-.704-1.248-.98-1.325-1.15-2.528z" fill="#505050" stroke="#343434" class="B C"/><path d="M29.463 59.377c0 .828-1.612 1.5-3.6 1.5s-3.6-.672-3.6-1.5 1.612-1.5 3.6-1.5 3.6.672 3.6 1.5zm48.75 0c0 .828-1.612 1.5-3.6 1.5s-3.6-.672-3.6-1.5 1.612-1.5 3.6-1.5 3.6.672 3.6 1.5z" fill="#ffdaf9" stroke="#ffd9fa" class="B C"/><path d="M30.103 64.74c.032.794-6.36-1.448-14.12-1.134S2.033 66.67 2 65.875s6.175-3.566 13.935-3.88 14.135 1.95 14.167 2.744zm-.205 2.486c.188.772-5.137-.4-10.978 1.148s-9.986 5.23-10.173 4.458 3.966-4.478 9.806-6.026 11.157-.352 11.345.42zm54.644-5.23c7.76.314 13.967 3.086 13.935 3.88s-6.222-1.956-13.982-2.27-14.152 1.93-14.12 1.134 6.407-3.058 14.167-2.744zm-2.617 4.81c5.84 1.548 9.994 5.254 9.806 6.026s-4.332-2.9-10.173-4.458-11.166-.376-10.978-1.148 5.504-1.968 11.345-.42z" fill="#333"/><path d="M69.542 75.53c-.192 5.37-8.972 9.546-19.126 9.312S32.188 80.067 32.38 74.695c.064-1.797-1.845-9.415-1.236-10.28 1.22-1.733 12.838 2.43 19.595 2.584 3.958.09 17.85-4.162 19.114-2.805.743.798.94 7.357-.31 11.337z" fill="#505050"/><path d="M59.16 83.996c-10.066.75-14.7.614-22.607-3.157.04-1.154-2.396-.696-2.806-1.786-2.613-6.943 37.68-6.753 35.108-.222-2.942 3.743-9.694 5.165-9.694 5.165z" fill="#b93232"/><g class="B C"><path d="M69.754 75.59c-.192 5.37-8.972 9.546-19.126 9.312S32.4 80.125 32.592 74.754c.064-1.797-3.176-11.625-2.16-11.784 22.67 6.603 24.892 3.567 40.515-.687 1.603.34.058 9.326-1.193 13.306z" fill="none" stroke="#343434"/><path d="M15.43 63.475c.703-1.125 2.1-2.467 3.816-3.84C24.413 55.5 32.45 51.08 33.01 51.43c.846.528.312 16.945-2.507 21.46s-8.478 6.066-12.64 3.467-5.25-8.366-2.432-12.88z" fill="#50b4ff" stroke="#4399d7"/></g><path d="M49.14 48.08c0 2.2-4.957-2.85-10.867-2.85S27.74 50.3 27.74 48.08s4.707-5.75 10.617-5.75 10.783 3.54 10.783 5.75zm14.097-5.82c5.9 0 10.617 3.54 10.617 5.75s-4.624-2.85-10.533-2.85S52.453 50.22 52.453 48s4.874-5.75 10.783-5.75z" fill="#333"/><path d="M82.378 76.355c-4.162 2.6-9.822 1.047-12.64-3.467s-3.353-20.93-2.507-21.46c.56-.35 8.598 4.07 13.763 8.206 1.715 1.373 3.113 2.715 3.816 3.84 2.82 4.514 1.73 10.28-2.432 12.88z" fill="#50b4ff" stroke="#4399d7" class="B C"/></svg>