<svg version="1.1" xmlns="http://www.w3.org/2000/svg" xmlns:xlink="http://www.w3.org/1999/xlink" width="29" height="21" viewBox="0,0,29,21"><g transform="translate(-226,-170)"><g data-paper-data="{&quot;isPaintingLayer&quot;:true}" fill-rule="evenodd" stroke-miterlimit="10" stroke-dasharray="" stroke-dashoffset="0" style="mix-blend-mode: normal"><g><path d="M242.37175,170.08796c0.10238,-0.06825 0.27301,-0.03413 0.30713,0.10238l0.88727,3.65147c0,0 2.18406,1.60392 2.83245,2.73007c1.09203,1.87692 1.12615,3.41259 1.12615,3.41259c0,0 2.42294,0.71664 2.83245,2.66182c0.40951,1.94517 -1.09203,5.63077 -7.50769,6.89342c-6.41566,1.26266 -11.56867,-0.47776 -13.9916,-4.36811c-2.42294,-3.89035 1.39916,-8.53147 1.19441,-8.25846l-0.71664,-6.10853c-0.03413,-0.1365 0.1365,-0.23888 0.27301,-0.17063l4.12923,2.69594c0,0 1.53566,-0.58014 3.13958,-0.64839c0.95552,-0.06825 1.77455,0 2.55944,0.1365z" fill="#ffab19" stroke="#001026" stroke-width="0.75" stroke-linecap="butt" stroke-linejoin="miter"/><path d="M247.42238,180.12096c0,0 2.35468,0.61427 2.7642,2.55944c0.40951,1.94517 -1.22853,5.46014 -7.57594,6.68867c-8.25846,1.70629 -12.18293,-3.20783 -9.8965,-6.82517c2.28643,-3.65147 6.21091,-0.54601 9.07748,-0.75077c2.45706,-0.17063 2.73007,-2.32056 5.63077,-1.67217z" fill="#ffffff" stroke="none" stroke-width="1" stroke-linecap="butt" stroke-linejoin="miter"/><path d="M236.67273,183.77243c0,-0.1365 0.1365,-0.23888 0.27301,-0.20476c0.64839,0.23888 2.49119,0.78489 4.53874,0.9214c1.8428,0.10238 2.93482,0 3.44671,-0.10238c0.17063,-0.03413 0.30713,0.1365 0.23888,0.30713c-0.30713,0.9214 -1.60392,3.48084 -5.18713,3.27608c-3.10545,-0.34126 -3.41259,-2.52531 -3.31021,-4.19748z" fill="#ffffff" stroke="#001026" stroke-width="0.75" stroke-linecap="round" stroke-linejoin="round"/><path d="M253.70154,180.49634c-1.60392,1.29678 -4.06098,1.33091 -4.06098,1.33091" fill="none" stroke="#001026" stroke-width="0.75" stroke-linecap="round" stroke-linejoin="round"/><path d="M253.2579,184.31844c-2.14993,0.17063 -3.48084,-0.47776 -3.48084,-0.47776" fill="none" stroke="#001026" stroke-width="0.75" stroke-linecap="round" stroke-linejoin="round"/><path d="M241.6551,180.90585c0.71664,0 1.46741,0.06825 1.50154,0.30713c0.03413,0.47776 -0.47776,1.43329 -1.02378,1.46741c-0.61427,0.06825 -2.04755,-0.78489 -2.04755,-1.33091c-0.03413,-0.40951 0.88727,-0.44364 1.56979,-0.44364z" fill="#001026" stroke="#001026" stroke-width="0.75" stroke-linecap="round" stroke-linejoin="round"/><path d="M226.29846,180.39397c0,0 2.93482,0.95552 4.12923,2.01343" fill="none" stroke="#001026" stroke-width="0.75" stroke-linecap="round" stroke-linejoin="round"/><path d="M230.53007,183.6018c-1.46741,0.58014 -3.99273,0.20476 -3.99273,0.20476" fill="none" stroke="#001026" stroke-width="0.75" stroke-linecap="round" stroke-linejoin="round"/><g><path d="M245.68196,176.91313c0.98965,1.53566 1.02378,3.27608 0.06825,3.89035c-0.95552,0.61427 -2.52531,-0.10238 -3.54909,-1.63804c-0.98965,-1.53566 -1.02378,-3.27608 -0.06825,-3.89035c0.95552,-0.64839 2.55944,0.10238 3.54909,1.63804z" fill="#ffffff" stroke="#001026" stroke-width="0.75" stroke-linecap="round" stroke-linejoin="round"/><path d="M245.54545,178.8583c0,0.37538 -0.27301,0.68252 -0.61427,0.68252c-0.34126,0 -0.61427,-0.30713 -0.61427,-0.68252c0,-0.37538 0.27301,-0.68252 0.61427,-0.68252c0.34126,0 0.61427,0.30713 0.61427,0.68252" fill="#001026" stroke="none" stroke-width="1" stroke-linecap="butt" stroke-linejoin="miter"/></g><g><path d="M237.21874,177.86865c1.02378,1.50154 0.95552,3.34433 0.03413,3.99273c-1.12615,0.64839 -2.62769,0.17063 -3.65147,-1.33091c-1.0579,-1.50154 -1.12615,-3.44671 -0.06825,-4.19748c1.0579,-0.78489 2.66182,0.03413 3.68559,1.53566z" fill="#ffffff" stroke="#001026" stroke-width="0.75" stroke-linecap="round" stroke-linejoin="round"/><path d="M237.01399,179.84795c0,0.37538 -0.27301,0.68252 -0.61427,0.68252c-0.34126,0 -0.61427,-0.30713 -0.61427,-0.68252c0,-0.37538 0.27301,-0.68252 0.61427,-0.68252c0.34126,0.03413 0.61427,0.30713 0.61427,0.68252" fill="#001026" stroke="none" stroke-width="1" stroke-linecap="butt" stroke-linejoin="miter"/></g></g></g></g></svg>
