<svg xmlns="http://www.w3.org/2000/svg" width="29" height="21"><style>.B{stroke:#001026}.C{stroke-width:.75}.D{stroke-miterlimit:10}.E{stroke-linejoin:round}.F{fill:#001026}.G{stroke-linecap:round}</style><g fill-rule="evenodd"><path d="M16.372.088c.102-.068.273-.034.307.102l.887 3.651s2.184 1.604 2.832 2.73c1.092 1.877 1.126 3.413 1.126 3.413s2.423.717 2.832 2.662-1.092 5.631-7.508 6.893-11.569-.478-13.992-4.368S4.257 6.64 4.052 6.913L3.336.805c-.034-.137.137-.239.273-.171L7.738 3.33s1.536-.58 3.14-.648c.956-.068 1.775 0 2.559.137z" fill="#ffab19" class="B C D"/><g fill="#fff"><path d="M21.422 10.121s2.355.614 2.764 2.559-1.229 5.46-7.576 6.689c-8.258 1.706-12.183-3.208-9.897-6.825 2.286-3.651 6.211-.546 9.077-.751 2.457-.171 2.73-2.321 5.631-1.672z"/><path d="M10.673 13.772c0-.137.137-.239.273-.205.648.239 2.491.785 4.539.921 1.843.102 2.935 0 3.447-.102.171-.034.307.137.239.307-.307.921-1.604 3.481-5.187 3.276-3.105-.341-3.413-2.525-3.31-4.197z" class="B C D E"/></g><path d="M27.702 10.496c-1.604 1.297-4.061 1.331-4.061 1.331m3.617 2.491c-2.15.171-3.481-.478-3.481-.478" class="B C D E G" fill="none"/><path d="M15.655 10.906c.717 0 1.467.068 1.502.307.034.478-.478 1.433-1.024 1.467-.614.068-2.048-.785-2.048-1.331-.034-.41.887-.444 1.57-.444z" class="B C D E F"/><path d="M.298 10.394s2.935.956 4.129 2.013m.103 1.195c-1.467.58-3.993.205-3.993.205" class="B C D E G" fill="none"/><path d="M19.682 6.913c.99 1.536 1.024 3.276.068 3.89s-2.525-.102-3.549-1.638c-.99-1.536-1.024-3.276-.068-3.89.956-.648 2.559.102 3.549 1.638z" fill="#fff" class="B C D E"/><path d="M19.545 8.858c0 .375-.273.683-.614.683s-.614-.307-.614-.683.273-.683.614-.683.614.307.614.683" class="F"/><path d="M11.219 7.869c1.024 1.502.956 3.344.034 3.993-1.126.648-2.628.171-3.651-1.331-1.058-1.502-1.126-3.447-.068-4.197 1.058-.785 2.662.034 3.686 1.536z" fill="#fff" class="B C D E"/><path d="M11.014 9.848c0 .375-.273.683-.614.683s-.614-.307-.614-.683.273-.683.614-.683a.673.673 0 0 1 .614.683" class="F"/></g></svg>