<svg xmlns="http://www.w3.org/2000/svg" xmlns:xlink="http://www.w3.org/1999/xlink" width="100" height="100" xmlns:v="https://vecta.io/nano"><style><![CDATA[.B{stroke-width:2.5}.C{stroke-miterlimit:10}.D{stroke:#343434}.E{stroke:#d59c31}]]></style><defs><linearGradient x1="240.389" y1="195.925" x2="241.52" y2="205.036" gradientUnits="userSpaceOnUse" id="A"><stop offset="0"/><stop offset="1" stop-opacity="0"/></linearGradient><path id="B" d="M36.926 38.42a3.85 3.85 0 0 1 3.849-3.849 3.85 3.85 0 0 1 3.849 3.849 3.85 3.85 0 0 1-3.849 3.849 3.85 3.85 0 0 1-3.849-3.849z"/><path id="C" d="M44.167 64.513c0-1.995 1.946-3.612 4.346-3.612s4.346 1.617 4.346 3.612-1.946 3.612-4.346 3.612-4.346-1.617-4.346-3.612z"/></defs><path d="M77.223 3c1.524.63 4.074 20.26 1.9 26.126-3.27 8.8-24.7-.148-21.44-8.94C59.858 14.32 75.708 2.5 77.223 3zm-35.94 17.093c3.578 8.67-17.535 18.357-21.113 9.686-2.388-5.786-.528-25.494.973-26.176 1.497-.542 17.752 10.704 20.14 16.5z" fill="#ffb73a" class="B C E"/><path d="M77.346 2.975c1.524.63 4.074 20.26 1.9 26.126-3.27 8.8-9.6 2.332-6.338-6.46-1.436-6.834 3.984-19.973 4.447-19.666zM26.808 23c3.92 8.522-1.916 15.438-5.837 6.916-2.616-5.686-1.544-25.453-.07-26.194.44-.34 6.827 12.355 5.907 19.278z" fill="#e2a234" class="B C E"/><path d="M15.46 46.078c0-9.507 1.763-18.225 9.144-23.988 6.092-4.757 16.938-7.438 25.62-7.438 7.94 0 18.164 2.22 24.017 6.27 8.3 5.743 10.747 14.977 10.747 25.156 0 17.356-15.564 31.425-34.764 31.425S15.46 63.434 15.46 46.078z" fill="#ffb73a" class="B C E"/><g stroke="#dedede" class="B C"><path d="M85.883 60.307c0 11.636-15.976 21.068-35.683 21.068s-35.683-9.433-35.683-21.068c0-4.196.383-9.993 3.963-13.277C24.83 41.207 37.6 39.24 50.2 39.24c9.858 0 22.622 2.48 29.08 6.295 6.45 3.812 6.602 8.96 6.602 14.774z" fill="#f8f8f8"/><path d="M46.815 37.86c0 4.617-.364 9.767-2.95 9.585-1.698-.12-4.466-.527-6.66-.527-2.436 0-4.082.124-7.713.92-2.8.614-3-5.688-3-9.98 0-7.58 4.552-13.725 10.167-13.725S46.815 30.28 46.815 37.86zm25.665-.266c0 3.785-.496 8.326-2.36 9.7-3.077-.508-4.7-.888-7.808-.64-2.796.222-5.547.944-7.56 1.376-1.954-1.347-2.607-6.48-2.607-10.434 0-7.58 4.552-13.725 10.167-13.725S72.48 30.014 72.48 37.594z" fill="#fff"/></g><g class="D B C"><path d="M45.114 49.37c-.135-.96 2.74-2.18 4.616-2.18 1.82 0 4.232.736 4.43 1.796.096 1.556.112 1.558-1.353 2.92-.697.55-2.14 1.93-3.002 1.93-1.073 0-3.048-1.187-3.542-1.937-.704-1.248-.98-1.325-1.15-2.528z" fill="#505050"/><use xlink:href="#B" fill="#333"/></g><path d="M28.276 52.43c0 .828-1.612 1.5-3.6 1.5s-3.6-.672-3.6-1.5 1.612-1.5 3.6-1.5 3.6.672 3.6 1.5zm48.75 0c0 .828-1.612 1.5-3.6 1.5s-3.6-.672-3.6-1.5 1.612-1.5 3.6-1.5 3.6.672 3.6 1.5z" fill="#ffdaf9" stroke="#ffd9fa" class="B C"/><g fill="#333"><path d="M28.103 57.585c-.032.794-6.223-1.955-13.983-2.267S-.032 57.25 0 56.456s6.442-3.058 14.202-2.746 13.932 3.08 13.9 3.875zm-.405 2.462c.125.785-5.1-.812-11.035.26s-10.374 4.4-10.5 3.625 4.313-4.144 10.26-5.217 11.15.547 11.274 1.33zm57.134-7.325c7.647-1.36 14.304.017 14.443.8s-6.497-.576-14.144.784-13.408 4.92-13.547 4.138 5.6-4.362 13.248-5.72zm-1.524 5.26c6.037.258 10.9 2.986 10.87 3.78s-4.856-1.912-10.893-2.17-10.986 2.03-10.97 1.235 4.954-3.103 11-2.845z"/><use xlink:href="#B" x="16.714" class="B C D"/></g><path d="M66.703 64.574c.427 5.588-6.582 10.824-15.243 11.632s-16.028-3.066-16.455-8.654c-.143-1.87-1.38-6.197-.958-7.158.846-1.922 10.103-3.886 15.867-4.425 3.377-.315 14.884-1.073 16.108.203.72.75 1.307 4.145.68 8.4z" fill="#505050"/><g class="B C"><path d="M66.863 64.608c.46 5.595-6.672 10.805-15.51 11.577s-16.372-3.137-16.83-8.732c-.154-1.87-1.468-6.65-1.04-7.61.856-1.92 10.328-3.403 16.21-3.917 3.445-.3 15.186-1.01 16.44.272.738.754 1.35 4.154.73 8.41z" fill="none" class="D"/><path d="M29.494 83.144l17.163-25.493c.732-1.088 3.48-1.38 3.48-1.38s2.222-.598 3.3.894l18.592 26.08z" fill="#ffce54" stroke="#d7b047"/><path d="M34.24 59.106l1.527-.63c.658-.266 1.016-.39 1.72-.53 5.05-.995 6.995-1.582 12.13-1.94 4.38-.306 9.998-.7 12.372-.547 1.245.08 2.195-.018 3.334.368.55.187.95.787 1.206 1.382a6.54 6.54 0 0 1 .355 1.113" fill="none" stroke-linecap="round" class="D"/></g><use xlink:href="#C" fill="#ff4f4f"/><path d="M226.025 203.516l-.267-2.117-.3-2.32s1.85-1.26 5.445-1.72l9.252-1.277c3.224-.3 10.428-.64 11.515-.716.943-.066 4.28.35 4.28.35s.585.444.76 1.406c.418 2.3.056 6.022.056 6.022s-3.103 1.215-13.907 1.323c-9.892.1-16.835-.952-16.835-.952z" fill="url(#A)" transform="translate(-190.948 -138.894)"/><path d="M73.86 87.606c-.615 1.163-6.318 5.273-24.27 5.142-17.566-.13-21.346-4.254-21.808-5.417-.2-.5 1.305-5.963 2.146-6.442 1.164-1.484 5.877 1.834 19.97 2.13 11.25.237 19.587-3.3 20.85-2.258 2.07.687 3.52 6.075 3.112 6.845z" fill="#fff1c6" stroke="#d7cca7" class="B C"/><g fill="#ff4f4f"><use xlink:href="#C" x="7.933" y="7.154"/><use xlink:href="#C" x="-5.923" y="12.307"/></g></svg>