<svg xmlns="http://www.w3.org/2000/svg" xmlns:xlink="http://www.w3.org/1999/xlink" width="100" height="100" xmlns:v="https://vecta.io/nano"><style><![CDATA[.B{stroke-width:2.5}.C{stroke-miterlimit:10}.D{stroke:#343434}.E{stroke:#d59c31}]]></style><defs><linearGradient x1="240.389" y1="195.925" x2="241.52" y2="205.036" gradientUnits="userSpaceOnUse" id="A"><stop offset="0"/><stop offset="1" stop-opacity="0"/></linearGradient><path id="B" d="M36.926 38.783a3.85 3.85 0 0 1 3.849-3.849 3.85 3.85 0 0 1 3.849 3.849 3.85 3.85 0 0 1-3.849 3.849 3.85 3.85 0 0 1-3.849-3.849z"/><path id="C" d="M28.276 52.794c0 .828-1.612 1.5-3.6 1.5s-3.6-.672-3.6-1.5 1.612-1.5 3.6-1.5 3.6.672 3.6 1.5z"/></defs><path d="M77.223 3.363c1.524.63 4.074 20.26 1.9 26.126-3.27 8.8-24.7-.148-21.44-8.94C59.856 14.683 75.706 2.874 77.22 3.362zm-35.94 17.094c3.578 8.67-17.535 18.357-21.113 9.686-2.388-5.786-.528-25.494.973-26.176 1.497-.542 17.752 10.704 20.14 16.5z" fill="#ffb73a" class="B C E"/><path d="M77.346 3.34c1.524.63 4.074 20.26 1.9 26.126-3.27 8.8-9.6 2.332-6.338-6.46-1.436-6.834 3.984-19.973 4.447-19.666zM26.808 23.354c3.92 8.522-1.916 15.438-5.837 6.916-2.616-5.686-1.544-25.453-.07-26.194.44-.34 6.827 12.355 5.907 19.278z" fill="#e2a234" class="B C E"/><path d="M15.46 46.442c0-9.507 1.763-18.225 9.144-23.988 6.092-4.757 16.938-7.438 25.62-7.438 7.94 0 18.164 2.22 24.017 6.27 8.3 5.743 10.747 14.977 10.747 25.156 0 17.356-15.564 31.425-34.764 31.425S15.46 63.798 15.46 46.442z" fill="#ffb73a" class="B C E"/><g stroke="#dedede" class="B C"><path d="M85.883 60.67c0 11.636-15.976 21.068-35.683 21.068S14.518 72.307 14.518 60.67c0-4.196.383-9.993 3.963-13.277 6.35-5.823 19.118-7.792 31.72-7.792 9.858 0 22.622 2.48 29.08 6.295 6.45 3.812 6.602 8.96 6.602 14.774z" fill="#f8f8f8"/><path d="M46.815 38.225c0 4.617-.364 9.767-2.95 9.585-1.698-.12-4.466-.527-6.66-.527-2.436 0-4.082.124-7.713.92-2.8.614-3-5.688-3-9.98 0-7.58 4.552-13.725 10.167-13.725s10.167 6.145 10.167 13.725zm25.665-.267c0 3.785-.496 8.326-2.36 9.7-3.077-.508-4.7-.888-7.808-.64-2.796.222-5.547.944-7.56 1.376-1.954-1.347-2.607-6.48-2.607-10.434 0-7.58 4.552-13.725 10.167-13.725S72.48 30.378 72.48 37.958z" fill="#fff"/></g><g class="D B C"><path d="M45.114 49.734c-.135-.96 2.74-2.18 4.616-2.18 1.82 0 4.232.736 4.43 1.796.096 1.556.112 1.558-1.353 2.92-.697.55-2.14 1.93-3.002 1.93-1.073 0-3.048-1.187-3.542-1.937-.704-1.248-.98-1.325-1.15-2.528z" fill="#505050"/><use xlink:href="#B" fill="#333"/></g><g fill="#ffdaf9" stroke="#ffd9fa" class="B C"><use xlink:href="#C"/><use xlink:href="#C" x="48.75"/></g><g fill="#333"><path d="M28.103 57.95c-.032.794-6.223-1.955-13.983-2.267S-.032 57.614 0 56.82s6.442-3.058 14.202-2.746 13.932 3.08 13.9 3.875zm-.405 2.46c.125.785-5.1-.812-11.035.26s-10.374 4.4-10.5 3.625 4.313-4.144 10.26-5.217 11.15.547 11.274 1.33zm57.134-7.324c7.647-1.36 14.304.017 14.443.8s-6.497-.576-14.144.784-13.408 4.92-13.547 4.138 5.6-4.362 13.248-5.72zm-1.524 5.26c6.037.258 10.9 2.986 10.87 3.78s-4.856-1.912-10.893-2.17-10.986 2.03-10.97 1.235 4.954-3.103 11-2.845z"/><use xlink:href="#B" x="16.714" class="B C D"/></g><path d="M66.703 64.938c.427 5.588-6.582 10.824-15.243 11.632s-16.028-3.066-16.455-8.654c-.143-1.87-1.38-6.197-.958-7.158.846-1.922 10.103-3.886 15.867-4.425 3.377-.315 14.884-1.073 16.108.203.72.75 1.307 4.145.68 8.4z" fill="#505050"/><path d="M66.863 64.972c.46 5.595-6.672 10.805-15.51 11.577s-16.372-3.137-16.83-8.732c-.154-1.87-1.468-6.65-1.04-7.61.856-1.92 10.328-3.403 16.21-3.917 3.445-.3 15.186-1.01 16.44.272.738.754 1.35 4.154.73 8.41z" fill="none" class="B C D"/><path d="M43.908 79.174c.407 4.31-3.527 9.573-3.995 13.962-.448 4.2 2.57 7.614 1.78 10.11-.442 1.398-1.078 2.053-1.72 2.36-.582.28-1.17.27-1.62.27-1.683 0-4.028-7.417-3.56-14.05.35-4.952 4.522-7.345 4.005-12.377-.667-6.494-4.526-7.77-3.92-13.442.59-5.518 4.813-9.24 6.252-9.24 1.025 0 2.658.595 2.13 3.068-.38 1.776-2.678 3.75-2.967 7.2-.402 4.805 3.17 7.43 3.615 12.136z" fill="#f66"/><path d="M48.422 79.077c.407 4.332-3.527 9.62-3.995 14.03-.448 4.22 2.57 7.65 1.78 10.16-.844 2.678-2.39 2.645-3.34 2.645-1.683 0-4.028-7.453-3.56-14.118.35-4.976 4.522-7.38 4.005-12.436-.667-6.525-4.526-7.806-3.92-13.506.59-5.544 4.813-9.284 6.252-9.284 1.025 0 2.658.598 2.13 3.082-.38 1.784-2.678 3.768-2.967 7.235-.402 4.828 3.17 7.467 3.615 12.195z" fill="#ffc066"/><path d="M53.022 78.704c.407 4.353-3.527 9.665-3.995 14.096-.448 4.24 2.57 7.688 1.78 10.208-.844 2.69-2.39 2.658-3.34 2.658-1.683 0-4.028-7.49-3.56-14.185.35-5 4.522-7.415 4.005-12.496-.667-6.557-4.526-7.844-3.92-13.57.59-5.57 4.813-9.33 6.252-9.33 1.025 0 2.658.6 2.13 3.097-.38 1.793-2.678 3.786-2.967 7.27-.402 4.852 3.17 7.503 3.615 12.253z" fill="#fff166"/><path d="M57.308 78.576c.407 4.374-3.527 9.71-3.995 14.163-.448 4.26 2.57 7.724 1.78 10.256-.844 2.704-2.39 2.67-3.34 2.67-1.683 0-4.028-7.524-3.56-14.253.35-5.024 4.522-7.45 4.005-12.555-.667-6.588-4.526-7.88-3.92-13.636.59-5.597 4.813-9.373 6.252-9.373 1.025 0 2.658.604 2.13 3.112-.38 1.8-2.678 3.804-2.967 7.304-.402 4.875 3.17 7.538 3.615 12.31z" fill="#80ff66"/><path d="M61.85 78.397c.407 4.457-3.527 9.895-3.995 14.432-.448 4.34 2.57 7.87 1.78 10.45-.844 2.755-2.39 2.72-3.34 2.72-1.683 0-4.028-7.667-3.56-14.523.35-5.12 4.522-7.592 4.005-12.793-.667-6.713-4.526-8.03-3.92-13.894.59-5.704 4.813-9.55 6.252-9.55 1.025 0 2.658.615 2.13 3.17-.38 1.836-2.678 3.877-2.967 7.443-.402 4.967 3.17 7.68 3.615 12.545z" fill="#66b1ff"/><path d="M66.45 78.372c.4 4.436-3.472 9.85-3.933 14.365-.44 4.32 2.53 7.834 1.752 10.402-.83 2.742-2.354 2.708-3.29 2.708-1.657 0-3.965-7.63-3.505-14.456.343-5.095 4.452-7.556 3.943-12.734-.656-6.682-4.456-7.993-3.858-13.83.582-5.677 4.738-9.506 6.155-9.506 1.01 0 2.617.612 2.097 3.156-.374 1.827-2.637 3.86-2.92 7.408-.396 4.944 3.122 7.646 3.56 12.487z" fill="#76f"/><path d="M34.24 59.47l1.527-.63c.658-.266 1.016-.39 1.72-.53 5.05-.995 6.995-1.582 12.13-1.94 4.38-.306 9.998-.7 12.372-.547 1.245.08 2.195-.018 3.334.368.55.187.95.787 1.206 1.382a6.54 6.54 0 0 1 .355 1.113" fill="none" stroke-linecap="round" class="B C D"/><path d="M226.025 203.516l-.267-2.117-.3-2.32s1.85-1.26 5.445-1.72l9.252-1.277c3.224-.3 10.428-.64 11.515-.716.943-.066 4.28.35 4.28.35s.585.444.76 1.406c.418 2.3.056 6.022.056 6.022s-3.103 1.215-13.907 1.323c-9.892.1-16.835-.952-16.835-.952z" fill="url(#A)" transform="translate(-190.948 -138.53)"/><path d="M52.403 67.067c.317-1.8 3.204-.926 4.542-1.98 1.547-1.218 1.668-4.215 3.76-3.85 2.028.355.578 3.062 1.627 4.656.97 1.473 4.53 1.772 4.202 3.646-.317 1.8-3.7.838-5.047 1.892-1.547 1.218-1.163 4.303-3.255 3.937-2.157-.377-1.042-3.26-2.07-5-.833-1.416-4.063-1.548-3.758-3.294zM39.237 79.44c-.504-1.3 1.716-1.857 2.17-3.066.526-1.397-.57-3.4.93-3.97 1.455-.565 1.576 1.76 2.88 2.383 1.207.576 3.634-.627 4.156.718.504 1.3-2.078 1.998-2.533 3.207-.526 1.397.933 3.248-.568 3.83-1.547.6-1.954-1.706-3.308-2.438-1.096-.592-3.243.6-3.73-.663zm16.06 5.217c.722-.637 1.614.67 2.507.676 1.032.008 2.062-1.18 2.798-.344.714.8-.766 1.442-.858 2.438-.085.92 1.274 2.208.526 2.867-.722.637-1.792-.87-2.685-.878-1.032-.008-1.884 1.38-2.62.546-.76-.86.64-1.674.792-2.727.123-.852-1.156-1.963-.46-2.578z" fill="#fff"/></svg>