<svg xmlns="http://www.w3.org/2000/svg" width="100" height="100" xmlns:v="https://vecta.io/nano"><style><![CDATA[.B{stroke-width:2.5}.C{stroke-miterlimit:10}.D{fill:#ffb73a}]]></style><g stroke="#d59c31" class="B C"><path d="M60.263 82.405c-9.407-4.9 3.234-25.185 12.64-20.284 6.277 3.27 18.42 20.303 17.51 21.74-1.003 1.32-23.94 1.814-30.218-1.456z" class="D"/><path d="M72.082 71.066c-9.407-4.9-8.457-13.903.95-9.002 6.277 3.27 18.42 20.303 17.51 21.74-.19.528-14.726-6.47-18.46-12.738z" fill="#e2a234"/><path d="M37.42 82.47c-6.055 2.738-27.18.345-28-1.055-.723-1.507 11.853-17.473 17.908-20.21C36.4 57.1 46.493 78.365 37.42 82.47z" class="D"/><path d="M27.812 70.83C23.664 76.653 9.5 82.03 9.385 81.485 8.713 79.96 21.82 64.35 27.964 61.78c9.208-3.85 9.056 5.198-.153 9.05z" fill="#e2a234"/><path d="M15.028 47.947c2.292-17.5 19.702-29.616 38.887-27.04s32.88 18.86 30.588 36.372C83.16 67.55 79.43 76.538 70.376 81.217c-6.383 3.3-16.826 4.167-24.76 3.102-8.676-1.165-19.16-5.326-24.62-10.943-6.614-6.805-7.225-15.837-5.97-25.43z" class="D"/></g><g stroke="#dedede" class="B C"><path d="M78.77 59.156c-7.092 3.275-19.995 4.02-29.998 2.662-12.787-1.737-25.466-5.647-31.086-12.88-3.17-4.078-2.74-10.46-2.146-15.04 1.644-12.702 19.187-20.796 39.185-18.08S89.6 31.038 87.956 43.74c-.82 6.348-1.7 11.945-8.786 15.217z" fill="#f8f8f8"/><path d="M30.407 71.35c-5.46-1.488-8.257-8.62-6.25-15.93 1.437-5.23 3.827-8.627 5.573-9.988.52-.406 1.35 2.673 7.32 4.07 6.262 1.466 7.524-1.396 7.682-.058.266 2.26.38 7.06-.804 11.365-2.01 7.3-8.063 12.03-13.523 10.542z" fill="#fff"/></g><path d="M45.726 43.6c.42-.917.808-1.352 1.418-2.155.593-.678 2.723-1.596 3.796-1.455.86.113 2.12 1.67 2.744 2.307 1.283 1.542 1.267 1.54.965 3.072-.34 1.025-2.848 1.437-4.665 1.198-1.875-.247-4.586-1.834-4.324-2.767z" fill="#505050" stroke="#343434" class="B C"/><path d="M25.018 42.754c-1.987-.26-3.508-1.14-3.4-1.96s1.8-1.275 3.796-1.014 3.508 1.14 3.4 1.96-1.8 1.275-3.796 1.014zM73.73 49.16c-1.987-.26-3.508-1.14-3.4-1.96s1.8-1.275 3.796-1.014 3.508 1.14 3.4 1.96-1.8 1.275-3.796 1.014z" fill="#ffdaf9" stroke="#ffd9fa" class="B C"/><path d="M27.454 32.453c-.07.79-5.993-2.27-13.574-2.98s-13.95 1.204-13.88.412 6.46-2.724 14.04-2.015 13.484 3.79 13.413 4.583z" fill="#333"/><path d="M59.95 75.692c-5.61-.738-9.345-7.428-8.34-14.942.718-5.375 2.628-9.064 4.174-10.65.462-.473 1.7 2.467 7.803 3.046 6.402.607 7.267-2.398 7.604-1.094.57 2.204 1.328 6.945.737 11.37-1.004 7.514-6.367 13.008-11.977 12.27z" fill="#fff" stroke="#dedede" class="B C"/><path d="M26.92 34.892c.085.8-5.08-1.072-11.122-.305S5.127 38.46 5.042 37.67s4.556-3.918 10.597-4.684 11.195 1.118 11.28 1.908zm60.78 7.464c7.137 2.752 12.06 7.346 11.784 8.1s-5.192-3.824-12.33-6.577-13.792-2.647-13.515-3.4 6.923-.874 14.06 1.878zm-3.675 3.736c5.092 3.316 7.88 8.145 7.456 8.818s-3.215-4.13-8.307-7.447-10.557-3.9-10.13-4.562 5.9-.126 10.982 3.2z" fill="#333"/><g class="B C"><path d="M60.884 36.058c-1.1 1.597-1.554 2.95-3.343 3.313-1.84.374-4.356-.138-5.78-.982-1.514-.898-2.923-2.577-3.408-4.422-.417-1.586.855-2.824 1.89-4.326.8-1.164 3.006-4.192 4.196-4.75.873-.4 3.158 1.262 4.998 2.353 1.065.632 4.73.863 4.8 1.61.143 1.585-1.924 5.167-3.28 7.136z" fill="#ff5462" stroke="#d54650"/><path d="M53.86 35.13l5.46-7.85" fill="none" stroke="#d74751" stroke-linecap="round"/></g><g fill="#333"><path d="M58.23 26.925c-8.238-3.403-10.453.91-9.936-.32s2.614-6.195 10.852-2.792S72.006 37.667 71.49 38.9s-5.02-8.573-13.258-11.975z"/><path d="M59.26 60.215a1.78 1.78 0 0 1 1.541 1.996 1.79 1.79 0 0 1-2.012 1.529 1.78 1.78 0 0 1-1.541-1.996 1.79 1.79 0 0 1 2.012-1.529z" stroke="#343434" class="B C"/><path d="M43.236 61.21c-1.17 4.254-18.733 2.534-20.55 2.04-1.03-.28 5.21-.88 9.862-1.25 3.55-.282 5.62-.008 6.126-1.85.497-1.81-1.817-3.73-4.34-5.886-3.41-2.917-7.32-5.847-6.278-5.562 1.816.495 16.35 8.255 15.18 12.51z"/></g></svg>