<svg xmlns="http://www.w3.org/2000/svg" width="23.877" height="14.877"><path d="M23.6 8.78c-.299 3.827-5.822 6.531-12.335 6.038S-.287 10.824.012 6.996 5.834.466 12.348.958 23.899 4.953 23.6 8.78z" fill="#9a5300"/><g fill="none" stroke="#daa86b" stroke-miterlimit="10"><path d="M23.327 7.762c-.288 3.503-5.605 5.977-11.876 5.526S.33 9.632.618 6.129 6.223.152 12.494.603s11.121 3.656 10.833 7.159z" stroke-width="1.1"/><path d="M3.069 9.797 8.017.836m3.528-.198L6.386 11.799m4.307.986 4.555-11.63m.115 12.022L19.37 2.416M3.697 2.185l19.188 3.983m-1.574 4.65L.824 5.756" stroke-linecap="round"/></g></svg>