<svg version="1.1" xmlns="http://www.w3.org/2000/svg" xmlns:xlink="http://www.w3.org/1999/xlink" width="23.87744" height="14.87659" viewBox="0,0,23.87744,14.87659"><g transform="translate(-228.19365,-172.28671)"><g data-paper-data="{&quot;isPaintingLayer&quot;:true}" fill-rule="nonzero" stroke-linejoin="miter" stroke-miterlimit="10" stroke-dasharray="" stroke-dashoffset="0" style="mix-blend-mode: normal"><path d="M251.7937,181.0674c-0.2991,3.82735 -5.82178,6.53064 -12.33526,6.03796c-6.51348,-0.49268 -11.55123,-3.99476 -11.25213,-7.82211c0.2991,-3.82735 5.82178,-6.53064 12.33526,-6.03796c6.51348,0.49268 11.55123,3.99476 11.25213,7.82211z" fill="#9a5300" stroke="none" stroke-width="0" stroke-linecap="butt"/><path d="M251.52109,180.04873c-0.28797,3.50288 -5.60511,5.97699 -11.87618,5.52608c-6.27107,-0.45091 -11.12132,-3.6561 -10.83336,-7.15898c0.28796,-3.50288 5.60511,-5.97699 11.87618,-5.52608c6.27107,0.45091 11.12132,3.6561 10.83336,7.15898z" fill="none" stroke="#daa86b" stroke-width="1.1" stroke-linecap="butt"/><path d="M231.26265,182.08423l4.94835,-8.96141" fill="none" stroke="#daa86b" stroke-width="1" stroke-linecap="round"/><path d="M239.7386,172.92456l-5.15908,11.16167" fill="none" stroke="#daa86b" stroke-width="1" stroke-linecap="round"/><path d="M238.88749,185.07173l4.55507,-11.6295" fill="none" stroke="#daa86b" stroke-width="1" stroke-linecap="round"/><path d="M243.55692,185.46443l4.0066,-10.76184" fill="none" stroke="#daa86b" stroke-width="1" stroke-linecap="round"/><path d="M231.89077,174.47197l19.18781,3.98254" fill="none" stroke="#daa86b" stroke-width="1" stroke-linecap="round"/><path d="M249.5054,183.10454l-20.48742,-5.06173" fill="none" stroke="#daa86b" stroke-width="1" stroke-linecap="round"/></g></g></svg>