<svg xmlns="http://www.w3.org/2000/svg" width="100" height="100" xmlns:v="https://vecta.io/nano"><style><![CDATA[.B{stroke-width:2.5}.C{stroke-miterlimit:10}.D{stroke:#d59c31}]]></style><path d="M82.146 12.023c1.38.902.228 20.664-3 26.02-4.852 8.028-24.25-4.75-19.398-12.778 3.238-5.357 21-14.005 22.4-13.243zm-40.092 13.99c4.53 8.215-15.363 20.2-19.892 11.995-3.022-5.48-3.386-25.274-1.97-26.12 1.427-.706 18.84 8.644 21.863 14.125z" fill="#ffb73a" class="B C D"/><path d="M82.27 12.023c1.38.902.228 20.664-3 26.02-4.852 8.028-9.876.5-5.023-7.528-.137-6.982 7.636-18.88 8.034-18.493zM27.995 30.515c4.852 8.028-.17 15.555-5.023 7.528-3.238-5.357-4.4-25.12-3-26.02.398-.388 8.17 11.5 8.034 18.493z" fill="#e2a234" class="B C D"/><path d="M16.646 53.52c0-9.55 1.763-18.308 9.144-24.097 6.092-4.78 16.938-7.47 25.62-7.47 7.94 0 18.164 2.23 24.017 6.298 8.3 5.77 10.747 15.045 10.747 25.27 0 17.435-15.564 31.568-34.764 31.568S16.646 70.954 16.646 53.52z" fill="#ffb73a" class="B C D"/><g stroke="#dedede" class="B C"><path d="M86.446 67.462c0 10.6-15.72 19.21-35.11 19.21s-35.11-8.6-35.11-19.21c0-3.826.377-9.112 3.9-12.106 6.247-5.3 18.812-7.105 31.21-7.105 9.7 0 22.26 2.26 28.615 5.74 6.348 3.476 6.496 8.17 6.496 13.47z" fill="#f8f8f8"/><path d="M48.002 48.087c0 7.58-4.552 13.725-10.167 13.725s-10.167-6.145-10.167-13.725 4.552-13.725 10.167-13.725 10.167 6.145 10.167 13.725zm25.666-.267c0 7.58-4.552 13.725-10.167 13.725S53.335 55.4 53.335 47.82s4.552-13.725 10.167-13.725S73.668 40.24 73.668 47.82z" fill="#fff"/></g><path d="M46.3 61.31c-.135-.96 2.74-2.18 4.616-2.18 1.82 0 4.232.736 4.43 1.796.096 1.556.112 1.558-1.353 2.92-.697.55-2.14 1.93-3.002 1.93-1.073 0-3.048-1.187-3.542-1.937-.704-1.248-.98-1.325-1.15-2.528z" fill="#505050" stroke="#343434" class="B C"/><path d="M29.463 61.157c0 .828-1.612 1.5-3.6 1.5s-3.6-.672-3.6-1.5 1.612-1.5 3.6-1.5 3.6.672 3.6 1.5zm48.75 0c0 .828-1.612 1.5-3.6 1.5s-3.6-.672-3.6-1.5 1.612-1.5 3.6-1.5 3.6.672 3.6 1.5z" fill="#ffdaf9" stroke="#ffd9fa" class="B C"/><path d="M30.103 66.52c.032.794-6.36-1.448-14.12-1.134S2.033 68.45 2 67.655s6.175-3.566 13.935-3.88 14.135 1.95 14.167 2.744zm-.205 2.486c.188.772-5.137-.4-10.978 1.148s-9.986 5.23-10.173 4.458 3.966-4.478 9.806-6.026 11.157-.352 11.345.42zm54.644-5.23c7.76.314 13.967 3.086 13.935 3.88s-6.222-1.956-13.982-2.27-14.152 1.93-14.12 1.134 6.407-3.058 14.167-2.744zm-2.617 4.81c5.84 1.548 9.994 5.254 9.806 6.026s-4.332-2.9-10.173-4.458-11.166-.376-10.978-1.148 5.504-1.968 11.345-.42z" fill="#333"/><g class="B C"><path d="M59.762 80.043c.455 2.23 1.174 3.775.2 5.398-1.003 1.67-3.158 3.035-4.802 3.31-1.75.292-4.025-.194-5.78-1.497-1.51-1.12-1.568-3.155-1.996-5.253-.33-1.625-1.1-5.943-.705-7.306.297-1 3.18-1.157 5.307-1.512 1.23-.206 3.977-2.657 4.6-2.034 1.316 1.318 2.617 6.033 3.178 8.784z" fill="#ff5462" stroke="#d54650"/><path d="M51.93 73.3l2.198 11.006" fill="none" stroke="#d74751" stroke-linecap="round"/></g><g fill="#333"><path d="M62.815 63.82c.277 1.03-4.445 8.814-11.264 10.648s-7.943-2.308-8.22-3.337 1.01 2.613 7.828.78 11.38-9.12 11.656-8.1z"/><path d="M57.557 49.034a1.78 1.78 0 0 1 1.778-1.778 1.78 1.78 0 0 1 1.778 1.778 1.78 1.78 0 0 1-1.778 1.778 1.78 1.78 0 0 1-1.778-1.778z" stroke="#343434" class="B C"/><path d="M47.944 48.267c0 4.41-15.945 8.076-17.812 8.076-1.073 0 3.438-1.798 7.47-3.715 2.982-1.418 5.7-2.66 5.7-4.537 0-1.91-2.053-2.19-5.375-3.394-4.355-1.58-10.166-3.8-9.107-3.8 1.867 0 19.124 2.958 19.124 7.37z"/></g></svg>