<?xml version="1.0" encoding="UTF-8"?><svg id="Layer_1" xmlns="http://www.w3.org/2000/svg" viewBox="0 0 388 387.98"><defs><style>.cls-1{fill:#4d97ff;}</style></defs><path class="cls-1" d="M176.19,3.92c11.29-5.22,24.33-5.22,35.62,0l165.66,76.56c6.44,2.96,10.53,9.4,10.53,15.84,0,7.73-4.09,14.17-10.53,17.2l-165.66,76.54c-11.29,5.23-24.33,5.23-35.62,0L10.56,113.52c-6.44-3.03-10.56-9.47-10.56-17.2,0-6.44,4.12-12.88,10.56-15.84L176.19,3.92Zm201.28,173.56c6.44,2.96,10.53,9.4,10.53,15.84,0,7.73-4.09,14.17-10.53,17.2l-165.66,76.54c-11.29,5.23-24.33,5.23-35.62,0L10.56,210.52c-6.44-3.03-10.56-9.47-10.56-17.2,0-6.44,4.12-12.88,10.56-15.84l40.32-18.64,115.16,53.2c17.73,8.26,38.19,8.26,55.93,0l115.19-53.2,40.32,18.64Zm-155.5,131.56l115.19-53.2,40.32,18.64c6.44,2.96,10.53,9.4,10.53,15.84,0,7.73-4.09,14.17-10.53,17.2l-165.66,76.54c-11.29,5.23-24.33,5.23-35.62,0L10.56,307.52c-6.44-3.03-10.56-9.47-10.56-17.2,0-6.44,4.12-12.88,10.56-15.84l40.32-18.64,115.16,53.2c17.73,8.26,38.19,8.26,55.93,0h0Z"/></svg>