<svg width="40" height="40" xmlns="http://www.w3.org/2000/svg"><g stroke="#000" fill="none" stroke-opacity=".15"><path d="M15.5 21.67c0-1.016-1.494-1.586-2.387-.782l-2.7 2.163A5.958 5.958 0 0 1 6.7 24.33h-.4c-1.035 0-1.8.69-1.8 1.573v4.235c0 .883.765 1.572 1.8 1.572h.4c1.458 0 2.754.423 3.82 1.287l2.598 2.161c.908.75 2.382.188 2.382-.876V21.67Z" fill="#4D4D4D"/><path d="M25.644 20.5c-1.667 1.937-4.539 3.429-5.977 3.429a1.25 1.25 0 0 1-.557-.137c-.372-.186-.61-.542-.61-1.03 0-.105.017-.207.05-.308.076-.236.624-.986.727-1.173.27-.484.462-1.075.566-1.865A8.5 8.5 0 0 1 24 3.5h4a8.5 8.5 0 1 1 0 17h-2.356Z" fill="#FFF"/></g></svg>