<svg version="1.1" xmlns="http://www.w3.org/2000/svg" width="14" height="20" viewBox="0,0,14,20"><g transform="translate(-233.407,-168.82279)"><g stroke-linejoin="miter"><path d="M246.59223,184.93704c0,1.77988 -1.44352,3.23741 -3.2234,3.23741h-6.72441c-1.79389,0 -3.23742,-1.45754 -3.23742,-3.23741h2.10222c0,0.61665 0.50454,1.1352 1.1352,1.1352h6.72441c0.61665,0 1.12118,-0.51855 1.12118,-1.1352z" fill="#fff"/><path d="M233.43378,184.90877v-7.22746c0,-1.1326 0.81357,-2.70733 1.69733,-3.28637c0.10262,-0.06724 -0.06582,1.0317 0.27471,1.57167c0.41273,0.65447 0.93057,1.12684 0.87799,1.16127c-0.31137,0.2039 -0.74781,0.15808 -0.74781,0.55343v7.22746c0,0.58862 -2.10222,0.58862 -2.10222,0z" fill="#fff"/><g fill="#fff"><path d="M244.22666,174.56595c0,1.77988 -1.44352,3.23741 -3.2234,3.23741h-1.99327c-1.79389,0 -3.23742,-1.45754 -3.23742,-3.23741h2.10222c0,0.61665 0.50454,1.1352 1.1352,1.1352h1.99327c0.61665,0 1.12118,-0.51855 1.12118,-1.1352z"/><path d="M242.12444,174.53767v-0.29918c0,-0.61665 -0.50453,-1.1352 -1.12118,-1.1352c0,0 -0.6926,0 -1.03022,0c-0.32643,0 -0.96305,0 -0.96305,0c-0.63066,0 -1.1352,0.51855 -1.1352,1.1352v0.29918c0,0.58862 -2.10222,0.58862 -2.10222,0v-0.29918c0,-1.77988 1.44352,-3.23741 3.23742,-3.23741c0,0 0.67118,0 1.00473,0c0.33085,0 0.98854,0 0.98854,0c1.77988,0 3.2234,1.45754 3.2234,3.23741v0.29918c0,0.58862 -2.10222,0.58862 -2.10222,0z"/></g><g fill="#fff"><path d="M240.78044,171.81687v-0.44652c0,-0.48525 -0.39702,-0.8933 -0.88227,-0.8933h0.00555c-0.49628,0 -0.8933,0.40805 -0.8933,0.8933v0.44652c0,0.46319 -1.65426,0.46319 -1.65426,0v-0.44652c0,-1.4006 1.13592,-2.54756 2.54756,-2.54756h-0.00555c1.4006,0 2.53653,1.14695 2.53653,2.54756v0.44652c0,0.46319 -1.65426,0.46319 -1.65426,0z"/></g><path d="M244.51816,184.90877v-7.22746c0,-0.39536 -0.43645,-0.34953 -0.74781,-0.55343c-0.05258,-0.03443 0.46526,-0.5068 0.87799,-1.16127c0.34053,-0.53998 0.17209,-1.63891 0.27471,-1.57167c0.88375,0.57905 1.69733,2.15378 1.69733,3.28637v7.22746c0,0.58862 -2.10222,0.58862 -2.10222,0z" fill="#fff"/><path d="M237.28392,179.21083h5.43139" fill="none" stroke="#fff" stroke-width="0.75" stroke-linecap="round"/><path d="M237.28392,182.53617h5.43139" fill="none" stroke="#fff" stroke-width="0.75" stroke-linecap="round"/><path d="M237.28392,180.8735h5.43139" fill="none" stroke="#fff" stroke-width="0.75" stroke-linecap="round"/><path d="M237.28392,184.19884h5.43139" fill="none" fill-rule="nonzero" stroke="#fff" stroke-width="0.75" stroke-linecap="round"/></g></g></svg>