<svg xmlns="http://www.w3.org/2000/svg" viewBox="0 0 36 36"><path fill="#D99E82" d="M33.875 35.228c-.314 0-.628-.12-.868-.359L2.366 4.227a1.228 1.228 0 0 1 1.736-1.736l30.641 30.641a1.228 1.228 0 0 1-.868 2.096z"/><path fill="#FCB1E3" d="M15.254 8.627a6.752 6.752 0 1 1-13.504 0 6.752 6.752 0 0 1 13.504 0z"/><circle transform="rotate(-76.714 15.87 15.994)" fill="#FFD983" cx="15.869" cy="15.994" r="6.752"/><path fill="#A6D388" d="M29.987 23.359a6.754 6.754 0 0 1-13.505 0 6.752 6.752 0 0 1 13.505 0z"/><path fill="#D99E82" d="M33.875 35.228c-.314 0-.628-.12-.868-.359l-7.52-7.52a1.226 1.226 0 1 1 1.736-1.736l7.52 7.52a1.228 1.228 0 0 1-.868 2.095z"/></svg>