<svg xmlns="http://www.w3.org/2000/svg" aria-hidden="true" role="img" width="20" height="20" preserveAspectRatio="xMidYMid meet" viewBox="0 0 256 256"><path fill="currentColor" d="M116 184a12 12 0 0 1-12 12H84v20a12 12 0 0 1-24 0v-20H40a12 12 0 0 1 0-24h20v-20a12 12 0 0 1 24 0v20h20a12 12 0 0 1 12 12ZM104 60H40a12 12 0 0 0 0 24h64a12 12 0 0 0 0-24Zm48 116.1h64a12 12 0 0 0 0-24h-64a12 12 0 0 0 0 24Zm64 15.8h-64a12 12 0 0 0 0 24h64a12 12 0 0 0 0-24Zm-64.5-87.4a12.1 12.1 0 0 0 17 0L184 89l15.5 15.5a12.1 12.1 0 0 0 17 0a12 12 0 0 0 0-17L201 72l15.5-15.5a12 12 0 0 0-17-17L184 55l-15.5-15.5a12 12 0 0 0-17 17L167 72l-15.5 15.5a12 12 0 0 0 0 17Z"/></svg>