<svg xmlns="http://www.w3.org/2000/svg" aria-hidden="true" role="img" width="20" height="20" preserveAspectRatio="xMidYMid meet" viewBox="0 0 256 256"><path fill="#575e75" d="M112 184a8 8 0 0 1-8 8H80v24a8 8 0 0 1-16 0v-24H40a8 8 0 0 1 0-16h24v-24a8 8 0 0 1 16 0v24h24a8 8 0 0 1 8 8Zm-8-120H40a8 8 0 0 0 0 16h64a8 8 0 0 0 0-16Zm48 112.1h64a8 8 0 0 0 0-16h-64a8 8 0 0 0 0 16Zm64 15.8h-64a8 8 0 0 0 0 16h64a8 8 0 0 0 0-16Zm-61.7-90.2a8.2 8.2 0 0 0 11.4 0L184 83.3l18.3 18.4a8.2 8.2 0 0 0 11.4 0a8.1 8.1 0 0 0 0-11.4L195.3 72l18.4-18.3a8.1 8.1 0 0 0-11.4-11.4L184 60.7l-18.3-18.4a8.1 8.1 0 0 0-11.4 11.4L172.7 72l-18.4 18.3a8.1 8.1 0 0 0 0 11.4Z"/></svg>