<svg xmlns="http://www.w3.org/2000/svg" width="512" height="512" style="-ms-transform:rotate(360deg);-webkit-transform:rotate(360deg)" transform="rotate(360)"><path d="M398.222 227.556c9.671 0 19.058 1.137 28.445 2.56V93.013L213.333 0 0 93.013v139.663C0 361.813 91.022 482.702 213.333 512c15.645-3.698 30.72-9.102 45.511-15.644-19.626-27.876-31.288-61.725-31.288-98.134 0-94.15 76.515-170.666 170.666-170.666z" fill="#ff7b26"/><path d="M398.222 284.444c-62.862 0-113.778 50.916-113.778 113.778C284.444 461.084 335.36 512 398.222 512 461.084 512 512 461.084 512 398.222s-50.916-113.778-113.778-113.778zm0 39.254c17.636 0 31.858 14.506 31.858 31.858 0 17.35-14.507 31.857-31.858 31.857-17.35 0-31.858-14.506-31.858-31.857 0-17.352 14.223-31.858 31.858-31.858zm0 152.746c-26.453 0-49.493-13.084-63.715-33.28 1.422-20.48 42.95-30.72 63.715-30.72s62.294 10.24 63.716 30.72c-14.222 20.196-37.262 33.28-63.716 33.28z" fill="#ff7b26"/></svg>