<svg xmlns="http://www.w3.org/2000/svg" width="512" height="512" style="-ms-transform:rotate(360deg);-webkit-transform:rotate(360deg)" transform="rotate(360)"><path d="M398.22223 227.55556c9.67111 0 19.05778 1.13777 28.44444 2.56V93.013334L213.33333 0 0 93.013334V232.67556C0 361.81334 91.022223 482.70223 213.33333 512c15.64445-3.69777 30.72001-9.10222 45.51111-15.64444-19.62666-27.87555-31.28888-61.72444-31.28888-98.13333 0-94.15111 76.51556-170.66667 170.66667-170.66667z" fill="#ff7b26"/><path d="M398.22223 284.44444c-62.86222 0-113.77779 50.91557-113.77779 113.77779C284.44444 461.08445 335.36001 512 398.22223 512 461.08445 512 512 461.08445 512 398.22223s-50.91555-113.77779-113.77777-113.77779zm0 39.25334c17.63555 0 31.85778 14.50666 31.85778 31.85777 0 17.35112-14.50667 31.85779-31.85778 31.85779-17.35111 0-31.85778-14.50667-31.85778-31.85779 0-17.35111 14.22222-31.85777 31.85778-31.85777zm0 152.74667c-26.45333 0-49.49334-13.08445-63.71557-33.28001 1.42223-20.47999 42.95112-30.71999 63.71557-30.71999 20.76444 0 62.29333 10.24 63.71555 30.71999-14.22222 20.19556-37.26222 33.28001-63.71555 33.28001z" fill="#ff7b26"/></svg>