<svg xmlns="http://www.w3.org/2000/svg" style="-ms-transform:rotate(360deg);-webkit-transform:rotate(360deg);transform:rotate(360deg)" height="512" width="512"><path style="fill:none;fill-opacity:1;stroke:#ff7b26;stroke-opacity:1" stroke-width="32" stroke-linejoin="round" stroke-linecap="round" stroke="#626262" fill="none" d="M452.37 59.63h0a40.49 40.49 0 0 0-57.26 0L184 294.74c23.08 4.7 46.12 27.29 49.26 49.26l219.11-227.11a40.49 40.49 0 0 0 0-57.26z"/><path style="stroke:#ff7b26;stroke-opacity:1" stroke-width="32" stroke-linejoin="round" stroke-linecap="round" stroke="#626262" fill="none" d="M138 336c-29.88 0-54 24.5-54 54.86 0 23.95-20.88 36.57-36 36.57C64.56 449.74 92.82 464 120 464c39.78 0 72-32.73 72-73.14 0-30.36-24.12-54.86-54-54.86z"/></svg>