<?xml version="1.0" encoding="UTF-8" standalone="no"?>
<svg
   xmlns:dc="http://purl.org/dc/elements/1.1/"
   xmlns:cc="http://creativecommons.org/ns#"
   xmlns:rdf="http://www.w3.org/1999/02/22-rdf-syntax-ns#"
   xmlns:svg="http://www.w3.org/2000/svg"
   xmlns="http://www.w3.org/2000/svg"
   xmlns:sodipodi="http://sodipodi.sourceforge.net/DTD/sodipodi-0.dtd"
   xmlns:inkscape="http://www.inkscape.org/namespaces/inkscape"
   inkscape:version="1.0 (4035a4fb49, 2020-05-01)"
   sodipodi:docname="brush2.svg"
   id="svg8"
   version="1.1"
   style="-ms-transform: rotate(360deg); -webkit-transform: rotate(360deg); transform: rotate(360deg);"
   viewBox="0 0 512 512"
   preserveAspectRatio="xMidYMid meet"
   height="512"
   width="512">
  <metadata
     id="metadata14">
    <rdf:RDF>
      <cc:Work
         rdf:about="">
        <dc:format>image/svg+xml</dc:format>
        <dc:type
           rdf:resource="http://purl.org/dc/dcmitype/StillImage" />
      </cc:Work>
    </rdf:RDF>
  </metadata>
  <defs
     id="defs12" />
  <sodipodi:namedview
     inkscape:current-layer="svg8"
     inkscape:window-maximized="1"
     inkscape:window-y="-9"
     inkscape:window-x="-9"
     inkscape:cy="256"
     inkscape:cx="256"
     inkscape:zoom="1.6210938"
     showgrid="false"
     id="namedview10"
     inkscape:window-height="1001"
     inkscape:window-width="1920"
     inkscape:pageshadow="2"
     inkscape:pageopacity="0"
     guidetolerance="10"
     gridtolerance="10"
     objecttolerance="10"
     borderopacity="1"
     bordercolor="#666666"
     pagecolor="#ffffff" />
  <path
     style="fill:none;fill-opacity:1;stroke:#ff7b26;stroke-opacity:1"
     id="path2"
     stroke-width="32"
     stroke-linejoin="round"
     stroke-linecap="round"
     stroke="#626262"
     fill="none"
     d="M452.37 59.63h0a40.49 40.49 0 0 0-57.26 0L184 294.74c23.08 4.7 46.12 27.29 49.26 49.26l219.11-227.11a40.49 40.49 0 0 0 0-57.26z" />
  <path
     style="stroke:#ff7b26;stroke-opacity:1"
     id="path4"
     stroke-width="32"
     stroke-linejoin="round"
     stroke-linecap="round"
     stroke="#626262"
     fill="none"
     d="M138 336c-29.88 0-54 24.5-54 54.86c0 23.95-20.88 36.57-36 36.57C64.56 449.74 92.82 464 120 464c39.78 0 72-32.73 72-73.14c0-30.36-24.12-54.86-54-54.86z" />
</svg>
