<svg xmlns="http://www.w3.org/2000/svg" xmlns:xlink="http://www.w3.org/1999/xlink" aria-hidden="true" focusable="false" width="1em" height="1em" style="-ms-transform: rotate(360deg); -webkit-transform: rotate(360deg); transform: rotate(360deg);" preserveAspectRatio="xMidYMid meet" viewBox="0 0 24 24"><path d="M12 18a1 1 0 1 0 1 1a1 1 0 0 0-1-1zm6-17H6a1 1 0 0 0-1 1v9a3 3 0 0 0 3 3h1v2.37a4 4 0 1 0 6 0V14h1a3 3 0 0 0 3-3V2a1 1 0 0 0-1-1zm-6 20a2 2 0 0 1-1.33-3.48a1 1 0 0 0 .33-.74V14h2v2.78a1 1 0 0 0 .33.74A2 2 0 0 1 12 21zm5-10a1 1 0 0 1-1 1H8a1 1 0 0 1-1-1v-1h10zm0-3H7V3h10z" fill="#ff7b26"/></svg>