<svg xmlns="http://www.w3.org/2000/svg" xmlns:xlink="http://www.w3.org/1999/xlink" width="24" height="24" preserveAspectRatio="xMidYMid meet" viewBox="0 0 24 24" style="-ms-transform: rotate(360deg); -webkit-transform: rotate(360deg); transform: rotate(360deg);"><path d="M8 19a3 3 0 0 1-3-3V8a3 3 0 0 1 3-3a1 1 0 0 0 0-2a5 5 0 0 0-5 5v8a5 5 0 0 0 5 5a1 1 0 0 0 0-2zm7.71-3.29a1 1 0 0 0 0-1.42L13.41 12l2.3-2.29a1 1 0 0 0-1.42-1.42L12 10.59l-2.29-2.3a1 1 0 0 0-1.42 1.42l2.3 2.29l-2.3 2.29a1 1 0 0 0 0 1.42a1 1 0 0 0 1.42 0l2.29-2.3l2.29 2.3a1 1 0 0 0 1.42 0zM16 3a1 1 0 0 0 0 2a3 3 0 0 1 3 3v8a3 3 0 0 1-3 3a1 1 0 0 0 0 2a5 5 0 0 0 5-5V8a5 5 0 0 0-5-5z" fill="#626262"/><rect x="0" y="0" width="24" height="24" fill="rgba(0, 0, 0, 0)" /></svg>