<svg xmlns="http://www.w3.org/2000/svg" xmlns:xlink="http://www.w3.org/1999/xlink" width="24" height="24" preserveAspectRatio="xMidYMid meet" viewBox="0 0 24 24" style="-ms-transform: rotate(360deg); -webkit-transform: rotate(360deg); transform: rotate(360deg); vertical-align: -0.125em;"><path d="M18.42 9.21a7 7 0 0 0-13.36 1.9A4 4 0 0 0 6 19h11a5 5 0 0 0 1.42-9.79zM17 17H6a2 2 0 0 1 0-4a1 1 0 0 0 1-1a5 5 0 0 1 9.73-1.61a1 1 0 0 0 .78.66A3 3 0 0 1 17 17z" fill="rgb(255,123,38)"/><rect x="0" y="0" width="24" height="24" fill="rgba(0, 0, 0, 0)" /></svg>