<svg xmlns="http://www.w3.org/2000/svg" xmlns:xlink="http://www.w3.org/1999/xlink" aria-hidden="true" focusable="false" width="1em" height="1em" style="-ms-transform: rotate(360deg); -webkit-transform: rotate(360deg); transform: rotate(360deg);" preserveAspectRatio="xMidYMid meet" viewBox="0 0 24 24"><path d="M8.5 10a2 2 0 1 0 2 2a2 2 0 0 0-2-2zm0 7a2 2 0 1 0 2 2a2 2 0 0 0-2-2zm7-10a2 2 0 1 0-2-2a2 2 0 0 0 2 2zm-7-4a2 2 0 1 0 2 2a2 2 0 0 0-2-2zm7 14a2 2 0 1 0 2 2a2 2 0 0 0-2-2zm0-7a2 2 0 1 0 2 2a2 2 0 0 0-2-2z" fill="#626262"/></svg>
