<svg xmlns="http://www.w3.org/2000/svg" xmlns:xlink="http://www.w3.org/1999/xlink" width="24" height="24" preserveAspectRatio="xMidYMid meet" viewBox="0 0 24 24" style="-ms-transform: rotate(360deg); -webkit-transform: rotate(360deg); transform: rotate(360deg); vertical-align: -0.125em;"><path d="M19 4H5a3 3 0 0 0-3 3v10a3 3 0 0 0 3 3h14a3 3 0 0 0 3-3V7a3 3 0 0 0-3-3zm-.41 2l-5.88 5.88a1 1 0 0 1-1.42 0L5.41 6zM20 17a1 1 0 0 1-1 1H5a1 1 0 0 1-1-1V7.41l5.88 5.88a3 3 0 0 0 4.24 0L20 7.41z" fill="rgb(255,123,38)"/><rect x="0" y="0" width="24" height="24" fill="rgba(0, 0, 0, 0)" /></svg>