<svg xmlns="http://www.w3.org/2000/svg" xmlns:xlink="http://www.w3.org/1999/xlink" width="512" height="512" preserveAspectRatio="xMidYMid meet" viewBox="0 0 24 24" style="-ms-transform: rotate(360deg); -webkit-transform: rotate(360deg); transform: rotate(360deg);"><path d="M21 10.5h-1v-1a1 1 0 0 0-2 0v1h-1a1 1 0 0 0 0 2h1v1a1 1 0 0 0 2 0v-1h1a1 1 0 0 0 0-2zm-7.7 1.72A4.92 4.92 0 0 0 15 8.5a5 5 0 0 0-10 0a4.92 4.92 0 0 0 1.7 3.72A8 8 0 0 0 2 19.5a1 1 0 0 0 2 0a6 6 0 0 1 12 0a1 1 0 0 0 2 0a8 8 0 0 0-4.7-7.28zM10 11.5a3 3 0 1 1 3-3a3 3 0 0 1-3 3z" fill="#ff7b26"/><rect x="0" y="0" width="24" height="24" fill="rgba(0, 0, 0, 0)" /></svg>