<svg xmlns="http://www.w3.org/2000/svg" width="512" height="512" viewBox="0 0 24 24" style="-ms-transform:rotate(360deg);-webkit-transform:rotate(360deg);transform:rotate(360deg)"><path d="M19 8h-1V5a3 3 0 0 0-3-3H5a3 3 0 0 0-3 3v12a1 1 0 0 0 .62.92A.84.84 0 0 0 3 18a1 1 0 0 0 .71-.29l2.81-2.82H8v1.44a3 3 0 0 0 3 3h6.92l2.37 2.38A1 1 0 0 0 21 22a.84.84 0 0 0 .38-.08A1 1 0 0 0 22 21V11a3 3 0 0 0-3-3zM8 11v1.89H6.11a1 1 0 0 0-.71.29L4 14.59V5a1 1 0 0 1 1-1h10a1 1 0 0 1 1 1v3h-5a3 3 0 0 0-3 3zm12 7.59-1-1a1 1 0 0 0-.71-.3H11a1 1 0 0 1-1-1V11a1 1 0 0 1 1-1h8a1 1 0 0 1 1 1z" fill="#FF7B26"/><path fill="rgba(0, 0, 0, 0)" d="M0 0h24v24H0z"/></svg>