<?xml version="1.0" encoding="UTF-8" standalone="no"?><!-- Generator: Gravit.io --><svg xmlns="http://www.w3.org/2000/svg" xmlns:xlink="http://www.w3.org/1999/xlink" style="isolation:isolate" viewBox="0 0 50 50" width="50pt" height="50pt"><defs><clipPath id="_clipPath_noZnWUXaApWclLGXVy7IHzV4UUhLGoan"><rect width="50" height="50"/></clipPath></defs><g clip-path="url(#_clipPath_noZnWUXaApWclLGXVy7IHzV4UUhLGoan)"><path d=" M 25 14 L 20.636 9.636 C 16.343 5.343 9.373 5.343 5.08 9.636 L 4.565 10.151 C 0.272 14.444 0.272 21.414 4.565 25.707 L 15.652 36.794 C 15.95 37.186 16.278 37.563 16.636 37.92 L 20.686 41.971 C 22.003 43.288 23.783 43.864 25.505 43.708 C 26.893 43.611 28.253 43.031 29.314 41.971 L 33.364 37.92 C 33.722 37.563 34.05 37.186 34.348 36.794 L 45.435 25.707 C 49.728 21.414 49.728 14.444 45.435 10.151 L 44.92 9.636 C 40.627 5.343 33.657 5.343 29.364 9.636 L 25 14 Z " fill-rule="evenodd" fill="rgb(255,50,50)"/><path d=" M 37.25 9.5 C 41.803 9.5 45.5 13.197 45.5 17.75" fill="none" vector-effect="non-scaling-stroke" stroke-width="2" stroke="rgb(255,255,255)" stroke-linejoin="miter" stroke-linecap="square" stroke-miterlimit="3"/><circle vector-effect="non-scaling-stroke" cx="36.25" cy="9.5" r="1" fill="rgb(255,255,255)"/><circle vector-effect="non-scaling-stroke" cx="45.5" cy="18.75" r="1" fill="rgb(255,255,255)"/></g></svg>
