<svg xmlns="http://www.w3.org/2000/svg" xmlns:xlink="http://www.w3.org/1999/xlink" width="512" height="512" preserveAspectRatio="xMidYMid meet" viewBox="0 0 24 24" style="-ms-transform: rotate(360deg); -webkit-transform: rotate(360deg); transform: rotate(360deg);"><path d="M20.16 5A6.29 6.29 0 0 0 12 4.36a6.27 6.27 0 0 0-8.16 9.48l6.21 6.22a2.78 2.78 0 0 0 3.9 0l6.21-6.22a6.27 6.27 0 0 0 0-8.84zm-1.41 7.46l-6.21 6.21a.76.76 0 0 1-1.08 0l-6.21-6.24a4.29 4.29 0 0 1 0-6a4.27 4.27 0 0 1 6 0a1 1 0 0 0 1.42 0a4.27 4.27 0 0 1 6 0a4.29 4.29 0 0 1 .08 6z" fill="rgb(232,18,36)"/><rect x="0" y="0" width="24" height="24" fill="rgba(0, 0, 0, 0)" /></svg>