<svg xmlns="http://www.w3.org/2000/svg" width="1024" height="1024" style="-ms-transform:rotate(360deg);-webkit-transform:rotate(360deg);transform:rotate(360deg)"><path d="M912 192H328c-4.4 0-8 3.6-8 8v56c0 4.4 3.6 8 8 8h584c4.4 0 8-3.6 8-8v-56c0-4.4-3.6-8-8-8zm0 284H328c-4.4 0-8 3.6-8 8v56c0 4.4 3.6 8 8 8h584c4.4 0 8-3.6 8-8v-56c0-4.4-3.6-8-8-8zm0 284H328c-4.4 0-8 3.6-8 8v56c0 4.4 3.6 8 8 8h584c4.4 0 8-3.6 8-8v-56c0-4.4-3.6-8-8-8zM104 228a56 56 0 1 0 112 0 56 56 0 1 0-112 0zm0 284a56 56 0 1 0 112 0 56 56 0 1 0-112 0zm0 284a56 56 0 1 0 112 0 56 56 0 1 0-112 0z" style="fill:#ff7b26;fill-opacity:1"/></svg>