<svg xmlns="http://www.w3.org/2000/svg" style="-ms-transform:rotate(360deg);-webkit-transform:rotate(360deg);transform:rotate(360deg)" height="20" width="20"><path style="fill:#ff7b26;stroke-width:2;stroke-miterlimit:4;stroke-dasharray:none;fill-opacity:1" fill="#626262" d="M17.897 5.5c0-1.38-2.02-3.4-3.4-3.4h-9c-1.38 0-3.4 2.02-3.4 3.4v9c0 1.38 2.02 3.4 3.4 3.4h9c1.38 0 3.4-2.02 3.4-3.4zm-13.9 3.4V5.5a1.5 1.5 0 0 1 1.5-1.5h6.1v4.1c0 .276-.524.8-.8.8zm9.2-4.9h1.3a1.5 1.5 0 0 1 1.5 1.5v9a1.5 1.5 0 0 1-1.5 1.5h-9a1.5 1.5 0 0 1-1.5-1.5v-4h7.2c.828 0 1.981-1.272 2-2.1z"/></svg>