<svg xmlns="http://www.w3.org/2000/svg" width="432" height="432"><path fill="#626262" d="M388.496 42.998c12.141 0 22.427 4.215 30.858 12.646C427.784 64.074 432 74.361 432 86.501V345.5c0 12.14-4.215 22.426-12.646 30.857-8.431 8.43-18.717 12.646-30.858 12.646H43.504c-12.141 0-22.427-4.215-30.858-12.646C4.216 367.926 0 357.639 0 345.499V86.5c0-12.14 4.215-22.426 12.646-30.857 8.431-8.43 18.717-12.646 30.858-12.646zm-130.376 302.5V237.247H43.504V345.5zm0-108.252V151.25H43.504v85.995zm130.376 108.253V151.25H295.92v194.248z" style="fill:#ff7b26;fill-opacity:1;stroke-width:1.01171"/></svg>