<?xml version="1.0" encoding="UTF-8" standalone="no"?>
<svg
   xmlns:dc="http://purl.org/dc/elements/1.1/"
   xmlns:cc="http://creativecommons.org/ns#"
   xmlns:rdf="http://www.w3.org/1999/02/22-rdf-syntax-ns#"
   xmlns:svg="http://www.w3.org/2000/svg"
   xmlns="http://www.w3.org/2000/svg"
   xmlns:sodipodi="http://sodipodi.sourceforge.net/DTD/sodipodi-0.dtd"
   xmlns:inkscape="http://www.inkscape.org/namespaces/inkscape"
   inkscape:version="1.0 (4035a4fb49, 2020-05-01)"
   sodipodi:docname="projectpage.svg"
   id="svg6"
   version="1.1"
   viewBox="0 0 432 432"
   preserveAspectRatio="xMidYMid meet"
   height="432"
   width="432">
  <metadata
     id="metadata12">
    <rdf:RDF>
      <cc:Work
         rdf:about="">
        <dc:format>image/svg+xml</dc:format>
        <dc:type
           rdf:resource="http://purl.org/dc/dcmitype/StillImage" />
        <dc:title></dc:title>
      </cc:Work>
    </rdf:RDF>
  </metadata>
  <defs
     id="defs10" />
  <sodipodi:namedview
     showguides="false"
     inkscape:current-layer="svg6"
     inkscape:window-maximized="1"
     inkscape:window-y="-9"
     inkscape:window-x="-9"
     inkscape:cy="161.80381"
     inkscape:cx="121.38948"
     inkscape:zoom="1.3151565"
     showgrid="false"
     id="namedview8"
     inkscape:window-height="1001"
     inkscape:window-width="1920"
     inkscape:pageshadow="2"
     inkscape:pageopacity="0"
     guidetolerance="10"
     gridtolerance="10"
     objecttolerance="10"
     borderopacity="1"
     bordercolor="#666666"
     pagecolor="#ffffff" />
  <path
     sodipodi:nodetypes="sssssssssssssccccccccccccccc"
     style="fill:#ff7b26;fill-opacity:1;stroke-width:1.01171"
     id="path2"
     fill="#626262"
     d="m 388.49648,42.997653 c 12.14051,0 22.42624,4.215457 30.85714,12.64637 C 427.78453,64.074936 432,74.360651 432,86.501166 V 345.49882 c 0,12.14052 -4.21547,22.42623 -12.64638,30.85715 -8.4309,8.43091 -18.71663,12.64638 -30.85714,12.64638 H 43.503512 c -12.140515,0 -22.42623,-4.21547 -30.857143,-12.64638 C 4.215456,367.92505 -1e-6,357.63934 -1e-6,345.49882 V 86.501166 c 0,-12.140515 4.215457,-22.42623 12.64637,-30.857143 8.430913,-8.430913 18.716628,-12.64637 30.857143,-12.64637 z M 258.12,345.49882 V 237.2459 H 43.503512 v 108.25292 z m 0,-108.25292 V 151.25076 L 43.503512,151.25057 V 237.2459 Z M 388.49648,345.49882 V 151.25076 H 295.92 v 194.24806 z" />
</svg>
