<svg xmlns="http://www.w3.org/2000/svg" xmlns:xlink="http://www.w3.org/1999/xlink" width="512" height="512" preserveAspectRatio="xMidYMid meet" viewBox="0 0 24 24" style="-ms-transform: rotate(360deg); -webkit-transform: rotate(360deg); transform: rotate(360deg);"><path d="M19.91 15.51h-4.53a1 1 0 0 0 0 2h2.4A8 8 0 0 1 4 12a1 1 0 0 0-2 0a10 10 0 0 0 16.88 7.23V21a1 1 0 0 0 2 0v-4.5a1 1 0 0 0-.97-.99zM12 2a10 10 0 0 0-6.88 2.77V3a1 1 0 0 0-2 0v4.5a1 1 0 0 0 1 1h4.5a1 1 0 0 0 0-2h-2.4A8 8 0 0 1 20 12a1 1 0 0 0 2 0A10 10 0 0 0 12 2z" fill="#ff7b26"/><rect x="0" y="0" width="24" height="24" fill="rgba(0, 0, 0, 0)" /></svg>