<svg xmlns="http://www.w3.org/2000/svg" width="512" height="512" viewBox="0 0 24 24" style="-ms-transform:rotate(360deg);-webkit-transform:rotate(360deg);transform:rotate(360deg)"><path d="M8.7 10a1 1 0 0 0 1.41 0 1 1 0 0 0 0-1.41l-6.27-6.3a1 1 0 0 0-1.42 1.42zM21 14a1 1 0 0 0-1 1v3.59L15.44 14A1 1 0 0 0 14 15.44L18.59 20H15a1 1 0 0 0 0 2h6a1 1 0 0 0 .38-.08 1 1 0 0 0 .54-.54A1 1 0 0 0 22 21v-6a1 1 0 0 0-1-1zm.92-11.38a1 1 0 0 0-.54-.54A1 1 0 0 0 21 2h-6a1 1 0 0 0 0 2h3.59L2.29 20.29a1 1 0 0 0 0 1.42 1 1 0 0 0 1.42 0L20 5.41V9a1 1 0 0 0 2 0V3a1 1 0 0 0-.08-.38z" fill="#ff7b26"/><path fill="rgba(0, 0, 0, 0)" d="M0 0h24v24H0z"/></svg>