<?xml version="1.0" encoding="UTF-8" standalone="no"?>
<svg
   xmlns:dc="http://purl.org/dc/elements/1.1/"
   xmlns:cc="http://creativecommons.org/ns#"
   xmlns:rdf="http://www.w3.org/1999/02/22-rdf-syntax-ns#"
   xmlns:svg="http://www.w3.org/2000/svg"
   xmlns="http://www.w3.org/2000/svg"
   xmlns:sodipodi="http://sodipodi.sourceforge.net/DTD/sodipodi-0.dtd"
   xmlns:inkscape="http://www.inkscape.org/namespaces/inkscape"
   inkscape:version="1.0 (4035a4fb49, 2020-05-01)"
   sodipodi:docname="settings-black.svg"
   id="svg4"
   version="1.1"
   viewBox="0 0 24 24"
   preserveAspectRatio="xMidYMid meet"
   style="-ms-transform: rotate(360deg); -webkit-transform: rotate(360deg); transform: rotate(360deg);"
   height="1em"
   width="1em"
   focusable="false"
   aria-hidden="true">
  <metadata
     id="metadata10">
    <rdf:RDF>
      <cc:Work
         rdf:about="">
        <dc:format>image/svg+xml</dc:format>
        <dc:type
           rdf:resource="http://purl.org/dc/dcmitype/StillImage" />
        <dc:title></dc:title>
      </cc:Work>
    </rdf:RDF>
  </metadata>
  <defs
     id="defs8" />
  <sodipodi:namedview
     inkscape:current-layer="svg4"
     inkscape:window-maximized="1"
     inkscape:window-y="-9"
     inkscape:window-x="-9"
     inkscape:cy="12"
     inkscape:cx="12"
     inkscape:zoom="24.45411"
     showgrid="false"
     id="namedview6"
     inkscape:window-height="1001"
     inkscape:window-width="1920"
     inkscape:pageshadow="2"
     inkscape:pageopacity="0"
     guidetolerance="10"
     gridtolerance="10"
     objecttolerance="10"
     borderopacity="1"
     bordercolor="#666666"
     pagecolor="#ffffff" />
  <path
     style="fill:#000000"
     id="path2"
     fill="white"
     d="M21.32 9.55l-1.89-.63l.89-1.78A1 1 0 0 0 20.13 6L18 3.87a1 1 0 0 0-1.15-.19l-1.78.89l-.63-1.89A1 1 0 0 0 13.5 2h-3a1 1 0 0 0-.95.68l-.63 1.89l-1.78-.89A1 1 0 0 0 6 3.87L3.87 6a1 1 0 0 0-.19 1.15l.89 1.78l-1.89.63a1 1 0 0 0-.68.94v3a1 1 0 0 0 .68.95l1.89.63l-.89 1.78A1 1 0 0 0 3.87 18L6 20.13a1 1 0 0 0 1.15.19l1.78-.89l.63 1.89a1 1 0 0 0 .95.68h3a1 1 0 0 0 .95-.68l.63-1.89l1.78.89a1 1 0 0 0 1.13-.19L20.13 18a1 1 0 0 0 .19-1.15l-.89-1.78l1.89-.63a1 1 0 0 0 .68-.94v-3a1 1 0 0 0-.68-.95zM20 12.78l-1.2.4A2 2 0 0 0 17.64 16l.57 1.14l-1.1 1.1l-1.11-.6a2 2 0 0 0-2.79 1.16l-.4 1.2h-1.59l-.4-1.2A2 2 0 0 0 8 17.64l-1.14.57l-1.1-1.1l.6-1.11a2 2 0 0 0-1.16-2.82l-1.2-.4v-1.56l1.2-.4A2 2 0 0 0 6.36 8l-.57-1.11l1.1-1.1L8 6.36a2 2 0 0 0 2.82-1.16l.4-1.2h1.56l.4 1.2A2 2 0 0 0 16 6.36l1.14-.57l1.1 1.1l-.6 1.11a2 2 0 0 0 1.16 2.79l1.2.4zM12 8a4 4 0 1 0 4 4a4 4 0 0 0-4-4zm0 6a2 2 0 1 1 2-2a2 2 0 0 1-2 2z" />
</svg>
