<svg xmlns="http://www.w3.org/2000/svg" id="Layer_1" data-name="Layer 1" viewBox="0 0 24 24" width="512" height="512"><path d="M18,24H10.437l.291-1.23A8.944,8.944,0,0,0,11,21a2,2,0,0,0-4,0,8.944,8.944,0,0,0,.272,1.77L7.563,24H0V9A3,3,0,0,1,3,6H5.272A9.929,9.929,0,0,1,5,4a4,4,0,0,1,8,0,9.929,9.929,0,0,1-.272,2H15a3,3,0,0,1,3,3v1.772a10.02,10.02,0,0,1,2-.272,4,4,0,0,1,0,8,10.02,10.02,0,0,1-2-.272Zm-5.086-2H16V15.582l1.291.392A11.224,11.224,0,0,0,20,16.5a2,2,0,0,0,0-4,11.224,11.224,0,0,0-2.709.526L16,13.418V9a1,1,0,0,0-1-1H10.082l.392-1.291A11.2,11.2,0,0,0,11,4,2,2,0,0,0,7,4a11.2,11.2,0,0,0,.526,2.709L7.918,8H3A1,1,0,0,0,2,9V22H5.086A7.149,7.149,0,0,1,5,21a4,4,0,0,1,8,0A7.149,7.149,0,0,1,12.914,22Z" fill="white"/></svg>