<svg xmlns="http://www.w3.org/2000/svg" xmlns:xlink="http://www.w3.org/1999/xlink" width="512" height="512" preserveAspectRatio="xMidYMid meet" viewBox="0 0 24 24" style="-ms-transform: rotate(360deg); -webkit-transform: rotate(360deg); transform: rotate(360deg);"><path d="M22 9.67a1 1 0 0 0-.86-.67l-5.69-.83L12.9 3a1 1 0 0 0-1.8 0L8.55 8.16L2.86 9a1 1 0 0 0-.81.68a1 1 0 0 0 .25 1l4.13 4l-1 5.68a1 1 0 0 0 .4 1a1 1 0 0 0 1.05.07L12 18.76l5.1 2.68a.93.93 0 0 0 .46.12a1 1 0 0 0 .59-.19a1 1 0 0 0 .4-1l-1-5.68l4.13-4A1 1 0 0 0 22 9.67zm-6.15 4a1 1 0 0 0-.29.89l.72 4.19l-3.76-2a1 1 0 0 0-.94 0l-3.76 2l.72-4.19a1 1 0 0 0-.29-.89l-3-3l4.21-.61a1 1 0 0 0 .76-.55L12 5.7l1.88 3.82a1 1 0 0 0 .76.55l4.21.61z" fill="#ffc83d"/><rect x="0" y="0" width="24" height="24" fill="rgba(0, 0, 0, 0)" /></svg>