<svg xmlns="http://www.w3.org/2000/svg" width="512" height="512" viewBox="0 0 24 24" style="-ms-transform:rotate(360deg);-webkit-transform:rotate(360deg);transform:rotate(360deg)"><path d="M22 9.67a1 1 0 0 0-.86-.67l-5.69-.83L12.9 3a1 1 0 0 0-1.8 0L8.55 8.16 2.86 9a1 1 0 0 0-.81.68 1 1 0 0 0 .25 1l4.13 4-1 5.68a1 1 0 0 0 .4 1 1 1 0 0 0 1.05.07L12 18.76l5.1 2.68a.93.93 0 0 0 .46.12 1 1 0 0 0 .59-.19 1 1 0 0 0 .4-1l-1-5.68 4.13-4A1 1 0 0 0 22" fill="#ffc83d"/><path fill="rgba(0, 0, 0, 0)" d="M0 0h24v24H0z"/></svg>