<svg xmlns="http://www.w3.org/2000/svg" xmlns:xlink="http://www.w3.org/1999/xlink" width="512" height="512" preserveAspectRatio="xMidYMid meet" viewBox="0 0 24 24" style="-ms-transform: rotate(360deg); -webkit-transform: rotate(360deg); transform: rotate(360deg);"><path d="M17 7h1v1a1 1 0 0 0 2 0V7h1a1 1 0 0 0 0-2h-1V4a1 1 0 0 0-2 0v1h-1a1 1 0 0 0 0 2zm4 4a1 1 0 0 0-1 1v6a1 1 0 0 1-1 1H5a1 1 0 0 1-1-1V8.41l5.88 5.89a3 3 0 0 0 4.24 0l2.47-2.47a1 1 0 0 0-1.42-1.42l-2.47 2.47a1 1 0 0 1-1.4 0L5.41 7H13a1 1 0 0 0 0-2H5a3 3 0 0 0-3 3v10a3 3 0 0 0 3 3h14a3 3 0 0 0 3-3v-6a1 1 0 0 0-1-1z" fill="#ff7b26"/><rect x="0" y="0" width="24" height="24" fill="rgba(0, 0, 0, 0)" /></svg>