<svg xmlns="http://www.w3.org/2000/svg" xmlns:xlink="http://www.w3.org/1999/xlink" width="24" height="24" preserveAspectRatio="xMidYMid meet" viewBox="0 0 24 24" style="-ms-transform: rotate(360deg); -webkit-transform: rotate(360deg); transform: rotate(360deg);"><g transform="translate(24 0) scale(-1 1)"><path d="M21 11a1 1 0 0 0-1 1a8.05 8.05 0 1 1-2.22-5.5h-2.4a1 1 0 0 0 0 2h4.53a1 1 0 0 0 1-1V3a1 1 0 0 0-2 0v1.77A10 10 0 1 0 22 12a1 1 0 0 0-1-1z" fill="rgb(255,123,38)"/></g><rect x="0" y="0" width="24" height="24" fill="rgba(0, 0, 0, 0)" /></svg>