<svg width="128" height="128" style="-ms-transform:rotate(360deg);-webkit-transform:rotate(360deg)" xmlns="http://www.w3.org/2000/svg"><path d="M64.992 66.34a28.234 28.234 0 0 0 9.756-21.347 28.693 28.693 0 0 0-57.386 0 28.234 28.234 0 0 0 9.756 21.347A45.908 45.908 0 0 0 .147 108.117a5.739 5.739 0 0 0 11.477 0 34.431 34.431 0 0 1 68.862 0 5.739 5.739 0 0 0 11.478 0A45.908 45.908 0 0 0 64.992 66.34zm-18.937-4.132a17.216 17.216 0 1 1 17.216-17.215 17.216 17.216 0 0 1-17.216 17.215zm55.894 1.837A28.693 28.693 0 0 0 80.486 16.3a5.739 5.739 0 0 0 0 11.477 17.216 17.216 0 0 1 17.216 17.216 17.216 17.216 0 0 1-8.608 14.863 5.739 5.739 0 0 0-2.869 4.82 5.739 5.739 0 0 0 2.582 4.935l2.238 1.492.746.402a40.17 40.17 0 0 1 22.955 36.612 5.739 5.739 0 0 0 11.477 0 51.647 51.647 0 0 0-24.274-44.072z" fill="#ff7b26" style="stroke-width:5.73856"/></svg>