<svg xmlns="http://www.w3.org/2000/svg" xmlns:xlink="http://www.w3.org/1999/xlink" width="24" height="24" preserveAspectRatio="xMidYMid meet" viewBox="0 0 24 24" style="-ms-transform: rotate(360deg); -webkit-transform: rotate(360deg); transform: rotate(360deg); vertical-align: -0.125em;"><path d="M12.3 12.22A4.92 4.92 0 0 0 14 8.5a5 5 0 0 0-10 0a4.92 4.92 0 0 0 1.7 3.72A8 8 0 0 0 1 19.5a1 1 0 0 0 2 0a6 6 0 0 1 12 0a1 1 0 0 0 2 0a8 8 0 0 0-4.7-7.28zM9 11.5a3 3 0 1 1 3-3a3 3 0 0 1-3 3zm9.74.32A5 5 0 0 0 15 3.5a1 1 0 0 0 0 2a3 3 0 0 1 3 3a3 3 0 0 1-1.5 2.59a1 1 0 0 0-.5.84a1 1 0 0 0 .45.86l.39.26l.13.07a7 7 0 0 1 4 6.38a1 1 0 0 0 2 0a9 9 0 0 0-4.23-7.68z" fill="#FFF"/><rect x="0" y="0" width="24" height="24" fill="rgba(0, 0, 0, 0)" /></svg>