<svg xmlns="http://www.w3.org/2000/svg" xmlns:xlink="http://www.w3.org/1999/xlink" aria-hidden="true" focusable="false" width="1em" height="1em" style="-ms-transform: rotate(360deg); -webkit-transform: rotate(360deg); transform: rotate(360deg);" preserveAspectRatio="xMidYMid meet" viewBox="0 0 24 24"><path d="M21.41 8.64v-.05a10 10 0 0 0-18.78 0v.05a9.86 9.86 0 0 0 0 6.72v.05a10 10 0 0 0 18.78 0v-.05a9.86 9.86 0 0 0 0-6.72zM4.26 14a7.82 7.82 0 0 1 0-4h1.86a16.73 16.73 0 0 0 0 4zm.82 2h1.4a12.15 12.15 0 0 0 1 2.57A8 8 0 0 1 5.08 16zm1.4-8h-1.4a8 8 0 0 1 2.37-2.57A12.15 12.15 0 0 0 6.48 8zM11 19.7A6.34 6.34 0 0 1 8.57 16H11zm0-5.7H8.14a14.36 14.36 0 0 1 0-4H11zm0-6H8.57A6.34 6.34 0 0 1 11 4.3zm7.92 0h-1.4a12.15 12.15 0 0 0-1-2.57A8 8 0 0 1 18.92 8zM13 4.3A6.34 6.34 0 0 1 15.43 8H13zm0 15.4V16h2.43A6.34 6.34 0 0 1 13 19.7zm2.86-5.7H13v-4h2.86a14.36 14.36 0 0 1 0 4zm.69 4.57a12.15 12.15 0 0 0 1-2.57h1.4a8 8 0 0 1-2.4 2.57zM19.74 14h-1.86a16.16 16.16 0 0 0 .12-2a16.28 16.28 0 0 0-.12-2h1.86a7.82 7.82 0 0 1 0 4z" fill="#ff7b26"/></svg>