<svg xmlns="http://www.w3.org/2000/svg" width="453.581" height="339.145" viewBox="0 0 453.581 339.145"><g stroke-miterlimit="10" data-paper-data="{&quot;isPaintingLayer&quot;:true}" style="mix-blend-mode:normal"><path d="M147.581 80.655c0 10.177-8.25 18.427-18.428 18.427-10.177 0-18.427-8.25-18.427-18.427 0-10.178 8.25-18.428 18.427-18.428 10.178 0 18.428 8.25 18.428 18.428"/><path fill="#ac83ff" d="M146.289 78.878c0 10.453-8.474 18.928-18.928 18.928-10.453 0-18.927-8.475-18.927-18.928s8.474-18.928 18.927-18.928c10.454 0 18.928 8.475 18.928 18.928"/><path d="m131.784 157.262 14.328-7.676-3.07-21.492 17.398 10.746 7.164-11.77 7.164 11.77 14.84-7.676-.512 15.352 15.863 5.628 8.531 3.452-19.726 7.334 8.599 19.22-20.99-9.357-1.012 14.415-8.345-14.415-14.163 14.92-.505-18.208-16.691 8.093 7.84-15.427z"/><path fill="#f3f08f" stroke="#f3f08f" stroke-linecap="round" stroke-width=".5" d="m127.037 152.262 14.328-7.676-3.07-21.492 17.398 10.746 7.164-11.77 7.164 11.77 14.84-7.676-.512 15.352 15.863 5.628 8.531 3.452-19.726 7.334 8.599 19.22-20.99-9.357-1.012 14.415-8.346-14.415-14.162 14.92-.505-18.208-16.691 8.093 7.84-15.427z"/><g stroke-width="0"><path d="m201.86 239.263 12.09-30.278 5.167 2.344s-1.254 2.678-2.116 4.835c-2.033 5.093-9.975 25.442-9.975 25.442z"/><path d="m214.123 208.872 24.043 9.076-1.77 4.107s-2.129-.949-3.842-1.595c-4.044-1.527-20.2-7.481-20.2-7.481z"/><path d="m247.373 190.681-10.655 31.494-5.39-2.103s1.13-2.796 1.89-5.04c1.792-5.298 8.765-26.454 8.765-26.454z"/><path d="m271.418 202.807-30.836-8.849 1.784-5.29s2.746.964 4.943 1.595c5.187 1.488 25.894 7.255 25.894 7.255z"/><path d="m283.903 172.88-12.357 29.072-4.955-2.38s1.272-2.567 2.152-4.639c2.079-4.89 10.205-24.433 10.205-24.433z"/></g><g fill="#79cae0" stroke-width="0"><path d="m200.716 235.763 12.092-30.278 5.166 2.344s-1.254 2.678-2.115 4.835c-2.034 5.093-9.976 25.442-9.976 25.442z"/><path d="m212.98 205.372 24.044 9.076-1.77 4.107s-2.13-.949-3.843-1.595c-4.044-1.527-20.2-7.481-20.2-7.481z"/><path d="m246.23 187.181-10.655 31.494-5.39-2.103s1.13-2.796 1.89-5.04c1.792-5.298 8.765-26.454 8.765-26.454z"/><path d="m270.276 199.307-30.837-8.849 1.784-5.29s2.746.964 4.943 1.595c5.187 1.488 25.894 7.255 25.894 7.255z"/><path d="m282.76 169.38-12.357 29.072-4.955-2.38s1.272-2.567 2.152-4.639c2.079-4.89 10.205-24.433 10.205-24.433z"/></g><path d="M257.581 100.891c0 7.838-6.354 14.191-14.191 14.191s-14.191-6.353-14.191-14.19c0-7.838 6.353-14.192 14.191-14.192 7.837 0 14.191 6.354 14.191 14.191"/><path fill="#79cae0" d="M255.816 99.908c0 7.838-6.354 14.191-14.191 14.191s-14.191-6.353-14.191-14.19c0-7.838 6.353-14.192 14.19-14.192 7.838 0 14.192 6.354 14.192 14.191"/><path d="M79.179 249.212v-49h50v49z"/><path fill="#f79a96" d="M76.179 246.212v-49h50v49z"/><g stroke-linecap="round" stroke-width="0"><path d="m160.125 38.22 12.34-5.922-2.645-16.58 14.983 8.29 6.17-9.08 6.17 9.08 12.78-5.922-.441 11.844 13.661 4.342 7.347 2.663-16.988 5.658 7.405 14.828-18.076-7.218-.872 11.12-7.187-11.12-12.196 11.51-.436-14.047-14.374 6.244 6.752-11.902z"/><path fill="#f79a96" d="m156.037 34.363 12.339-5.922-2.644-16.58 14.983 8.29 6.17-9.08 6.17 9.08 12.78-5.922-.441 11.843 13.66 4.343 7.348 2.663-16.988 5.658 7.405 14.828-18.077-7.219-.87 11.121-7.188-11.121-12.196 11.511-.436-14.047-14.374 6.243 6.752-11.901z"/></g><g stroke-linecap="round" stroke-width="0"><path d="m118.125 294.72 12.34-5.922-2.645-16.58 14.983 8.29 6.17-9.08 6.17 9.08 12.78-5.922-.441 11.844 13.661 4.342 7.347 2.663-16.988 5.658 7.405 14.828-18.076-7.219-.872 11.122-7.187-11.122-12.196 11.512-.436-14.048-14.374 6.243 6.752-11.901z"/><path fill="#96f" d="m114.037 290.863 12.339-5.922-2.644-16.58 14.983 8.29 6.17-9.08 6.17 9.08 12.78-5.922-.441 11.843 13.66 4.343 7.348 2.663-16.988 5.658 7.405 14.828-18.077-7.219-.87 11.121-7.188-11.121-12.196 11.511-.436-14.047-14.374 6.243 6.752-11.901z"/></g><g stroke="#000"><path stroke-width=".5" d="m3.465 114.211 26.609-33.773 17.204-19.957 27.12 70.617z"/><path fill="#f79a96" stroke="none" d="m0 110.235 26.61-33.773 17.203-19.957 27.12 70.616z"/></g><g stroke="#000"><path stroke-width=".5" d="m228.465 277.211 26.609-33.773 17.204-19.957 27.12 70.617z"/><path fill="#ac83ff" stroke="none" d="m225 273.235 26.609-33.774 17.204-19.956 27.12 70.616z"/></g><path d="M361.581 158.655c0 10.177-8.25 18.427-18.428 18.427-10.177 0-18.427-8.25-18.427-18.427 0-10.178 8.25-18.428 18.427-18.428 10.178 0 18.428 8.25 18.428 18.428"/><path fill="#f79a96" d="M359.289 157.378c0 10.177-8.25 18.428-18.428 18.428-10.177 0-18.427-8.25-18.427-18.428 0-10.177 8.25-18.428 18.427-18.428 10.178 0 18.428 8.25 18.428 18.428"/><g stroke-width="0"><path d="m252.36 72.263 12.09-30.278 5.167 2.344s-1.254 2.678-2.116 4.835c-2.033 5.093-9.975 25.442-9.975 25.442z"/><path d="m264.623 41.872 24.043 9.076-1.77 4.107s-2.129-.949-3.842-1.595c-4.044-1.527-20.2-7.481-20.2-7.481z"/><path d="m297.873 23.681-10.655 31.494-5.39-2.103s1.13-2.796 1.89-5.04c1.792-5.298 8.765-26.454 8.765-26.454z"/><path d="m321.918 35.807-30.836-8.849 1.784-5.29s2.746.964 4.943 1.595c5.187 1.488 25.894 7.255 25.894 7.255z"/><path d="m334.403 5.88-12.357 29.072-4.955-2.38s1.272-2.567 2.152-4.639c2.079-4.89 10.205-24.433 10.205-24.433z"/><g fill="#f3f08f"><path d="m251.216 68.763 12.092-30.278 5.166 2.344s-1.254 2.678-2.115 4.835c-2.034 5.093-9.976 25.442-9.976 25.442z"/><path d="m263.48 38.372 24.044 9.076-1.77 4.107s-2.13-.949-3.843-1.595c-4.044-1.527-20.2-7.481-20.2-7.481z"/><path d="m296.73 20.181-10.655 31.494-5.39-2.103s1.13-2.796 1.89-5.04c1.792-5.298 8.765-26.454 8.765-26.454z"/><path d="m320.776 32.307-30.837-8.849 1.784-5.29s2.746.964 4.943 1.595c5.187 1.488 25.894 7.255 25.894 7.255z"/><path d="m333.26 2.38-12.357 29.072-4.955-2.38s1.272-2.567 2.152-4.639C320.18 19.543 328.305 0 328.305 0z"/></g></g><path d="M222.217 337.212V303.93h33.962v33.283z"/><path fill="#79cae0" d="M220.179 335.175v-33.283h33.962v33.283z"/><path d="M46.581 222.655c0 10.177-8.25 18.427-18.428 18.427-10.177 0-18.427-8.25-18.427-18.427 0-10.178 8.25-18.428 18.427-18.428 10.178 0 18.428 8.25 18.428 18.428"/><path fill="#f3f08f" d="M45.289 220.878c0 10.453-8.474 18.928-18.928 18.928-10.453 0-18.927-8.475-18.927-18.928s8.474-18.928 18.927-18.928c10.454 0 18.928 8.475 18.928 18.928"/><g stroke="#000"><path stroke-width=".5" d="m31.05 338.77 2.69-42.911 2.807-26.199 62.459 42.675z"/><path fill="#79cae0" stroke="none" d="m25.94 337.47 2.689-42.913 2.807-26.198 62.458 42.674z"/></g><g stroke-linecap="round" stroke-width="0"><path d="m329.125 87.72 12.34-5.922-2.645-16.58 14.983 8.29 6.17-9.08 6.17 9.08 12.78-5.922-.441 11.844 13.661 4.342 7.347 2.663-16.988 5.658 7.405 14.828-18.076-7.218-.872 11.12-7.187-11.12-12.196 11.51-.436-14.047-14.374 6.244 6.752-11.902z"/><path fill="#ac83ff" d="m325.037 83.863 12.339-5.922-2.644-16.58 14.983 8.29 6.17-9.08 6.17 9.08 12.78-5.922-.441 11.843 13.66 4.343 7.348 2.663-16.988 5.658 7.405 14.828-18.077-7.219-.87 11.121-7.188-11.121-12.196 11.511-.436-14.047-14.374 6.243 6.752-11.901z"/></g><g stroke-width="0"><path d="m315.36 304.263 12.09-30.278 5.167 2.344s-1.254 2.678-2.116 4.835c-2.033 5.093-9.975 25.442-9.975 25.442z"/><path d="m327.623 273.872 24.043 9.076-1.77 4.107s-2.129-.949-3.842-1.595c-4.044-1.527-20.2-7.481-20.2-7.481z"/><path d="m360.873 255.681-10.655 31.494-5.39-2.103s1.13-2.796 1.89-5.04c1.792-5.298 8.765-26.454 8.765-26.454z"/><path d="m384.918 267.807-30.836-8.849 1.784-5.29s2.746.964 4.943 1.595c5.187 1.488 25.894 7.255 25.894 7.255z"/><path d="m397.403 237.88-12.357 29.072-4.955-2.38s1.272-2.567 2.152-4.639c2.079-4.89 10.205-24.433 10.205-24.433z"/><g fill="#f3f08f"><path d="m314.216 300.763 12.092-30.278 5.166 2.344s-1.254 2.678-2.115 4.835c-2.034 5.093-9.976 25.442-9.976 25.442z"/><path d="m326.48 270.372 24.044 9.076-1.77 4.107s-2.13-.949-3.843-1.595c-4.044-1.527-20.2-7.481-20.2-7.481z"/><path d="m359.73 252.181-10.655 31.494-5.39-2.103s1.13-2.796 1.89-5.04c1.792-5.298 8.765-26.454 8.765-26.454z"/><path d="m383.776 264.307-30.837-8.849 1.784-5.29s2.746.964 4.943 1.595c5.187 1.488 25.894 7.255 25.894 7.255z"/><path d="m396.26 234.38-12.357 29.072-4.955-2.38s1.272-2.567 2.152-4.639c2.079-4.89 10.205-24.433 10.205-24.433z"/></g></g><g stroke="#000"><path stroke-width=".5" d="m383.864 196.242 4.936-34.21 3.953-20.823 47.584 37.46z"/><path fill="#f3f08f" stroke="none" d="m379.828 194.93 4.937-34.209 3.952-20.824 47.585 37.46z"/></g><path d="M453.581 320.655c0 10.177-8.25 18.427-18.428 18.427-10.177 0-18.427-8.25-18.427-18.427 0-10.178 8.25-18.428 18.427-18.428 10.178 0 18.428 8.25 18.428 18.428"/><path fill="#96f" d="M451.289 319.378c0 10.177-8.25 18.428-18.428 18.428-10.177 0-18.427-8.25-18.427-18.428 0-10.177 8.25-18.428 18.427-18.428 10.178 0 18.428 8.25 18.428 18.428"/></g></svg>