<svg xmlns="http://www.w3.org/2000/svg" xml:space="preserve" id="svg15134" x="0" y="0" viewBox="0 0 211.57 76.23"><style id="style10908" type="text/css">.st1{display:none}.st2{display:inline}.st4{fill:none;stroke:#a44a9c;stroke-width:2;stroke-miterlimit:10}.st5{font-family:&quot;Silom&quot;}.st6{font-size:42px}.st7{fill:#a44a9c}</style><g id="Background"><path id="path14688" d="M194.06 76.23H17.51C7.84 76.23 0 68.39 0 58.72V17.51C0 7.84 7.84 0 17.51 0h176.55c9.67 0 17.51 7.84 17.51 17.51v41.21c0 9.67-7.84 17.51-17.51 17.51" style="fill:#71c8b7"/></g><g id="Layer_6"><g id="g14951"><g id="g14949"><g id="g14947"><g id="g14945"><g id="g14943"><path id="path14781" d="M210.71 56.63c.3-.03.11-.41.13-.5-.47.2-.1.6-.13.5" class="st7"/><path id="polygon14783" d="m206.01 58.62.06-.19-.64.57z" class="st7"/><path id="path14785" d="M201.41 59.54c.57.61 1.65-.44 2.52-.36l.17.13.26-.64c-.99.3-2.21.93-2.95.87" class="st7"/><path id="path14787" d="M198.67 58.48c.2.25-.49.33.59-.02-.06-.02-.08-.03-.12-.05-.09.03-.23.05-.47.07" class="st7"/><path id="path14789" d="M199.14 58.41c.48-.11-.36-.17 0 0" class="st7"/><path id="path14791" d="m196.94 58.98.59-.36c-.16-.14-.74-.07-.55-.23-.62.25-.46.39-.04.59" class="st7"/><path id="path14793" d="m196.42 59.6.31-.16c-.06-.06-.16-.07-.31.16" class="st7"/><path id="path14795" d="m197.4 59.1-.66.34c.11.1.16.32.31-.14-.03.22.08 0 .35-.2" class="st7"/><path id="path14797" d="M197.82 59.13c.39.09.87.1.27.46 1.2-.32.93-.78-.27-.46" class="st7"/><path id="path14799" d="m201.32 60.31.52.11.37-.32c-.19.16-.96 0-.89.21" class="st7"/><path id="path14801" d="M192.9 59.3c-.02.16.28.36.36.55l.44-.25c-.26-.06-.73-.08-.8-.3" class="st7"/><path id="path14803" d="m193.26 59.85-.66.37c.63-.07.73-.21.66-.37" class="st7"/><path id="polygon14805" d="m196.45 60.4 1.06-.74-1.29.79z" class="st7"/><path id="polygon14807" d="m190.2 59.72.35-.41-.64.64z" class="st7"/><path id="path14809" d="M188.42 60.06c.25-.33-.48-.42-.19-.65-.48.12-.86.44-1.2.71.38-.18.8-.22 1.39-.06" class="st7"/><path id="path14811" d="M186.44 60.53c.19-.1.38-.25.58-.41-.2.1-.39.22-.58.41" class="st7"/><path id="path14813" d="M191.38 60.35c-.07-.08-.21-.3-.62-.34l.35.38c.07-.02.17-.03.27-.04" class="st7"/><path id="path14815" d="m191.11 60.4-.01-.01c-.3.04-.52.06-.61.07.08-.01.27-.03.62-.06" class="st7"/><path id="path14817" d="M191.45 60.34c-.03 0-.04.01-.07.01.03.03.05.05.07-.01" class="st7"/><path id="path14819" d="M194.53 60.35c-.37.31-1.2.7-.3.92.25-.34-.27-.46.3-.92" class="st7"/><path id="path14821" d="m191.88 60.81.77-.03c-.03-.11-.2-.25-.01-.4z" class="st7"/><path id="polygon14823" d="m191.53 61 .35-.19-.29.01z" class="st7"/><path id="path14825" d="M187.79 60.74c-.3.24-.65.3-1.05.39.44.02.9 0 1.32-.06.04-.15.19-.41-.27-.33" class="st7"/><path id="path14827" d="M189.41 60.61c-.02.01-.05.02-.07.04.05.03.09.03.07-.04" class="st7"/><path id="polygon14829" d="m182.78 61.68.07.06.01-.07z" class="st7"/><path id="path14831" d="M188.15 61.13c.34.03.51-.1.68-.26-.24.08-.49.15-.76.19-.03.07-.03.11.08.07" class="st7"/><path id="path14833" d="M185.37 60.89c.18.06.38.11.59.15-.18-.11-.55-.27-.59-.15" class="st7"/><path id="path14835" d="M189.21 60.55c.02-.01.03-.02.05-.03-.12-.07-.1-.03-.05.03" class="st7"/><path id="path14837" d="M189.21 60.55c-.16.09-.27.21-.39.32.19-.06.37-.14.52-.22a.6.6 0 0 1-.13-.1" class="st7"/><path id="path14839" d="M181.92 64.55c.01-.4.82-.88 1.62-.55.69-.39.04-1.62-.69-2.26 0 .17.02.33-.7.66.29.18 1.73.28 1.14.72-.97.33-.83-.03-1.34-.18.47.44-1.17.88-.87 1.57l.84-.37c.04.12-.25.34 0 .41" class="st7"/><path id="path14841" d="m184.28 61.6.3-.09c-.36-.02-.63-.14-1.13-.39-.48.26-.57.42-.59.55l1.52-.15z" class="st7"/><path id="path14843" d="M185.96 61.31c-.18.46-.89.75-.37 1.14.9-.16.58-.45 1.09-.71-1.44.31.38-.3-.7-.39.28-.11.53-.17.77-.22q-.405-.015-.78-.09c.01.01.02.01.04.02h.01v.01c.07.04.1.07.02.05 0 .01-.02.01-.03.01-.01.06-.03.12-.05.18-.43-.03-.08-.1.04-.17 0-.02.01-.04.01-.07H186l-1.42.44c.31.01.7-.06 1.38-.2" class="st7"/><path id="path14845" d="M193.6 62.31c-.05-.03-.05-.06-.06-.09-.09.07-.12.11.06.09" class="st7"/><path id="path14847" d="M192.96 62.15c.1-.08.16-.26.51-.27.32.08.03.2.07.34.19-.15.68-.42-.01-.52l-.09.07c-.61-.05-1.45-.46-1.36-.53.23.35.43.6.88.91" class="st7"/><path id="path14849" d="m189.42 61.86-1.18.4.67.27-.07-.22c.72-.01.52-.26.58-.45" class="st7"/><path id="polygon14851" d="m182.61 61.48.1-.47-.62.73z" class="st7"/><path id="polygon14853" d="m181.04 61.74.01-.4-.39.29z" class="st7"/><path id="path14855" d="m141.05 57.28-.34.16c.16-.06.27-.11.34-.16" class="st7"/><path id="path14857" d="m143.63 57.01.04-.2c-.11.12-.15.21-.04.2" class="st7"/><path id="path14859" d="M167.8 58.68c.53.25 1.15.71 1.01.28l-.23-.39c-.31.14-.56.15-.78.11" class="st7"/><path id="path14861" d="m164.82 53.54.15.13q.195-.225.36-.42c-.15.1-.33.19-.51.29" class="st7"/><path id="path14863" d="m164.45 55.34-.69-.28c.16.1.38.19.69.28" class="st7"/><path id="path14865" d="m127.17 59.97-.32.52c.63-.13.31-.3.32-.52" class="st7"/><path id="path14867" d="M165.02 63.52c-.17-.16-.26-.22-.36-.23.09.24.31.59.36.23" class="st7"/><path id="path14869" d="M141.53 52.59c-.21.1-.3.2-.28.3.22-.1.34-.2.28-.3" class="st7"/><path id="path14871" d="M164.25 63.31c0 .04.01.07.02.1.16-.08.28-.15.4-.13-.09-.18-.1-.29-.42.03" class="st7"/><path id="path14873" d="M76.54 72.1c-.04-.01-.09-.02-.13-.04 0 .06.05.06.13.04" class="st7"/><path id="path14875" d="M61.05 68.97c.15-.04.39-.05.62-.07-.12-.02-.3-.01-.62.07" class="st7"/><path id="path14877" d="M174.67 62.29c.33-.06.04-.05 0 0" class="st7"/><path id="path14879" d="M176.49 63.82c-.07.06-.11.12-.11.22.01-.1.05-.17.11-.22" class="st7"/><path id="path14881" d="M159.11 66.35h-.03c-.02.09-.01.07.03 0" class="st7"/><path id="path14883" d="M175.19 62.43c-.13-.04-.28-.07-.44-.08.07.03.21.06.44.08" class="st7"/><path id="path14885" d="M175.1 62.24c.12 0 .21.01.3.01.03-.08-.01-.12-.3-.01" class="st7"/><path id="path14887" d="M174.2 62.37c.19-.03.37-.03.55-.01-.07-.02-.1-.04-.08-.06-.1.01-.24.03-.47.07" class="st7"/><path id="path14889" d="M103.67 64.49c-.03-.01-.05-.01-.08-.02-.28.28-.14.2.08.02" class="st7"/><path id="path14891" d="m175.5 52.62-.03.03c.02 0 .04 0 .05.01z" class="st7"/><path id="path14893" d="M176.64 52.08c-.41.63-.72.61-1.12.57l.62 1.16z" class="st7"/><path id="path14895" d="m134.93 58.27.89.25c-.91.79-1.67.69-.8 1.11-.09-1.37 3.21-.63 3.14-1.97l.59.21c-.16.01-.17.09-.33.1 1.16.5.67-1.08 2.08-1.08.5.04.86.2.55.4l1.04-.46c.32-.01.27.23-.05.24l1.64-.29-.01.04c.21-.24.71-.63.96-.8.44.15-.2.17-.07.32l.88-.42c.41.32-.32.72-.95.75.99 1.25.72-.42 2.64.2l-.85.25c.63.72 1.27.38 2.28.77-.25-.23-2.05-1.03-1.09-1.46.29.08.66.09 1.17-.23.05.48.56.31 1.21.24v.64c.69-.23.61-.55 1.01-.87.79.01.99.49 1.2.9 1.27.01-.92-.73.56-.96 1.07.16 1.79-.12 3.03-.56.75.19-.11.4.16.57l.63-.54c.16 0 .12.16.09.24.54-.22.02-.64.88-.86.21-.73 1.82.98 2.87.15.27.17-.12.4-.03.64 1.46-.56 1.25-.43 2.46-1.14l1.04.42c-.76-.48.2-1.05 1.06-1.52-.27-.23-.5-.43-.66-.53l1.37-.35c.17.1.03.32-.2.59.09-.05.18-.11.25-.15.49.23.23.6-.12.96l-.49-.39c-.34.39-.65.82-.58 1.2.09-.07.26-.14.44-.17-.09.11-.14.2-.1.26.05.07.19-.07.41-.24l.31.71.08-.28c.59.14 1.18.3 1.77.46 1.27-.68 2.4-1.75 4.44-1.97-.52.5-.14.85-.18 1.47-.53-.69-1.57.23-2.6.08.54.08.42.37.28.47.62-.18 1.25-.38 1.87-.55-.06.5.38.4.86.62-.33-1.02 1.41-.61 2.18-.89.03.34-.17.67-1.08.56.98.8 1.37-1.13 2.34-.43-.23-.01-.34-.07-.44.1.54-.27 1.82.05 1.5.32l-.22-.01c.79.11 2.01.19 3.03.11l-.17-3.05c-.88.29-1.57.66-1.6 1.07-.03-.11.01-1.04.07-1.23l-2.13 3.3c.1-.76-1.11-2.31.04-2.94-.37-.04-.83-.08-1.53.32.26.06.79.93.48 1.05-1.05-.63-.71-.31-1.95-.79.39.09.2 1.29-.38 1.36.06-.19-.25-1.1-.07-1.26l-1.22 1.37c.32-.26-.11-.95-.49-1.2.19.19-1.23.21-1.59.39l.65.14c-1.65.15-1.33 1.83-2.9 2.2.11-.27.12-1.54-.83-1.38-.11.34-.35 1.15-.56 2.01-.23.86-.35 1.71-.65 2.27-.13-.03-.26-.07-.39-.09-.16.31-.29.63-.42.95a6.5 6.5 0 0 1-.04-2.37c.15-.96.65-1.97 1.1-2.54-.79.09-.36-.3-1.39.31-.54-.04.34-.76.67-.91-.89.34-1.8.88-2.54 1.45.27.21-.02.69-.24 1.15-.23.46-.42.9-.18 1.05.38-.8.87-1.62 1.56-2.42.25.24.16.87-.03 1.56-.21.69-.51 1.42-1.06 2.01-.52.22-.71-1.03-.91-1.13.05.12-.24.64-.48 1.07-.26.44-.54.83-.68.89.07-.29.15-.6.24-.92-.51.47-.63 1-.76 1.46-.14.48-.29.89-1.13 1.49-.18.2-.69.53-1.12.84s-.77.59-.52.58c1.66-.96 4.75-1.12 5.43-1.06-.06.04-.49.31-1.07.7-.57.38-1.29.91-1.74 1.18-.69.42-1.2.51-1.62.49-.43 0-.77-.1-1.41.32.28-.07.41.14.43.23-.57.5-.86.2-1.39 1.06 1.14-.39-1.43 1.82.76-.06-.11.32-.33.55-.62.84-.14.14-.28.29-.46.48-.01.02-.06.06-.04.06h.2c.11 0 .24 0 .39-.02.24-.23 1.26-.66 2.25-1.06 1-.4 1.98-.77 2.46-.9-.31.19-.5.44-.57.54 1.5-.01 2.13.24 3.81.14.05.16.85.31.38.64.32-.14.62-.4 1.16-.45 1.05.51-1.3.19-.58.84.18-.41 1.7-.67 2.21-.96-.13-.3-.48-.3-.95-.19-.48.12-1.08.35-1.52.5.13-.43.58-.9 1.05-1.31.25-.21.44-.4.75-.57.31-.18.66-.33 1.04-.46 1.21-.3.58.5.78.37 2.32-.06 1.83-1.63 3.8-1.2.81.46.14 1.06.34 1.43-.98.3-1.57-.2-2.24-.12l.86.18c-.3.21-.96.4-1.34.28.68.43 3.91-.26 5.74 0 .3-.21.82-.46.54-.65l-.55.14c-.56-.37.99-.71.26-.84.72-.39 1.51-.95 2.6-.82l.27.59c-.04-.17-.73-.29-1.01-.07.41-.31 1.72.64 2.11-.22l-.79-.33c.72-.4 1.57-1.15 2.53-1.07-.5-.55-.21.09-.96-.53.68.81-2.39.25-1.36 1.06-.78-.73-1.22-.21-2.19-.81.05.2.36.35-.44.34-.03.06-.1.15-.15.2-.02 0-.03-.01-.05-.01l.05.02c-.03.03-.03.04.02.01.2.07.36.16.43.26-.34.5-1.59.63-1.99.91-.48-.05.17-.25-.11-.44l-.6.42c-.11-.44-1.31-.62-.24-.99l-.99.08c-.61-.19-1.41-.21-1.89.02-.47-.06-1.13.6-.76.21l-1.53.41-.02-.11c-.77.04-1.54.28-2.35.44-.41.12-.84.15-.95-.25-.23.13-.59.29-.8.18l.37-.42c-.17.08-.2-.02-.22-.08s-.05-.09-.44.13c.39-.29.6-.45.69-.53.08-.08.02-.06.04-.11-.04-.03-.21-.07.01-.21l-.83.26c.19-.21.09-.32.07-.63l-.58.02c-.1-.18.2-.44.5-.64.14-.09.3-.19.45-.29.07-.04.13-.09.19-.14q.165-.165.3-.33c.04.09 0 .18-.07.26-.04.04-.08.08-.13.12s-.07.02-.11.03l.11.01c.04-.01.09-.04.14-.06.09-.04.17-.09.25-.14.15-.1.28-.21.39-.34.22-.25.38-.54.55-.81.31-.54.74-1.06 1.43-.93.21-.25.44-.27.68-.23-.03.01-.05.02-.07.04.03 0 .08-.02.12-.03q.225.06.48.12c-.16-.07-.3-.13-.42-.14.23-.07.58-.22.93-.41l.26.44c.03-.01.05-.02.09-.03.41.1.26-.29-.02-.6.18-.12.35-.25.47-.39.46.7 1.04-.46 1.64.27.21-.45 2.04-.69 2.11-1.57.03.11.17.14-.06.18.48.01.97.02 1.34-.29l.31.57.87-1c.69.25.98.42.45 1 1.35-.99 1.15-.49 2.28-1.43l.01.4c.45-.1 1.07-.75 1.4-.48.04.02.07.03.12.04l6.29 1.55-6.43-4.12c-1.12-.72-5.05-.39-7.6-1.14.48 1.19-1.22-.58-1.35.33-.15-.28-.51-.44-.08-.67-1.36.25-2.03-.47-2.98.27-.15-.28.3-.4.16-.57-.11.06-.43.23-.57.06s.2-.23.42-.34c-1.39.02-1.54.88-1.64 1.68-.7-.37-1.05-.32-1.55.2-.24-.26-.65-.53.21-.63-.48-.04-2.96-.38-2.99.28-.15-.16-.67-.03-.8.05-1.08-.01-1.18-.07-2.24.02l.3.1c-.39.78-.88.19-1.73.32l.02-.08c-1.98-.46-.83.31-2.8-.24l.13.47c-.12 1.03-1.74-.52-2.84-.04l.42.25c-.58.39-1.81-1.28-2.44-1.37-.14-.08.2-.16.39-.24-1.67-.49-.16.63-1.35.88-.25-.32.22-.88-.6-.87-.43-.24-2.25 1.31-3.42.77.27.24.54.47 0 .72-.84.19-2.42-.72-3.09.18-.12-.06-.17-.12-.18-.19-.63.27-2.07.62-2.41 1.11-.83-1.57-3.92 1.35-4.12-.14l-1.98.4.03-.16c-1.29.09-1.68.55-2.06.99-.31-.05-.12-.23-.11-.31-1.91.03-2.09.12-3.49 1.16l-.26-.45c-.36.37-2.83-.24-4.52.73.01-.06.02-.16.15-.26-1.9 1.01-5.19-.23-5.5 1.73l-1.22.76c1.75-.29-.06.82.72.94-.64.27-1.88-.09-1.07-.39l.15.06c.07-1-2.21.24-2.33-.39-3.36.93-6.77 1.43-9.89 2.34l.57.59-1.1.29c-.33-.08-.55-.43.23-.64-.53-.27-1.19.73-1.17.89-1.6.18.34-1-.13-.87l-.61.25.17.04c-.42.44-.37.76-1.31 1.01-.63.04-.43-.34-.67-.3-.01-.05-.1-.05-.36.09l-1.38.35.71.39c-.52.46-1.29.35-.47.79-1.21-.68-5.18 1.14-5.83.97-.74.64-1.58.85-2.63 1.06.29.05.6.64-.32.79.01-1.38-1.79-.16-2.72-.95.79.49-2.51.7-1.31 1.37-.78.04-.15-.48-.78-.68-1.69.87-4 .4-6.2.88-.01.18.4.39-.04.72l-1.3-.72c-.43.14-.28 1.06-1.17.55.13.13.33.33.04.43-4.49-.33-9.01 1.56-13.65.21.63.3.23.36-.24.4.31.06.02.43.09.67l-1.94-.56c-.31.68-2.04.15-2.2.79l.6-.14c-.76.79 1.21 1.6 1.14 2.56.85-.9 2.44 1.13 3.85-.17.34.18-.26.32-.07.54.35-.43.8-.54 1.65-.41l-.09.11c2.35-.25 3.39.08 6.08.13l-.24-.46c.58.01.71.15.99.24.59-.77-1.61.1-1.08-.74.84.91 4.02-.37 4.65.66.88-.1-.32-.51.56-.61l.27.27.18-.41c.58 0 .92.32.97.57-.14-.01-.39.12-.54.16.8.25 2.1-.39 2.37-.32l-.87-.06c2.36-.59 5.37-.69 7.55-1.77l-.22-.18c1.66-.78 1.46-.05 3.32-.68l-.06.07c.33-.31.81-.54 1.34-.65-.42.37 1.03.27.47.71 1.76-.92.84-.57 1.86-1.7l.38.28c.33-.44.32-.61 1.23-.97-.68.52.75.38 0 1.02 2.19.23 2.68-1.62 3.92-.75.6-1.25-1.85-.05-1.41-.41-.51-.2.52-.95 1.16-1.04.63-.16 1.43.94 2.99.45-.16.04-.14.12-.3.16.66.07 1.04-.69 1.88-.5.22-.72.94-.25.82-1.04l-1.37.61c.75-.45 1.24-1.57 2.7-1.55-.06.18-.39.51-.63.7.46.1.7-.38 1.18-.27.12.79-1.68.7-2.37 1.54.52.19 1.47-1.05 1.29-.1.3-1.23 1.57-.34 2.38-1.46l.07.48c.14-.12.42-.44.73-.52l-.37.76c.7-.76 1.77-.06 2.5-.57-1.7.52-.55-.43-1.37-.55 1.93-1.23 1.56.82 3.85-.07-.3.16-1.27.07-.84-.28.47-.04 1.12-.03 1.46.14 1.53-.52-.37-.4.21-.87.69.41.7-.44 1.34-.8l.13.46c1.86-.18.21-1.11 1.92-1.17l-.51.83.8-.39-.04.57c.81-.62 1.13-.59 2.06-.66-.29-.28-.09-.88.7-1.09.61.14-.2.52.91.17-.19.36-.37.79-.97.48-.01.17-.18.36-.19.52.66.18 1.48-.3 1.89-.38-.16.02-.36.03-.47-.01l1.49-1.02c.3.12.13.31-.05.49.32-.13.5-.39.98-.54-.04.41.08.8-.57 1.13l1.46-.78c.14.14.9.28.73.46.91.04 1.97-1.18 3.18-1.11.05-.09.15-.18.39-.29 1.1-.14 2.15.18 3.34-.58l.85.56c.98-.34-1.14-.69.5-1.26 1.16-.41.54.52 1 .65.53-.44 1.46-1.32 2.64-.93-.34.18-.64.12-.97.23m12.52-1.85c-.24.12-.69.48-.9.21.23-.57.47-.33.9-.21m19.25-1.95c-.18.15-.47.07-.79-.11.23-.03.5-.02.79.11m4.33 8.58c-.01.01-.02.02-.02.03-.57-.13-.37-.08.02-.03m1.16.1c.11-.08.09-.14.04-.21-.07.13-.32.16-.62.16.09.12.25.19.58.05m-72.94-.7.25.06c-.44.28-.34.12-.25-.06" class="st7"/><path id="path14897" d="M164.5 55.13c-.07-.08-.09-.17-.11-.26-.09.08-.09.18.11.26" class="st7"/><path id="path14899" d="M127.23 59.88h-.04c-.02.03-.02.06-.02.09z" class="st7"/><path id="path14901" d="M154.86 65.87c.33-.33.59-.54.82-.69-.18.05-.44.23-.82.69" class="st7"/><path id="path14903" d="m178.11 61.69-.71.21c.35-.07.49.02.67.08-.03-.11-.19-.26.04-.29" class="st7"/><path id="path14905" d="M184.8 63.85c.1-.07.23-.04.32-.11l-.06-.22c-.45.07-.74.3-.26.33" class="st7"/><path id="path14907" d="M178.97 63.2c.11.4.55.2 1.05.07-.03.01-.06.01-.09.01.08-.58-.44-.33-.96-.08" class="st7"/><path id="path14909" d="M180.13 63.24c.15-.04.31-.07.47-.07.04-.23-.19-.02-.47.07" class="st7"/><path id="path14911" d="M173.6 62.74c.25.08.1-.53.25-.38.22-.54-1.54.78-.25.38" class="st7"/><path id="polygon14913" d="m179.54 64.48-.24-.48-.24.44z" class="st7"/><path id="path14915" d="m175.46 64.58.83.05c-.02-.08.08-.14.2-.19-.51.03-1.07-.01-1.03.14" class="st7"/><path id="path14917" d="M176.49 64.43c.26-.02.51-.06.65-.15-.14.02-.45.07-.65.15" class="st7"/><path id="polygon14919" d="m178.44 64.76-.25-.07-.59.03z" class="st7"/><path id="path14921" d="m166.64 65.31-.88.21c-.08.18.17.26.5.17.2-.13.53-.23.38-.38" class="st7"/><path id="path14923" d="M169.46 66.45c-.25-.08-.28-.19-.43-.34l.03.62z" class="st7"/><path id="path14925" d="M166.85 66.81c-.08.18-1.27.59-.13.47.08-.18.97-.39.13-.47" class="st7"/><path id="path14927" d="m158.69 63.57-.13.19 1.61-.45c-.51.11-1.01.19-1.48.26" class="st7"/><path id="path14929" d="M167.41 53.44c-1.23.03-.12.66-1.27.64-.21.3.93.01.7.29.64-.42 1.02-.34.57-.93" class="st7"/><path id="path14931" d="M166.84 54.37c-.1.07-.21.14-.31.24.18-.11.27-.18.31-.24" class="st7"/><path id="polygon14933" d="m58.52 68.56-.7-.18.46.32z" class="st7"/><path id="path14935" d="m57.24 69.38-.19-.64-.38.61c.15-.04.45-.11.57.03" class="st7"/><path id="path14937" d="m149.43 57.55.04-.16c-.12-.16-.28-.16-.59-.16z" class="st7"/><path id="polygon14939" d="m140.29 58.02.15-.01-.36-.54z" class="st7"/><path id="path14941" d="M132.81 59.87c.31-.02.65-.21.97-.23-.66.21-1.18-.47-.97.23" class="st7"/></g></g></g></g></g></g><g id="Text"><g id="text15131" aria-label="SCRATCH" transform="rotate(-7.458 522.133 4.148)"><path id="path22058" d="M39.515-10.866q-.94-1.73-2.82-3.12t-4.248-2.219q-2.331-.864-4.888-1.278-7.595-1.128-14.174-4.925-.564-.301-1.203-1.279-.64-.977-.64-1.88 0-3.308 1.09-6.617 1.129-3.346 2.858-5.226 2.782-3.12 10.001-5.451 7.257-2.331 16.318-2.331 5.414 0 8.346.827 2.97.827 2.97 2.556 0 2.82-.79 4.362-.751 1.541-1.653 2.068-.865.488-3.083 1.353-2.369.827-4.136 1.73-1.73.902-2.97 1.73-1.241.826-1.542.826-.376 0-.376-.3 0-.64 1.316-1.918 1.354-1.316 3.309-2.293 2.068-1.09 2.068-1.392 0-.488-2.294-.488-6.955 0-12.858 1.24-5.903 1.241-9.324 3.271-3.384 2.03-3.384 4.136 0 1.316 1.39 1.88 1.43.526 6.242 1.805t8.61 2.932q5.452 2.331 8.083 4.85 2.632 2.52 2.632 5.64 0 2.143-1.053 4.324-1.015 2.143-3.007 3.948-1.993 1.804-4.587 2.97-2.218.94-5.602 1.767-3.346.827-7.294 1.278-3.91.489-7.482.489-6.58 0-10.603-1.24Q.752 1.916.752-.602q0-1.128 1.353-3.497Q3.46-6.504 5.301-7.332q1.617-.639 3.12-.714 1.505-.113 1.505.338 0 .113-.113.226t-.263.188l-.301.15q-.752.301-1.24.49-.452.15-.753.338-.263.15-.263.45 0 .79 7.783.79 6.767 0 11.091-.488 4.324-.49 7.633-1.768 3.308-1.278 6.015-3.534z" style="font-size:77px;font-family:BrushScriptMT;fill:#bf4f9d;stroke:#050606;stroke-miterlimit:10"/><path id="path22060" d="M66.666-27.09q-4.83 0-7.602 3.234t-2.772 8.862q0 5.586 2.562 8.862 2.604 3.234 7.77 3.234 1.974 0 3.738-.336t3.444-.84v3.276q-1.68.63-3.486.924-1.764.294-4.242.294-4.578 0-7.644-1.89t-4.62-5.376q-1.512-3.486-1.512-8.19 0-4.536 1.638-7.98 1.68-3.486 4.914-5.418 3.234-1.974 7.854-1.974 4.746 0 8.274 1.764l-1.512 3.192q-1.386-.63-3.108-1.134-1.68-.504-3.696-.504z" style="font-size:42px;font-family:Silom;fill:#fff;stroke:#1d2120;stroke-miterlimit:10"/><path id="path22062" d="M88.632-29.988q5.586 0 8.232 2.142 2.688 2.1 2.688 6.384 0 2.394-.882 3.99t-2.268 2.562q-1.344.924-2.856 1.47L101.778 0h-4.41l-7.266-12.39h-5.964V0h-3.78v-29.988zm-.21 3.276h-4.284v11.13h4.494q3.654 0 5.334-1.428 1.68-1.47 1.68-4.284 0-2.94-1.764-4.158-1.764-1.26-5.46-1.26z" style="font-size:42px;font-family:Silom;fill:#fff;stroke:#1d2120;stroke-miterlimit:10"/><path id="path22064" d="m125.298 0-3.612-9.282H109.8L106.23 0h-3.822l11.718-30.114h3.402L129.204 0Zm-8.106-21.714q-.126-.336-.42-1.218t-.588-1.806q-.252-.966-.42-1.47-.294 1.302-.672 2.562-.378 1.218-.63 1.932l-3.402 9.072h9.492z" style="font-size:42px;font-family:Silom;fill:#fff;stroke:#1d2120;stroke-miterlimit:10"/><path id="path22066" d="M139.872 0h-3.78v-26.67h-9.366v-3.318h22.47v3.318h-9.324z" style="font-size:42px;font-family:Silom;fill:#fff;stroke:#1d2120;stroke-miterlimit:10"/><path id="path22068" d="M165.744-27.09q-4.83 0-7.602 3.234t-2.772 8.862q0 5.586 2.562 8.862 2.604 3.234 7.77 3.234 1.974 0 3.738-.336t3.444-.84v3.276q-1.68.63-3.486.924-1.764.294-4.242.294-4.578 0-7.644-1.89t-4.62-5.376q-1.512-3.486-1.512-8.19 0-4.536 1.638-7.98 1.68-3.486 4.914-5.418 3.234-1.974 7.854-1.974 4.746 0 8.274 1.764l-1.512 3.192q-1.386-.63-3.108-1.134-1.68-.504-3.696-.504z" style="font-size:42px;font-family:Silom;fill:#fff;stroke:#1d2120;stroke-miterlimit:10"/><path id="path22070" d="M202.368 0h-3.78v-13.986h-15.372V0h-3.78v-29.988h3.78v12.684h15.372v-12.684h3.78z" style="font-size:42px;font-family:Silom;fill:#fff;stroke:#1d2120;stroke-miterlimit:10"/></g></g></svg>