<svg xmlns="http://www.w3.org/2000/svg" xml:space="preserve" id="Layer_1" x="0" y="0" viewBox="0 0 66.1 24.7"><style>.st0{fill:#fff}.st1{fill:#f9a83a}</style><path d="M6.1 20.6c-.5 0-.9-.1-1.4-.2H0v-9.3h.1c0-.3-.1-.6-.1-.9q0-2.25 1.5-3.9c1.1-1.1 2.6-1.7 4.2-1.7.6 0 1.3.1 1.8.2l5.6.3-2 6.8c.6.8 1 1.7 1 2.7.1 1.5-.4 2.9-1.4 4-1.1 1.2-2.8 1.9-4.6 1.9z" class="st0"/><path d="M14 20.6c-1.8 0-3.5-.7-4.8-2C8.1 17.4 7.3 15.8 7 14l-.6-.1V8.7L8 8.5c1.4-2.4 3.6-3.8 6.1-3.8 3.5 0 5.4 2.5 6 3.9l1.3 3.3-1.8.3v.6l2.7.5L20 17c-1.3 2.3-3.5 3.6-6 3.6" class="st0"/><path d="M24.5 20.6c-.5 0-1-.1-1.5-.2h-7.1l-.7-1.9-.3-.9-.4-2.6 1.5-.4v-.4l-.7-.1v-3H14l1.8-6.2h5.8c.6 0 1.2 0 1.7.1l3.6-2.8-.9 4c.7.5 1.3 1.2 1.7 2.1h1.2V14l-1.2.2 2.1 4-2.1 1.5c-.3.2-1.4.9-3 .9z" class="st0"/><path d="M34.5 20.4H24.2L22.6 15l1.3-.3h-.2l.2-3.2V8.3h1.4C26.4 6.1 28.4 5 31.1 5h5.7l1.5 6.2h-1.1V14l-.7.1v.4l1.4.3-.4 2.7c0 .3-.2.7-.2.7l-.6 2.2z" class="st0"/><path d="M41.7 20.4h-5.2l-.6-2.1s-.1-.4-.2-.7l-.4-2.7 1.4-.3v-.1h-3.9l.1-3.1v-.5l-1.6-.2.9-3.3.7-2.4h14.6l1.7 5.8-1.7.2v.4l.2 3.2h-4v.1l1.4.3-.4 2.7c0 .3-.2.7-.2.7l-.6 2.2z" class="st0"/><path d="M50 20.6c-1.8 0-3.5-.7-4.8-2-1.2-1.2-1.9-2.8-2.2-4.6l-.6-.1V8.7l1.6-.2c1.4-2.4 3.6-3.8 6.1-3.8 3.5 0 5.4 2.5 6 3.9l1.3 3.3-1.8.3v.6l2.7.5-2.3 3.8c-1.3 2.2-3.5 3.5-6 3.5" class="st0"/><path d="m51.4 20.4-.4-2.5-.8-2.9 1.7-.4v-.5l-.9-.2.2-2.8h-1.3l1.8-6.2h12.6l1.8 6.2h-1.4v2.8l-.7.2v.4l1.9.5-1.6 5.4z" class="st0"/><path d="M6.1 19.4c-.5 0-.9-.1-1.3-.2H1.2v-6.9h.7c-.4-.6-.6-1.3-.7-2.1 0-1.1.4-2.2 1.2-3 .9-.9 2.1-1.4 3.4-1.4.6 0 1.2.1 1.6.2l4.3.2-1.8 6c.6.6 1.1 1.4 1.2 2.5.1 1.2-.3 2.3-1.1 3.1-.9 1-2.3 1.5-3.7 1.5z" class="st1"/><path d="M14 19.4c-1.5 0-2.9-.6-3.9-1.6-1.2-1.2-1.8-2.8-2-4.7l-.5-.1V9.7l1.2-.2s0-.1.1-.1c1.1-2.3 3-3.6 5.3-3.6 2.9 0 4.4 2 4.9 3.2l.8 2-1.5.3v1h.2v1.6l1.9.4-1.4 2.2c-.9 1.3-2.4 2.9-5.1 2.9" class="st1"/><path d="M24.5 19.5c-.9 0-1.6-.3-2.1-.6l-.1.4h-5.5l-.4-1.1c-.1-.2-.1-.4-.2-.6l-.3-1.6 1.3-.3v-2.4l-.8-.3V9.9h-.9l1.1-3.8h4.9c.8 0 1.5.1 2 .2L25 5.2l-.3 1.6c1.3.7 2 1.8 2.3 2.7h.8V13l-.9.1c-.3.8-.8 1.6-1.4 2.1l1.2-.4 1.6 3-1.3.9c-.2.1-1 .7-2.3.7z" class="st1"/><path d="M34.5 19.2h-9.4l-1-3.4 1.5-.3v-2.1H25l.1-1.9V9.4h1c1.3-3.3 4.1-3.3 5-3.3h4.8l.9 3.8H36V13l-.7.1v2.4l1.3.3-.2 1.6c0 .2-.1.5-.1.5l-.4 1.3z" class="st1"/><path d="M41.7 19.2h-4.3l-.4-1.3s-.1-.3-.1-.5l-.2-1.6 1.3-.3v-2.2h-3.9l.1-1.8V9.9l-1.3-.2.6-2 .5-1.5h12.8l1.1 3.6-1.4.2v1.5l.1 1.9h-3.9v2.2l1.3.3-.2 1.6c0 .2-.1.5-.1.5l-.4 1.3z" class="st1"/><path d="M50 19.4c-1.5 0-2.9-.6-3.9-1.6-1.2-1.2-1.8-2.8-2-4.7l-.5-.1V9.7l1.2-.2s0-.1.1-.1c1.1-2.3 3-3.6 5.3-3.6 2.9 0 4.4 2 4.9 3.2l.8 2-1.5.3v1h.2v1.6l1.9.4-1.5 2.2c-.8 1.3-2.3 2.9-5 2.9" class="st1"/><path d="m52.4 19.2-.3-1.4v-.1l-.5-1.8 1.5-.4v-2.4l-.8-.1.2-3h-1l1.1-3.8h10.8l1.1 3.8h-1v3l-.7.1v2.4l1.5.3-1 3.4zm10.5-6.5" class="st1"/><path d="M8.1 10.9C8.1 9.3 7.4 8 6 8c-1.9 0-2.5 2.5-1 3.5.8.5 1.8.3 2 0l.2.2c-.2.2 0 .7.3.9.6.4 1.7 1.1 1.8 2.3.2 2-1.7 2.8-3.2 2.7-1.3-.1-1.7-.7-2.2-.7s-.5.5-.5.5H3v-3.3h.5c0 1.5 1.1 3.1 2.7 3.1 1.3 0 2.1-.8 2-2.2-.2-1.6-2.4-1.9-2.9-1.6l-.3-.1c.2-.2.1-.6-.2-.7C4 12.1 3 11.3 3 10.1c0-1.4 1.2-2.5 2.8-2.5 1.9 0 2.7 1.2 2.7 1.2l.2-.9h.7l-.9 3zM17.5 15.5c-1.2 1.9-2.7 2.1-3.5 2.1-2.6 0-4.1-2.4-4.1-5.2 0-.6-.2-.8-.5-.9v-.2c.5-.1.8-.5 1-1 .6-1.2 1.7-2.6 3.7-2.6 2.4 0 3.3 2 3.3 2-.2 0-.8.5-.8 1.5h-.4c0-1.8-.6-3.1-2.3-3.1-1.4 0-2.1 1.3-2.2 1.8-.1.7.1 1.4.5 1.4v.2c-.5.1-.9.4-.9 1.6 0 1.4.6 4.1 2.7 4.1 1.6 0 2.3-1.3 2.2-3.1h.4c.1 1 .8 1.4.9 1.4M23.1 14.6c.1.8 1.2 2.9 2.7 2.4l.1.3s-.5.4-1.3.4c-1.3 0-2.1-.9-2.8-2.4l.3-.4c-1.5 0-2.1-.5-2.1-.5s-.1 1-.1 1.5c0 .9.4 1.1 1.1 1.3 0 .1-.1.3-.1.3h-3s-.1-.2-.1-.3c.7-.2 1.1-.4 1.1-1.3v-3.2c0-.8-.4-1.1-.7-1.2v-.2c.4 0 .7-.9.7-1.6 0-1.5-1.1-1.5-1.1-1.5l.1-.3h3.3c.8 0 3.5-.1 4 2.5.1.4.3.8.6.8v.2c-.3 0-.5.3-.7.9-.3 1.4-1.3 2-2 2.3m.5-3.2v-.2c.3 0 .8-.4.6-1.3-.2-1.4-1.7-1.6-2.4-1.6-.4 0-1.7.1-1.9 1.4-.2 1.5.8 1.5.8 1.5v.2c-.4.1-.8.3-.8 1.2 0 1.1.9 1.8 1.9 1.8 1.3 0 2.4-.7 2.4-1.8q.15-.9-.6-1.2m-1.4-.7c.2.6.6.7.6 1.3 0 .7-.8 1.1-.8 1.1s.2-.6 0-1.1c-.2-.4-.5-.6-.5-1.2s.7-1.2.7-1.2-.1.6 0 1.1M34.5 17.1c0 .1-.1.3-.1.3h-3s0-.2-.1-.3c.7-.2 1.1-.4 1.1-1.3 0-1.7-1.5-3.5-3.3-3.5l.1-.3c1.4-.1 2.5.5 3.2 1.4V9.9c0-1.2-.6-1.6-1.7-1.6-2.1 0-2.4 2.2-2.4 3v4.6c0 .9.4 1.1 1.1 1.3l-.1.3h-3l-.1-.3c.7-.2 1.1-.4 1.1-1.3v-3.2s0-1.2-.5-1.2v-.2c.5 0 .6-.5.6-.5.8-2.9 2.6-2.9 3.6-2.9h3.3l.1.3s-1 0-1.1 1.5c0 1 .3 1.6.7 1.6v.2c-.5.1-.7.6-.7 1.2v3.2c.2.9.6 1.1 1.2 1.2M44.5 9.5v2h-.3s.3-1.5-1-1.5v-.3c.7 0 .7-1.5-.8-1.5-1.1 0-1.6.5-1.7 1.4-.1 1 .3 1.5.7 1.5v.2c-.3.1-.7.3-.7 1.2v3.2c0 .9.4 1.1 1.1 1.3 0 .1-.1.3-.1.3h-3s0-.2-.1-.3c.7-.2 1.1-.4 1.1-1.3v-3.2c0-.8-.3-1.1-.7-1.2v-.2c.4-.1.8-.5.7-1.5-.1-.9-.6-1.4-1.8-1.4-1.4 0-1.4 1.4-.7 1.4v.3c-1.3 0-1 1.4-1 1.5h-.3v-2c0-1.1-.4-1.3-.8-1.3l.1-.3h10.1l.1.3c-.5.1-.9.3-.9 1.4M53.5 15.5c-1.2 1.9-2.7 2.1-3.5 2.1-2.6 0-4.1-2.4-4.1-5.2 0-.6-.2-.8-.5-.9v-.2c.5-.1.8-.5 1-1 .6-1.2 1.7-2.6 3.7-2.6 2.4 0 3.3 2 3.3 2-.2 0-.8.5-.8 1.5h-.4c0-1.8-.6-3.1-2.3-3.1-1.4 0-2.1 1.3-2.2 1.8-.1.7.1 1.4.6 1.4v.2c-.5.1-.9.4-.9 1.6 0 1.4.6 4.1 2.7 4.1 1.6 0 2.3-1.3 2.2-3.1h.4c0 1 .6 1.4.8 1.4M62.1 17.1l-.1.3h-3s0-.2-.1-.3c.7-.2 1.1-.4 1.1-1.3V13c0-.9-.6-1.4-1.2-1.4h-1.7c-.9 0-1.3.4-1.3 1.4v2.9c0 .9.4 1.1 1.1 1.3l-.1.3h-3s0-.2-.1-.3c.7-.2 1.1-.4 1.1-1.3v-3.2c0-.8-.3-1.1-.7-1.2v-.2c.4 0 .7-.9.7-1.6 0-1.5-1.1-1.5-1.1-1.5l.1-.3h3l.1.3s-1.1 0-1.1 1.5c0 1.2.4 1.6 1.3 1.6h1.7c.7 0 1.2-.7 1.2-1.6 0-1.5-1.1-1.5-1.1-1.5l.1-.3h3l.1.3S61 8.2 61 9.7c0 .8.3 1.6.7 1.6v.2c-.3.1-.7.5-.7 1.3v3.1c.1.9.4 1.1 1.1 1.2" class="st0"/></svg>