<svg xmlns="http://www.w3.org/2000/svg" xml:space="preserve" id="Layer_1" x="0" y="0" viewBox="0 0 66.1 24.7"><style>.st0{fill:#fff}.st1{fill:#f9a83a}</style><path d="M12.1 21.3q-1.05-.3-2.4-.3h-.6c-.2 0-.8 0-2.7.2l-2.4.2-1-2.2c-.8-1.8-1.1-2.5-1.2-3.1l-.1-.4v-1.1l.4-.8c.2-.4.4-.7.7-.9-.9-2.3-1-3.2-1-3.9V5.3h2.5l.3-.3.5-.2c6.6-2.1 7.2-2.1 7.8-2.1h.9l1.6 1h.1c1.8 1.3 3.1 2.5 3.4 4.1.5 1.4.6 1.8.6 2.5v2.5l-.4.2.7 2.4v1c0 2.5-1.7 3.2-5.7 4.8l-1.1.4z" class="st0"/><path d="M19.4 22.7c-.7 0-1.3-.1-1.9-.3h-1.9l-.8-2.2c-1.4-3.6-1.7-4.8-1.9-5.4l-.3-1.5.8-1.1c.1-.2.3-.6.7-1.5l.3-.6.5-.4c.9-.8 2.2-1.4 4.4-1.9.6-.2 1.1-.2 1.6-.2h.1c.5 0 1.2.1 2.5.4l1.3.3.7 1.2c.5.9 1 1.9 1.3 3 .1.4.2.9.2 1.3v3.8l-.2.6c-.6 1.7-1.6 2.5-2.4 2.9-.5.3-1.2.6-2.5 1q-1.2.6-2.4.6z" class="st0"/><path d="m27 17.5-.5-.9c-.1 0-.2.1-.3.1-.6.3-1.2.5-2 .5h-2.4l-.9-2.2c-.5-1.5-.7-2.1-.7-2.8V8.5c-.2-.8-.3-1.1-.3-1.5V4.7l2.1-.8c1.4-.6 2.3-.9 3.1-.9.3 0 .8-.1 1.4-.1 2.4 0 6.1 0 6.8 3 .7 1.7.9 2.4.9 3.1s-.1 1.4-.4 2v.1l1.8 5.5h-3.4l-.8.3c-1.7.6-2 .7-2.6.7H27z" class="st0"/><path d="M36.2 22.6c-1 0-1.8-.4-2.5-1.1h-.2c-.9.6-1.8.8-2.4 1l-.4.1h-3.3l-.9-2c-.5-1.1-.7-1.8-.7-2.6v-2.7l.4-.8c.6-1.1 1.8-2.7 3.7-5l.6-.7.9-.3c1.1-.4 2-.7 2.8-.9l.4-.1h2c2.5 0 3 1.3 4.2 5.2v.1c.1.2.3 1.1.3 1.1v.3c.1.5.3 1.1.5 1.9l.2.5v4.7l-2.2.8c-.8.3-1.4.4-2 .4h-1.4z" class="st0"/><path d="M36.4 18.6c-.7-1.4-1.3-3-1.7-5-.1-.2-.1-.4-.2-.5l-.3-.2c-1-.7-1.3-1.6-2.1-3.9l-1-2.9 2.7-1.3c1.7-.8 3.2-1.3 4.6-1.3.1 0 .7 0 4.8-.4h.6c.5 0 .9.1 1.4.1 2.9 0 3.6 2.6 4.3 5.5l.5 2.5-1.5 1.3c-.4.4-1 .7-2.1 1.2v.3l-.2.5c-.1.2-.2.7-.2 1.4 0 3.1-3.3 3.9-5.8 4.5l-2.6.6z" class="st0"/><path d="M46.2 23.8c-.7 0-1.3-.1-2-.3h-1.9l-.8-2.2c-1.4-3.6-1.7-4.8-1.9-5.4l-.3-1.5.8-1.1c.1-.2.3-.6.7-1.5l.3-.6.5-.4c.9-.8 2.2-1.4 4.4-1.9.6-.2 1.1-.2 1.6-.2h.1c.5 0 1.2.1 2.5.4l1.3.3.7 1.2c.5.9 1 1.9 1.3 3 .1.4.2.9.2 1.3v2.4c.1.3.1.6.1.8v.6l-.2.6c-.6 1.7-1.6 2.5-2.4 2.9-.5.3-1.2.6-2.5 1q-1.2.6-2.4.6z" class="st0"/><path d="M50.9 22.5c-2.3-.5-3.1-2.7-3.8-4.9l-.2-.6v-1.2l.1-.4c.6-2.3.8-3.3.9-3.6 0-.4-.1-.8-.1-1.6l-.1-2.3 2.1-.9c1.8-.8 2.6-1 3.4-1h.9l.9.3c.2.1.3.2.5.3 1-.6 2.3-1 3.4-1.3l.4-.1h.6c2.5 0 3.6 2.2 4.2 4h1.3l-1.1 4.2c0 .1-.1.4-.1 1.1v1.6c0 .1 0 .3.1.7l.1.3v.3c0 2.7-2.3 3.6-5.3 4.7l-.6.2h-2.7l-.6-1c-.6.3-1.5.6-2.7 1l-.9.3z" class="st0"/><path d="M12.5 19.7c-.9-.2-1.8-.4-2.9-.4h-.5c-.3 0-1.1 0-2.9.2l-1.2.1-.5-1.1c-.8-1.8-1-2.4-1.1-2.7V15l.2-.4c.2-.4.6-.7 1.3-1.1-1.3-3.3-1.4-4.1-1.4-4.6V7h1.3c.1-.1.2-.2.4-.3l.2-.1.2-.1c6.3-2 6.9-2 7.3-2h.5l1.2.7h.1c1.8 1.3 2.6 2.2 2.7 3.1.6 1.5.6 1.7.6 2v1.3l-1 .4 1.1 3.7v.7c0 1.4-.9 1.7-4.6 3.2l-.5.2z" class="st1"/><path d="M19.4 21c-.6 0-1.1-.1-1.6-.3h-1.1l-.4-1.1c-1.4-3.5-1.7-4.6-1.8-5.1l-.1-.7.4-.6s.2-.3.8-1.6l.1-.3.2-.2c.7-.6 1.8-1.1 3.7-1.5.5-.1.8-.2 1.2-.2h.1c.3 0 .8.1 2.1.4l.7.2.4.6c.5.7.8 1.6 1.1 2.5.1.3.2.6.2.9v1l-.4.2c.1.2.2.5.2.7q.3.6.3 1.2v.3l-.1.3c-.4 1.1-1.1 1.7-1.6 2-.4.2-1 .5-2.4.9-.6.3-1.1.5-1.8.5h-.2z" class="st1"/><path d="m28 15.8-.3-.5c-.2-.1-.5-.3-1.2-.6-.2.2-.6.3-1 .4-.6.3-1 .4-1.4.4h-1.2l-.4-1.1c-.5-1.4-.6-1.8-.6-2.2V8.3c-.3-1-.3-1-.3-1.3V5.9l1-.4c1.5-.6 2.2-.8 2.6-.8.2 0 .6-.1 1.3-.1 2.3 0 4.8 0 5.2 1.8.7 1.8.8 2.2.8 2.6 0 .7-.2 1.4-.5 1.9.1.2.2.4.2.6l1.1 3.4h-1.7l-.2.2-.4.1c-1.6.5-1.8.6-2.1.6z" class="st1"/><path d="M36.2 20.9c-.8 0-1.3-.4-1.6-.9-.6-.1-1.1-.2-1.7-.2-.6.7-1.7.9-2.3 1.1h-2.2l-.4-1c-.4-1-.6-1.5-.6-1.9v-2.2l.2-.4c.6-1 1.7-2.6 3.6-4.8l.3-.4.4-.2c1-.4 1.9-.7 2.6-.8h2c1.4 0 1.5.5 2.8 4.8l.1.2v.3s.1.5.6 2.2l.1.2v3.3l-1.1.4c-.6.2-1 .3-1.4.3z" class="st1"/><path d="M37.9 17.8c-.7-1.3-1.2-2.9-1.6-4.7-.2-.4-.3-.9-.3-1.3h-.4l-.4-.3c-.5-.4-.7-.8-1.5-3.1L33.2 7l1.4-.7c1.5-.7 2.8-1.1 3.8-1.1.1 0 .9 0 4.9-.4h.2c.5 0 1 .1 1.5.1 1.6 0 2 1.5 2.7 4.2l.3 1.4-.7.6c-.3.3-.8.6-2.3 1.3l-.4.2c.1.5.1.6.1.8v.3l-.1.3c-.2.5-.3 1.1-.3 1.9 0 1.7-1.9 2.2-4.5 2.9l-1.3.2z" class="st1"/><path d="M46.2 22.1c-.6 0-1.1-.1-1.6-.3h-1.1l-.4-1.1c-1.4-3.5-1.7-4.6-1.8-5.1l-.1-.7.5-.6s.2-.3.8-1.6l.1-.3.2-.2c.7-.6 1.8-1.1 3.7-1.5.5-.1.8-.2 1.2-.2h.1c.3 0 .8.1 2.1.4l.7.2.4.6c.5.7.8 1.6 1.1 2.5.1.3.2.6.2.9v1.2l-.4.2c.1.2.2.5.2.7q.3.6.3 1.2v.3l-.1.3c-.4 1.1-1.1 1.7-1.6 2-.4.2-1 .5-2.4.9-.6.3-1.1.5-1.8.5h-.3z" class="st1"/><path d="M51.3 20.8c-1.2-.2-1.7-1.3-2.5-3.8l-.1-.3V16l.1-.2c.7-2.8.9-3.8.9-4.1s-.1-.8-.1-1.7V8.8l1.1-.5c1.7-.8 2.3-.9 2.8-.9h.5l.4.2c.4.3.7.6 1.1 1.5.3-1.1 2.1-1.7 3.8-2.1l.2-.1h.4c1.6 0 2.2 1.6 2.8 3.7l.1.2v.1h.4l-.5 2.1s0 .3-.2 1.4v1.7s0 .2.2.9v.4c0 1.4-1.3 2-4.2 3.1l-.3.1h-1.4l-.5-1c-.2-.5-.4-.9-.6-1.3v.7l-.7.6c-.5.3-1.4.7-2.8 1.1l-.4.1z" class="st1"/><path d="m13 6.2.7.4q2.1 1.5 2.1 2.1c.4 1 .6 1.5.6 1.6v.1l-2.4.9c-1.1-1.1-1.8-1.7-2.1-1.7-.9.2-1.5.4-1.8.4l.1.1c0 .2 0 .6-.1 1l.1.1h1c2 0 3.4.4 4.1 1.1l1.1 3.6v.5c0 .1-1.2.7-3.5 1.6-1-.3-2.1-.4-3.3-.4h-.5c-.5 0-1.5.1-3 .2-.6-1.2-.9-2-1-2.3v-.1c.1-.2.9-.6 2.3-1.1.3 0 .8 0 1.4.1l.5-.1 1.9.1c.1 0 .2-.1.2-.1h.3c0-.3-.3-.5-.8-.5-2.6-.3-4-.5-4.2-.5Q5.2 9.55 5.2 8.8v-.1c.1 0 .4-.2 1-.5 4-1.4 6.3-2 6.8-2" class="st0"/><path d="M20.8 11h.1c.2 0 .8.1 1.7.3q.6.9.9 2.1c.1.2.1.4.1.4-1 .4-1.6.5-2 .5 0 .1-.1.1-.2.1-.2-.3-.4-.4-.5-.4h-1.1c-.4.9-.7 1.5-.7 1.7.7.6 1.3.9 1.7 1h.1c.3 0 .5-.3.6-.8.1 0 .6-.2 1.5-.5.1 0 .2.3.4 1 .1.2.2.4.2.6-.2.5-.5.9-.9 1.1-.2.2-.9.4-2.2.8-.3.2-.7.3-1.1.3h-.1c-.5 0-.9-.1-1.3-.4v.2h-.2c-1-2.5-1.5-4.1-1.7-4.8.1-.1.4-.7 1-1.9.4-.4 1.4-.8 2.9-1.2.4-.1.6-.1.8-.1M26.5 6.3c2.3 0 3.5.2 3.5.5.5 1.3.8 2 .8 2.2 0 .7-.3 1.2-.9 1.4-.5.2-.9.4-1 .5 1 .3 1.5.6 1.5 1l.4 1.3c-.1 0-.2.1-.5.4-1 .3-1.5.5-1.5.5-.1-.2-1.3-.8-3.4-1.7v.7c0 .2-.2.4-.7.4-.4.2-.7.3-.8.3-.3-.9-.5-1.5-.5-1.6V8c-.2-.7-.3-1-.3-1 1.1-.5 1.8-.7 2.1-.7zm-.8 2.1v.7q2.7-.15 2.7-.3v-.2c-.7-.1-1.5-.1-2.4-.1h-.3zM34.9 10.9h1.6q.15 0 1.2 3.6c0 .3.2 1.2.7 2.7V19c-.4.1-.6.2-.8.2h-1.5c-.1 0-.2-.3-.4-.8-1.1-.2-2.3-.4-3.5-.4-.3 0-.5.2-.6.5 0 .2-.5.4-1.4.6h-.7c-.3-.7-.4-1.1-.4-1.2v-1.8c.5-.9 1.6-2.4 3.4-4.5 1-.3 1.8-.5 2.4-.7m-.2 2.5c0 .1-.5.9-1.6 2.4.1.1.9.2 2.1.4-.1-1.3-.3-2.2-.5-2.8M43.4 6.5c.5 0 1.1.1 1.6.1.2 0 .5 1 1.1 3l.1.3c-.2.2-.9.5-1.9 1-4.7-.4-7.4-.7-8.1-.8-.2-.1-.5-.8-.9-2.2 1.3-.6 2.3-.9 3.1-.9.3-.1 2-.2 5-.5M40 10.7c.2 0 .9.2 2.2.5.1 0 .2.2.3.5.3 1.1.5 1.7.5 1.7-.2.7-.4 1.5-.4 2.4 0 .3-1.1.8-3.2 1.3-.6-1.2-1.1-2.7-1.5-4.6q-.3-.45-.3-.9.15 0 2.4-.9M47.7 12.1h.1c.2 0 .8.1 1.7.3q.6.9.9 2.1c.1.2.1.4.1.4-1 .4-1.6.5-2 .5 0 .1-.1.1-.2.1-.2-.3-.3-.4-.4-.4h-1.1c-.4.9-.7 1.5-.7 1.7.7.6 1.3.9 1.7 1h.1c.3 0 .5-.3.6-.8.1 0 .6-.2 1.5-.5.1 0 .2.3.4 1 .1.2.2.4.2.6-.2.5-.5.9-.9 1.1-.2.2-.9.4-2.2.8-.3.2-.7.3-1.1.3h-.1c-.5 0-.9-.1-1.3-.4h-.3c-1-2.5-1.5-4.1-1.7-4.8.1-.1.4-.7 1-1.9.4-.4 1.4-.8 2.9-1.2.3.1.6.1.8.1" class="st0"/><path d="M59.8 8.6h.2c.3 0 .7.8 1.2 2.5 0 .7 0 1.1-.1 1.4 0 0 0 .1.1.1 0 .2-.1.8-.3 2 0 .1.1.2.1.3 0 0 0 .1-.1.1l.1.3v.8c0 .2.1.6.2 1.3 0 .2-1 .7-3.1 1.5H58c-.7-1.5-1.1-2.5-1.1-3.1v-.1l-.6-.1h-1.1c-.7 0-1 .1-1 .3 0 .5 0 1.1-.1 1.6 0 .2.1.3.1.6-.4.3-1.3.6-2.5 1-.3-.1-.7-.9-1.3-2.6v-.2c.7-2.5 1-4 1-4.6 0-.1-.1-.6-.1-1.6 1.1-.5 1.8-.8 2.1-.8.2.1.5.9 1 2.5V13c.1 0 1-.1 2.6-.2v-.1c0-.6.1-1.1.1-1.5v-.1c-.2-.7-.3-1-.3-1.1-.1-.3.9-.8 3-1.4" class="st0"/></svg>