<svg xmlns="http://www.w3.org/2000/svg" width="20" height="20"><g fill="none" fill-rule="evenodd"><path fill="#CF63CF" d="M8.704 6.122v8.414a.63.63 0 0 1-.63.631H6.897a.63.63 0 0 1-.599-.435 3.564 3.564 0 0 0-3.387-2.454h-.28a.633.633 0 0 1-.63-.63V9.01c0-.347.283-.63.63-.63h.28c1.541 0 2.907-.99 3.387-2.455a.63.63 0 0 1 .6-.435h1.176a.63.63 0 0 1 .63.631"/><path stroke="#CF63CF" stroke-linecap="round" stroke-linejoin="round" stroke-width="1.5" d="M11.117 9.213a1.586 1.586 0 0 1 0 2.232M13.349 6.982a4.735 4.735 0 0 1 0 6.695M15.58 4.75a7.887 7.887 0 0 1 0 11.158"/></g></svg>