<svg xmlns="http://www.w3.org/2000/svg" width="20" height="20"><g fill="none" fill-rule="evenodd"><path fill="#CF63CF" d="M12.54 5.387v9.466c0 .393-.317.71-.708.71h-1.324a.71.71 0 0 1-.674-.49 4.009 4.009 0 0 0-3.81-2.76H5.71c-.39 0-.71-.32-.71-.71V8.637c0-.39.32-.71.71-.71h.315a4.009 4.009 0 0 0 3.81-2.76.71.71 0 0 1 .673-.49h1.324c.39 0 .708.318.708.71"/><path stroke="#CF63CF" stroke-linecap="round" stroke-linejoin="round" stroke-width="1.75" d="M14.25 8.865c.688.69.688 1.82 0 2.51"/></g></svg>