<svg xmlns="http://www.w3.org/2000/svg" width="1em" height="1em" viewBox="0 0 24 24" style="-ms-transform:rotate(360deg);-webkit-transform:rotate(360deg)" transform="rotate(360)"><path d="M17 2H7a5 5 0 0 0-5 5v10a5 5 0 0 0 5 5h10a5 5 0 0 0 5-5V7a5 5 0 0 0-5-5zm3 15a3 3 0 0 1-3 3H7a3 3 0 0 1-3-3V7a3 3 0 0 1 3-3h10a3 3 0 0 1 3 3zM8 15a1 1 0 1 0 1 1 1 1 0 0 0-1-1zm4-4a1 1 0 1 0 1 1 1 1 0 0 0-1-1zM8 7a1 1 0 1 0 1 1 1 1 0 0 0-1-1zm8 8a1 1 0 1 0 1 1 1 1 0 0 0-1-1zm0-8a1 1 0 1 0 1 1 1 1 0 0 0-1-1z" fill="#fff"/></svg>