<svg xmlns="http://www.w3.org/2000/svg" xmlns:xlink="http://www.w3.org/1999/xlink" aria-hidden="true" focusable="false" width="1em" height="1em" style="-ms-transform: rotate(360deg); -webkit-transform: rotate(360deg); transform: rotate(360deg);" preserveAspectRatio="xMidYMid meet" viewBox="0 0 24 24"><path d="M13 11H7a1 1 0 0 0 0 2h6a1 1 0 0 0 0-2zm4-4H7a1 1 0 0 0 0 2h10a1 1 0 0 0 0-2zm2-5H5a3 3 0 0 0-3 3v10a3 3 0 0 0 3 3h11.59l3.7 3.71A1 1 0 0 0 21 22a.84.84 0 0 0 .38-.08A1 1 0 0 0 22 21V5a3 3 0 0 0-3-3zm1 16.59l-2.29-2.3A1 1 0 0 0 17 16H5a1 1 0 0 1-1-1V5a1 1 0 0 1 1-1h14a1 1 0 0 1 1 1z" fill="white"/></svg>