<svg xmlns="http://www.w3.org/2000/svg" xmlns:xlink="http://www.w3.org/1999/xlink" width="32" height="32" preserveAspectRatio="xMidYMid meet" viewBox="0 0 32 32" style="-ms-transform: rotate(360deg); -webkit-transform: rotate(360deg); transform: rotate(360deg);"><path d="M18 26h8v2h-8z" fill="#626262"/><path d="M18 22h12v2H18z" fill="#626262"/><path d="M18 18h12v2H18z" fill="#626262"/><path d="M20.549 11.217L16 2l-4.549 9.217L1.28 12.695l7.36 7.175L6.902 30L14 26.269v-2.26l-4.441 2.335l1.052-6.136l.178-1.037l-.753-.733l-4.458-4.347l6.161-.895l1.04-.151l.466-.943L16 6.519l2.755 5.583l.466.943l1.04.151l7.454 1.085L28 12.3l-7.451-1.083z" fill="#626262"/><rect x="0" y="0" width="32" height="32" fill="rgba(0, 0, 0, 0)" /></svg>