<svg xmlns="http://www.w3.org/2000/svg" xmlns:xlink="http://www.w3.org/1999/xlink" aria-hidden="true" focusable="false" width="1em" height="1em" style="-ms-transform: rotate(360deg); -webkit-transform: rotate(360deg); transform: rotate(360deg);" preserveAspectRatio="xMidYMid meet" viewBox="0 0 24 24"><path d="M12 8a1 1 0 0 0 0 2a2 2 0 0 1 0 4a1 1 0 0 0 0 2a4 4 0 0 0 0-8zm9.71 3.29L19.36 9V5.64a1 1 0 0 0-1-1h-3.31l-2.34-2.35a1 1 0 0 0-1.42 0L9 4.64H5.64a1 1 0 0 0-1 1V9l-2.35 2.29a1 1 0 0 0 0 1.42l2.35 2.34v3.31a1 1 0 0 0 1 1H9l2.34 2.35a1 1 0 0 0 1.42 0l2.34-2.35h3.31a1 1 0 0 0 1-1v-3.31l2.35-2.34a1 1 0 0 0-.05-1.42zm-4.05 2.64a1 1 0 0 0-.3.71v2.72h-2.72a1 1 0 0 0-.71.3L12 19.59l-1.93-1.93a1 1 0 0 0-.71-.3H6.64v-2.72a1 1 0 0 0-.3-.71L4.41 12l1.93-1.93a1 1 0 0 0 .3-.71V6.64h2.72a1 1 0 0 0 .71-.3L12 4.41l1.93 1.93a1 1 0 0 0 .71.3h2.72v2.72a1 1 0 0 0 .3.71L19.59 12z" fill="white"/></svg>