<?xml version="1.0" encoding="UTF-8" standalone="no"?>
<svg
   width="18.249367"
   height="15.999996"
   style="-ms-transform:rotate(360deg);-webkit-transform:rotate(360deg)"
   version="1.1"
   id="svg2"
   sodipodi:docname="new-var.svg"
   inkscape:export-filename="ScratchAddons-master\addons\variable-manager\icons\new-list.svg"
   inkscape:export-xdpi="96"
   inkscape:export-ydpi="96"
   xmlns:inkscape="http://www.inkscape.org/namespaces/inkscape"
   xmlns:sodipodi="http://sodipodi.sourceforge.net/DTD/sodipodi-0.dtd"
   xmlns="http://www.w3.org/2000/svg"
   xmlns:svg="http://www.w3.org/2000/svg">
  <defs
     id="defs2" />
  <sodipodi:namedview
     id="namedview2"
     pagecolor="#ffffff"
     bordercolor="#111111"
     borderopacity="1"
     inkscape:showpageshadow="0"
     inkscape:pageopacity="0"
     inkscape:pagecheckerboard="1"
     inkscape:deskcolor="#d1d1d1" />
  <path
     fill-rule="evenodd"
     clip-rule="evenodd"
     d="M 3.0214198,0.0955185 A 1.1405839,1.1405839 0 0 1 3.6076799,1.596527 15.911146,15.911146 0 0 0 2.2811808,7.9837972 c 0,2.2731838 0.4744829,4.4323088 1.3276397,6.3872698 A 1.1405839,1.1405839 0 0 1 1.5192707,15.283534 18.192314,18.192314 0 0 1 1.2934366e-5,7.9837972 C 1.2934366e-5,5.3901092 0.54179032,2.9196044 1.5192707,0.6840599 A 1.1405839,1.1405839 0 0 1 3.0214198,0.0955185 Z M 12.500813,4.5620453 A 3.4217518,3.4217518 0 0 0 9.829565,5.8463428 L 9.455453,6.3139822 9.328849,5.9957593 A 2.2811679,2.2811679 0 0 0 7.2119252,4.5620453 H 6.8435166 a 1.1405839,1.1405839 0 0 0 0,2.2811679 H 7.2119252 L 7.8187158,8.3601894 6.6382115,9.8372464 A 1.1405839,1.1405839 0 0 1 5.7474154,10.264965 h -0.044483 a 1.140584,1.140584 0 1 0 0,2.281168 h 0.044483 A 3.4217518,3.4217518 0 0 0 8.418663,11.261835 l 0.374112,-0.467639 0.126604,0.318223 a 2.2811679,2.2811679 0 0 0 2.118064,1.433714 h 0.368409 a 1.140584,1.140584 0 1 0 0,-2.281168 h -0.368409 l -0.60679,-1.5169766 1.180504,-1.4770562 a 1.1405839,1.1405839 0 0 1 0.890796,-0.427719 h 0.04448 a 1.1405839,1.1405839 0 1 0 0,-2.2811679 h -0.04448 z M 14.638267,1.596527 a 1.1405839,1.1405839 0 0 1 2.09069,-0.9124671 18.192314,18.192314 0 0 1 1.520399,7.2997373 c 0,2.5936878 -0.541778,5.0641928 -1.519258,7.2997368 a 1.1405839,1.1405839 0 1 1 -2.08955,-0.912467 15.910005,15.910005 0 0 0 1.32764,-6.3872698 c 0,-2.2731839 -0.474483,-4.4323093 -1.32878,-6.3872702 z"
     fill="#fff"
     id="path1"
     style="fill:#999999;fill-opacity:1;stroke-width:1.14058"
     inkscape:label="var" />
</svg>
