<?xml version="1.0" encoding="UTF-8" standalone="no"?>
<svg
   width="16.000084"
   height="16.000002"
   style="-ms-transform:rotate(360deg);-webkit-transform:rotate(360deg)"
   version="1.1"
   id="svg2"
   sodipodi:docname="new-list.svg"
   inkscape:export-filename="new-list.svg"
   inkscape:export-xdpi="96"
   inkscape:export-ydpi="96"
   xmlns:inkscape="http://www.inkscape.org/namespaces/inkscape"
   xmlns:sodipodi="http://sodipodi.sourceforge.net/DTD/sodipodi-0.dtd"
   xmlns="http://www.w3.org/2000/svg"
   xmlns:svg="http://www.w3.org/2000/svg">
  <defs
     id="defs2" />
  <sodipodi:namedview
     id="namedview2"
     pagecolor="#ffffff"
     bordercolor="#111111"
     borderopacity="1"
     inkscape:showpageshadow="0"
     inkscape:pageopacity="0"
     inkscape:pagecheckerboard="1"
     inkscape:deskcolor="#d1d1d1" />
  <path
     d="m 15.442027,12.303864 -8.7283489,-2.47e-4 v 2.47e-4 l -0.0022,-2.47e-4 a 0.55969919,0.55964757 0 0 0 -0.559453,0.559402 c 0,0.01036 0.0025,0.01973 0.003,0.02983 v 2.547752 h 0.0027 a 0.55920607,0.5591545 0 0 0 0.555755,0.559154 v 2.47e-4 h 8.7283479 v -4.93e-4 a 0.55920607,0.5591545 0 0 0 0.555756,-0.559154 v -2.552684 c 4.93e-4,-0.0084 0.0025,-0.01652 0.0025,-0.0249 A 0.5589595,0.55890795 0 0 0 15.442027,12.303864 Z M 3.1375211,12.303124 H 0.55945306 A 0.55969919,0.55964757 0 0 0 5.8380127e-8,12.862526 v 2.577337 A 0.55945263,0.55940104 0 0 0 0.55920606,15.999263 H 3.1370281 a 0.55969919,0.55964757 0 0 0 0.559452,-0.5594 V 12.862526 A 0.5589595,0.55890795 0 0 0 3.1375211,12.303124 Z M 15.442027,6.1428109 6.7136781,6.1425639 v 2.47e-4 l -0.0022,-2.47e-4 a 0.55969919,0.55964757 0 0 0 -0.559453,0.5594014 c 0,0.010349 0.0025,0.019718 0.003,0.029827 v 2.5477519 h 0.0027 a 0.55920607,0.5591545 0 0 0 0.555755,0.559155 v 2.47e-4 h 8.7283479 v -4.94e-4 a 0.55920607,0.5591545 0 0 0 0.555756,-0.559151 V 6.726619 c 4.93e-4,-0.0084 0.0025,-0.016519 0.0025,-0.024898 A 0.5589595,0.55890795 0 0 0 15.442027,6.1428109 Z M 3.1375211,6.1420709 H 0.55945306 A 0.55969919,0.55964757 0 0 0 5.8380127e-8,6.7014713 V 9.2788082 A 0.55945263,0.55940104 0 0 0 0.55920606,9.8382102 H 3.1370281 a 0.55969919,0.55964757 0 0 0 0.559452,-0.559402 V 6.7014713 A 0.5589595,0.55890795 0 0 0 3.1375211,6.1420709 Z m 3.017444,-3.0048391 h 0.0027 a 0.55920607,0.5591545 0 0 0 0.555754,0.5591544 v 2.46e-4 h 8.7283489 v -4.93e-4 A 0.55920607,0.5591545 0 0 0 15.997522,3.1369848 V 0.58430115 c 4.95e-4,-0.00838 0.0025,-0.016517 0.0025,-0.024901 A 0.55945263,0.55940104 0 0 0 15.441802,2.4605439e-4 V 5.4393531e-8 H 6.7134531 V 2.4605439e-4 L 6.7112531,5.4393531e-8 A 0.55969919,0.55964757 0 0 0 6.1518011,0.55940045 c 0,0.010359 0.0025,0.019728 0.003,0.029827 V 3.1372265 Z M 3.1375211,5.4393531e-8 H 0.55945306 A 0.55969919,0.55964757 0 0 0 5.8380127e-8,0.55940045 V 3.1367388 A 0.55945263,0.55940104 0 0 0 0.55920606,3.6961392 H 3.1370281 A 0.55969919,0.55964757 0 0 0 3.6964801,3.1367388 V 0.55940045 A 0.55871294,0.55866142 0 0 0 3.1375211,5.4393531e-8 Z"
     fill="#ffffff"
     id="path1-8"
     style="display:inline;fill:#999999;fill-opacity:1;stroke-width:0.246553;-ms-transform:rotate(360deg);-webkit-transform:rotate(360deg)"
     inkscape:label="list" />
</svg>
