<svg version="1.1" xmlns="http://www.w3.org/2000/svg" xmlns:xlink="http://www.w3.org/1999/xlink" width="70.27714" height="77.38079" viewBox="0,0,70.27714,77.38079"><g transform="translate(-204.86143,-141.30961)"><g data-paper-data="{&quot;isPaintingLayer&quot;:true}" fill-rule="nonzero" stroke="none" stroke-width="1" stroke-linecap="butt" stroke-linejoin="miter" stroke-miterlimit="10" stroke-dasharray="" stroke-dashoffset="0" style="mix-blend-mode: normal"><path d="M274.85143,158.19039c-0.04,0.17 -0.07,0.34 -0.12,0.51c-0.15,0.63 -0.46,2.12 -0.77,5.03c0,0.05 0,0.09 -0.01,0.12c1.71,6.88 -1.17,11.07 -3.08,12.98c-0.12,0.13 -0.25,0.25 -0.39,0.37c-1.87,1.7 -5.14,3.73 -10.02,3.73c-2.43,0 -4.7,-0.54 -6.68,-1.53c0.05,2.73 0.08,6.49 0.08,11.71c1.8,0.63 3.45,1.65 4.85,2.99c2.78,2.67 4.3,6.24 4.3,10.05c0,5.66 -3.26,10.58 -8.51,12.83c-0.13,0.06 -0.27,0.12 -0.4,0.17c-1.76,0.67 -3.74,1 -6.06,1c-0.84,0 -1.74,-0.04 -2.72,-0.13c-0.6,-0.03 -1.48,-0.02 -2.52,0.01c-1.89,0.21 -4.55,0.42 -8.11,0.62c-0.07,0 -0.14,0.01 -0.22,0.01c-0.47,0.02 -0.92,0.03 -1.36,0.03c-6.37,0 -11.02,-2.02 -13.83,-5.99c-0.06,-0.08 -0.11,-0.16 -0.16,-0.24c-2.86,-4.27 -2.94,-9.67 -0.22,-14.08c0.02,-0.05 0.05,-0.09 0.08,-0.14c1.73,-2.72 4.26,-4.66 7.54,-5.8c0.04,-1.93 0.03,-4.35 -0.03,-7.22c-1.63,0.68 -3.51,1.08 -5.62,1.08c-5.57,0 -10.17,-3.31 -11.77,-8.34c-0.33,-1.02 -0.64,-2.51 -1.36,-5.87c-0.03,-0.12 -0.05,-0.24 -0.07,-0.36l-1.48,-8.27c-0.05,-0.18 -0.12,-0.39 -0.2,-0.63c-0.77,-2.19 -1.13,-4.05 -1.13,-5.85c0,-2.23 0.65,-5.6 3.73,-8.96c1.55,-1.7 4.37,-3.9 8.91,-4.61c0.56,-0.09 1.13,-0.14 1.7,-0.14h11.06c0.25,0 0.5,0.01 0.75,0.03c4.22,0.15 8,0.14 11.24,-0.01c4.53,-0.2 9.05,-0.59 13.48,-1.16c0.5,-0.16 1.04,-0.32 1.62,-0.46c0.55,-0.14 1.11,-0.23 1.67,-0.29c4.26,-0.39 8.23,0.84 11.32,3.48c3.83,3.29 5.52,8.27 4.51,13.33z" fill="#ffffff"/><path d="M264.06343,156.03439c-0.41,1.643 -0.762,3.87 -1.055,6.685c-0.119,1.408 -0.061,2.551 0.176,3.431c0.408,1.467 0.381,2.435 -0.088,2.903c-0.646,0.586 -1.525,0.879 -2.639,0.879c-1.291,0 -2.143,-0.383 -2.551,-1.151c-0.061,-2.362 -0.031,-4.578 0.088,-6.646c0.115,-2.54 0.176,-3.869 0.176,-3.987c-0.061,0 -0.148,-0.059 -0.264,-0.178c-5.455,0.237 -10.586,0.589 -15.394,1.059c-0.118,0.589 -0.118,1.528 0,2.82c0.233,1.822 0.352,2.88 0.352,3.172c-0.234,1.822 -0.352,4.524 -0.352,8.109c0.233,1.528 0.352,8.08 0.352,19.655v6.435c0,0.999 0.145,1.704 0.436,2.115h5.401c0.987,-0.117 1.785,0.118 2.396,0.704c0.609,0.587 0.914,1.29 0.914,2.11c0,1.289 -0.615,2.199 -1.847,2.728c-0.763,0.292 -2.111,0.352 -4.046,0.176c-0.938,-0.06 -2.317,-0.06 -4.135,0c-1.642,0.204 -4.28,0.409 -7.916,0.615c-3.167,0.117 -5.102,-0.323 -5.806,-1.319c-0.47,-0.703 -0.47,-1.437 0,-2.199c0.82,-1.289 2.961,-1.935 6.422,-1.935c1.231,0 1.992,-0.102 2.286,-0.307c0.293,-0.205 0.44,-0.601 0.44,-1.187c0,-0.526 0,-1.023 0,-1.492c0,-0.877 0,-2.165 0,-3.862c0.176,-2.983 0.176,-7.432 0,-13.343c-0.235,-8.485 -0.118,-15.945 0.352,-22.383c-0.059,-0.058 -0.147,-0.146 -0.266,-0.264c-2.123,0.118 -5.543,0.059 -10.26,-0.177c-0.531,0 -2.331,0.119 -5.396,0.353c0.762,5.337 1.231,9.354 1.407,12.051c0,0.352 -0.059,1.144 -0.176,2.375c-0.059,0.879 -0.792,1.319 -2.199,1.319c-0.763,0 -1.202,-0.262 -1.319,-0.785c-0.059,-0.115 -0.411,-1.687 -1.056,-4.711c-0.352,-1.977 -0.851,-4.769 -1.495,-8.375c0,-0.23 -0.206,-0.957 -0.615,-2.18c-0.35,-0.989 -0.525,-1.745 -0.525,-2.268c0,-0.406 0.277,-0.917 0.836,-1.526c0.557,-0.61 1.393,-1.004 2.507,-1.179c0.176,0 0.453,0 0.836,0c0.38,0 0.688,0 0.923,0c6.979,0 10.028,0 9.148,0c4.75,0.177 8.972,0.177 12.666,0c5.277,-0.233 10.495,-0.703 15.657,-1.407c0.352,-0.176 0.879,-0.352 1.582,-0.527c1.291,-0.117 2.346,0.176 3.168,0.88c0.82,0.702 1.113,1.641 0.879,2.814z" fill="#ff4d4d"/></g></g></svg>