<svg height="24" width="24" xmlns="http://www.w3.org/2000/svg"><path style="color:#000;fill:#000" d="M7 4.75v2.5h14v-2.5zM7 13.25h14v-2.5H7ZM7 19.25h14v-2.5H7ZM4 16.334c-.922 0-1.667.755-1.667 1.666 0 .911.756 1.667 1.667 1.667S5.667 18.91 5.667 18 4.921 16.333 4 16.333zM4 4.333c-.922 0-1.667.745-1.667 1.667S3.079 7.666 4 7.666 5.667 6.922 5.667 6c0-.922-.745-1.667-1.667-1.667ZM4 10.334c-.922 0-1.667.744-1.667 1.666 0 .922.745 1.666 1.667 1.666S5.667 12.922 5.667 12c0-.922-.745-1.666-1.667-1.666Z"/></svg>