<?xml version="1.0" encoding="UTF-8" standalone="no"?>
<svg
   height="24"
   width="24"
   version="1.1"
   id="svg4"
   xmlns="http://www.w3.org/2000/svg"
   xmlns:svg="http://www.w3.org/2000/svg">
  <defs
     id="defs8" />
  <path
     style="color:#000000;fill:#000000;"
     d="m 7,4.75 v 2.5 h 14 v -2.5 z"
     id="path835" />
  <path
     style="color:#000000;fill:#000000;"
     d="m 7.000000000000001,13.25 h 14 v -2.5 H 7 Z"
     id="path833" />
  <path
     style="color:#000000;fill:#000000;"
     d="m 7.000000000000001,19.25 h 14 v -2.5 H 7 Z"
     id="path831" />
  <path
     style="color:#000000;fill:#000000;"
     d="m 4,16.3335 c -0.92213,0 -1.6665,0.75548 -1.6665,1.6665 0,0.91102 0.75548,1.6665 1.6665,1.6665 0.911020000000005,0 1.6665,-0.75548 1.6665,-1.6665 0,-0.91102 -0.744369999999999,-1.6665 -1.6665,-1.6665 z"
     id="path829" />
  <path
     style="color:#000000;fill:#000000;"
     d="M 4,4.333499999999999 C 3.07787,4.333499999999999 2.3335,5.077869999999998 2.3335,6 2.3335,6.92213 3.07787,7.666499999999996 4,7.666499999999996 4.922130000000001,7.666499999999996 5.6665,6.92213 5.6665,6 5.6665,5.077869999999999 4.922130000000001,4.3335 4,4.333499999999999 Z"
     id="path827" />
  <path
     style="color:#000000;fill:#000000;"
     d="m 4,10.3335 c -0.92213,0 -1.6665,0.74437 -1.6665,1.6665 0,0.92213 0.74437,1.66649999999999 1.6665,1.66649999999999 C 4.922130000000001,13.66649999999999 5.6665,12.92213 5.6665,12 5.6665,11.07787 4.922130000000001,10.3335 4,10.3335 Z"
     id="path2" />
</svg>
