<?xml version="1.0" encoding="UTF-8" standalone="no"?>
<svg
   height="24"
   width="24"
   version="1.1"
   id="svg12"
   xmlns="http://www.w3.org/2000/svg"
   xmlns:svg="http://www.w3.org/2000/svg">
  <defs
     id="defs16" />
  <path
     id="path8136"
     style="fill:#000000;stroke:none;stroke-width:1px;stroke-linecap:butt;stroke-linejoin:miter;"
     d="M 12 2 C 6.490000000000001 2 2 6.490000000000001 2 12 C 2 17.51 6.490000000000001 22 12 22 A 2.5 2.5 0 0 0 14.5 19.5 C 14.5 18.89 14.269375 18.300078125 13.859375 17.830078125 C 13.779375 17.730078125 13.73046875 17.62 13.73046875 17.5 C 13.73046875 17.22 13.95046875 17 14.23046875 17 L 16 17 C 19.31 17 22 14.31 22 11 C 22 6.04 17.51 2 12 2 z M 12 4.5 C 16.17265644714285 4.5 19.5 7.450020821139898 19.5 11 C 19.5 12.94001314294118 17.94001314294117 14.5 16 14.5 L 14.23046875 14.5 C 12.57953846939403 14.5 11.23046875 15.84906971939403 11.23046875 17.5 C 11.23046875 18.2222215 11.49414300325097 18.93021417742792 11.986328125 19.482421875 L 11.98828125 19.484375 L 11.990234375 19.486328125 C 11.993200383918 19.489595745948 11.992424241837 19.494140727527 11.994140625 19.498046875 C 7.858428886559976 19.49458850696123 4.5 16.136512309402 4.5 12 C 4.5 7.861357124285714 7.861357124285714 4.5 12 4.5 z " />
  <circle
     cx="7.458837985992432"
     cy="11.15133190155029"
     r="1.5"
     id="circle4"
     style="stroke-width:0.999996" />
  <circle
     cx="9.935834884643555"
     cy="7.848668098449707"
     r="1.5"
     id="circle6"
     style="stroke-width:0.999996" />
  <circle
     cx="14.06416511535645"
     cy="7.848668098449707"
     r="1.5"
     id="circle8"
     style="stroke-width:0.999996" />
  <circle
     cx="16.54116249084473"
     cy="11.15133190155029"
     r="1.5"
     id="circle10"
     style="stroke-width:0.999996" />
</svg>
