<svg height="24" width="24" xmlns="http://www.w3.org/2000/svg"><path style="fill:#000;stroke:none;stroke-width:1px;stroke-linecap:butt;stroke-linejoin:miter" d="M12 2C6.49 2 2 6.49 2 12s4.49 10 10 10a2.5 2.5 0 0 0 2.5-2.5c0-.61-.23-1.2-.64-1.67a.495.495 0 0 1 .371-.83H16c3.31 0 6-2.69 6-6 0-4.96-4.49-9-10-9zm0 2.5c4.173 0 7.5 2.95 7.5 6.5 0 1.94-1.56 3.5-3.5 3.5h-1.77c-1.65 0-3 1.35-3 3 0 .722.264 1.43.756 1.982l.002.002.002.002c.003.004.002.008.004.012A7.503 7.503 0 0 1 4.5 12c0-4.139 3.361-7.5 7.5-7.5z"/><circle cx="7.459" cy="11.151" r="1.5" style="stroke-width:.999996"/><circle cx="9.936" cy="7.849" r="1.5" style="stroke-width:.999996"/><circle cx="14.064" cy="7.849" r="1.5" style="stroke-width:.999996"/><circle cx="16.541" cy="11.151" r="1.5" style="stroke-width:.999996"/></svg>