<?xml version="1.0" encoding="UTF-8" standalone="no"?>
<svg
   height="24"
   width="24"
   version="1.1"
   id="svg4"
   xmlns="http://www.w3.org/2000/svg"
   xmlns:svg="http://www.w3.org/2000/svg">
  <defs
     id="defs8" />
  <path
     id="path2693"
     style="fill:#000000"
     d="M 9.494140625 2.986328125 A 6.506423473358155 6.506422996520996 0 0 0 2.986328125 9.494140625 A 6.506423473358155 6.506422996520996 0 0 0 9.494140625 16 A 6.506423473358155 6.506422996520996 0 0 0 13.1015625 14.900390625 L 18.83984375 20.638671875 L 20.607421875 18.87109375 L 14.873046875 13.134765625 A 6.506423473358155 6.506422996520996 0 0 0 16 9.494140625 A 6.506423473358155 6.506422996520996 0 0 0 9.494140625 2.986328125 z M 9.494140625 5.486328125 A 4.006745907475107 4.006745613832165 0 0 1 13.5 9.494140625 A 4.006745907475107 4.006745613832165 0 0 1 9.494140625 13.5 A 4.006745907475107 4.006745613832165 0 0 1 5.486328125 9.494140625 A 4.006745907475107 4.006745613832165 0 0 1 9.494140625 5.486328125 z " />
</svg>
