<?xml version="1.0" encoding="UTF-8" standalone="no"?>
<svg
   height="24"
   width="24"
   version="1.1"
   id="svg4"
   xmlns="http://www.w3.org/2000/svg"
   xmlns:svg="http://www.w3.org/2000/svg">
  <defs
     id="defs8" />
  <path
     id="path2455"
     style="fill:#000000;"
     d="M 7 6.400390625 C 3.915365390578332 6.400390625 1.400390625 8.91536539057833 1.400390625 12 C 1.400390625 15.08463460942167 3.915365390578332 17.599609375 7 17.599609375 L 11 17.599609375 L 11 15.099609375 L 7 15.099609375 C 5.29 15.099609375 3.900390624999999 13.71 3.900390625 12 C 3.900390624999999 10.29 5.29 8.900390624999998 7 8.900390625 L 11 8.900390625 L 11 6.400390625 L 7 6.400390625 z " />
  <path
     id="path7579"
     style="color:#000000;fill:#000000;stroke-width:1.2;-inkscape-stroke:none"
     d="M 13 6.400390625 L 13 8.900390625 L 17 8.900390625 C 18.71 8.900390625 20.099609375 10.29 20.099609375 12 C 20.099609375 13.71 18.71 15.099609375 17 15.099609375 L 13 15.099609375 L 13 17.599609375 L 17 17.599609375 C 20.08463460942166 17.599609375 22.599609375 15.08463460942167 22.599609375 12 C 22.599609375 8.91536539057833 20.08463460942166 6.400390625 17 6.400390625 L 13 6.400390625 z " />
  <path
     id="path7907"
     style="color:#000000;fill:#000000;stroke-width:0.5;-inkscape-stroke:none"
     d="M 7.75 10.75 L 7.75 13.25 L 8 13.25 L 16.25 13.25 L 16.25 10.75 L 7.75 10.75 z " />
</svg>
