<svg height="24" width="24" xmlns="http://www.w3.org/2000/svg"><path style="fill:#000" d="M7 6.4A5.61 5.61 0 0 0 1.4 12 5.61 5.61 0 0 0 7 17.6h4v-2.5H7c-1.71 0-3.1-1.39-3.1-3.1 0-1.71 1.39-3.1 3.1-3.1h4V6.4H7z"/><path style="color:#000;fill:#000;stroke-width:1.2;-inkscape-stroke:none" d="M13 6.4v2.5h4c1.71 0 3.1 1.39 3.1 3.1 0 1.71-1.39 3.1-3.1 3.1h-4v2.5h4a5.61 5.61 0 0 0 5.6-5.6A5.61 5.61 0 0 0 17 6.4h-4z"/><path style="color:#000;fill:#000;stroke-width:.5;-inkscape-stroke:none" d="M7.75 10.75v2.5h8.5v-2.5h-8.5z"/></svg>