<svg height="24" width="24" xmlns="http://www.w3.org/2000/svg"><path style="color:#000;fill:#000" d="M7.583 13.25h14v-2.5h-14ZM7.583 19.25h14v-2.5h-14ZM7.583 4.75v2.5h14v-2.5z"/><path style="color:#000;fill:#000;stroke-width:.333" d="M2.583 11h1.8l-1.8 2.1v.9h3v-1h-1.8l1.8-2.1V10h-3Z"/><path style="color:#000;fill:#000" d="M2.416 9.834v1.332h1.605l-1.605 1.873v1.127H5.75v-1.332H4.145l1.605-1.873V9.834Zm.334.332h2.666v.672l-1.994 2.328h1.994v.668H2.75v-.672l1.996-2.328H2.75Z"/><path style="color:#000;fill:#000;stroke-width:.333" d="M3.583 8h2V7h-1V4h-2v1h1v2h-1v1z"/><path style="color:#000;fill:#000" d="M2.416 3.834v1.332h1v1.668h-1v1.332H5.75V6.834h-1v-3zm.334.332h1.666v3h1v.668H2.75v-.668h1V4.834h-1z"/><path style="color:#000;fill:#000;stroke-width:.333" d="M2.583 17h2v.65h-1v.7h1V19h-2v1h3v-4h-3z"/><path style="color:#000;fill:#000" d="M2.416 15.834v1.332h2v.318h-1v1.032h1v.318h-2v1.332H5.75v-4.332zm.334.332h2.666v3.668H2.75v-.668h2v-.982h-1v-.368h1v-.982h-2z"/></svg>