<?xml version="1.0" encoding="UTF-8" standalone="no"?>
<svg
   height="24"
   width="24"
   version="1.1"
   id="svg4"
   xmlns="http://www.w3.org/2000/svg"
   xmlns:svg="http://www.w3.org/2000/svg">
  <defs
     id="defs8" />
  <path
     style="color:#000000;fill:#000000;"
     d="M 7.583250001072884,13.25 H 21.58325000107288 v -2.5 H 7.583250001072884 Z"
     id="path835" />
  <path
     style="color:#000000;fill:#000000;"
     d="M 7.583250001072884,19.25 H 21.58325000107288 v -2.5 H 7.583250001072884 Z"
     id="path833" />
  <path
     style="color:#000000;fill:#000000;"
     d="m 7.583250001072884,4.75 v 2.5 H 21.58325000107288 v -2.5 z"
     id="path831" />
  <g
     id="path829">
    <path
       style="color:#000000;fill:#000000;stroke-width:0.333;"
       d="M 2.583250001072884,11 H 4.383250001072886 L 2.583250001072884,13.1 V 14 H 5.583250001072887 V 13 H 3.783250001072886 L 5.583250001072887,10.9 V 10 H 2.583250001072884 Z"
       id="path5209" />
    <path
       style="color:#000000;fill:#000000;"
       d="m 2.416015625,9.833984375 v 1.33203125 h 0.16796875 1.4375 L 2.416015625,13.0390625 v 1.126953125 H 5.75 v -1.33203125 H 4.14453125 L 5.75,10.9609375 V 9.833984375 Z M 2.75,10.166015625 h 2.666015625 v 0.671875 l -1.994140625,2.328125 h 1.994140625 v 0.66796875 H 2.75 v -0.671875 l 1.99609375,-2.328125 H 2.75 Z"
       id="path5211" />
  </g>
  <g
     id="path827">
    <path
       style="color:#000000;fill:#000000;stroke-width:0.333;"
       d="m 3.583250001072884,8 h 0.9999999999999996 1 l -3e-15,-0.999999999999985 -0.999999999999997,-8e-15 V 4 h -2 v 1 h 1 v 2 h -1 v 1 z"
       id="path5217" />
    <path
       style="color:#000000;fill:#000000;"
       d="m 2.416015625,3.833984375 v 1.33203125 h 1 v 1.66796875 h -1 v 1.33203125 h 1.16796875 1 H 5.75 v -1.33203125 h -1 v -3 z M 2.75,4.166015625 h 1.666015625 v 3 h 1 v 0.66796875 h -0.83203125 -1 H 2.75 v -0.66796875 h 1 v -2.33203125 h -1 z"
       id="path5219" />
  </g>
  <g
     id="path2">
    <path
       style="color:#000000;fill:#000000;stroke-width:0.333;"
       d="m 2.583250001072884,17 h 2 v 0.65 H 3.583250001072884 v 0.7 H 4.583250001072884 V 19 h -2 v 1 h 3 v -4 h -3 z"
       id="path5201" />
    <path
       style="color:#000000;fill:#000000;"
       d="m 2.416015625,15.833984375 v 1.33203125 h 0.16796875 1.83203125 V 17.484375 h -1 v 1.03125 h 1 v 0.318359375 h -2 v 1.33203125 H 5.75 v -4.33203125 z M 2.75,16.166015625 h 2.666015625 v 3.66796875 H 2.75 v -0.66796875 h 2 V 18.18359375 h -1 v -0.3671875 h 1 v -0.982421875 h -2 z"
       id="path5203" />
  </g>
</svg>
