<?xml version="1.0" encoding="UTF-8" standalone="no"?>
<svg
   width="24"
   height="24"
   viewBox="0 0 6.35 6.35"
   version="1.1"
   id="svg4"
   xmlns="http://www.w3.org/2000/svg"
   xmlns:svg="http://www.w3.org/2000/svg">
  <defs
     id="defs8" />
  <path
     stroke-opacity="0.1"
     stroke="#ffffff"
     stroke-width="1"
     d="m 0.3307291567325596,2.041725364658427 v 1.976985506092897 c 0,0.06372468551564 0.052571839156962,0.115362260221234 0.1174051748088377,0.115362260221234 h 0.3811318730508643 c 0.047076371690223,0 0.092208548481217,0.01836614087486 0.125493029525129,0.05105911431696 l 0.2084136828236584,0.25752246888841 c 0.02203468959721,0.02164311026826 0.05189558894961,0.03379473831081 0.08304063814759,0.03379473831081 H 1.71367452704084 c 0.03114504919798,0 0.06100594855038,-0.01215162804254 0.08304063814759,-0.03379473831081 l 0.208413682823664,-0.25752246888841 c 0.03328448104392,-0.0326929734421 0.07841665603514,-0.05105911431696 0.12549302952513,-0.05105911431696 h 3.771243790921383 c 0.06483333325217,0 0.11740517480884,-0.05163757470559 0.11740517480884,-0.115362260221234 V 2.041725364658427 c -9e-15,-0.06372468786921 -0.05257184155666,-0.115362261398018 -0.11740517480884,-0.115362261398018 h -3.77124379092138 c -0.03114504919798,0 -0.06100594855038,0.01215162851326 -0.08304063814759,0.03379473654562 L 1.839167556565973,2.217872526174857 c -0.03328448104392,0.03269297285372 -0.07841665603514,0.05105911431695 -0.12549302952513,0.05105911431695 H 1.246213555088642 c -0.04707637348999,0 -0.09220854848122,-0.01836614146324 -0.12549302952513,-0.05105911431695 L 0.912306842739855,1.960157839806038 C 0.8902721507429449,1.938514731773669 0.8604112531903215,1.926363103260408 0.829266204592262,1.926363103260408 H 0.4481343315413975 c -0.064833335651874,0 -0.1174051748088367,0.05163757352881 -0.1174051748088379,0.115362261398019 z"
     id="path13480"
     style="fill:none;fill-rule:evenodd;stroke:#ffffff;stroke-width:0.661459;stroke-linejoin:miter;stroke-miterlimit:4;stroke-dasharray:none;stroke-opacity:1" />
</svg>
