<?xml version="1.0" encoding="UTF-8" standalone="no"?>
<svg
   width="24"
   height="24"
   viewBox="0 0 6.35 6.35"
   version="1.1"
   id="svg4"
   xmlns="http://www.w3.org/2000/svg"
   xmlns:svg="http://www.w3.org/2000/svg">
  <defs
     id="defs8" />
  <path
     style="stroke-width: 1"
     d="M 0.455078125,1.595703125 C 0.2094911638274381,1.591468234845387 0.0019166404556847,1.797519296754961 0.001953125,2.04296875 L 0,4.01953125 c -2.583588361757762e-4,0.248905787997402 0.205876676942456,0.4453125 0.447265625,0.4453125 H 0.7578125 l 0.162109375,0.203125 0.015625,0.013671875 c 0.084316382261342,0.08064403672159 0.197781897840714,0.125733300445925 0.314453125,0.125 h 0.46484375 c 0.116002258661628,2.43774148884e-4 0.22863585938652,-0.04478850783356 0.3125,-0.125 l 0.015625,-0.013671875 0.162109375,-0.203125 H 5.89453125 c 0.245590013626521,0.004234942791 0.455114635864457,-0.19968597822258 0.455078125,-0.4453125 V 2.04296875 C 6.349618429714571,1.799292838085758 6.143891934562349,1.594502423473248 5.900390625,1.595703125 H 2.12890625 c -0.117198894153524,2.78712254654e-4 -0.228786598862974,0.04688354008744 -0.3125,0.12890625 L 1.802734375,1.736328125 1.638671875,1.9375 h -0.3203125 l -0.16015625,-0.19921875 -0.015625,-0.013671875 c -0.08371340113703,-0.08202270991255 -0.1953011058464684,-0.128627537745346 -0.3125,-0.12890625 z m 0.20703125,0.66015625 h 0.0625 L 0.875,2.44140625 l 0.015625,0.015625 c 0.094890445438598,0.09087613267719 0.2221734756081599,0.142460274085679 0.353515625,0.142578125 h 0.46875 C 1.844902409257445,2.599976279766777 1.971064547445836,2.548339549491419 2.06640625,2.45703125 l 0.015625,-0.013671875 0.15234375,-0.1875 H 5.6875 V 3.8046875 H 2.134765625 2.1328125 C 2.000497460868652,3.804078877111512 1.87293447247759,3.853757605331661 1.77734375,3.9453125 l -0.015625,0.015625 -0.146484375,0.18359375 H 1.34765625 L 1.201171875,3.9609375 1.1875,3.947265625 C 1.091908012777384,3.854240501250373 0.9634624688226107,3.802390147149635 0.830078125,3.802734375 H 0.66015625 Z"
     id="path2" />
</svg>
