<svg width="24" height="24" viewBox="0 0 6.35 6.35" xmlns="http://www.w3.org/2000/svg"><path stroke-opacity=".1" stroke="#fff" d="M.33 2.042v1.977c0 .063.053.115.118.115H.83a.18.18 0 0 1 .126.051l.208.258a.119.119 0 0 0 .083.033h.468a.119.119 0 0 0 .083-.033l.208-.258a.18.18 0 0 1 .126-.05H5.9a.116.116 0 0 0 .118-.116V2.042a.116.116 0 0 0-.117-.116H2.13a.119.119 0 0 0-.083.034l-.209.258a.18.18 0 0 1-.125.05h-.468a.18.18 0 0 1-.125-.05L.912 1.96a.119.119 0 0 0-.083-.034H.45a.116.116 0 0 0-.118.116z" style="fill:none;fill-rule:evenodd;stroke:#fff;stroke-width:.661459;stroke-linejoin:miter;stroke-miterlimit:4;stroke-dasharray:none;stroke-opacity:1"/></svg>