<svg xmlns="http://www.w3.org/2000/svg" width="24" height="24" viewBox="0 0 6.3499999 6.3500002"><path d="M.55784712 1.6453777c-.17589499 0-.31781006.1413984-.31781006.3172933v2.1316529c0 .175895.14191507.3172933.31781006.3172933H1.040505c.013217.1635678.1455563.2930051.3126424.2930051h.686263c.1670862 3e-7.2989084-.1294373.3121257-.2930051h3.4411335c.175895 0 .3172933-.1413983.3172933-.3172933V1.962671c0-.1758949-.1413983-.3172933-.3172933-.3172933H2.3515361v.01757c0 .175895-.1413983.3178101-.3172933.3178101H1.347463c-.175895 0-.3172933-.1419151-.3172933-.3178101v-.01757z"/></svg>
