<?xml version="1.0" encoding="UTF-8" standalone="no"?>
<svg
   height="24px"
   viewBox="0 0 24 24"
   width="24px"
   fill="#000000"
   version="1.1"
   id="svg10"
   xmlns="http://www.w3.org/2000/svg"
   xmlns:svg="http://www.w3.org/2000/svg">
  <defs
     id="defs14" />
  <circle
     cx="15.5"
     cy="9.5"
     id="circle4"
     style="stroke-width:1"
     r="1.625" />
  <circle
     cx="8.5"
     cy="9.5"
     id="circle6"
     style="stroke-width:1"
     r="1.625" />
  <path
     id="path1122"
     style="stroke-width:1"
     d="M 11.990234375 1.75 C 6.334974329782608 1.75 1.749999999999996 6.345041886847828 1.75 12 C 1.75 17.65495811315217 6.334974329782608 22.25 11.990234375 22.25 C 17.65524980702531 22.25 22.25 17.65526004521739 22.25 12 C 22.25 6.34473995478261 17.65524980702531 1.75 11.990234375 1.75 z M 12 4.25 C 16.28500325647059 4.25 19.75 7.714996743529412 19.75 12 C 19.75 16.28500325647059 16.28500325647059 19.75 12 19.75 C 7.714996743529416 19.75 4.25 16.28500325647059 4.25 12 C 4.25 7.714996743529411 7.714996743529416 4.25 12 4.25 z M 6.513671875 13.75 L 6.646484375 14.091796875 C 7.483012958083834 16.23540136915232 9.566282834291846 17.75 12 17.75 C 14.43371716570815 17.75 16.51698704191617 16.23540136915232 17.353515625 14.091796875 L 17.486328125 13.75 L 15.306640625 13.75 L 15.234375 13.873046875 C 14.57623942057558 14.99187736002151 13.388782395 15.75 12 15.75 C 10.611217605 15.75 9.423760579424419 14.99187736002151 8.765625 13.873046875 L 8.693359375 13.75 L 6.513671875 13.75 z " />
</svg>
