<svg height="24" width="24" xmlns="http://www.w3.org/2000/svg"><path style="color:#000;fill:#000;stroke-width:.5" d="M11.99 1.75C6.335 1.75 1.75 6.345 1.75 12s4.585 10.25 10.24 10.25c5.665 0 10.26-4.595 10.26-10.25S17.655 1.75 11.99 1.75zm.01 2.5A7.744 7.744 0 0 1 19.75 12 7.744 7.744 0 0 1 12 19.75 7.744 7.744 0 0 1 4.25 12 7.744 7.744 0 0 1 12 4.25z"/><path d="M8.5 11c.83 0 1.5-.67 1.5-1.5S9.33 8 8.5 8 7 8.67 7 9.5 7.67 11 8.5 11ZM15.5 11c.83 0 1.5-.67 1.5-1.5S16.33 8 15.5 8 14 8.67 14 9.5s.67 1.5 1.5 1.5z"/><path style="fill:#000" d="M6.91 14A5.475 5.475 0 0 0 12 17.494 5.475 5.475 0 0 0 17.09 14h-2.242A3.475 3.475 0 0 1 12 15.494 3.475 3.475 0 0 1 9.152 14H6.91z"/><path style="fill:#000" d="M6.91 14A5.475 5.475 0 0 0 12 17.494 5.475 5.475 0 0 0 17.09 14h-2.242A3.475 3.475 0 0 1 12 15.494 3.475 3.475 0 0 1 9.152 14H6.91z"/></svg>