<?xml version="1.0" encoding="UTF-8" standalone="no"?>
<svg
   height="24"
   width="24"
   version="1.1"
   id="svg4"
   xmlns="http://www.w3.org/2000/svg"
   xmlns:svg="http://www.w3.org/2000/svg">
  <defs
     id="defs8" />
  <path
     id="path1131"
     style="color:#000000;fill:#000000;stroke-width:0.5;"
     d="M 11.990234375 1.75 C 6.334974329782611 1.75 1.749999999999999 6.34503481031505 1.75 12 C 1.75 17.65496518968495 6.334974329782611 22.25 11.990234375 22.25 C 17.65524980702532 22.25 22.25 17.65525296868461 22.25 12 C 22.25 6.34474703131539 17.65524980702532 1.75 11.990234375 1.75 z M 12 4.25 C 16.28500325647059 4.25 19.75 7.714996743529412 19.75 12 C 19.75 16.28500325647059 16.28500325647059 19.75 12 19.75 C 7.714996743529412 19.75 4.25 16.28500325647059 4.25 12 C 4.25 7.714996743529412 7.714996743529412 4.25 12 4.25 z " />
  <path
     d="M 8.5,11 C 9.33,11 10,10.33 10,9.5 10,8.669999999999999 9.33,8 8.5,8 7.67,8 7,8.669999999999999 7,9.5 7,10.33 7.67,11 8.5,11 Z"
     id="path1100" />
  <path
     d="M 15.5,11 C 16.33,11 17,10.33 17,9.5 17,8.669999999999999 16.33,8 15.5,8 14.67,8 14,8.669999999999999 14,9.5 c 0,0.83 0.67,1.5 1.5,1.5 z"
     id="path1098" />
  <path
     id="path4435"
     style="fill:#000000;"
     d="M 6.91015625 14 A 5.474999904632568 5.474999904632568 0 0 0 12 17.494140625 A 5.474999904632568 5.474999904632568 0 0 0 17.08984375 14 L 14.84765625 14 A 3.474999904632568 3.474999904632568 0 0 1 12 15.494140625 A 3.474999904632568 3.474999904632568 0 0 1 9.15234375 14 L 6.91015625 14 z " />
  <path
     id="path1354"
     style="fill:#000000;"
     d="M 6.91015625 14 A 5.474999904632568 5.474999904632568 0 0 0 12 17.494140625 A 5.474999904632568 5.474999904632568 0 0 0 17.08984375 14 L 14.84765625 14 A 3.474999904632568 3.474999904632568 0 0 1 12 15.494140625 A 3.474999904632568 3.474999904632568 0 0 1 9.15234375 14 L 6.91015625 14 z " />
</svg>
