<?xml version="1.0" encoding="UTF-8" standalone="no"?>
<svg
   height="24"
   width="24"
   version="1.1"
   id="svg4"
   sodipodi:docname="uploader.svg"
   inkscape:version="1.1 (c68e22c387, 2021-05-23)"
   xmlns:inkscape="http://www.inkscape.org/namespaces/inkscape"
   xmlns:sodipodi="http://sodipodi.sourceforge.net/DTD/sodipodi-0.dtd"
   xmlns="http://www.w3.org/2000/svg"
   xmlns:svg="http://www.w3.org/2000/svg">
  <sodipodi:namedview
     id="namedview6"
     pagecolor="#505050"
     bordercolor="#ffffff"
     borderopacity="1"
     inkscape:pageshadow="0"
     inkscape:pageopacity="0"
     inkscape:pagecheckerboard="1"
     showgrid="false"
     inkscape:snap-midpoints="true"
     inkscape:zoom="29.5"
     inkscape:cx="12"
     inkscape:cy="12"
     inkscape:current-layer="svg4" />
  <defs
     id="defs8" />
  <path
     d="M 14,12.99999999999999 V 17 H 10.00000000000001 V 12.99999999999999 H 7.000000000000009 l 5.000000000000002,-4.999999999999988 4.99999999999998,4.999999999999988 z"
     id="path827"
     style="stroke-width:1" />
  <path
     style="color:#000000;fill:#000000;-inkscape-stroke:none"
     d="m 12,3.623046875 c -2.851233857675673,0 -5.322387105151911,1.536216695975745 -6.728515625,3.796875 C 2.259654389586566,8.061168043529034 -3.656121167982088e-4,10.65139490446675 0,13.78125 c -7.288514218826941e-16,3.6299166798754 2.986269198584516,6.595703125 6.625,6.595703125 H 18.271484375 C 21.41660015844987,20.376953125 23.99999999999998,17.81086906291832 24,14.671875 24,11.97054178895547 22.04695771474628,9.801785893616157 19.505859375,9.2265625 18.47772363785817,5.955266185513803 15.50201700696008,3.622259158004895 12,3.623046875 Z m 0,2.5 c 2.61928828962474,-5.89162730141e-4 4.85216640372855,1.828511560873129 5.357421875,4.375 l 0.1875,0.9375 L 18.498046875,11.5 c 1.69677034589034,0.11682441644264 3.00195312499998,1.47051317341561 3.001953125,3.171875 0,1.77887836251142 -1.42863636283331,3.205078125 -3.228515625,3.205078125 H 6.625 C 4.333320076418857,17.876953125 2.499999999999999,16.04921655496967 2.5,13.78125 2.499755155135031,11.68523372200349 4.070192530211378,9.941138911227499 6.17578125,9.71484375 L 6.83984375,9.642578125 7.150390625,9.052734375 C 8.059702235509824,7.316431986006945 9.881345066112386,6.123046874999996 12,6.123046875 Z"
     id="path2" />
</svg>
