<svg height="24" width="24" xmlns="http://www.w3.org/2000/svg"><path d="M14 13v4h-4v-4H7l5-5 5 5z" style="stroke-width:1"/><path style="color:#000;fill:#000;-inkscape-stroke:none" d="M12 3.623c-2.851 0-5.322 1.536-6.729 3.797C2.26 8.06 0 10.65 0 13.78c0 3.63 2.986 6.596 6.625 6.596h11.646c3.146 0 5.729-2.566 5.729-5.705 0-2.701-1.953-4.87-4.494-5.445C18.478 5.955 15.502 3.622 12 3.623Zm0 2.5a5.439 5.439 0 0 1 5.357 4.375l.188.938.953.064c1.697.117 3.002 1.47 3.002 3.172a3.2 3.2 0 0 1-3.229 3.205H6.625A4.098 4.098 0 0 1 2.5 13.781c0-2.096 1.57-3.84 3.676-4.066l.664-.072.31-.59A5.462 5.462 0 0 1 12 6.123Z"/></svg>