<svg xmlns="http://www.w3.org/2000/svg" xmlns:xlink="http://www.w3.org/1999/xlink" width="24" height="24" preserveAspectRatio="xMidYMid meet" viewBox="0 0 24 24" style="-ms-transform: rotate(360deg); -webkit-transform: rotate(360deg); transform: rotate(360deg);"><path d="M12.138 4.786l8.85 3.551a1 1 0 0 1 .01 1.852l-8.85 3.664a1 1 0 0 1-.765 0L2.532 10.19a1 1 0 0 1 .01-1.852l8.85-3.552a1 1 0 0 1 .746 0zm5.759 8.31l3.091 1.241a1 1 0 0 1 .01 1.852l-8.85 3.664a1 1 0 0 1-.765 0L2.532 16.19a1 1 0 0 1 .01-1.852l3.091-1.24l5.176 2.142a2.5 2.5 0 0 0 1.912 0l5.176-2.142z" fill="#626262"/><rect x="0" y="0" width="24" height="24" fill="rgba(0, 0, 0, 0)" /></svg>