<svg xmlns="http://www.w3.org/2000/svg" xmlns:xlink="http://www.w3.org/1999/xlink" width="16" height="16" preserveAspectRatio="xMidYMid meet" viewBox="0 0 16 16" style="-ms-transform: rotate(360deg); -webkit-transform: rotate(360deg); transform: rotate(360deg);"><g fill="none"><path d="M11.992 2.853a.75.75 0 0 0-1.485-.212l-.336 2.36H6.686l.306-2.145a.75.75 0 1 0-1.484-.212L5.17 5h-1.42a.75.75 0 0 0-.001 1.5h1.207l-.428 3H2.75a.75.75 0 1 0 0 1.5h1.565l-.306 2.144a.75.75 0 1 0 1.485.212L5.83 11h3.485l-.306 2.144a.75.75 0 1 0 1.485.212L10.831 11h1.419a.75.75 0 0 0 0-1.5h-1.206l.428-3l1.778.001a.75.75 0 0 0 0-1.5h-1.564l.306-2.148zM9.957 6.501L9.529 9.5H6.044l.428-3h3.485z" fill="#626262"/></g><rect x="0" y="0" width="16" height="16" fill="rgba(0, 0, 0, 0)" /></svg>