<?xml version="1.0" encoding="UTF-8" standalone="no"?>
<svg
   viewBox="0 0 1024 1024"
   version="1.1"
   id="svg1"
   inkscape:version="1.3.2 (091e20e, 2023-11-25)"
   xml:space="preserve"
   sodipodi:docname="extension-icon-blue.svg"
   xmlns:inkscape="http://www.inkscape.org/namespaces/inkscape"
   xmlns:sodipodi="http://sodipodi.sourceforge.net/DTD/sodipodi-0.dtd"
   xmlns="http://www.w3.org/2000/svg"
   xmlns:svg="http://www.w3.org/2000/svg"><defs
     id="defs1"><filter
       style="color-interpolation-filters:sRGB"
       id="filter1"
       inkscape:label="filter1" /><filter
       style="color-interpolation-filters:sRGB;"
       inkscape:label="Drop Shadow"
       id="filter2"
       x="-0.029126214"
       y="-0.029126037"
       width="1.0582524"
       height="1.0703879"><feFlood
         result="flood"
         in="SourceGraphic"
         flood-opacity="0.498039"
         flood-color="rgb(0,0,0)"
         id="feFlood1" /><feGaussianBlur
         result="blur"
         in="SourceGraphic"
         stdDeviation="10.000000"
         id="feGaussianBlur1" /><feOffset
         result="offset"
         in="blur"
         dx="0.000000"
         dy="10.000000"
         id="feOffset1" /><feComposite
         result="comp1"
         operator="in"
         in="flood"
         in2="offset"
         id="feComposite1" /><feComposite
         result="comp2"
         operator="over"
         in="SourceGraphic"
         in2="comp1"
         id="feComposite2" /></filter></defs><sodipodi:namedview
     id="namedview1"
     pagecolor="#ffffff"
     bordercolor="#000000"
     borderopacity="0.25"
     inkscape:showpageshadow="2"
     inkscape:pageopacity="0.0"
     inkscape:pagecheckerboard="0"
     inkscape:deskcolor="#d1d1d1"
     inkscape:zoom="0.39599609"
     inkscape:cx="448.23675"
     inkscape:cy="474.75216"
     inkscape:window-width="1440"
     inkscape:window-height="785"
     inkscape:window-x="0"
     inkscape:window-y="25"
     inkscape:window-maximized="1"
     inkscape:current-layer="svg1" /><g
     id="g1"
     style="fill:#175ef8;filter:url(#filter2);fill-opacity:1"><path
       style="stroke-width:3px;fill:#175ef8;fill-opacity:1"
       d="M 100 724 L 100 300 C 100 185.001 170 99.995 300.026 100 L 724 99.995 C 854 100 924 185.001 924 300 L 924 724 C 924 839.001 854 923.995 724 924 L 300.026 924 C 170 924 100 839.001 100 724 Z"
       id="path1" /></g><g
     id="g2"><path
       fill="#ffffff"
       d="m 663.89752,644.13372 c -25.24065,70.18796 -93.8561,112.84707 -203.88829,126.80805 a 159.59368,159.59368 0 0 1 -14.84803,1.17686 c -6.40845,9.4098 -14.76992,17.56463 -24.6182,23.91763 -25.7875,16.54906 -49.93697,24.62576 -73.77144,24.62576 -48.99952,0 -101.74885,-36.70176 -101.74885,-117.32013 0,-5.48863 0.23688,-12.62536 0.78121,-22.50641 0.2394,-4.23365 0.47125,-7.52986 0.54937,-9.95917 a 87.319137,87.319137 0 0 1 -2.03367,-18.58776 v -37.95674 c 0,-6.19424 0.62749,-12.38848 1.87491,-18.58524 0.0907,-5.25427 0.315,-11.13602 0.70561,-17.56463 -1.87743,-6.90489 -3.28361,-14.90095 -3.28361,-23.84203 0,-4.07741 0.31249,-8.15482 0.85933,-12.15411 2.9686,-21.01708 12.27004,-42.11479 27.97741,-58.97381 a 141.29824,141.29824 0 0 1 -8.20523,-47.5253 v -39.99292 c 0,-16.23657 3.20296,-36.4674 18.91033,-86.81513 6.56468,-21.64708 8.67395,-28.38817 11.56695,-34.66305 15.39488,-34.66305 38.6069,-51.99332 55.48608,-60.54127 27.58428,-13.80222 57.20474,-20.86083 87.99451,-20.86083 14.22306,0 27.82116,1.49186 40.79177,4.31429 a 105.09797,105.09797 0 0 1 18.52224,-9.96169 c 8.36147,-3.60616 17.26978,-6.11611 27.11555,-7.6861 24.62072,-4.23365 50.64258,1.02062 73.30523,14.82284 23.83447,14.58847 51.18691,44.85658 47.82519,107.12659 -0.54433,10.97726 -1.48682,25.64386 -2.89048,44.77846 -0.0882,0.47125 -0.0882,0.93998 -0.14868,1.41122 -1.24742,13.88034 -3.04924,34.58241 -5.46847,61.95249 0.62496,10.58666 0.38808,22.42829 -0.54685,36.38927 a 83.619728,83.619728 0 0 1 -2.65864,15.84093 c -0.31248,1.17685 -0.62748,2.27307 -0.93997,3.29368 a 170.69946,170.69946 0 0 1 22.66266,38.89671 c 4.61166,9.33168 8.51771,20.0771 11.95755,33.17371 1.33058,4.93926 2.18991,9.95917 2.578,15.0572 3.51796,43.99473 1.71866,69.95107 -6.40845,91.91063 z"
       style="mix-blend-mode:normal;stroke-width:2.52003"
       id="path1-5" /><path
       fill="#ff7b26"
       d="m 584.85417,560.83404 c 2.28819,28.52173 1.81947,46.90537 -1.37845,55.1862 -13.30074,37.71229 -57.98596,61.388 -134.04055,71.0498 -25.66905,3.22564 -51.32551,-8.96376 -76.99708,-36.56063 0,4.14041 0.91477,16.55661 2.75692,37.25868 1.37845,15.17564 1.14157,27.58932 -0.68797,37.24357 -11.46615,7.35597 -20.62395,11.04026 -27.4986,11.04026 -10.55138,0 -15.81069,-10.34222 -15.81069,-31.04681 0,-3.67924 0.23689,-9.5358 0.68797,-17.58226 0.45361,-8.03891 0.68797,-13.67622 0.68797,-16.89934 0,-7.81967 -0.68797,-13.33098 -2.06391,-16.55662 V 616.0278 c 0,-0.91982 0.23689,-1.95303 0.68797,-3.10468 0.45361,-1.1441 0.91225,-2.18235 1.37594,-3.1072 -0.46117,-6.43113 -0.23688,-16.31974 0.68797,-29.66079 0.91225,-8.27831 0.91225,-13.55778 0,-15.86361 -2.29827,-4.58646 -3.42977,-7.34841 -3.42977,-8.27326 1.82199,-12.87737 11.22927,-19.31606 28.17901,-19.31606 10.99742,0 17.64023,3.91362 19.93598,11.72572 0,7.35597 0.91729,18.16943 2.74936,32.42022 2.75943,16.55409 11.45859,33.11575 26.12518,49.66481 16.03749,18.85992 31.38449,27.59435 46.06116,26.2159 16.49613,-1.82703 32.99479,-5.74064 49.49344,-11.7232 22.91214,-8.28334 36.6564,-17.93507 41.24538,-28.97029 3.1954,-8.28083 4.8057,-17.01022 4.8057,-26.2159 0,-28.04545 -10.30693,-48.97432 -30.93088,-62.76898 -9.17292,-5.97752 -26.12518,-10.80842 -50.87442,-14.49271 -14.20795,-1.82702 -22.92222,-2.75944 -26.11762,-2.75944 -21.99989,0.46117 -42.51296,-6.66548 -61.52661,-21.38751 -19.0212,-14.71196 -28.52425,-31.7373 -28.52425,-51.05083 v -40.003 c 0,-8.72939 5.04007,-29.1971 15.13028,-61.388 4.57134,-15.18572 7.09641,-23.2221 7.56514,-24.14947 4.11773,-9.65173 9.3846,-16.09041 15.8006,-19.31353 15.57381,-7.81211 32.07246,-11.72572 49.49345,-11.72572 33.90704,0 58.88308,13.79466 74.92561,41.38398 1.37846,1.38098 3.66665,3.45245 6.87969,6.21188 0.45109,-6.43112 1.37594,-16.31973 2.74684,-29.66078 a 3300.2854,3300.2854 0 0 0 -1.37342,-17.24459 c 0,-6.43112 3.1954,-10.79834 9.61897,-13.10417 1.82702,-0.91477 4.35209,-1.60526 7.56513,-2.06643 4.5789,-0.92233 9.51061,0.23437 14.78504,3.43985 5.25931,3.22564 7.43913,12.88493 6.52688,28.9703 -0.46116,10.11541 -1.37846,24.37375 -2.75187,42.76495 -1.37594,15.18068 -3.42977,38.40278 -6.1892,69.67639 0.91729,7.35598 0.91729,17.48147 0,30.34876 -2.29827,8.73695 -9.17292,13.10417 -20.62395,13.10417 -5.9624,0 -11.68287,-1.60527 -17.18411,-4.82083 -2.74935,-8.72939 -4.11773,-12.42376 -4.11773,-11.04278 0.90721,-12.41368 -1.6103,-28.9703 -7.56514,-49.66481 -5.04762,-10.57153 -12.0256,-25.62873 -20.96667,-45.17915 -8.94108,-19.54285 -20.73987,-30.01359 -35.40142,-31.39204 -18.33324,-1.38098 -30.24292,4.8309 -35.74415,18.62304 -1.82954,5.98508 -4.35965,14.72959 -7.5601,26.21842 -5.49871,17.01778 -8.93855,33.34507 -10.31449,48.97432 -0.45865,5.06526 -0.91981,7.13673 -1.37594,6.21188 a 575.42429,575.42429 0 0 0 4.81326,27.59436 c 2.29071,11.49891 7.91039,20.24342 16.84138,26.20834 8.94108,5.98508 26.0017,9.65676 51.21211,11.03774 61.86177,3.69185 100.1209,25.30617 114.79001,64.84549 2.28315,3.6868 4.57386,9.8886 6.86961,18.618 z"
       style="mix-blend-mode:normal;stroke-width:2.52003;fill:#175ef8;fill-opacity:1"
       id="path2" /><path
       fill="#ff7b26"
       d="M 432.61899,571.17877 H 780.38352 V 855.94248 H 432.61899 Z"
       id="path3"
       style="stroke-width:2.52003;fill:#175ef8;fill-opacity:1" /><path
       d="m 515.78007,616.53936 v 37.8005 H 490.57975 V 855.94248 H 780.38352 V 654.33986 h -25.20033 v -37.8005 h -80.64105 v 37.8005 h -78.12102 v -37.8005 z"
       fill="#ffffff"
       id="path4"
       style="stroke-width:2.52003" /></g></svg>
