<?xml version="1.0" encoding="UTF-8" standalone="no"?>
<svg
   viewBox="0 0 1024 1024"
   version="1.1"
   id="svg1"
   inkscape:version="1.3.2 (091e20e, 2023-11-25)"
   xml:space="preserve"
   sodipodi:docname="icon-blue.svg"
   xmlns:inkscape="http://www.inkscape.org/namespaces/inkscape"
   xmlns:sodipodi="http://sodipodi.sourceforge.net/DTD/sodipodi-0.dtd"
   xmlns="http://www.w3.org/2000/svg"
   xmlns:svg="http://www.w3.org/2000/svg"><defs
     id="defs1"><filter
       style="color-interpolation-filters:sRGB"
       id="filter1"
       inkscape:label="filter1" /><filter
       style="color-interpolation-filters:sRGB;"
       inkscape:label="Drop Shadow"
       id="filter2"
       x="-0.029126214"
       y="-0.029126037"
       width="1.0582524"
       height="1.0703879"><feFlood
         result="flood"
         in="SourceGraphic"
         flood-opacity="0.498039"
         flood-color="rgb(0,0,0)"
         id="feFlood1" /><feGaussianBlur
         result="blur"
         in="SourceGraphic"
         stdDeviation="10.000000"
         id="feGaussianBlur1" /><feOffset
         result="offset"
         in="blur"
         dx="0.000000"
         dy="10.000000"
         id="feOffset1" /><feComposite
         result="comp1"
         operator="in"
         in="flood"
         in2="offset"
         id="feComposite1" /><feComposite
         result="comp2"
         operator="over"
         in="SourceGraphic"
         in2="comp1"
         id="feComposite2" /></filter></defs><sodipodi:namedview
     id="namedview1"
     pagecolor="#ffffff"
     bordercolor="#000000"
     borderopacity="0.25"
     inkscape:showpageshadow="2"
     inkscape:pageopacity="0.0"
     inkscape:pagecheckerboard="0"
     inkscape:deskcolor="#d1d1d1"
     inkscape:zoom="0.36249177"
     inkscape:cx="371.04291"
     inkscape:cy="769.67265"
     inkscape:window-width="1440"
     inkscape:window-height="785"
     inkscape:window-x="0"
     inkscape:window-y="25"
     inkscape:window-maximized="0"
     inkscape:current-layer="g2" /><g
     id="g1"
     style="fill:#175ef8;fill-opacity:1"
     transform="matrix(1.2427184,0,0,1.2427109,-124.27184,-124.26488)"><rect
       style="fill:#175ef8;fill-opacity:1;stroke:none;stroke-width:0.80469"
       id="rect1"
       width="824.00006"
       height="824.005"
       x="100"
       y="99.995003"
       ry="124.31392" /></g><g
     id="g2"
     transform="matrix(3.1316912,0,0,3.1316722,-1158.4629,-1412.8676)"><path
       fill="#ffffff"
       d="m 593.682,667.07962 c -10.016,27.852 -37.244,44.78 -80.907,50.32 a 63.33,63.33 0 0 1 -5.892,0.467 c -2.543,3.734 -5.861,6.97 -9.769,9.491 -10.233,6.567 -19.816,9.772 -29.274,9.772 -19.444,0 -40.376,-14.564 -40.376,-46.555 0,-2.178 0.094,-5.01 0.31,-8.931 0.095,-1.68 0.187,-2.988 0.218,-3.952 a 34.65,34.65 0 0 1 -0.807,-7.376 v -15.062 c 0,-2.458 0.249,-4.916 0.744,-7.375 0.036,-2.085 0.125,-4.419 0.28,-6.97 -0.745,-2.74 -1.303,-5.913 -1.303,-9.461 0,-1.618 0.124,-3.236 0.341,-4.823 1.178,-8.34 4.869,-16.712 11.102,-23.402 a 56.07,56.07 0 0 1 -3.256,-18.859 v -15.87 c 0,-6.443 1.271,-14.471 7.504,-34.45 2.605,-8.59 3.442,-11.265 4.59,-13.755 6.109,-13.755 15.32,-20.632 22.018,-24.024 10.946,-5.477 22.7,-8.278 34.918,-8.278 5.644,0 11.04,0.592 16.187,1.712 a 41.705,41.705 0 0 1 7.35,-3.953 c 3.318,-1.431 6.853,-2.427 10.76,-3.05 9.77,-1.68 20.096,0.405 29.089,5.882 9.458,5.789 20.312,17.8 18.978,42.51 -0.216,4.356 -0.59,10.176 -1.147,17.769 -0.035,0.187 -0.035,0.373 -0.059,0.56 -0.495,5.508 -1.21,13.723 -2.17,24.584 0.248,4.201 0.154,8.9 -0.217,14.44 a 33.182,33.182 0 0 1 -1.055,6.286 c -0.124,0.467 -0.249,0.902 -0.373,1.307 a 67.737,67.737 0 0 1 8.993,15.435 c 1.83,3.703 3.38,7.967 4.745,13.164 0.528,1.96 0.869,3.952 1.023,5.975 1.396,17.458 0.682,27.758 -2.543,36.472 z"
       style="mix-blend-mode:normal"
       id="path1-5" /><path
       fill="#ff7b26"
       d="m 562.316,634.02462 c 0.908,11.318 0.722,18.613 -0.547,21.899 -5.278,14.965 -23.01,24.36 -53.19,28.194 -10.186,1.28 -20.367,-3.557 -30.554,-14.508 0,1.643 0.363,6.57 1.094,14.785 0.547,6.022 0.453,10.948 -0.273,14.779 -4.55,2.919 -8.184,4.381 -10.912,4.381 -4.187,0 -6.274,-4.104 -6.274,-12.32 0,-1.46 0.094,-3.784 0.273,-6.977 0.18,-3.19 0.273,-5.427 0.273,-6.706 0,-3.103 -0.273,-5.29 -0.819,-6.57 v -15.055 c 0,-0.365 0.094,-0.775 0.273,-1.232 0.18,-0.454 0.362,-0.866 0.546,-1.233 -0.183,-2.552 -0.094,-6.476 0.273,-11.77 0.362,-3.285 0.362,-5.38 0,-6.295 -0.912,-1.82 -1.361,-2.916 -1.361,-3.283 0.723,-5.11 4.456,-7.665 11.182,-7.665 4.364,0 7,1.553 7.911,4.653 0,2.919 0.364,7.21 1.091,12.865 1.095,6.569 4.547,13.141 10.367,19.708 6.364,7.484 12.454,10.95 18.278,10.403 6.546,-0.725 13.093,-2.278 19.64,-4.652 9.092,-3.287 14.546,-7.117 16.367,-11.496 1.268,-3.286 1.907,-6.75 1.907,-10.403 0,-11.129 -4.09,-19.434 -12.274,-24.908 -3.64,-2.372 -10.367,-4.289 -20.188,-5.751 -5.638,-0.725 -9.096,-1.095 -10.364,-1.095 -8.73,0.183 -16.87,-2.645 -24.415,-8.487 -7.548,-5.838 -11.319,-12.594 -11.319,-20.258 v -15.874 c 0,-3.464 2,-11.586 6.004,-24.36 1.814,-6.026 2.816,-9.215 3.002,-9.583 1.634,-3.83 3.724,-6.385 6.27,-7.664 6.18,-3.1 12.727,-4.653 19.64,-4.653 13.455,0 23.366,5.474 29.732,16.422 0.547,0.548 1.455,1.37 2.73,2.465 0.179,-2.552 0.546,-6.476 1.09,-11.77 a 1309.62,1309.62 0 0 0 -0.545,-6.843 c 0,-2.552 1.268,-4.285 3.817,-5.2 0.725,-0.363 1.727,-0.637 3.002,-0.82 1.817,-0.366 3.774,0.093 5.867,1.365 2.087,1.28 2.952,5.113 2.59,11.496 -0.183,4.014 -0.547,9.672 -1.092,16.97 -0.546,6.024 -1.361,15.239 -2.456,27.649 0.364,2.919 0.364,6.937 0,12.043 -0.912,3.467 -3.64,5.2 -8.184,5.2 -2.366,0 -4.636,-0.637 -6.819,-1.913 -1.091,-3.464 -1.634,-4.93 -1.634,-4.382 0.36,-4.926 -0.639,-11.496 -3.002,-19.708 -2.003,-4.195 -4.772,-10.17 -8.32,-17.928 -3.548,-7.755 -8.23,-11.91 -14.048,-12.457 -7.275,-0.548 -12.001,1.917 -14.184,7.39 -0.726,2.375 -1.73,5.845 -3,10.404 -2.182,6.753 -3.547,13.232 -4.093,19.434 -0.182,2.01 -0.365,2.832 -0.546,2.465 a 228.34,228.34 0 0 0 1.91,10.95 c 0.909,4.563 3.139,8.033 6.683,10.4 3.548,2.375 10.318,3.832 20.322,4.38 24.548,1.465 39.73,10.042 45.551,25.732 0.906,1.463 1.815,3.924 2.726,7.388 z"
       style="mix-blend-mode:normal;fill:#175ef8;fill-opacity:1"
       id="path2" /><path
       fill="#ff7b26"
       d="m 501.906,638.12962 h 138 v 113 h -138 z"
       id="path3"
       style="fill:#175ef8;fill-opacity:1" /><path
       d="m 534.906,656.12962 v 15 h -10 v 80 h 115 v -80 h -10 v -15 h -32 v 15 h -31 v -15 z"
       fill="#ffffff"
       id="path4" /></g></svg>
