<?xml version="1.0" encoding="UTF-8"?>
<svg width="20" height="20" version="1.1" viewBox="0 0 20 20" xmlns="http://www.w3.org/2000/svg"><path d="m8.8047 6.2266c-1.428 0-2.5781 1.1501-2.5781 2.5781v4.9688h4.9687c1.428-1e-6 2.5781-1.1501 2.5781-2.5781v-4.9687h-4.9688z" fill="none" opacity=".5" stop-color="#000000" stroke="#855cd6" stroke-linecap="round" stroke-width="2.455" style="paint-order:stroke markers fill"/><path d="m3.8008 0c-2.1052 0-3.8008 1.6956-3.8008 3.8008v7.3984c0 2.1052 1.6956 3.8008 3.8008 3.8008h1.1992v-6.1992c0-2.1052 1.6956-3.8008 3.8008-3.8008h6.1992v-1.1992c0-2.1052-1.6956-3.8008-3.8008-3.8008h-7.3984zm11.199 5v6.1992c0 2.1052-1.6956 3.8008-3.8008 3.8008h-6.1992v1.1992c0 2.1052 1.6956 3.8008 3.8008 3.8008h7.3984c2.1052 0 3.8008-1.6956 3.8008-3.8008v-7.3984c0-2.1052-1.6956-3.8008-3.8008-3.8008h-1.1992z" fill="#855cd6" stop-color="#000000" style="paint-order:stroke markers fill"/></svg>
