<?xml version="1.0" encoding="UTF-8"?>
<svg width="20" height="20" version="1.1" viewBox="0 0 20 20" xmlns="http://www.w3.org/2000/svg"><g fill="#855cd6"><path d="m9.0547 5c-0.848 0-1.4896 0.02136-2.0547 0.12695-0.56511 0.10559-1.1359 0.33941-1.5117 0.81836-0.37581 0.47895-0.45395 1.0146-0.48242 1.5-0.028474 0.48545-0.0058594 0.99078-0.0058594 1.6094v5.9453h5.9453c0.87836 0 1.5031 0.020637 2.0332-0.007812 0.5301-0.02846 1.1267-0.090551 1.5918-0.60938 0.46509-0.51883 0.4604-1.0763 0.46289-1.5742 0.00249-0.49797-0.033203-1.0712-0.033203-1.8633v-5.9453h-5.9453zm0 2.1094h3.8359v3.8359c0 1.0947-0.85066 1.9453-1.9453 1.9453h-3.8359v-3.8359c0-1.0947 0.85066-1.9453 1.9453-1.9453z" color="#000000" opacity=".5" stroke-linecap="round" style="-inkscape-stroke:none;paint-order:stroke markers fill"/><path d="m3.8008 0c-2.1052 0-3.8008 1.6956-3.8008 3.8008v7.3984c0 2.1052 1.6956 3.8008 3.8008 3.8008h1.1992v-6.1992c0-2.1052 1.6956-3.8008 3.8008-3.8008h6.1992v-1.1992c0-2.1052-1.6956-3.8008-3.8008-3.8008h-7.3984zm11.199 11.199c0 0.12961-0.006984 0.25857-0.019531 0.38476 0.012677-0.12681 0.019531-0.25451 0.019531-0.38476zm-0.021484 0.39844c-0.012915 0.12528-0.029991 0.24784-0.054688 0.36914 0.024588-0.12073 0.041772-0.24447 0.054688-0.36914zm-0.054688 0.36914c-0.025227 0.12391-0.05685 0.2461-0.09375 0.36523 0.036915-0.11915 0.068512-0.24132 0.09375-0.36523zm-0.09375 0.36523c-0.0369 0.11913-0.079008 0.23588-0.12695 0.34961 0.047964-0.11375 0.090039-0.23046 0.12695-0.34961zm-0.12695 0.34961c-0.047945 0.11373-0.10179 0.22433-0.16016 0.33203 0.058384-0.10772 0.11219-0.21828 0.16016-0.33203zm-0.16016 0.33203c-0.044572 0.082252-0.094206 0.16182-0.14453 0.24023 0.050474-0.078607 0.099838-0.15777 0.14453-0.24023zm-0.14453 0.24023c-0.030339 0.047249-0.061404 0.094851-0.09375 0.14062 0.032521-0.046018 0.063258-0.093115 0.09375-0.14062zm-0.09375 0.14062c-0.054373 0.076939-0.11011 0.15207-0.16992 0.22461 0.059894-0.072631 0.11548-0.14757 0.16992-0.22461zm-0.16992 0.22461c-0.07732 0.093766-0.16024 0.18368-0.24609 0.26953 0.08588-0.085881 0.16875-0.17574 0.24609-0.26953zm-0.24609 0.26953c-0.085856 0.085856-0.17576 0.16877-0.26953 0.24609 0.09379-0.077344 0.18365-0.16021 0.26953-0.24609zm-0.26953 0.24609c-0.072538 0.059814-0.14767 0.11555-0.22461 0.16992 0.07704-0.054441 0.15198-0.11003 0.22461-0.16992zm-0.22461 0.16992c-0.045774 0.032346-0.093376 0.063411-0.14062 0.09375 0.04751-0.030492 0.094607-0.061229 0.14062-0.09375zm-0.14062 0.09375c-0.078414 0.050325-0.15798 0.099959-0.24023 0.14453 0.082463-0.044693 0.16163-0.094057 0.24023-0.14453zm-0.24023 0.14453c-0.1077 0.058363-0.2183 0.11221-0.33203 0.16016 0.11375-0.047964 0.22431-0.10177 0.33203-0.16016zm-0.33203 0.16016c-0.11373 0.047945-0.23048 0.090053-0.34961 0.12695 0.11915-0.036914 0.23586-0.078989 0.34961-0.12695zm-0.34961 0.12695c-0.11913 0.0369-0.24133 0.068523-0.36523 0.09375 0.12392-0.025238 0.24608-0.056835 0.36523-0.09375zm-0.36523 0.09375c-0.1213 0.024697-0.24386 0.041773-0.36914 0.054688 0.12467-0.012917 0.24841-0.0301 0.36914-0.054688zm-0.38281 0.056641c-0.1262 0.012547-0.25516 0.019531-0.38476 0.019531 0.13025 0 0.25795-0.006854 0.38476-0.019531z" stop-color="#000000" style="paint-order:stroke markers fill"/><path d="m8.8008 5c-0.13025 0-0.25795 0.006854-0.38477 0.019531 0.1262-0.012548 0.25516-0.019531 0.38477-0.019531zm6.1992 0v6.1992c0 2.1052-1.6956 3.8008-3.8008 3.8008h-6.1992v1.1992c0 2.1052 1.6956 3.8008 3.8008 3.8008h7.3984c2.1052 0 3.8008-1.6956 3.8008-3.8008v-7.3984c0-2.1052-1.6956-3.8008-3.8008-3.8008h-1.1992zm-6.5977 0.021484c-0.12467 0.012916-0.24841 0.0301-0.36914 0.054688 0.1213-0.024696 0.24386-0.041773 0.36914-0.054688zm-0.36914 0.054688c-0.12392 0.025238-0.24609 0.056835-0.36523 0.09375 0.11913-0.0369 0.24133-0.068523 0.36523-0.09375zm-0.36523 0.09375c-0.11915 0.036915-0.23586 0.07899-0.34961 0.12695 0.11373-0.047945 0.23048-0.090054 0.34961-0.12695zm-0.34961 0.12695c-0.11375 0.047964-0.22431 0.10177-0.33203 0.16016 0.1077-0.058364 0.2183-0.11221 0.33203-0.16016zm-0.33203 0.16016c-0.082463 0.044693-0.16163 0.094056-0.24023 0.14453 0.078414-0.050325 0.15798-0.09996 0.24023-0.14453zm-0.24023 0.14453c-0.04751 0.030491-0.094607 0.061229-0.14062 0.09375 0.045774-0.032346 0.093377-0.063411 0.14062-0.09375zm-0.14062 0.09375c-0.07704 0.05444-0.15198 0.11003-0.22461 0.16992 0.072538-0.059815 0.14767-0.11555 0.22461-0.16992zm-0.22461 0.16992c-0.09379 0.077343-0.18365 0.16021-0.26953 0.24609 0.085856-0.085856 0.17577-0.16877 0.26953-0.24609zm-0.26953 0.24609c-0.085881 0.085881-0.16875 0.17574-0.24609 0.26953 0.077319-0.093766 0.16024-0.18368 0.24609-0.26953zm-0.24609 0.26953c-0.059894 0.07263-0.11548 0.14757-0.16992 0.22461 0.054373-0.076939 0.11011-0.15207 0.16992-0.22461zm-0.16992 0.22461c-0.032521 0.046018-0.063259 0.093115-0.09375 0.14062 0.030339-0.047248 0.061404-0.094851 0.09375-0.14062zm-0.09375 0.14062c-0.050475 0.078607-0.099838 0.15777-0.14453 0.24023 0.044572-0.082252 0.094206-0.16182 0.14453-0.24023zm-0.14453 0.24023c-0.058385 0.10773-0.11219 0.21828-0.16016 0.33203 0.047945-0.11373 0.10179-0.22433 0.16016-0.33203zm-0.16016 0.33203c-0.047964 0.11375-0.090038 0.23046-0.12695 0.34961 0.0369-0.11913 0.079008-0.23588 0.12695-0.34961zm-0.12695 0.34961c-0.036915 0.11915-0.068512 0.24132-0.09375 0.36523 0.025227-0.12391 0.05685-0.2461 0.09375-0.36523zm-0.09375 0.36523c-0.024588 0.12073-0.041771 0.24447-0.054688 0.36914 0.012915-0.12528 0.029991-0.24784 0.054688-0.36914zm-0.056641 0.38281c-0.012677 0.12681-0.019531 0.25451-0.019531 0.38477 0-0.12961 0.0069836-0.25857 0.019531-0.38477z" stop-color="#000000" style="paint-order:stroke markers fill"/><path d="m7.1413 10.797c0-1.9899 0.00384-2.0902 0.089879-2.3456 0.12228-0.36299 0.35511-0.70006 0.62-0.89757 0.56779-0.42337 0.63407-0.43287 3.0231-0.43365l1.9801-6.398e-4v2.0729c0 1.9425-0.0054 2.0902-0.08548 2.348-0.20718 0.66668-0.76698 1.1583-1.4709 1.2918-0.13327 0.02528-1.0555 0.04361-2.1933 0.04361h-1.9634z" stop-color="#000000" stroke="#855cd6" stroke-linecap="round" style="paint-order:stroke markers fill"/></g></svg>
