<?xml version="1.0" encoding="UTF-8"?>
<svg width="20" height="20" version="1.1" viewBox="0 0 20 20" xmlns="http://www.w3.org/2000/svg"><rect x="6.2275" y="6.2275" width="12.545" height="12.545" rx="2.5777" fill="none" opacity=".5" stop-color="#000000" stroke="#855cd6" stroke-linecap="round" stroke-linejoin="round" stroke-width="2.4549" style="paint-order:stroke markers fill"/><rect x=".80104" y=".80104" width="13.399" height="13.399" rx="2.7531" fill="none" opacity=".5" stop-color="#000000" stroke="#855cd6" stroke-linecap="round" stroke-linejoin="round" stroke-width="1.6021" style="paint-order:stroke markers fill"/><g fill="#855cd6"><path d="m3.8047 1.2266c-1.428 0-2.5781 1.1501-2.5781 2.5781v7.3906c0 1.428 1.1501 2.5781 2.5781 2.5781h2.4219v-4.9688c0-0.089252 0.004903-0.17681 0.013672-0.26367 0.0087689-0.086864 0.02195-0.17181 0.039062-0.25586 0.017112-0.084051 0.039423-0.16723 0.064453-0.24805 0.02503-0.080813 0.053414-0.15918 0.085938-0.23633 0.032523-0.077149 0.067832-0.1535 0.10742-0.22656 0.03959-0.07306 0.082674-0.14435 0.12891-0.21289s0.095989-0.13366 0.14844-0.19727c0.052448-0.063605 0.10778-0.12535 0.16602-0.18359 0.058239-0.058239 0.11999-0.11357 0.18359-0.16602 0.063605-0.052448 0.12872-0.10221 0.19727-0.14844s0.13983-0.089316 0.21289-0.12891c0.07306-0.03959 0.14941-0.074899 0.22656-0.10742 0.077149-0.032523 0.15552-0.060907 0.23633-0.085938 0.080813-0.02503 0.164-0.047341 0.24805-0.064453 0.084051-0.017112 0.169-0.030294 0.25586-0.039062 0.086864-0.0087689 0.17442-0.013672 0.26367-0.013672h4.9688v-2.4219c-1e-6 -1.428-1.1501-2.5781-2.5781-2.5781h-7.3906z" stop-color="#000000" stroke="#855cd6" stroke-linecap="round" stroke-linejoin="round" stroke-width="2.4549" style="paint-order:stroke markers fill"/><rect x="13.024" y="5.4769" width="1.9763" height="1.9763" stop-color="#000000" style="paint-order:stroke markers fill"/><rect transform="matrix(0,1,1,0,0,0)" x="13.024" y="5.4769" width="1.9763" height="1.9763" stop-color="#000000" style="paint-order:stroke markers fill"/></g></svg>
