<svg xmlns="http://www.w3.org/2000/svg" aria-hidden="true" width="1em" height="1em" style="-ms-transform:rotate(360deg);-webkit-transform:rotate(360deg);transform:rotate(360deg)" viewBox="0 0 24 24"><path d="m21.71 15.58-4.52-4.51a6.85 6.85 0 0 0 .14-1.4A7.67 7.67 0 0 0 6.42 2.72a1 1 0 0 0-.57.74 1 1 0 0 0 .28.88l4.35 4.34-1.8 1.8-4.34-4.35a1 1 0 0 0-.88-.27 1 1 0 0 0-.74.56 7.67 7.67 0 0 0 7 10.91 6.85 6.85 0 0 0 1.4-.14l4.51 4.52a1 1 0 0 0 1.42 0 1 1 0 0 0 0-1.42l-4.9-4.9a1 1 0 0 0-.95-.26 5.88 5.88 0 0 1-1.48.2A5.67 5.67 0 0 1 4 9.67a6 6 0 0 1 .08-1L8 12.6a1 1 0 0 0 1.42 0l3.18-3.21a1 1 0 0 0 0-1.39L8.71 4.08a6.12 6.12 0 0 1 1-.08 5.67 5.67 0 0 1 5.66 5.67 5.88 5.88 0 0 1-.2 1.48 1 1 0 0 0 .26.95l4.9 4.9a1 1 0 0 0 1.42-1.42z" fill="#ff7b26"/></svg>