<svg xmlns="http://www.w3.org/2000/svg" viewBox="0 0 128 128"><circle cx="64" cy="64" r="57.5" fill="#ff7b26"/><path fill="#fff" d="M81.958 79.03c-2.984 8.298-11.096 13.342-24.105 14.992-.59.074-1.173.12-1.755.14a10.216 10.216 0 0 1-2.91 2.827c-3.05 1.956-5.904 2.911-8.722 2.911-5.793 0-12.029-4.339-12.029-13.87 0-.649.028-1.492.093-2.66.028-.501.055-.89.064-1.178a10.323 10.323 0 0 1-.24-2.197v-4.488c0-.732.074-1.465.222-2.197.01-.621.037-1.317.083-2.077a10.7 10.7 0 0 1-.388-2.818c0-.482.037-.965.101-1.437.351-2.485 1.45-4.98 3.308-6.972a16.697 16.697 0 0 1-.97-5.619V49.66c0-1.92.379-4.311 2.236-10.264.776-2.559 1.025-3.356 1.367-4.098 1.82-4.098 4.564-6.147 6.56-7.157a23.06 23.06 0 0 1 10.403-2.466c1.681 0 3.289.176 4.822.51a12.425 12.425 0 0 1 2.19-1.178 13.272 13.272 0 0 1 3.206-.908c2.91-.501 5.987.12 8.666 1.752 2.818 1.724 6.052 5.303 5.654 12.665a234.4 234.4 0 0 1-.341 5.294c-.01.055-.01.11-.018.166-.148 1.641-.36 4.089-.647 7.325.074 1.251.046 2.651-.064 4.302a9.886 9.886 0 0 1-.426 2.262 20.18 20.18 0 0 1 2.68 4.598c.545 1.104 1.007 2.374 1.413 3.922.157.584.26 1.178.305 1.78.416 5.202.203 8.27-.757 10.866z" style="mix-blend-mode:normal"/><path fill="#ff7b26" d="M72.613 69.182c.27 3.372.215 5.546-.163 6.525-1.572 4.458-6.855 7.257-15.846 8.4-3.035.38-6.069-1.06-9.104-4.323 0 .49.109 1.957.327 4.405.162 1.794.134 3.262-.082 4.403-1.355.87-2.438 1.305-3.251 1.305-1.247 0-1.87-1.222-1.87-3.67 0-.435.029-1.127.082-2.079.054-.95.082-1.617.082-1.998 0-.924-.082-1.576-.244-1.957v-4.485c0-.109.027-.231.08-.368a4.84 4.84 0 0 1 .164-.367c-.055-.76-.028-1.929.081-3.506.108-.98.108-1.603 0-1.876-.272-.542-.406-.868-.406-.978.216-1.522 1.328-2.283 3.332-2.283 1.3 0 2.085.462 2.357 1.386 0 .87.108 2.148.325 3.832.326 1.958 1.354 3.916 3.088 5.872 1.896 2.23 3.71 3.263 5.446 3.1a25.28 25.28 0 0 0 5.851-1.387c2.709-.979 4.334-2.12 4.876-3.424.378-.98.569-2.011.569-3.1 0-3.315-1.22-5.79-3.657-7.42-1.085-.707-3.089-1.278-6.015-1.714-1.68-.216-2.71-.326-3.087-.326-2.601.054-5.027-.788-7.274-2.529-2.25-1.739-3.373-3.752-3.373-6.035v-4.73c0-1.031.596-3.451 1.79-7.257.54-1.795.838-2.745.893-2.855.487-1.141 1.11-1.902 1.869-2.283a12.88 12.88 0 0 1 5.85-1.386c4.01 0 6.962 1.63 8.859 4.892.163.163.433.408.813.734.053-.76.163-1.929.325-3.506a323.99 323.99 0 0 0-.163-2.039c0-.76.378-1.277 1.138-1.55.216-.107.514-.189.894-.244.541-.108 1.124.028 1.748.407.622.381.88 1.524.771 3.425a186.495 186.495 0 0 1-.325 5.056c-.162 1.795-.405 4.54-.731 8.237.108.87.108 2.067 0 3.588-.272 1.033-1.085 1.55-2.439 1.55-.704 0-1.38-.19-2.031-.57-.325-1.032-.487-1.469-.487-1.306.107-1.468-.19-3.425-.894-5.871-.597-1.25-1.422-3.03-2.48-5.342-1.056-2.31-2.451-3.548-4.184-3.711-2.168-.163-3.576.571-4.226 2.202a130.36 130.36 0 0 0-.894 3.1c-.65 2.011-1.057 3.942-1.22 5.79-.054.598-.108.843-.162.734.163 1.088.352 2.175.569 3.262.27 1.36.935 2.393 1.991 3.099 1.057.707 3.074 1.141 6.054 1.304 7.314.437 11.837 2.992 13.571 7.667.27.435.541 1.169.813 2.2z" style="mix-blend-mode:normal"/><path fill="#ff7b26" d="M54.615 70.405H95.73v33.666H54.615z"/><path fill="#fff" d="M64.447 75.768v4.47h-2.98v23.833H95.73V80.237h-2.98v-4.469h-9.534v4.47h-9.235v-4.47z"/></svg>