<svg xmlns="http://www.w3.org/2000/svg" viewBox="0 0 128 128">
  <circle r="57.5" cx="64" cy="64" fill="#ff7b26"/>
  <path fill="#fff" d="M81.9579294 79.0303827c-2.98420847 8.2978732-11.09602298 13.34148154-24.10449012 14.99179123-.5913205.07428524-1.17334865.12054146-1.75540957.13911128-.75760277 1.11256549-1.7461619 2.07680182-2.91028671 2.82776974-3.04884087 1.95625738-5.90371307 2.91120433-8.72160353 2.91120433-5.79280957 0-12.02913007-4.33899794-12.02913007-13.86993637 0-.64900224.02795454-1.49269711.09253628-2.66090354.02795453-.50063435.05552355-.89005238.06459991-1.17746302-.15713619-.72318023-.24024246-1.45561409-.24024246-2.19730455v-4.48736285c0-.73243683.07402991-1.46487068.2217361-2.19730454.01048407-.62117582.0370309-1.31653855.08310628-2.07679586-.2217361-.81586844-.38805293-1.76153197-.38805293-2.81848631 0-.48209731.0370309-.9642274.10161264-1.43704427.35107625-2.48474795 1.45049896-4.97874655 3.30756168-6.97207803-.63751684-1.7893882-.9701186-3.68074505-.9701186-5.61842963v-4.728413c0-1.91918327.37879959-4.31117449 2.23585844-10.263411.77607427-2.55889615 1.02550213-3.35622755 1.36735604-4.0979478 1.82008367-4.09791533 4.56405236-6.14689131 6.55966596-7.15748486 3.26136446-1.63176937 6.76292996-2.46617307 10.40309431-2.46617307 1.6814878 0 3.2890866.17625837 4.8227279.50992135.68371377-.46356175 1.4135914-.85297948 2.1896627-1.17746154.98855317-.42648765 2.04181321-.72318559 3.20590824-.90858854 2.91028969-.5006722 5.98685569.12054474 8.66615326 1.75227776 2.81788749 1.72449363 6.05152383 5.30323367 5.65425541 12.66469369-.06459961 1.2980015-.17564314 3.03174578-.34185986 5.2939449-.01048705.05571839-.01048705.11108225-.01745855.16679767-.14770649 1.64105606-.36033137 4.08870013-.64673502 7.32438621.07402604 1.25164102.04609236 2.65161118-.06459961 4.30192087-.04609236.6304652-.14770649 1.26089464-.31427178 1.87282279-.0370324.13911426-.07402605.26876932-.11104354.38938228 1.24727042 1.6039492 2.09727242 3.2078954 2.67933631 4.5986179.54508514 1.10327611 1.00702766 2.37345715 1.41355566 3.92176243.1571359.5841047.25875002 1.17746005.3048394 1.7801018.4157429 5.20125965.20322527 8.27007954-.75760277 10.86604978z" style="mix-blend-mode:normal"/>
  <path fill="#ff7b26" d="M72.61296923 69.18245837c.27061944 3.37199983.21510066 5.5451931-.16272203 6.52424536-1.57250593 4.45859795-6.85532622 7.25763259-15.846715 8.39984186-3.03498128.38107606-6.0681452-1.0597221-9.10316223-4.32228124 0 .48952465.10824897 1.95716308.32614121 4.40480417.16272501 1.79401203.13478835 3.26168622-.08135803 4.40298383-1.35537937.86965627-2.43818487 1.30539904-3.25120215 1.30539904-1.24727042 0-1.86903315-1.22287611-1.86903315-3.6705172 0-.43482515.0279158-1.12742313.08135803-2.07865492.05377591-.95032014.081364-1.616915.081364-1.99798808 0-.92435576-.081364-1.57612575-.24408603-1.95716904V75.7076154c0-.10862734.0279456-.2309206.081364-.36712411.05342137-.13525908.10789741-.2579039.16272203-.36716285-.05447604-.76026028-.0279456-1.92934857.08135803-3.50641875.10789742-.97905822.10789742-1.60303753 0-1.87558755-.27166815-.54237102-.40561932-.8687476-.40561932-.97814657.21544923-1.52233494 1.3276572-2.28354263 3.33158596-2.28354263 1.29992612 0 2.08525104.46265159 2.35685365 1.38606291 0 .86965628.10825195 2.1481763.32509548 3.83278937.3261442 1.95720478 1.35443493 3.9153123 3.0885844 5.87156967 1.89581683 2.22975182 3.7103799 3.26259787 5.44543804 3.0994081 1.95036139-.21585144 3.90069-.67864305 5.8510514-1.38605696 2.70887284-.97905822 4.3340017-2.12035583 4.87632803-3.42484322.37786142-.97905524.56820133-2.01095388.56820133-3.0994081 0-3.31544127-1.21863362-5.78999415-3.65677976-7.42081938-1.08465266-.70646947-3.08858142-1.27760837-6.0145838-1.71334518-1.67963767-.2158574-2.70978152-.32623655-3.08763699-.32623655-2.60080262.05466075-5.02602765-.78808075-7.27386367-2.52830794-2.24874768-1.73931254-3.37222923-3.7521255-3.37222923-6.03566514v-4.72932168c0-1.03190162.59592348-3.45171628 1.78868509-7.25763258.54047918-1.79492667.83889526-2.7452468.89430977-2.8546428.48691182-1.14130059 1.10961898-1.90246955 1.86813043-2.2835456 1.84134973-.92341283 3.79167835-1.38606381 5.85105736-1.38606381 4.0087662 0 6.96154928 1.6308291 8.85831054 4.89251532.16272203.16329107.43331169.40791635.81305601.73429292.05342138-.7602573.16272203-1.92937836.32509549-3.50645152-.05447604-.7064665-.10895208-1.38606201-.16272203-2.0387806 0-.76021887.37789121-1.27666156 1.13731134-1.54924644.2161434-.10828055.51463397-.1899249.89433956-.24459101.54141765-.10862704 1.1243932.02805285 1.74800905.40704163.62180444.38103852.8795415 1.52328384.77146831 3.42484054-.05447604 1.19600008-.162725 2.8815248-.32509548 5.05566846-.16272501 1.7949207-.40558358 4.54020326-.73172777 8.23759352.108246.86965628.108246 2.06660078 0 3.58802704-.27167113 1.03284307-1.08465266 1.54924971-2.4381819 1.54924971-.7049113 0-1.3812186-.1899228-2.0316211-.57019148-.3250955-1.03189864-.48690884-1.46858585-.48690884-1.30539905.10719728-1.4676712-.19031012-3.42483726-.89434553-5.87156967-.59683514-1.24978195-1.42186485-3.02988672-2.47882813-5.34121407-1.05692753-2.31042165-2.4520087-3.54814945-4.18524353-3.71133923-2.16745519-.16329405-3.57549621.57110613-4.22589574 2.20196711-.21614638.70738114-.51554264 1.74113586-.89343386 3.0994081-.6504025 2.01186554-1.05692753 3.94219131-1.21954826 5.7899584-.05447306.59892361-.10894612.84368891-.16272203.73429292.16272203 1.08845421.35198344 2.17505234.56911 3.2625949.27061945 1.35918687.9349888 2.3929416 1.99101062 3.09849942 1.05692753.70738113 3.07381315 1.1412976 6.05428264 1.3044844 7.31356847.43665146 11.8369716 2.99187118 13.57115086 7.6664606.2699223.43577256.5404762 1.16911807.8121086 2.20105246z" style="mix-blend-mode:normal"/>
  <path fill="#ff7b26" d="M54.61525142 70.40543958h41.113991v33.665806h-41.113991z"/>
  <path d="M64.44683742 75.76813358v4.468948h-2.979255v23.834126h34.261725v-23.834126h-2.979244v-4.468948h-9.533712v4.468948h-9.235802v-4.468948z" fill="#fff"/>
</svg>
