<svg xmlns="http://www.w3.org/2000/svg" viewBox="0 0 386 386" fill="#fff"><path d="M205.416 58.506a39.445 39.445 0 0 0-7.402.561c-3.907.623-7.442 1.618-10.76 3.049a41.705 41.705 0 0 0-7.35 3.953c-5.147-1.12-10.543-1.711-16.187-1.711-12.218 0-23.972 2.8-34.918 8.277-6.698 3.392-15.909 10.268-22.018 24.023-1.148 2.49-1.985 5.166-4.59 13.756-6.233 19.979-7.504 28.006-7.504 34.449v15.871a56.07 56.07 0 0 0 3.256 18.859c-6.233 6.69-9.924 15.06-11.102 23.4a35.7 35.7 0 0 0-.342 4.824c0 3.548.558 6.721 1.303 9.461a161.35 161.35 0 0 0-.279 6.969 37.286 37.286 0 0 0-.744 7.375v15.063a34.65 34.65 0 0 0 .807 7.377c-.031.964-.124 2.271-.219 3.951-.216 3.921-.309 6.754-.309 8.932 0 31.991 20.931 46.555 40.375 46.555 9.458 0 19.04-3.204 29.273-9.771 1.725-1.113 3.313-2.387 4.793-3.76v-39.535c-.322-.044-.643-.077-.965-.133-.637-.111-1.274-.245-1.91-.404s-1.274-.342-1.91-.549a31.07 31.07 0 0 1-1.908-.691 32.96 32.96 0 0 1-1.91-.836 35.22 35.22 0 0 1-1.91-.979 40.287 40.287 0 0 1-1.908-1.121 43.75 43.75 0 0 1-1.91-1.266 48.85 48.85 0 0 1-1.91-1.408 53.337 53.337 0 0 1-1.91-1.553 60.77 60.77 0 0 1-1.908-1.693 72.03 72.03 0 0 1-3.82-3.82c0 .822.091 2.464.273 4.928l.82 9.857c.137 1.505.234 2.942.291 4.311s.074 2.669.051 3.9a47.11 47.11 0 0 1-.189 3.488 33.16 33.16 0 0 1-.426 3.08 47.84 47.84 0 0 1-3.24 1.916c-1.023.548-1.989 1.004-2.898 1.369s-1.761.638-2.557.82a11.41 11.41 0 0 1-1.15.207 8.7 8.7 0 0 1-1.066.068 5.442 5.442 0 0 1-1.471-.193 4.613 4.613 0 0 1-1.275-.576c-.392-.257-.751-.578-1.078-.963s-.622-.834-.883-1.348-.49-1.091-.686-1.732-.358-1.347-.488-2.117a26.47 26.47 0 0 1-.295-2.502 40.16 40.16 0 0 1-.098-2.889c0-1.46.094-3.784.273-6.977s.273-5.428.273-6.707a41.96 41.96 0 0 0-.053-2.156 25.344 25.344 0 0 0-.152-1.812 13.95 13.95 0 0 0-.256-1.471 7 7 0 0 0-.359-1.131v-15.055a2.68 2.68 0 0 1 .07-.582 4.46 4.46 0 0 1 .203-.65 15.54 15.54 0 0 1 .547-1.232c-.046-.638-.076-1.362-.088-2.172s-.005-1.705.018-2.686c.045-1.962.158-4.265.342-6.912.181-1.643.271-2.988.271-4.037a11.57 11.57 0 0 0-.066-1.352 3.728 3.728 0 0 0-.205-.906c-.456-.91-.795-1.64-1.021-2.187s-.338-.912-.338-1.096a10.36 10.36 0 0 1 .412-1.797 8.2 8.2 0 0 1 .693-1.557 7.32 7.32 0 0 1 .977-1.318 7.54 7.54 0 0 1 1.258-1.078 8.95 8.95 0 0 1 1.537-.838 11.66 11.66 0 0 1 1.82-.598 15.82 15.82 0 0 1 2.102-.359 22.695 22.695 0 0 1 2.383-.121 15.82 15.82 0 0 1 1.555.074c.492.049.957.12 1.395.217a8.89 8.89 0 0 1 1.23.365c.384.145.741.314 1.07.508a5.91 5.91 0 0 1 .908.654 5.49 5.49 0 0 1 .746.801c.222.291.416.606.584.945s.308.702.422 1.09a48.9 48.9 0 0 0 .068 2.445c.045.901.114 1.889.205 2.961.182 2.145.455 4.631.818 7.459a29.33 29.33 0 0 0 .521 2.463 31.26 31.26 0 0 0 .742 2.463 33.88 33.88 0 0 0 .963 2.465 37.37 37.37 0 0 0 1.186 2.463 42.34 42.34 0 0 0 1.406 2.465 47.08 47.08 0 0 0 1.627 2.463 53.42 53.42 0 0 0 1.85 2.463 61.82 61.82 0 0 0 2.072 2.463 53.414 53.414 0 0 0 2.373 2.619 41.32 41.32 0 0 0 2.348 2.24 31.96 31.96 0 0 0 2.322 1.865 24.82 24.82 0 0 0 2.299 1.488c.3.171.596.286.895.438V214.5h45.252c-.027-.136-.036-.285-.064-.42a31.15 31.15 0 0 0-.432-1.789 29.23 29.23 0 0 0-.527-1.723 27.7 27.7 0 0 0-.623-1.656 26.55 26.55 0 0 0-.719-1.59 26.04 26.04 0 0 0-.814-1.523c-.287-.496-.592-.982-.912-1.457s-.654-.94-1.006-1.393a25.21 25.21 0 0 0-1.104-1.324 27.22 27.22 0 0 0-1.197-1.258 27.26 27.26 0 0 0-1.295-1.193 28.59 28.59 0 0 0-1.391-1.125 30.39 30.39 0 0 0-1.486-1.061 16.73 16.73 0 0 0-1.51-.867 24.54 24.54 0 0 0-1.799-.826 35.2 35.2 0 0 0-2.09-.783 48.276 48.276 0 0 0-2.379-.74 66.36 66.36 0 0 0-2.668-.697 87.93 87.93 0 0 0-2.957-.654 130.128 130.128 0 0 0-6.787-1.182l-6.82-.82c-1.728-.183-2.909-.275-3.543-.275a37.21 37.21 0 0 1-3.246-.072 35.99 35.99 0 0 1-3.191-.355 35.3 35.3 0 0 1-3.135-.637 36.08 36.08 0 0 1-3.08-.92 37.39 37.39 0 0 1-3.023-1.201 40.07 40.07 0 0 1-2.969-1.484c-.981-.542-1.952-1.132-2.914-1.768s-1.912-1.319-2.855-2.049-1.829-1.474-2.654-2.232a34.34 34.34 0 0 1-2.299-2.318 29.08 29.08 0 0 1-1.945-2.404 25.39 25.39 0 0 1-1.592-2.49 22.95 22.95 0 0 1-1.238-2.574 21.7 21.7 0 0 1-.885-2.66 21.534 21.534 0 0 1-.529-2.748 22.47 22.47 0 0 1-.178-2.83v-15.875a14.25 14.25 0 0 1 .094-1.518 31.45 31.45 0 0 1 .281-1.953c.25-1.448.625-3.187 1.125-5.217s1.126-4.351 1.877-6.963l2.627-8.709 3.002-9.584a23.66 23.66 0 0 1 1.313-2.633 16.66 16.66 0 0 1 1.48-2.154c.261-.319.531-.619.807-.898a11.34 11.34 0 0 1 .848-.779c.29-.24.587-.458.891-.658s.615-.379.934-.539a45.14 45.14 0 0 1 2.334-1.092 43.707 43.707 0 0 1 2.369-.943 43.16 43.16 0 0 1 2.402-.801 42.76 42.76 0 0 1 2.439-.654 42.65 42.65 0 0 1 2.471-.51 43.15 43.15 0 0 1 2.508-.363 43.99 43.99 0 0 1 2.541-.219 44.85 44.85 0 0 1 2.574-.072 47.29 47.29 0 0 1 2.482.064 43.74 43.74 0 0 1 2.398.193 39.43 39.43 0 0 1 2.314.32 36.48 36.48 0 0 1 2.232.449 33.8 33.8 0 0 1 2.148.576 32.18 32.18 0 0 1 2.066.707 31.1 31.1 0 0 1 1.982.834 29.85 29.85 0 0 1 1.9.961 29.2 29.2 0 0 1 1.816 1.092 29.43 29.43 0 0 1 1.734 1.219c.564.428 1.114.875 1.65 1.346a30.84 30.84 0 0 1 1.566 1.477 32 32 0 0 1 1.484 1.604c.481.556.949 1.134 1.402 1.732a36.29 36.29 0 0 1 1.318 1.859 39.28 39.28 0 0 1 1.234 1.988c.547.548 1.455 1.37 2.73 2.465.179-2.552.546-6.476 1.09-11.77a1309.62 1309.62 0 0 0-.545-6.844 6.85 6.85 0 0 1 .059-.918 5.6 5.6 0 0 1 .18-.842 4.86 4.86 0 0 1 .297-.766 4.57 4.57 0 0 1 .418-.687c.159-.217.336-.42.535-.611a5.34 5.34 0 0 1 .656-.535 6.46 6.46 0 0 1 .775-.459c.278-.14.578-.266.896-.381.362-.181.794-.34 1.295-.477s1.07-.252 1.707-.344a6.24 6.24 0 0 1 1.389-.119 7.06 7.06 0 0 1 1.441.188 9.12 9.12 0 0 1 1.492.496 12.21 12.21 0 0 1 1.545.801 3.45 3.45 0 0 1 .725.6 4.63 4.63 0 0 1 .611.84 6.9 6.9 0 0 1 .496 1.078c.146.399.273.837.381 1.316a16.3 16.3 0 0 1 .268 1.557c.07.559.119 1.158.15 1.797a35 35 0 0 1 .037 2.035 48.86 48.86 0 0 1-.078 2.273l-.41 7.254-.682 9.717-2.455 27.648a33.5 33.5 0 0 1 .203 2.395 54.34 54.34 0 0 1 .068 2.807 80.95 80.95 0 0 1-.068 3.217 117.63 117.63 0 0 1-.203 3.625 7.79 7.79 0 0 1-.428 1.219 6.47 6.47 0 0 1-.598 1.057 5.91 5.91 0 0 1-.768.893 6.09 6.09 0 0 1-.937.732 6.96 6.96 0 0 1-1.109.568 8.71 8.71 0 0 1-1.277.406 11.48 11.48 0 0 1-1.449.244 15.4 15.4 0 0 1-1.619.08 12.83 12.83 0 0 1-1.756-.119 12.92 12.92 0 0 1-1.721-.357 13.54 13.54 0 0 1-1.687-.598 14.937 14.937 0 0 1-1.654-.838c-.546-1.732-.954-2.964-1.227-3.695-.136-.365-.237-.606-.305-.721-.034-.057-.061-.084-.078-.078s-.025.043-.025.111a27.53 27.53 0 0 0 .072-1.924c.002-.667-.017-1.36-.057-2.078a43.81 43.81 0 0 0-.184-2.232 53.57 53.57 0 0 0-.311-2.387 73.67 73.67 0 0 0-1.006-5.234 107.32 107.32 0 0 0-1.518-5.852l-8.318-17.928c-.444-.969-.906-1.883-1.385-2.74s-.976-1.658-1.49-2.402-1.046-1.431-1.596-2.062-1.118-1.207-1.703-1.727a15.64 15.64 0 0 0-1.809-1.389 13.76 13.76 0 0 0-1.916-1.051 12.99 12.99 0 0 0-2.021-.713 13.31 13.31 0 0 0-2.129-.373 24.65 24.65 0 0 0-2.609-.064c-.83.026-1.619.099-2.369.219a14.56 14.56 0 0 0-2.131.5 11.93 11.93 0 0 0-1.893.783c-.591.308-1.141.662-1.652 1.064a10.42 10.42 0 0 0-1.416 1.348 11.28 11.28 0 0 0-1.176 1.629 13.4 13.4 0 0 0-.937 1.91l-3 10.404a103.32 103.32 0 0 0-1.484 5.014 92.99 92.99 0 0 0-1.176 4.91 84.53 84.53 0 0 0-.871 4.807 76.228 76.228 0 0 0-.562 4.703c-.091 1.005-.182 1.714-.273 2.125-.046.205-.091.336-.137.393s-.09.041-.135-.051a228.34 228.34 0 0 0 1.91 10.949 20.33 20.33 0 0 0 .402 1.66 18.11 18.11 0 0 0 .525 1.557 16.51 16.51 0 0 0 .65 1.455 15.32 15.32 0 0 0 .773 1.352 15.07 15.07 0 0 0 .898 1.248 14.68 14.68 0 0 0 1.021 1.146 14.93 14.93 0 0 0 1.143 1.043 15.92 15.92 0 0 0 1.268.939 12.98 12.98 0 0 0 1.482.848c.544.268 1.138.522 1.783.762a27.28 27.28 0 0 0 2.086.676 39.25 39.25 0 0 0 2.389.59 53.59 53.59 0 0 0 2.691.504 72.1 72.1 0 0 0 2.994.42 96.08 96.08 0 0 0 3.297.332c1.15.097 2.349.18 3.6.248a110.56 110.56 0 0 1 4.492.359c1.461.147 2.887.321 4.275.523a84 84 0 0 1 4.053.691 73.29 73.29 0 0 1 3.834.859 64.13 64.13 0 0 1 3.615 1.023 56.35 56.35 0 0 1 3.396 1.191c1.095.425 2.154.879 3.176 1.359s2.008.989 2.957 1.525 1.861 1.1 2.736 1.691a37.03 37.03 0 0 1 2.518 1.857 34.76 34.76 0 0 1 2.299 2.025 33.22 33.22 0 0 1 2.078 2.191 32.67 32.67 0 0 1 1.859 2.357 33.17 33.17 0 0 1 1.641 2.525c.51.869.983 1.768 1.42 2.693s.837 1.877 1.201 2.857a12.11 12.11 0 0 1 .68 1.285 22.65 22.65 0 0 1 .682 1.658 38.84 38.84 0 0 1 .682 2.035 63 63 0 0 1 .684 2.41l.002-.002c.12 1.502.172 2.745.254 4.105h34.131l-.475-7.521a32.36 32.36 0 0 0-1.021-5.975c-1.365-5.197-2.916-9.461-4.746-13.164a67.737 67.737 0 0 0-8.992-15.436c.124-.405.249-.84.373-1.307a33.182 33.182 0 0 0 1.055-6.287c.371-5.54.465-10.238.217-14.439l2.17-24.584c.024-.187.024-.374.059-.561l1.146-17.77c1.334-24.71-9.519-36.721-18.977-42.51-6.745-4.108-14.24-6.307-21.687-6.441zM194.5 232.5v15h-10v80h115v-80h-10v-15h-32v15h-31v-15z"/></svg>