<?xml version="1.0" encoding="UTF-8" standalone="no"?>
<svg
   xmlns:dc="http://purl.org/dc/elements/1.1/"
   xmlns:cc="http://creativecommons.org/ns#"
   xmlns:rdf="http://www.w3.org/1999/02/22-rdf-syntax-ns#"
   xmlns:svg="http://www.w3.org/2000/svg"
   xmlns="http://www.w3.org/2000/svg"
   xmlns:sodipodi="http://sodipodi.sourceforge.net/DTD/sodipodi-0.dtd"
   xmlns:inkscape="http://www.inkscape.org/namespaces/inkscape"
   inkscape:export-ydpi="191"
   inkscape:export-xdpi="191"
   sodipodi:docname="icon.svg"
   inkscape:version="1.0 (4035a4fb49, 2020-05-01)"
   id="svg8"
   version="1.1"
   viewBox="0 0 386 386"
   height="386mm"
   width="386mm">
  <defs
     id="defs2" />
  <sodipodi:namedview
     fit-margin-bottom="0"
     fit-margin-right="0"
     fit-margin-left="0"
     fit-margin-top="0"
     inkscape:window-maximized="1"
     inkscape:window-y="-9"
     inkscape:window-x="-9"
     inkscape:window-height="1001"
     inkscape:window-width="1920"
     showgrid="false"
     inkscape:document-rotation="0"
     inkscape:current-layer="layer1"
     inkscape:document-units="mm"
     inkscape:cy="448.67826"
     inkscape:cx="437.41939"
     inkscape:zoom="0.32"
     inkscape:pageshadow="2"
     inkscape:pageopacity="0.0"
     borderopacity="1.0"
     bordercolor="#666666"
     pagecolor="#ffffff"
     id="base" />
  <metadata
     id="metadata5">
    <rdf:RDF>
      <cc:Work
         rdf:about="">
        <dc:format>image/svg+xml</dc:format>
        <dc:type
           rdf:resource="http://purl.org/dc/dcmitype/StillImage" />
        <dc:title></dc:title>
      </cc:Work>
    </rdf:RDF>
  </metadata>
  <g
     id="layer1"
     inkscape:groupmode="layer"
     inkscape:label="Layer 1">
    <circle
       r="193"
       cy="193"
       cx="193"
       id="path1942"
       style="fill:#ff7b26;fill-opacity:1;stroke:none;stroke-width:2.96193" />
    <g
       id="g1917">
      <path
         stroke-width="3.10651"
         stroke="none"
         fill="#ffffff"
         id="ID0.1519448710605502-4"
         d="m 253.77628,240.9498 c -10.01656,27.85199 -37.24404,44.78097 -80.90724,50.32027 -1.98478,0.24934 -3.93837,0.4046 -5.89207,0.46693 -2.54291,3.73435 -5.86103,6.97083 -9.76844,9.49147 -10.2335,6.56622 -19.81594,9.77152 -29.27425,9.77152 -19.44369,0 -40.376034,-14.56394 -40.376034,-46.55474 0,-2.17839 0.09383,-5.01027 0.3106,-8.93138 0.09383,-1.68039 0.186366,-2.98748 0.216831,-3.95218 -0.527431,-2.42737 -0.806379,-4.8858 -0.806379,-7.3753 v -15.06193 c 0,-2.45844 0.248483,-4.91687 0.744262,-7.3753 0.03519,-2.08499 0.124295,-4.41899 0.278948,-6.97081 C 87.558246,212.03987 87,208.86573 87,205.31804 c 0,-1.61817 0.124295,-3.23645 0.341065,-4.82347 1.178395,-8.34011 4.868631,-16.71127 11.101902,-23.40193 -2.139839,-6.00612 -3.256224,-12.3545 -3.256224,-18.85838 v -15.87102 c 0,-6.44178 1.271449,-14.47055 7.504707,-34.44936 2.60491,-8.58899 3.44212,-11.26525 4.58956,-13.75485 6.10915,-13.754741 15.31934,-20.632173 22.01766,-24.024252 10.94684,-5.477069 22.69992,-8.277763 34.91821,-8.277763 5.64395,0 11.03989,0.591615 16.18759,1.711562 2.2949,-1.555955 4.74475,-2.863044 7.34965,-3.952175 3.3181,-1.431515 6.85339,-2.427388 10.7607,-3.049697 9.76845,-1.680517 20.09501,0.404611 29.08813,5.881558 9.4583,5.7883 20.31207,17.800418 18.97863,42.509317 -0.21683,4.35677 -0.58955,10.17612 -1.14746,17.76924 -0.0352,0.18702 -0.0352,0.37285 -0.0586,0.55986 -0.49578,5.50824 -1.20946,13.72381 -2.17078,24.58446 0.24847,4.20116 0.15471,8.90019 -0.21683,14.43949 -0.15471,2.11617 -0.49578,4.23222 -1.05486,6.28617 -0.1243,0.46694 -0.24847,0.90213 -0.37272,1.30697 4.18649,5.38369 7.03954,10.76737 8.99325,15.43536 1.82959,3.70317 3.38011,7.96656 4.74463,13.16348 0.52743,1.96056 0.8685,3.95217 1.0232,5.97495 1.39545,17.45814 0.68213,27.7587 -2.54291,36.47213 z"
         style="mix-blend-mode:normal;fill:#ffffff;fill-rule:nonzero;stroke-linecap:butt;stroke-linejoin:miter;stroke-miterlimit:10;stroke-dasharray:none;stroke-dashoffset:0" />
      <path
         stroke-width="3.10651"
         stroke="none"
         fill="#ff7b26"
         id="ID0.570444684009999"
         d="m 222.40972,207.89503 c 0.90834,11.31819 0.72199,18.61256 -0.54618,21.89877 -5.27815,14.96538 -23.01005,24.3604 -53.18984,28.19425 -10.18698,1.27909 -20.36786,-3.55698 -30.55496,-14.50783 0,1.6431 0.36334,6.56926 1.0947,14.78482 0.54619,6.02164 0.45242,10.94792 -0.27308,14.77871 -4.54936,2.91902 -8.18382,4.3816 -10.91273,4.3816 -4.18649,0 -6.27345,-4.10461 -6.27345,-12.32017 0,-1.4595 0.0937,-3.78422 0.27308,-6.97705 0.1805,-3.18977 0.2731,-5.42721 0.2731,-6.70629 0,-3.10262 -0.2731,-5.2903 -0.81928,-6.56928 v -15.0557 c 0,-0.36461 0.0938,-0.77509 0.2731,-1.23226 0.17931,-0.454 0.36216,-0.86566 0.54618,-1.23239 -0.18285,-2.55183 -0.0938,-6.4759 0.27308,-11.76937 0.36216,-3.28623 0.36216,-5.38063 0,-6.29545 -0.91186,-1.82048 -1.36147,-2.91597 -1.36147,-3.28317 0.72316,-5.10975 4.45631,-7.66476 11.18254,-7.66476 4.36323,0 6.99919,1.5529 7.91083,4.65235 0,2.91902 0.36335,7.2104 1.09119,12.86484 1.09471,6.5694 4.54619,13.14183 10.3669,19.70805 6.36335,7.48421 12.45397,10.95098 18.27773,10.40323 6.54643,-0.72451 13.09275,-2.27788 19.63918,-4.65233 9.09239,-3.28623 14.54717,-7.11702 16.3675,-11.49556 1.2683,-3.28622 1.90718,-6.74981 1.90718,-10.40323 0,-11.12835 -4.09037,-19.43424 -12.27406,-24.90814 -3.64066,-2.37128 -10.36689,-4.28832 -20.18808,-5.75088 -5.63774,-0.72453 -9.09544,-1.09502 -10.36372,-1.09502 -8.72965,0.18347 -16.86997,-2.64521 -24.41488,-8.48632 -7.54797,-5.83804 -11.31896,-12.59409 -11.31896,-20.25884 v -15.87407 c 0,-3.4636 2.00023,-11.58576 6.00376,-24.3604 1.81413,-6.02471 2.81577,-9.21448 3.00177,-9.58167 1.63433,-3.8308 3.72446,-6.38568 6.27042,-7.66477 6.18053,-3.099455 12.72685,-4.652353 19.6392,-4.652353 13.45551,0 23.36659,5.473913 29.73311,16.421833 0.54618,0.54809 1.45442,1.36918 2.72904,2.46467 0.17931,-2.55182 0.54618,-6.476 1.09119,-11.76948 -0.18285,-2.37127 -0.3657,-4.652347 -0.54618,-6.843211 0,-2.551691 1.2684,-4.285142 3.81741,-5.200079 0.72549,-0.363446 1.72738,-0.637487 3.00187,-0.820975 1.81728,-0.364609 3.77405,0.09416 5.86723,1.366244 2.0871,1.278964 2.9522,5.112935 2.58945,11.495551 -0.18285,4.0144 -0.54619,9.6719 -1.09119,16.96946 -0.54619,6.02469 -1.36135,15.23929 -2.45606,27.64966 0.36333,2.91902 0.36333,6.93659 0,12.04329 -0.91187,3.46676 -3.64066,5.20009 -8.18381,5.20009 -2.36605,0 -4.63609,-0.63748 -6.81918,-1.91386 -1.09119,-3.46359 -1.63432,-4.92934 -1.63432,-4.3816 0.35981,-4.92627 -0.63878,-11.49554 -3.00189,-19.70805 -2.00329,-4.19492 -4.77252,-10.16988 -8.32024,-17.9279 -3.5476,-7.75498 -8.23022,-11.90944 -14.04786,-12.45719 -7.27511,-0.5481 -12.00123,1.91693 -14.18431,7.39095 -0.7255,2.37434 -1.73043,5.84416 -2.99883,10.40323 -2.18309,6.75287 -3.5476,13.23205 -4.09344,19.43412 -0.18284,2.0103 -0.36568,2.83186 -0.54618,2.46467 0.54618,3.65342 1.18144,7.30061 1.91023,10.95097 0.90834,4.56214 3.13831,8.03196 6.68287,10.40018 3.5476,2.37434 10.31732,3.83079 20.32133,4.37853 24.54815,1.46563 39.73105,10.04228 45.55186,25.73264 0.906,1.46268 1.81412,3.92417 2.72586,7.38788 z"
         style="mix-blend-mode:normal;fill-rule:nonzero;stroke-linecap:butt;stroke-linejoin:miter;stroke-miterlimit:10;stroke-dasharray:none;stroke-dashoffset:0" />
    </g>
    <rect
       style="fill:#ff7b26;fill-opacity:1;stroke:none;stroke-width:11.8926"
       id="rect1921"
       width="138"
       height="113"
       x="162"
       y="212" />
    <path
       d="m 194.99993,230 v 15.00012 H 185 v 79.99977 h 115.00022 v -79.99977 h -9.9999 V 230 h -32.00011 v 15.00012 H 227.00004 V 230 Z"
       style="fill:#ffffff;stroke:none;stroke-width:5.43388"
       id="rect1766" />
  </g>
</svg>
