<?xml version="1.0" encoding="UTF-8" standalone="no"?>
<svg
   viewBox="0 0 213.00101 269.00082"
   fill="#ffffff"
   version="1.1"
   id="svg1"
   sodipodi:docname="icon-transparent.svg"
   width="213.00101"
   height="269.00082"
   inkscape:version="1.3.2 (091e20ef0f, 2023-11-25, custom)"
   xmlns:inkscape="http://www.inkscape.org/namespaces/inkscape"
   xmlns:sodipodi="http://sodipodi.sourceforge.net/DTD/sodipodi-0.dtd"
   xmlns="http://www.w3.org/2000/svg"
   xmlns:svg="http://www.w3.org/2000/svg">
  <defs
     id="defs1" />
  <sodipodi:namedview
     id="namedview1"
     pagecolor="#ffffff"
     bordercolor="#000000"
     borderopacity="0.25"
     inkscape:showpageshadow="2"
     inkscape:pageopacity="0.0"
     inkscape:pagecheckerboard="0"
     inkscape:deskcolor="#d1d1d1"
     inkscape:zoom="3.015544"
     inkscape:cx="19.7311"
     inkscape:cy="76.271478"
     inkscape:window-width="2560"
     inkscape:window-height="1368"
     inkscape:window-x="0"
     inkscape:window-y="0"
     inkscape:window-maximized="1"
     inkscape:current-layer="svg1" />
  <path
     d="m 118.917,0.0068154 a 39.445,39.445 0 0 0 -7.402,0.561 c -3.907,0.623 -7.442,1.618 -10.76,3.049 a 41.705,41.705 0 0 0 -7.35,3.953 c -5.147,-1.12 -10.543,-1.711 -16.187,-1.711 -12.218,0 -23.972,2.8 -34.918,8.2769996 -6.698,3.392 -15.909,10.268 -22.018,24.023 -1.148,2.49 -1.985,5.166 -4.59,13.756 -6.233,19.979 -7.504,28.006 -7.504,34.449 v 15.871005 a 56.07,56.07 0 0 0 3.256,18.859 c -6.233,6.69 -9.924,15.06 -11.102,23.4 A 35.7,35.7 0 0 0 0,149.31782 c 0,3.548 0.558,6.721 1.303,9.461 a 161.35,161.35 0 0 0 -0.279,6.969 37.286,37.286 0 0 0 -0.744,7.375 v 15.063 a 34.65,34.65 0 0 0 0.807,7.377 c -0.031,0.964 -0.124,2.271 -0.219,3.951 -0.216,3.921 -0.309,6.754 -0.309,8.932 0,31.991 20.931,46.555 40.375,46.555 9.458,0 19.04,-3.204 29.273,-9.771 1.725,-1.113 3.313,-2.387 4.793,-3.76 v -39.535 c -0.322,-0.044 -0.643,-0.077 -0.965,-0.133 -0.637,-0.111 -1.274,-0.245 -1.91,-0.404 -0.636,-0.159 -1.274,-0.342 -1.91,-0.549 a 31.07,31.07 0 0 1 -1.908,-0.691 32.96,32.96 0 0 1 -1.91,-0.836 35.22,35.22 0 0 1 -1.91,-0.979 40.287,40.287 0 0 1 -1.908,-1.121 43.75,43.75 0 0 1 -1.91,-1.266 48.85,48.85 0 0 1 -1.91,-1.408 53.337,53.337 0 0 1 -1.91,-1.553 60.77,60.77 0 0 1 -1.908,-1.693 72.03,72.03 0 0 1 -3.82,-3.82 c 0,0.822 0.091,2.464 0.273,4.928 l 0.82,9.857 c 0.137,1.505 0.234,2.942 0.291,4.311 0.057,1.369 0.074,2.669 0.051,3.9 a 47.11,47.11 0 0 1 -0.189,3.488 33.16,33.16 0 0 1 -0.426,3.08 47.84,47.84 0 0 1 -3.24,1.916 c -1.023,0.548 -1.989,1.004 -2.898,1.369 -0.909,0.365 -1.761,0.638 -2.557,0.82 a 11.41,11.41 0 0 1 -1.15,0.207 8.7,8.7 0 0 1 -1.066,0.068 5.442,5.442 0 0 1 -1.471,-0.193 4.613,4.613 0 0 1 -1.275,-0.576 c -0.392,-0.257 -0.751,-0.578 -1.078,-0.963 -0.327,-0.385 -0.622,-0.834 -0.883,-1.348 -0.261,-0.514 -0.49,-1.091 -0.686,-1.732 -0.196,-0.641 -0.358,-1.347 -0.488,-2.117 a 26.47,26.47 0 0 1 -0.295,-2.502 40.16,40.16 0 0 1 -0.098,-2.889 c 0,-1.46 0.094,-3.784 0.273,-6.977 0.179,-3.193 0.273,-5.428 0.273,-6.707 a 41.96,41.96 0 0 0 -0.053,-2.156 25.344,25.344 0 0 0 -0.152,-1.812 13.95,13.95 0 0 0 -0.256,-1.471 7,7 0 0 0 -0.359,-1.131 v -15.055 a 2.68,2.68 0 0 1 0.07,-0.582 4.46,4.46 0 0 1 0.203,-0.65 15.54,15.54 0 0 1 0.547,-1.232 c -0.046,-0.638 -0.076,-1.362 -0.088,-2.172 -0.012,-0.81 -0.005,-1.705 0.018,-2.686 0.045,-1.962 0.158,-4.265 0.342,-6.912 0.181,-1.643 0.271,-2.988 0.271,-4.037 a 11.57,11.57 0 0 0 -0.066,-1.352 3.728,3.728 0 0 0 -0.205,-0.906 c -0.456,-0.91 -0.795,-1.64 -1.021,-2.187 -0.226,-0.547 -0.338,-0.912 -0.338,-1.096 a 10.36,10.36 0 0 1 0.412,-1.797 8.2,8.2 0 0 1 0.693,-1.557 7.32,7.32 0 0 1 0.977,-1.318 7.54,7.54 0 0 1 1.258,-1.078 8.95,8.95 0 0 1 1.537,-0.838 11.66,11.66 0 0 1 1.82,-0.598 15.82,15.82 0 0 1 2.102,-0.359 22.695,22.695 0 0 1 2.383,-0.121 15.82,15.82 0 0 1 1.555,0.074 c 0.492,0.049 0.957,0.12 1.395,0.217 a 8.89,8.89 0 0 1 1.23,0.365 c 0.384,0.145 0.741,0.314 1.07,0.508 a 5.91,5.91 0 0 1 0.908,0.654 5.49,5.49 0 0 1 0.746,0.801 c 0.222,0.291 0.416,0.606 0.584,0.945 0.168,0.339 0.308,0.702 0.422,1.09 a 48.9,48.9 0 0 0 0.068,2.445 c 0.045,0.901 0.114,1.889 0.205,2.961 0.182,2.145 0.455,4.631 0.818,7.459 a 29.33,29.33 0 0 0 0.521,2.463 31.26,31.26 0 0 0 0.742,2.463 33.88,33.88 0 0 0 0.963,2.465 37.37,37.37 0 0 0 1.186,2.463 42.34,42.34 0 0 0 1.406,2.465 47.08,47.08 0 0 0 1.627,2.463 53.42,53.42 0 0 0 1.85,2.463 61.82,61.82 0 0 0 2.072,2.463 53.414,53.414 0 0 0 2.373,2.619 41.32,41.32 0 0 0 2.348,2.24 31.96,31.96 0 0 0 2.322,1.865 24.82,24.82 0 0 0 2.299,1.488 c 0.3,0.171 0.596,0.286 0.895,0.438 v -32.195 h 45.252 c -0.027,-0.136 -0.036,-0.285 -0.064,-0.42 a 31.15,31.15 0 0 0 -0.432,-1.789 29.23,29.23 0 0 0 -0.527,-1.723 27.7,27.7 0 0 0 -0.623,-1.656 26.55,26.55 0 0 0 -0.719,-1.59 26.04,26.04 0 0 0 -0.814,-1.523 c -0.287,-0.496 -0.592,-0.982 -0.912,-1.457 -0.32,-0.475 -0.654,-0.94 -1.006,-1.393 a 25.21,25.21 0 0 0 -1.104,-1.324 27.22,27.22 0 0 0 -1.197,-1.258 27.26,27.26 0 0 0 -1.295,-1.193 28.59,28.59 0 0 0 -1.391,-1.125 30.39,30.39 0 0 0 -1.486,-1.061 16.73,16.73 0 0 0 -1.51,-0.867 24.54,24.54 0 0 0 -1.799,-0.826 35.2,35.2 0 0 0 -2.09,-0.783 48.276,48.276 0 0 0 -2.379,-0.74 66.36,66.36 0 0 0 -2.668,-0.697 87.93,87.93 0 0 0 -2.957,-0.654 130.128,130.128 0 0 0 -6.787,-1.182 l -6.82,-0.82 c -1.728,-0.183 -2.909,-0.275 -3.543,-0.275 a 37.21,37.21 0 0 1 -3.246,-0.072 35.99,35.99 0 0 1 -3.191,-0.355 35.3,35.3 0 0 1 -3.135,-0.637 36.08,36.08 0 0 1 -3.08,-0.92 37.39,37.39 0 0 1 -3.023,-1.201 40.07,40.07 0 0 1 -2.969,-1.484 c -0.981,-0.542 -1.952,-1.132 -2.914,-1.768 -0.962,-0.636 -1.912,-1.319 -2.855,-2.049 -0.943,-0.73 -1.829,-1.474 -2.654,-2.232 a 34.34,34.34 0 0 1 -2.299,-2.318 29.08,29.08 0 0 1 -1.945,-2.404 25.39,25.39 0 0 1 -1.592,-2.49 22.95,22.95 0 0 1 -1.238,-2.574 21.7,21.7 0 0 1 -0.885,-2.66 21.534,21.534 0 0 1 -0.529,-2.748 22.47,22.47 0 0 1 -0.178,-2.83 V 87.027815 a 14.25,14.25 0 0 1 0.094,-1.518 31.45,31.45 0 0 1 0.281,-1.953 c 0.25,-1.448 0.625,-3.187 1.125,-5.217 0.5,-2.03 1.126,-4.351 1.877,-6.963 l 2.627,-8.709 3.002,-9.584 a 23.66,23.66 0 0 1 1.313,-2.633 16.66,16.66 0 0 1 1.48,-2.154 c 0.261,-0.319 0.531,-0.619 0.807,-0.898 a 11.34,11.34 0 0 1 0.848,-0.779 c 0.29,-0.24 0.587,-0.458 0.891,-0.658 0.304,-0.2 0.615,-0.379 0.934,-0.539 a 45.14,45.14 0 0 1 2.334,-1.092 43.707,43.707 0 0 1 2.369,-0.943 43.16,43.16 0 0 1 2.402,-0.801 42.76,42.76 0 0 1 2.439,-0.654 42.65,42.65 0 0 1 2.471,-0.51 43.15,43.15 0 0 1 2.508,-0.363 43.99,43.99 0 0 1 2.541,-0.219 44.85,44.85 0 0 1 2.574,-0.072 47.29,47.29 0 0 1 2.482,0.064 43.74,43.74 0 0 1 2.398,0.193 39.43,39.43 0 0 1 2.314,0.32 36.48,36.48 0 0 1 2.232,0.449 33.8,33.8 0 0 1 2.148,0.576 32.18,32.18 0 0 1 2.066,0.707 31.1,31.1 0 0 1 1.982,0.834 29.85,29.85 0 0 1 1.9,0.961 29.2,29.2 0 0 1 1.816,1.092 29.43,29.43 0 0 1 1.734,1.219 c 0.564,0.428 1.114,0.875 1.65,1.346 a 30.84,30.84 0 0 1 1.566,1.477 32,32 0 0 1 1.484,1.604 c 0.481,0.556 0.949,1.134 1.402,1.732 a 36.29,36.29 0 0 1 1.318,1.859 39.28,39.28 0 0 1 1.234,1.988 c 0.547,0.548 1.455,1.37 2.73,2.465 0.179,-2.552 0.546,-6.476 1.09,-11.77 a 1309.62,1309.62 0 0 0 -0.545,-6.844 6.85,6.85 0 0 1 0.059,-0.918 5.6,5.6 0 0 1 0.18,-0.842 4.86,4.86 0 0 1 0.297,-0.766 4.57,4.57 0 0 1 0.418,-0.687 c 0.159,-0.217 0.336,-0.42 0.535,-0.611 a 5.34,5.34 0 0 1 0.656,-0.535 6.46,6.46 0 0 1 0.775,-0.459 c 0.278,-0.14 0.578,-0.266 0.896,-0.381 0.362,-0.181 0.794,-0.34 1.295,-0.477 0.501,-0.137 1.07,-0.252 1.707,-0.344 a 6.24,6.24 0 0 1 1.389,-0.119 7.06,7.06 0 0 1 1.441,0.188 9.12,9.12 0 0 1 1.492,0.496 12.21,12.21 0 0 1 1.545,0.801 3.45,3.45 0 0 1 0.725,0.6 4.63,4.63 0 0 1 0.611,0.84 6.9,6.9 0 0 1 0.496,1.078 c 0.146,0.399 0.273,0.837 0.381,1.316 a 16.3,16.3 0 0 1 0.268,1.557 c 0.07,0.559 0.119,1.158 0.15,1.797 a 35,35 0 0 1 0.037,2.035 48.86,48.86 0 0 1 -0.078,2.273 l -0.41,7.254 -0.682,9.717 -2.455,27.648 a 33.5,33.5 0 0 1 0.203,2.395 54.34,54.34 0 0 1 0.068,2.807 80.95,80.95 0 0 1 -0.068,3.217005 117.63,117.63 0 0 1 -0.203,3.625 7.79,7.79 0 0 1 -0.428,1.219 6.47,6.47 0 0 1 -0.598,1.057 5.91,5.91 0 0 1 -0.768,0.893 6.09,6.09 0 0 1 -0.937,0.732 6.96,6.96 0 0 1 -1.109,0.568 8.71,8.71 0 0 1 -1.277,0.406 11.48,11.48 0 0 1 -1.449,0.244 15.4,15.4 0 0 1 -1.619,0.08 12.83,12.83 0 0 1 -1.756,-0.119 12.92,12.92 0 0 1 -1.721,-0.357 13.54,13.54 0 0 1 -1.687,-0.598 14.937,14.937 0 0 1 -1.654,-0.838 c -0.546,-1.732 -0.954,-2.964 -1.227,-3.695 -0.136,-0.365 -0.237,-0.606 -0.305,-0.721 -0.034,-0.057 -0.061,-0.084 -0.078,-0.078 -0.017,0.006 -0.025,0.043 -0.025,0.111 a 27.53,27.53 0 0 0 0.072,-1.924 c 0.002,-0.667 -0.017,-1.36 -0.057,-2.078005 a 43.81,43.81 0 0 0 -0.184,-2.232 53.57,53.57 0 0 0 -0.311,-2.387 73.67,73.67 0 0 0 -1.006,-5.234 107.32,107.32 0 0 0 -1.518,-5.852 l -8.318,-17.928 c -0.444,-0.969 -0.906,-1.883 -1.385,-2.74 -0.479,-0.857 -0.976,-1.658 -1.49,-2.402 -0.514,-0.744 -1.046,-1.431 -1.596,-2.062 -0.55,-0.631 -1.118,-1.207 -1.703,-1.727 a 15.64,15.64 0 0 0 -1.809,-1.389 13.76,13.76 0 0 0 -1.916,-1.051 12.99,12.99 0 0 0 -2.021,-0.713 13.31,13.31 0 0 0 -2.129,-0.373 24.65,24.65 0 0 0 -2.609,-0.064 c -0.83,0.026 -1.619,0.099 -2.369,0.219 a 14.56,14.56 0 0 0 -2.131,0.5 11.93,11.93 0 0 0 -1.893,0.783 c -0.591,0.308 -1.141,0.662 -1.652,1.064 a 10.42,10.42 0 0 0 -1.416,1.348 11.28,11.28 0 0 0 -1.176,1.629 13.4,13.4 0 0 0 -0.937,1.91 l -3,10.404 a 103.32,103.32 0 0 0 -1.484,5.014 92.99,92.99 0 0 0 -1.176,4.91 84.53,84.53 0 0 0 -0.871,4.807 76.228,76.228 0 0 0 -0.562,4.703 c -0.091,1.005 -0.182,1.714 -0.273,2.125 -0.046,0.205 -0.091,0.336 -0.137,0.393 -0.046,0.057 -0.09,0.041 -0.135,-0.051 a 228.34,228.34 0 0 0 1.91,10.949005 20.33,20.33 0 0 0 0.402,1.66 18.11,18.11 0 0 0 0.525,1.557 16.51,16.51 0 0 0 0.65,1.455 15.32,15.32 0 0 0 0.773,1.352 15.07,15.07 0 0 0 0.898,1.248 14.68,14.68 0 0 0 1.021,1.146 14.93,14.93 0 0 0 1.143,1.043 15.92,15.92 0 0 0 1.268,0.939 12.98,12.98 0 0 0 1.482,0.848 c 0.544,0.268 1.138,0.522 1.783,0.762 a 27.28,27.28 0 0 0 2.086,0.676 39.25,39.25 0 0 0 2.389,0.59 53.59,53.59 0 0 0 2.691,0.504 72.1,72.1 0 0 0 2.994,0.42 96.08,96.08 0 0 0 3.297,0.332 c 1.15,0.097 2.349,0.18 3.6,0.248 a 110.56,110.56 0 0 1 4.492,0.359 c 1.461,0.147 2.887,0.321 4.275,0.523 a 84,84 0 0 1 4.053,0.691 73.29,73.29 0 0 1 3.834,0.859 64.13,64.13 0 0 1 3.615,1.023 56.35,56.35 0 0 1 3.396,1.191 c 1.095,0.425 2.154,0.879 3.176,1.359 1.022,0.48 2.008,0.989 2.957,1.525 0.949,0.536 1.861,1.1 2.736,1.691 a 37.03,37.03 0 0 1 2.518,1.857 34.76,34.76 0 0 1 2.299,2.025 33.22,33.22 0 0 1 2.078,2.191 32.67,32.67 0 0 1 1.859,2.357 33.17,33.17 0 0 1 1.641,2.525 c 0.51,0.869 0.983,1.768 1.42,2.693 0.437,0.925 0.837,1.877 1.201,2.857 a 12.11,12.11 0 0 1 0.68,1.285 22.65,22.65 0 0 1 0.682,1.658 38.84,38.84 0 0 1 0.682,2.035 63,63 0 0 1 0.684,2.41 l 0.002,-0.002 c 0.12,1.502 0.172,2.745 0.254,4.105 h 34.131 l -0.475,-7.521 a 32.36,32.36 0 0 0 -1.021,-5.975 c -1.365,-5.197 -2.916,-9.461 -4.746,-13.164 a 67.737,67.737 0 0 0 -8.992,-15.436 c 0.124,-0.405 0.249,-0.84 0.373,-1.307 a 33.182,33.182 0 0 0 1.055,-6.287 c 0.371,-5.54 0.465,-10.238005 0.217,-14.439005 l 2.17,-24.584 c 0.024,-0.187 0.024,-0.374 0.059,-0.561 l 1.146,-17.77 c 1.334,-24.71 -9.519,-36.721 -18.977,-42.5099996 -6.745,-4.108 -14.24,-6.307 -21.687,-6.441 z M 108.001,174.00082 v 15 h -10 v 80 h 115 v -80 h -10 v -15 h -32 v 15 h -31 v -15 z"
     id="path1" />
</svg>
