<svg viewBox="0 0 215 270" xmlns="http://www.w3.org/2000/svg"><defs><!-- プラチナ・メタリック・グラデーション --><linearGradient id="metalGrad" x1="0%" y1="0%" x2="100%" y2="100%"><stop offset="0%" style="stop-color:#FFFFFF;stop-opacity:1" /><stop offset="40%" style="stop-color:#F0F0F0;stop-opacity:1" /><stop offset="100%" style="stop-color:#C0C0C0;stop-opacity:1" /></linearGradient>    <!-- 道具箱用のダークメタル -->
    <linearGradient id="boxGrad" x1="0%" y1="0%" x2="0%" y2="100%">
        <stop offset="0%" style="stop-color:#4B5563;stop-opacity:1" />
        <stop offset="100%" style="stop-color:#1F2937;stop-opacity:1" />
    </linearGradient>

    <!-- 高級感を出すためのドロップシャドウ -->
    <filter id="softShadow" x="-20%" y="-20%" width="140%" height="140%">
        <feGaussianBlur in="SourceAlpha" stdDeviation="3"/>
        <feOffset dx="0" dy="4" result="offsetblur"/>
        <feComponentTransfer>
            <feFuncA type="linear" slope="0.3"/>
        </feComponentTransfer>
        <feMerge>
            <feMergeNode/>
            <feMergeNode in="SourceGraphic"/>
        </feMerge>
    </filter>
</defs>

<g filter="url(#softShadow)">
    <!-- メインキャラクター (Sをモチーフにした形状) -->
    <!-- 元の複雑なパスをベースにしつつ、塗りをメタリックに変更 -->
    <path d="M118.917.007a39.5 39.5 0 0 0-7.402.56c-3.907.624-7.442 1.619-10.76 3.05a41.7 41.7 0 0 0-7.35 3.953c-5.147-1.12-10.543-1.711-16.187-1.711-12.218 0-23.972 2.8-34.918 8.277-6.698 3.392-15.909 10.268-22.018 24.023-1.148 2.49-1.985 5.166-4.59 13.756C9.459 71.894 8.188 79.92 8.188 86.364v15.87a56.1 56.1 0 0 0 3.256 18.86c-6.233 6.69-9.924 15.06-11.102 23.4A36 36 0 0 0 0 149.318c0 3.548.558 6.72 1.303 9.46a161 161 0 0 0-.279 6.97 37.3 37.3 0 0 0-.744 7.375v15.063a34.7 34.7 0 0 0 .807 7.377c-.031.964-.124 2.27-.219 3.95-.216 3.922-.309 6.755-.309 8.933C.559 240.436 21.49 255 40.934 255c9.458 0 19.04-3.204 29.273-9.771 1.725-1.113 3.313-2.387 4.793-3.76v-39.535c.3.17.596.286.895.438V156h45.252c-.027-.136-.036-.285-.064-.42a25 25 0 0 0-.912-1.457q-.479-.713-1.006-1.393a25 25 0 0 0-1.104-1.324 130 130 0 0 0-6.787-1.182l-6.82-.82q-2.592-.275-3.543-.275a22.5 22.5 0 0 1-.178-2.83V87.028a45 45 0 0 1 2.334-1.091 44 44 0 0 1 2.369-.943 45 45 0 0 1 2.574-.071 39 39 0 0 1 2.314.32a39 39 0 0 1 1.234 1.988q.819.822 2.73 2.465c.179-2.552.546-6.476 1.09-11.77a1310 1310 0 0 0-.545-6.844a4.6 4.6 0 0 1 .418-.687a35 35 0 0 1 .037 2.035 49 49 0 0 1-.078 2.273l-.41 7.254-.682 9.717-2.455 27.648a8 8 0 0 1-.428 1.219a15 15 0 0 1-1.619.08a15 15 0 0 1-1.654-.838q-.818-2.598-1.227-3.695a28 28 0 0 0 .072-1.923a107 107 0 0 0-1.518-5.852l-8.318-17.928a13 13 0 0 0-2.021-.713 14.6 14.6 0 0 0-2.131.5l-3 10.404a228 228 0 0 0 1.91 10.95a20 20 0 0 0 .402 1.66a27 27 0 0 0 2.086.676q1.724.146 3.6.248q2.192.22 4.275.523q1.643.64 3.176 1.36t2.957 1.525a33 33 0 0 1 1.641 2.525c.12 1.502.172 2.745.254 4.105h34.131l-.475-7.521a32.4 32.4 0 0 0-1.021-5.975c-1.365-5.197-2.916-9.461-4.746-13.164a67.7 67.7 0 0 0-8.992-15.436q.187-.607.373-1.307a33 33 0 0 0 1.055-6.287c.371-5.54.465-10.238.217-14.44l2.17-24.583l1.146-17.77c1.334-24.71-9.519-36.721-18.977-42.51-6.745-4.108-14.24-6.307-21.687-6.441z" 
          fill="url(#metalGrad)" stroke="#334155" stroke-width="0.5" />
    
    <!-- 道具箱 (Proデザイン) -->
    <!-- 元の四角い形状をより重厚なツールボックスへ -->
    <g transform="translate(108, 174)">
        <!-- ボックス本体 -->
        <rect x="0" y="15" width="105" height="80" rx="8" fill="url(#boxGrad)" stroke="white" stroke-width="3"/>
        <!-- 取っ手 -->
        <path d="M30 15 L30 5 C30 2 35 0 52 0 C69 0 75 2 75 5 L75 15" fill="none" stroke="white" stroke-width="4" stroke-linecap="round"/>
        <!-- 留め具 (ラッチ) -->
        <rect x="42" y="45" width="22" height="15" rx="2" fill="white"/>
        <!-- PRO刻印文字 -->
        <text x="52" y="82" font-family="Arial Black, sans-serif" font-size="14" fill="white" text-anchor="middle" opacity="0.8">PRO</text>
    </g>
</g>
</svg>
