<svg xmlns="http://www.w3.org/2000/svg" width="213.001" height="269.001" fill="#fff"><path d="M118.917.007a39.5 39.5 0 0 0-7.402.56c-3.907.624-7.442 1.619-10.76 3.05a41.7 41.7 0 0 0-7.35 3.953c-5.147-1.12-10.543-1.711-16.187-1.711-12.218 0-23.972 2.8-34.918 8.277-6.698 3.392-15.909 10.268-22.018 24.023-1.148 2.49-1.985 5.166-4.59 13.756C9.459 71.894 8.188 79.92 8.188 86.364v15.87a56.1 56.1 0 0 0 3.256 18.86c-6.233 6.69-9.924 15.06-11.102 23.4A36 36 0 0 0 0 149.318c0 3.548.558 6.72 1.303 9.46a161 161 0 0 0-.279 6.97 37.3 37.3 0 0 0-.744 7.375v15.063a34.7 34.7 0 0 0 .807 7.377c-.031.964-.124 2.27-.219 3.95-.216 3.922-.309 6.755-.309 8.933C.559 240.436 21.49 255 40.934 255c9.458 0 19.04-3.204 29.273-9.771 1.725-1.113 3.313-2.387 4.793-3.76v-39.535c-.322-.044-.643-.077-.965-.133a27 27 0 0 1-1.91-.404 29 29 0 0 1-1.91-.55 31 31 0 0 1-1.908-.69 33 33 0 0 1-1.91-.836 35 35 0 0 1-1.91-.98 40 40 0 0 1-1.908-1.12 44 44 0 0 1-1.91-1.266 49 49 0 0 1-1.91-1.408 53 53 0 0 1-1.91-1.553 61 61 0 0 1-1.908-1.693 72 72 0 0 1-3.82-3.82q0 1.233.273 4.928l.82 9.857q.205 2.258.291 4.31.086 2.055.051 3.9a47 47 0 0 1-.189 3.489 33 33 0 0 1-.426 3.08 48 48 0 0 1-3.24 1.916 29 29 0 0 1-2.898 1.369 17 17 0 0 1-2.557.82 11 11 0 0 1-1.15.207 9 9 0 0 1-1.066.068 5.4 5.4 0 0 1-1.471-.193 4.6 4.6 0 0 1-1.275-.576 5 5 0 0 1-1.078-.963 7 7 0 0 1-.883-1.348 11 11 0 0 1-.686-1.732 17 17 0 0 1-.488-2.117 27 27 0 0 1-.295-2.502 40 40 0 0 1-.098-2.89c0-1.46.094-3.783.273-6.976s.273-5.428.273-6.707a42 42 0 0 0-.053-2.156 25 25 0 0 0-.152-1.812 14 14 0 0 0-.256-1.471 7 7 0 0 0-.359-1.131v-15.055a2.7 2.7 0 0 1 .07-.582 4.5 4.5 0 0 1 .203-.65 16 16 0 0 1 .547-1.232 38 38 0 0 1-.088-2.172q-.017-1.215.018-2.686.067-2.942.342-6.912.271-2.464.271-4.037a12 12 0 0 0-.066-1.352 3.7 3.7 0 0 0-.205-.906q-.683-1.366-1.021-2.187t-.338-1.096a10.4 10.4 0 0 1 .412-1.797 8.2 8.2 0 0 1 .693-1.557 7.3 7.3 0 0 1 .977-1.318 7.5 7.5 0 0 1 1.258-1.078 9 9 0 0 1 1.537-.838 11.7 11.7 0 0 1 1.82-.598 16 16 0 0 1 2.102-.36 23 23 0 0 1 2.383-.12 16 16 0 0 1 1.555.074q.738.073 1.395.217a9 9 0 0 1 1.23.365q.576.217 1.07.508a6 6 0 0 1 .908.654 5.5 5.5 0 0 1 .746.8q.332.438.584.946t.422 1.09a49 49 0 0 0 .068 2.445q.068 1.352.205 2.96.273 3.218.818 7.46a29 29 0 0 0 .521 2.463 31 31 0 0 0 .742 2.463 34 34 0 0 0 .963 2.465 37 37 0 0 0 1.186 2.463 42 42 0 0 0 1.406 2.465 47 47 0 0 0 1.627 2.463 53 53 0 0 0 1.85 2.463 62 62 0 0 0 2.072 2.463 53 53 0 0 0 2.373 2.619 41 41 0 0 0 2.348 2.24 32 32 0 0 0 2.322 1.865 25 25 0 0 0 2.299 1.488c.3.17.596.286.895.438V156h45.252c-.027-.136-.036-.285-.064-.42a31 31 0 0 0-.432-1.79 29 29 0 0 0-.527-1.722 28 28 0 0 0-.623-1.656 27 27 0 0 0-.719-1.59 26 26 0 0 0-.814-1.523 25 25 0 0 0-.912-1.457q-.479-.713-1.006-1.393a25 25 0 0 0-1.104-1.324 27 27 0 0 0-1.197-1.258 27 27 0 0 0-1.295-1.193 29 29 0 0 0-1.391-1.125 30 30 0 0 0-1.486-1.061 17 17 0 0 0-1.51-.867 25 25 0 0 0-1.799-.826 35 35 0 0 0-2.09-.783 48 48 0 0 0-2.379-.74 66 66 0 0 0-2.668-.697 88 88 0 0 0-2.957-.654 130 130 0 0 0-6.787-1.182l-6.82-.82q-2.592-.275-3.543-.275a37 37 0 0 1-3.246-.072 36 36 0 0 1-3.191-.355 35 35 0 0 1-3.135-.637 36 36 0 0 1-3.08-.92 37 37 0 0 1-3.023-1.201 40 40 0 0 1-2.969-1.484 43 43 0 0 1-2.914-1.768 47 47 0 0 1-2.855-2.05 41 41 0 0 1-2.654-2.231 34 34 0 0 1-2.299-2.318 29 29 0 0 1-1.945-2.404 25 25 0 0 1-1.592-2.49 23 23 0 0 1-1.238-2.574 22 22 0 0 1-.885-2.66 22 22 0 0 1-.529-2.748 22.5 22.5 0 0 1-.178-2.83V87.028a14 14 0 0 1 .094-1.518 32 32 0 0 1 .281-1.953q.375-2.172 1.125-5.217t1.877-6.963l2.627-8.71 3.002-9.583a24 24 0 0 1 1.313-2.633 16.7 16.7 0 0 1 1.48-2.154q.392-.48.807-.898a11 11 0 0 1 .848-.78q.435-.359.891-.657.456-.3.934-.54a45 45 0 0 1 2.334-1.091 44 44 0 0 1 2.369-.943 43 43 0 0 1 2.402-.801 43 43 0 0 1 2.439-.654 43 43 0 0 1 2.471-.51 43 43 0 0 1 2.508-.363 44 44 0 0 1 2.541-.22 45 45 0 0 1 2.574-.071 47 47 0 0 1 2.482.064 44 44 0 0 1 2.398.193 39 39 0 0 1 2.314.32 37 37 0 0 1 2.232.449 34 34 0 0 1 2.148.576 32 32 0 0 1 2.066.707 31 31 0 0 1 1.982.834 30 30 0 0 1 1.9.96 29 29 0 0 1 1.816 1.093 29 29 0 0 1 1.734 1.219q.846.64 1.65 1.346a31 31 0 0 1 1.566 1.477 32 32 0 0 1 1.484 1.604q.722.834 1.402 1.732a36 36 0 0 1 1.318 1.859 39 39 0 0 1 1.234 1.988q.819.822 2.73 2.465c.179-2.552.546-6.476 1.09-11.77a1310 1310 0 0 0-.545-6.844 7 7 0 0 1 .059-.918 5.6 5.6 0 0 1 .18-.842 5 5 0 0 1 .297-.766 4.6 4.6 0 0 1 .418-.687q.237-.325.535-.611a5.3 5.3 0 0 1 .656-.535 6.5 6.5 0 0 1 .775-.46q.418-.209.896-.38.543-.272 1.295-.477.752-.206 1.707-.344a6.2 6.2 0 0 1 1.389-.12 7 7 0 0 1 1.441.189 9 9 0 0 1 1.492.496 12 12 0 0 1 1.545.8 3.5 3.5 0 0 1 .725.6 4.6 4.6 0 0 1 .611.84 7 7 0 0 1 .496 1.079q.219.598.381 1.316a16 16 0 0 1 .268 1.557q.104.838.15 1.797a35 35 0 0 1 .037 2.035 49 49 0 0 1-.078 2.273l-.41 7.254-.682 9.717-2.455 27.648a34 34 0 0 1 .203 2.395 54 54 0 0 1 .068 2.807 81 81 0 0 1-.068 3.217 118 118 0 0 1-.203 3.625 8 8 0 0 1-.428 1.219 6.5 6.5 0 0 1-.598 1.057 6 6 0 0 1-.768.893 6 6 0 0 1-.937.732 7 7 0 0 1-1.109.568 9 9 0 0 1-1.277.406 11.5 11.5 0 0 1-1.449.244 15 15 0 0 1-1.619.08 13 13 0 0 1-1.756-.12 13 13 0 0 1-1.721-.356 14 14 0 0 1-1.687-.598 15 15 0 0 1-1.654-.838q-.818-2.598-1.227-3.695-.203-.548-.305-.721-.052-.086-.078-.078-.025.01-.025.11a28 28 0 0 0 .072-1.923q.003-1-.057-2.078a44 44 0 0 0-.184-2.232 54 54 0 0 0-.311-2.387 74 74 0 0 0-1.006-5.234 107 107 0 0 0-1.518-5.852l-8.318-17.928a38 38 0 0 0-1.385-2.74 30 30 0 0 0-1.49-2.402 23 23 0 0 0-1.596-2.062 19 19 0 0 0-1.703-1.727 16 16 0 0 0-1.809-1.39 14 14 0 0 0-1.916-1.05 13 13 0 0 0-2.021-.713 13.3 13.3 0 0 0-2.129-.373 25 25 0 0 0-2.609-.064q-1.244.039-2.369.219a14.6 14.6 0 0 0-2.131.5 12 12 0 0 0-1.893.783q-.886.462-1.652 1.064a10.4 10.4 0 0 0-1.416 1.348 11.3 11.3 0 0 0-1.176 1.629 13.4 13.4 0 0 0-.937 1.91l-3 10.404a103 103 0 0 0-1.484 5.014 93 93 0 0 0-1.176 4.91 85 85 0 0 0-.871 4.807 76 76 0 0 0-.562 4.703q-.136 1.508-.273 2.125-.069.308-.137.393t-.135-.051A228 228 0 0 0 60.124 104a20 20 0 0 0 .402 1.66 18 18 0 0 0 .525 1.557 17 17 0 0 0 .65 1.455 15 15 0 0 0 .773 1.352 15 15 0 0 0 .898 1.248 15 15 0 0 0 1.021 1.146 15 15 0 0 0 1.143 1.043 16 16 0 0 0 1.268.939 13 13 0 0 0 1.482.848q.816.402 1.783.762a27 27 0 0 0 2.086.676 39 39 0 0 0 2.389.59 54 54 0 0 0 2.691.504 72 72 0 0 0 2.994.42 96 96 0 0 0 3.297.332q1.724.146 3.6.248a111 111 0 0 1 4.492.359q2.192.22 4.275.523a84 84 0 0 1 4.053.69 73 73 0 0 1 3.834.86 64 64 0 0 1 3.615 1.023 56 56 0 0 1 3.396 1.19q1.643.64 3.176 1.36t2.957 1.525q1.424.805 2.736 1.69a37 37 0 0 1 2.518 1.858 35 35 0 0 1 2.299 2.025 33 33 0 0 1 2.078 2.19 33 33 0 0 1 1.859 2.358 33 33 0 0 1 1.641 2.525q.765 1.304 1.42 2.693.655 1.387 1.201 2.857a12 12 0 0 1 .68 1.285 23 23 0 0 1 .682 1.658 39 39 0 0 1 .682 2.035 63 63 0 0 1 .684 2.41l.002-.002c.12 1.502.172 2.745.254 4.105h34.131l-.475-7.521a32.4 32.4 0 0 0-1.021-5.975c-1.365-5.197-2.916-9.461-4.746-13.164a67.7 67.7 0 0 0-8.992-15.436q.187-.607.373-1.307a33 33 0 0 0 1.055-6.287c.371-5.54.465-10.238.217-14.44l2.17-24.583c.024-.187.024-.374.059-.561l1.146-17.77c1.334-24.71-9.519-36.721-18.977-42.51-6.745-4.108-14.24-6.307-21.687-6.441zM108.001 174v15h-10v80h115v-80h-10v-15h-32v15h-31v-15z"/></svg>