<svg xmlns="http://www.w3.org/2000/svg" viewBox="0 0 386 386"><circle cx="193" cy="193" r="193" fill="#175ef8"/><path fill="#fff" d="M253.276 243.45c-10.016 27.852-37.244 44.78-80.907 50.32a63.33 63.33 0 0 1-5.892.467c-2.543 3.734-5.861 6.97-9.769 9.491-10.233 6.567-19.816 9.772-29.274 9.772-19.444 0-40.376-14.564-40.376-46.555 0-2.178.094-5.01.31-8.931l.218-3.952a34.65 34.65 0 0 1-.807-7.376v-15.062c0-2.458.249-4.916.744-7.375a161.48 161.48 0 0 1 .28-6.97c-.745-2.74-1.303-5.913-1.303-9.461a35.68 35.68 0 0 1 .341-4.823c1.178-8.34 4.869-16.712 11.102-23.402a56.07 56.07 0 0 1-3.256-18.859v-15.87c0-6.443 1.271-14.471 7.504-34.45 2.605-8.59 3.442-11.265 4.59-13.755 6.109-13.755 15.32-20.632 22.018-24.024 10.946-5.477 22.7-8.278 34.918-8.278 5.644 0 11.04.592 16.187 1.712a41.705 41.705 0 0 1 7.35-3.953c3.318-1.431 6.853-2.427 10.76-3.05 9.77-1.68 20.096.405 29.089 5.882 9.458 5.789 20.312 17.8 18.978 42.51l-1.147 17.769c-.035.187-.035.373-.059.56l-2.17 24.584c.248 4.201.154 8.9-.217 14.44a33.182 33.182 0 0 1-1.055 6.286c-.124.467-.249.902-.373 1.307a67.737 67.737 0 0 1 8.993 15.435c1.83 3.703 3.38 7.967 4.745 13.164a32.37 32.37 0 0 1 1.023 5.975c1.396 17.458.682 27.758-2.543 36.472z"/><g fill="#175ef8"><path d="M221.91 210.395c.908 11.318.722 18.613-.547 21.899-5.278 14.965-23.01 24.36-53.19 28.194-10.186 1.28-20.367-3.557-30.554-14.508 0 1.643.363 6.57 1.094 14.785.547 6.022.453 10.948-.273 14.779-4.55 2.919-8.184 4.381-10.912 4.381-4.187 0-6.274-4.104-6.274-12.32 0-1.46.094-3.784.273-6.977s.273-5.427.273-6.706c0-3.103-.273-5.29-.819-6.57v-15.055c0-.365.094-.775.273-1.232s.362-.866.546-1.233c-.183-2.552-.094-6.476.273-11.77.362-3.285.362-5.38 0-6.295-.912-1.82-1.361-2.916-1.361-3.283.723-5.11 4.456-7.665 11.182-7.665 4.364 0 7 1.553 7.911 4.653 0 2.919.364 7.21 1.091 12.865 1.095 6.569 4.547 13.141 10.367 19.708 6.364 7.484 12.454 10.95 18.278 10.403 6.546-.725 13.093-2.278 19.64-4.652 9.092-3.287 14.546-7.117 16.367-11.496 1.268-3.286 1.907-6.75 1.907-10.403 0-11.129-4.09-19.434-12.274-24.908-3.64-2.372-10.367-4.289-20.188-5.751-5.638-.725-9.096-1.095-10.364-1.095-8.73.183-16.87-2.645-24.415-8.487s-11.319-12.594-11.319-20.258v-15.874c0-3.464 2-11.586 6.004-24.36l3.002-9.583c1.634-3.83 3.724-6.385 6.27-7.664 6.18-3.1 12.727-4.653 19.64-4.653 13.455 0 23.366 5.474 29.732 16.422.547.548 1.455 1.37 2.73 2.465.179-2.552.546-6.476 1.09-11.77a1309.62 1309.62 0 0 0-.545-6.843c0-2.552 1.268-4.285 3.817-5.2.725-.363 1.727-.637 3.002-.82 1.817-.366 3.774.093 5.867 1.365 2.087 1.28 2.952 5.113 2.59 11.496-.183 4.014-.547 9.672-1.092 16.97l-2.456 27.649c.364 2.919.364 6.937 0 12.043-.912 3.467-3.64 5.2-8.184 5.2-2.366 0-4.636-.637-6.819-1.913-1.091-3.464-1.634-4.93-1.634-4.382.36-4.926-.639-11.496-3.002-19.708l-8.32-17.928c-3.548-7.755-8.23-11.91-14.048-12.457-7.275-.548-12.001 1.917-14.184 7.39l-3 10.404c-2.182 6.753-3.547 13.232-4.093 19.434-.182 2.01-.365 2.832-.546 2.465a228.34 228.34 0 0 0 1.91 10.95c.909 4.563 3.139 8.033 6.683 10.4 3.548 2.375 10.318 3.832 20.322 4.38 24.548 1.465 39.73 10.042 45.551 25.732.906 1.463 1.815 3.924 2.726 7.388z"/><path d="M161.5 214.5h138v113h-138z"/></g><path fill="#fff" d="M194.5 232.5v15h-10v80h115v-80h-10v-15h-32v15h-31v-15z"/></svg>