<svg width="128" height="128" viewBox="0 0 128 128" fill="none" xmlns="http://www.w3.org/2000/svg">
<path d="M21.826 17C19.6169 17 17.826 18.7909 17.826 21V27.6844C17.826 29.8935 16.0351 31.6844 13.826 31.6844H12C9.79086 31.6844 8 33.4752 8 35.6844V106C8 108.209 9.79086 110 12 110H117C119.209 110 121 108.209 121 106V35.6843C121 33.4752 119.209 31.6844 117 31.6844H115.174C112.965 31.6844 111.174 29.8935 111.174 27.6844V21C111.174 18.7909 109.383 17 107.174 17H83.7305C81.5214 17 79.7305 18.7909 79.7305 21V27.6844C79.7305 29.8935 77.9396 31.6844 75.7305 31.6844H53.2695C51.0604 31.6844 49.2695 29.8935 49.2695 27.6844V21C49.2695 18.7909 47.4787 17 45.2695 17H21.826Z" fill="white"/>
<path d="M21.826 17C19.6169 17 17.826 18.7909 17.826 21V27.6844C17.826 29.8935 16.0351 31.6844 13.826 31.6844H12C9.79086 31.6844 8 33.4752 8 35.6844V106C8 108.209 9.79086 110 12 110H117C119.209 110 121 108.209 121 106V35.6843C121 33.4752 119.209 31.6844 117 31.6844H115.174C112.965 31.6844 111.174 29.8935 111.174 27.6844V21C111.174 18.7909 109.383 17 107.174 17H83.7305C81.5214 17 79.7305 18.7909 79.7305 21V27.6844C79.7305 29.8935 77.9396 31.6844 75.7305 31.6844H53.2695C51.0604 31.6844 49.2695 29.8935 49.2695 27.6844V21C49.2695 18.7909 47.4787 17 45.2695 17H21.826Z" fill="url(#paint0_angular_1_2)"/>
<path d="M84.2225 84.1441C81.8068 91.2436 75.2401 95.5588 64.7096 96.9708C64.2309 97.0344 63.7597 97.0739 63.2886 97.0898C62.6753 98.0417 61.875 98.8667 60.9326 99.5092C58.4646 101.183 56.1535 102 53.8724 102C49.183 102 44.1346 98.2876 44.1346 90.1331C44.1346 89.5778 44.1573 88.856 44.2095 87.8565C44.2322 87.4281 44.2545 87.095 44.2618 86.8491C44.1346 86.2303 44.0674 85.6037 44.0674 84.9691V81.1298C44.0674 80.5031 44.1273 79.8764 44.2469 79.2498C44.2553 78.7183 44.2768 78.1234 44.3141 77.4729C44.1346 76.7749 44 75.9658 44 75.0615C44 74.649 44.03 74.2365 44.0823 73.832C44.3665 71.706 45.2565 69.5722 46.7598 67.8668C46.2437 66.3358 45.9744 64.7176 45.9744 63.0597V59.0142C45.9744 57.3721 46.2811 55.3256 47.7844 50.2329C48.4127 48.0436 48.6146 47.3614 48.8913 46.7268C50.3647 43.2207 52.586 41.4676 54.2014 40.603C56.8416 39.2069 59.6761 38.493 62.6229 38.493C63.9841 38.493 65.2855 38.6438 66.527 38.9292C67.0804 38.5326 67.6713 38.1994 68.2995 37.9218C69.0998 37.5569 69.9524 37.3031 70.8947 37.1445C73.2507 36.7161 75.7412 37.2476 77.9101 38.6437C80.1912 40.1191 82.8089 43.181 82.4873 49.4794C82.435 50.5899 82.3451 52.0733 82.2106 54.0088C82.2021 54.0565 82.2021 54.1038 82.1964 54.1515C82.0769 55.5556 81.9048 57.6497 81.6729 60.4181C81.7328 61.489 81.7102 62.6868 81.6206 64.0988C81.5833 64.6382 81.501 65.1776 81.3662 65.7011C81.3362 65.8202 81.3063 65.9311 81.2763 66.0343C82.286 67.4066 82.9741 68.7789 83.4453 69.9688C83.8865 70.9127 84.2605 71.9995 84.5896 73.3242C84.7168 73.824 84.799 74.3316 84.8363 74.8472C85.1729 79.2973 85.0008 81.923 84.223 84.144L84.2225 84.1441Z" fill="white"/>
<path d="M76.8609 75.4804C77.0841 78.3322 77.0383 80.1702 76.7267 80.9982C75.4301 84.7691 71.0739 87.1363 63.6598 88.1024C61.1572 88.4247 58.6561 87.2061 56.1534 84.4468C56.1534 84.8608 56.2427 86.1021 56.4224 88.1722C56.5565 89.6894 56.5335 90.9307 56.3553 91.896C55.2376 92.6315 54.3448 93 53.6744 93C52.6459 93 52.1332 91.9658 52.1332 89.8957C52.1332 89.5279 52.1562 88.9422 52.2003 88.1377C52.2446 87.3339 52.2674 86.7702 52.2674 86.4479C52.2674 85.6661 52.2003 85.1149 52.0661 84.7926V80.999C52.0661 80.9071 52.0892 80.8037 52.1332 80.6885C52.1773 80.5741 52.2222 80.4704 52.2674 80.378C52.2225 79.735 52.2443 78.7462 52.3345 77.4124C52.4234 76.5844 52.4234 76.0567 52.3345 75.8262C52.1105 75.3675 52 75.0914 52 74.9989C52.1777 73.7114 53.0948 73.0676 54.7472 73.0676C55.8191 73.0676 56.4666 73.4589 56.6906 74.2399C56.6906 74.9754 56.7799 76.0567 56.9587 77.4814C57.2276 79.1367 58.0755 80.7928 59.5055 82.4473C61.0687 84.3331 62.565 85.2066 63.9957 85.0686C65.6039 84.886 67.2121 84.4946 68.8204 83.8964C71.0541 83.0683 72.3941 82.1031 72.8413 80.9998C73.1529 80.1718 73.3099 79.299 73.3099 78.3785C73.3099 75.5745 72.305 73.4816 70.2945 72.1024C69.4001 71.5049 67.7477 71.0218 65.335 70.6533C63.95 70.4708 63.1006 70.3774 62.789 70.3774C60.6444 70.4236 58.6446 69.7109 56.7911 68.2391C54.9368 66.7681 54.0104 65.0657 54.0104 63.1345V59.1346C54.0104 58.2619 54.5018 56.2154 55.4853 52.9965C55.931 51.4785 56.177 50.6748 56.2227 50.5822C56.6242 49.617 57.1377 48.9732 57.7632 48.6509C59.2815 47.87 60.8897 47.4787 62.5879 47.4787C65.8934 47.4787 68.3283 48.8579 69.8923 51.6165C70.0265 51.7546 70.2496 51.9615 70.5627 52.2375C70.6068 51.5945 70.6969 50.6058 70.8308 49.272C70.7859 48.6745 70.741 48.0997 70.6966 47.5477C70.6966 46.9047 71.0082 46.4679 71.6344 46.2374C71.8127 46.1458 72.0588 46.0768 72.3719 46.0305C72.8183 45.9387 73.299 46.0543 73.8133 46.3748C74.326 46.6971 74.5385 47.6631 74.4494 49.2713C74.4045 50.2829 74.3152 51.7084 74.1813 53.5471C74.0472 55.0652 73.8469 57.387 73.578 60.5141C73.6672 61.2496 73.6672 62.2619 73.578 63.5486C73.354 64.4221 72.6836 64.8589 71.5675 64.8589C70.9862 64.8589 70.4285 64.6983 69.8922 64.3767C69.6242 63.5039 69.4907 63.1346 69.4907 63.2726C69.5791 62.0313 69.3338 60.3761 68.7533 58.3068C68.2611 57.2498 67.5808 55.7442 66.7093 53.7895C65.8377 51.8354 64.6874 50.7886 63.2582 50.6506C61.4709 50.5125 60.3099 51.1336 59.7736 52.5129C59.5953 53.1112 59.3485 53.9855 59.0369 55.1342C58.5005 56.8357 58.1653 58.4683 58.0312 60.031C57.9863 60.5376 57.9414 60.7446 57.8971 60.6521C58.0312 61.5726 58.1873 62.4916 58.3663 63.4114C58.5895 64.5609 59.1373 65.4352 60.0081 66.0319C60.8796 66.6302 62.5427 66.9972 65.0004 67.1352C71.031 67.5045 74.761 69.6656 76.1909 73.6191C76.4135 73.9876 76.6366 74.6079 76.8606 75.4806L76.8609 75.4804Z" fill="#FF8D44"/>
<defs>
<radialGradient id="paint0_angular_1_2" cx="0" cy="0" r="1" gradientUnits="userSpaceOnUse" gradientTransform="translate(64.5 63.5) rotate(90.6161) scale(46.5027 72.2959)">
<stop offset="0.366229" stop-color="#FEBA72"/>
<stop offset="0.86798" stop-color="#FF8D44"/>
</radialGradient>
</defs>
</svg>
