<svg width="20" height="20" viewBox="0 0 20 20" fill="none" xmlns="http://www.w3.org/2000/svg">
<path d="M10 17V14H11V15H12V14H13V17H12V16H11V17H10Z" fill="white"/>
<path fill-rule="evenodd" clip-rule="evenodd" d="M15.5 14H14V15.5V17H15.5C16.3284 17 17 16.3284 17 15.5C17 14.6716 16.3284 14 15.5 14ZM15.5 16C15.7761 16 16 15.7761 16 15.5C16 15.2239 15.7761 15 15.5 15H15V15.5V16H15.5Z" fill="white"/>
<path fill-rule="evenodd" clip-rule="evenodd" d="M9.63889 3.16461L5.91737 6.88612C5.56294 7.24055 5.82195 7.82537 6.3127 7.82537H8.12574L9.22993 12.2012C9.29809 12.4752 9.5162 12.707 9.8161 12.7738C10.2387 12.8828 10.6749 12.6252 10.784 12.2012L11.8882 7.82537H13.7421C14.2329 7.82537 14.4919 7.24055 14.1374 6.88612L10.4159 3.16461C10.1978 2.94513 9.857 2.94513 9.63889 3.16461ZM17 13V11.6018C17 11.0292 16.5501 10.5794 15.9776 10.5794C15.4187 10.5794 14.9552 11.0292 14.9552 11.6018V13H17ZM9 17V14.9552H6.14898C5.53554 14.9552 5.04479 14.4508 5.04479 13.851V11.6018C5.04479 11.0292 4.5813 10.5794 4.0224 10.5794C3.46349 10.5794 3 11.0292 3 11.6018V13.851C3 15.5823 4.40409 17 6.14898 17H9Z" fill="white"/>
</svg>
