<?xml version="1.0" encoding="UTF-8" standalone="no"?>
<!DOCTYPE svg PUBLIC "-//W3C//DTD SVG 1.1//EN" "http://www.w3.org/Graphics/SVG/1.1/DTD/svg11.dtd">
<svg version="1.1" xmlns="http://www.w3.org/2000/svg" xmlns:xlink="http://www.w3.org/1999/xlink" preserveAspectRatio="xMidYMid meet" viewBox="0 0 640 640" width="640" height="640"><defs><path d="M0 0L643 0L643 643L0 643L0 0Z" id="iJ72df5az"></path><path d="M520.57 339.28L521.92 339.47L523.25 339.71L524.56 340L525.86 340.34L527.12 340.72L528.37 341.16L529.59 341.64L530.79 342.17L531.96 342.74L533.1 343.35L534.22 344.01L535.3 344.7L536.36 345.44L537.38 346.22L538.37 347.04L539.33 347.89L540.26 348.78L541.15 349.7L542 350.66L542.82 351.65L543.59 352.68L544.33 353.73L545.03 354.82L545.69 355.93L546.3 357.08L546.87 358.25L547.4 359.44L547.88 360.67L548.31 361.91L548.7 363.18L549.04 364.47L549.33 365.78L549.57 367.12L549.76 368.47L549.89 369.84L549.97 371.23L550 372.63L550 446.53L549.91 450.78L549.66 454.98L549.24 459.14L548.65 463.25L547.91 467.31L547.01 471.31L545.95 475.26L544.75 479.14L543.4 482.95L541.9 486.7L540.27 490.37L538.5 493.97L536.6 497.49L534.56 500.92L532.4 504.27L530.12 507.53L527.72 510.69L525.2 513.76L522.57 516.73L519.82 519.6L516.97 522.36L514.02 525.01L510.97 527.54L507.82 529.96L504.58 532.26L501.24 534.44L497.82 536.48L494.32 538.4L490.74 540.19L487.08 541.83L483.34 543.34L479.54 544.7L475.67 545.91L471.73 546.98L467.74 547.89L463.69 548.64L459.58 549.23L455.43 549.66L451.23 549.91L446.98 550L193.47 550L189.19 549.91L184.95 549.66L180.77 549.23L176.64 548.64L172.56 547.89L168.54 546.98L164.58 545.91L160.69 544.7L156.87 543.34L153.11 541.83L149.43 540.19L145.83 538.4L142.32 536.48L138.88 534.44L135.53 532.26L132.28 529.96L129.12 527.54L126.05 525.01L123.09 522.36L120.23 519.6L117.48 516.73L114.84 513.76L112.32 510.69L109.91 507.53L107.62 504.27L105.46 500.92L103.42 497.49L101.51 493.97L99.74 490.37L98.1 486.7L96.61 482.95L95.26 479.14L94.05 475.26L93 471.31L92.09 467.31L91.35 463.25L90.76 459.14L90.34 454.98L90.09 450.78L90 446.53L90 372.63L90.03 371.23L90.11 369.84L90.25 368.47L90.44 367.12L90.69 365.78L90.99 364.47L91.33 363.18L91.73 361.91L92.18 360.67L92.67 359.44L93.2 358.25L93.79 357.08L94.41 355.93L95.08 354.82L95.79 353.73L96.54 352.68L97.32 351.65L98.15 350.66L99.01 349.7L99.91 348.78L100.84 347.89L101.81 347.04L102.81 346.22L103.83 345.44L104.89 344.7L105.98 344.01L107.1 343.35L108.24 342.74L109.41 342.17L110.6 341.64L111.81 341.16L113.05 340.72L114.3 340.34L115.58 340L116.88 339.71L118.19 339.47L119.52 339.28L120.86 339.15L122.22 339.06L123.59 339.04L124.96 339.06L126.32 339.15L127.67 339.28L129 339.47L130.31 339.71L131.6 340L132.88 340.34L134.14 340.72L135.37 341.16L136.59 341.64L137.78 342.17L138.95 342.74L140.09 343.35L141.2 344.01L142.29 344.7L143.35 345.44L144.38 346.22L145.38 347.04L146.34 347.89L147.28 348.78L148.17 349.7L149.04 350.66L149.86 351.65L150.65 352.68L151.4 353.73L152.11 354.82L152.78 355.93L153.4 357.08L153.98 358.25L154.52 359.44L155.01 360.67L155.46 361.91L155.85 363.18L156.2 364.47L156.5 365.78L156.74 367.12L156.93 368.47L157.07 369.84L157.16 371.23L157.19 372.63L157.19 446.53L157.22 448.01L157.31 449.46L157.45 450.91L157.66 452.34L157.92 453.75L158.23 455.15L158.6 456.52L159.02 457.87L159.5 459.21L160.02 460.52L160.59 461.8L161.21 463.06L161.88 464.29L162.59 465.5L163.35 466.67L164.15 467.82L165 468.93L165.88 470.01L166.8 471.06L167.77 472.06L168.77 473.04L169.81 473.97L170.88 474.87L171.99 475.72L173.13 476.53L174.3 477.3L175.51 478.02L176.74 478.7L178 479.33L179.29 479.92L180.61 480.45L181.95 480.93L183.32 481.36L184.71 481.74L186.12 482.06L187.55 482.33L189 482.54L190.47 482.69L191.96 482.78L193.47 482.81L446.98 482.81L448.45 482.78L449.91 482.69L451.35 482.54L452.77 482.33L454.18 482.06L455.57 481.74L456.93 481.36L458.28 480.93L459.6 480.45L460.89 479.92L462.17 479.33L463.41 478.7L464.63 478.02L465.82 477.3L466.98 476.53L468.11 475.72L469.2 474.87L470.27 473.97L471.3 473.04L472.29 472.06L473.24 471.06L474.16 470.01L475.04 468.93L475.88 467.82L476.67 466.67L477.43 465.5L478.14 464.29L478.8 463.06L479.42 461.8L479.99 460.52L480.51 459.21L480.98 457.87L481.4 456.52L481.77 455.15L482.08 453.75L482.34 452.34L482.55 450.91L482.69 449.46L482.78 448.01L482.81 446.53L482.81 372.63L482.84 371.23L482.93 369.84L483.07 368.47L483.26 367.12L483.5 365.78L483.8 364.47L484.15 363.18L484.54 361.91L484.99 360.67L485.48 359.44L486.02 358.25L486.6 357.08L487.22 355.93L487.89 354.82L488.6 353.73L489.35 352.68L490.14 351.65L490.96 350.66L491.83 349.7L492.72 348.78L493.66 347.89L494.62 347.04L495.62 346.22L496.65 345.44L497.71 344.7L498.8 344.01L499.91 343.35L501.05 342.74L502.22 342.17L503.41 341.64L504.63 341.16L505.86 340.72L507.12 340.34L508.4 340L509.69 339.71L511 339.47L512.33 339.28L513.68 339.15L515.04 339.06L516.41 339.04L517.81 339.06L519.2 339.15L519.2 339.15L520.57 339.28ZM394.11 274.92L394.62 274.93L395.13 274.94L395.64 274.95L396.15 274.96L396.66 274.97L397.17 274.99L397.68 275.01L398.19 275.03L398.7 275.05L399.21 275.07L399.72 275.1L400.23 275.12L400.74 275.15L401.25 275.18L401.76 275.21L402.27 275.25L402.78 275.28L403.29 275.32L403.8 275.36L404.31 275.4L404.82 275.44L405.33 275.49L405.83 275.53L406.34 275.58L406.85 275.63L407.36 275.68L407.87 275.74L408.37 275.79L408.88 275.85L409.39 275.91L409.9 275.97L410.4 276.03L410.91 276.1L411.42 276.17L411.92 276.23L412.43 276.3L412.84 276.36L413.25 276.42L413.66 276.48L414.07 276.55L414.48 276.61L414.89 276.68L415.3 276.75L415.71 276.82L416.12 276.89L416.53 276.96L416.94 277.03L417.34 277.11L417.75 277.18L418.16 277.26L418.57 277.34L418.97 277.42L419.38 277.51L419.79 277.59L420.19 277.68L420.6 277.76L421 277.85L421.41 277.94L421.81 278.04L422.22 278.13L422.62 278.22L423.03 278.32L423.43 278.42L423.83 278.52L424.24 278.62L424.64 278.72L425.04 278.83L425.44 278.93L425.84 279.04L426.24 279.15L426.64 279.26L427.04 279.37L427.44 279.48L427.84 279.59L428.24 279.71L428.64 279.83L429.13 279.97L429.62 280.12L430.11 280.27L430.6 280.43L431.09 280.59L431.57 280.75L432.06 280.91L432.54 281.08L433.02 281.25L433.51 281.43L433.99 281.6L434.46 281.78L434.94 281.96L435.42 282.15L435.89 282.34L436.37 282.53L436.84 282.73L437.31 282.92L437.78 283.13L438.25 283.33L438.72 283.54L439.19 283.75L439.65 283.96L440.12 284.18L440.58 284.4L441.04 284.62L441.5 284.84L441.96 285.07L442.41 285.3L442.87 285.54L443.32 285.77L443.77 286.01L444.23 286.26L444.67 286.5L445.12 286.75L445.57 287L446.01 287.26L446.46 287.51L446.9 287.77L447.34 288.04L447.59 288.19L447.84 288.34L448.09 288.5L448.34 288.65L448.59 288.81L448.83 288.97L449.08 289.13L449.32 289.29L449.57 289.45L449.81 289.61L450.06 289.78L450.3 289.94L450.54 290.11L450.79 290.27L451.03 290.44L451.27 290.61L451.51 290.78L451.75 290.95L451.98 291.12L452.22 291.29L452.46 291.47L452.69 291.64L452.93 291.82L453.16 291.99L453.4 292.17L453.63 292.35L453.86 292.53L454.1 292.71L454.33 292.89L454.56 293.07L454.79 293.25L455.01 293.44L455.24 293.62L455.47 293.81L455.69 294L455.92 294.19L456.14 294.37L456.37 294.57L456.59 294.76L456.81 294.95L457.33 295.41L457.85 295.87L458.36 296.34L458.86 296.82L459.36 297.3L459.86 297.78L460.34 298.27L460.83 298.76L461.31 299.26L461.78 299.77L462.25 300.27L462.71 300.79L463.17 301.31L463.62 301.83L464.06 302.35L464.5 302.89L464.94 303.42L465.37 303.96L465.79 304.51L466.21 305.06L466.62 305.61L467.03 306.17L467.43 306.73L467.83 307.29L468.22 307.86L468.6 308.44L468.98 309.01L469.35 309.6L469.72 310.18L470.08 310.77L470.43 311.37L470.78 311.96L471.12 312.56L471.45 313.17L471.78 313.78L472.11 314.39L472.42 315L472.74 315.62L473.04 316.25L473.34 316.87L473.38 316.97L473.43 317.06L473.47 317.15L473.52 317.25L473.56 317.34L473.61 317.44L473.65 317.53L473.69 317.62L473.74 317.72L473.78 317.81L473.83 317.91L473.87 318L473.91 318.1L473.96 318.19L474 318.28L474.04 318.38L474.08 318.47L474.13 318.57L474.17 318.66L474.21 318.76L474.26 318.85L474.3 318.95L474.34 319.04L474.38 319.14L474.42 319.23L474.47 319.33L474.51 319.42L474.55 319.52L474.59 319.61L474.63 319.71L474.67 319.81L474.71 319.9L474.75 320L474.8 320.09L474.84 320.19L474.88 320.28L474.92 320.38L474.96 320.47L475 320.57L475.04 320.67L475.21 321.09L475.38 321.51L475.54 321.94L475.71 322.36L475.87 322.79L476.03 323.22L476.19 323.64L476.34 324.07L476.49 324.5L476.64 324.93L476.79 325.36L476.94 325.8L477.08 326.23L477.22 326.66L477.36 327.1L477.49 327.53L477.62 327.97L477.75 328.4L477.88 328.84L478.01 329.28L478.13 329.72L478.25 330.16L478.37 330.6L478.48 331.04L478.59 331.48L478.7 331.92L478.81 332.37L478.92 332.81L479.02 333.25L479.12 333.7L479.22 334.14L479.31 334.59L479.41 335.03L479.49 335.48L479.58 335.93L479.67 336.38L479.75 336.83L479.83 337.27L479.91 337.72L479.98 338.17L480.09 338.84L480.2 339.51L480.3 340.17L480.39 340.83L480.48 341.48L480.56 342.13L480.64 342.78L480.71 343.42L480.77 344.05L480.84 344.67L480.9 345.29L480.95 345.9L481 346.5L481.05 347.09L481.09 347.67L481.13 348.24L481.16 348.8L481.2 349.34L481.23 349.88L481.25 350.4L481.28 350.91L481.3 351.41L481.32 351.89L481.34 352.36L481.35 352.81L481.37 353.24L481.38 353.66L481.39 354.07L481.4 354.45L481.41 354.82L481.42 355.17L481.43 355.49L481.44 355.8L481.44 356.09L481.45 356.36L481.46 356.61L481.47 356.83L481.48 357.04L481.49 357.22L481.5 357.37L481.5 357.81L481.5 358.26L481.5 358.7L481.49 359.15L481.49 359.59L481.48 360.03L481.47 360.48L481.46 360.92L481.45 361.36L481.43 361.81L481.42 362.25L481.4 362.69L481.38 363.14L481.36 363.58L481.34 364.02L481.31 364.47L481.29 364.91L481.26 365.35L481.23 365.79L481.2 366.24L481.17 366.68L481.13 367.12L481.09 367.56L481.06 368L481.02 368.45L480.98 368.89L480.93 369.33L480.89 369.77L480.84 370.21L480.8 370.65L480.75 371.09L480.69 371.53L480.64 371.97L480.59 372.41L480.53 372.85L480.47 373.29L480.41 373.73L480.35 374.17L480.29 374.61L480.22 375.05L480.11 375.77L479.99 376.48L479.87 377.18L479.74 377.87L479.61 378.54L479.48 379.2L479.35 379.84L479.21 380.48L479.07 381.1L478.93 381.71L478.78 382.3L478.64 382.88L478.49 383.44L478.35 384L478.2 384.53L478.06 385.06L477.91 385.57L477.77 386.06L477.62 386.54L477.48 387.01L477.34 387.46L477.21 387.9L477.07 388.32L476.94 388.72L476.81 389.11L476.69 389.49L476.57 389.85L476.45 390.19L476.34 390.52L476.23 390.83L476.13 391.12L476.03 391.4L475.94 391.66L475.86 391.91L475.78 392.14L475.71 392.35L475.65 392.55L475.59 392.72L475.54 392.88L475.5 393.03L475.47 393.11L475.46 393.13L475.43 393.21L475.41 393.27L475.4 393.31L475.37 393.36L475.35 393.43L475.33 393.47L475.31 393.53L475.3 393.56L475.09 394.07L474.89 394.58L474.68 395.08L474.46 395.59L474.25 396.09L474.02 396.59L473.8 397.09L473.57 397.59L473.34 398.08L473.1 398.58L472.86 399.07L472.61 399.56L472.37 400.04L472.11 400.53L471.86 401.01L471.6 401.5L471.34 401.98L471.07 402.45L470.8 402.93L470.53 403.4L470.25 403.87L469.97 404.34L469.68 404.81L469.39 405.27L469.1 405.74L468.81 406.2L468.51 406.65L468.21 407.11L467.9 407.56L467.59 408.01L467.28 408.46L466.96 408.91L466.64 409.35L466.32 409.8L465.99 410.23L465.66 410.67L465.32 411.11L464.99 411.54L464.64 411.97L464.3 412.39L464.15 412.58L463.99 412.77L463.83 412.95L463.68 413.14L463.52 413.32L463.36 413.51L463.2 413.69L463.04 413.88L462.88 414.06L462.72 414.24L462.56 414.42L462.4 414.6L462.24 414.78L462.07 414.96L461.91 415.14L461.74 415.32L461.58 415.5L461.41 415.67L461.24 415.85L461.08 416.03L460.91 416.2L460.74 416.38L460.57 416.55L460.4 416.72L460.23 416.9L460.06 417.07L459.89 417.24L459.71 417.41L459.54 417.58L459.37 417.75L459.19 417.92L459.02 418.09L458.84 418.25L458.66 418.42L458.49 418.59L458.31 418.75L458.13 418.92L457.95 419.08L457.77 419.24L457.59 419.41L457.09 419.85L456.59 420.29L456.08 420.72L455.57 421.15L455.05 421.57L454.53 421.99L454.01 422.4L453.48 422.81L452.95 423.21L452.42 423.61L451.88 424L451.34 424.39L450.8 424.77L450.25 425.15L449.7 425.53L449.15 425.9L448.59 426.26L448.03 426.62L447.47 426.97L446.9 427.32L446.33 427.66L445.76 428L445.18 428.33L444.6 428.66L444.02 428.98L443.44 429.3L442.85 429.61L442.26 429.92L441.67 430.22L441.07 430.51L440.47 430.8L439.87 431.09L439.26 431.37L438.66 431.64L438.05 431.91L437.43 432.18L436.82 432.43L436.2 432.69L435.58 432.93L434.96 433.17L434.84 433.22L434.72 433.27L434.6 433.31L434.47 433.36L434.35 433.41L434.23 433.45L434.11 433.5L433.99 433.54L433.87 433.59L433.74 433.64L433.62 433.68L433.5 433.73L433.38 433.77L433.26 433.82L433.14 433.86L433.01 433.91L432.89 433.95L432.77 433.99L432.65 434.04L432.52 434.08L432.4 434.12L432.28 434.17L432.16 434.21L432.03 434.25L431.91 434.3L431.79 434.34L431.66 434.38L431.54 434.42L431.42 434.47L431.3 434.51L431.17 434.55L431.05 434.59L430.93 434.63L430.8 434.67L430.68 434.71L430.56 434.75L430.43 434.79L430.31 434.84L430.19 434.88L430.06 434.92L429.52 435.09L428.98 435.25L428.43 435.42L427.89 435.58L427.34 435.74L426.8 435.9L426.25 436.05L425.71 436.2L425.16 436.35L424.61 436.49L424.06 436.63L423.51 436.77L422.96 436.91L422.41 437.04L421.85 437.17L421.3 437.29L420.75 437.42L420.19 437.54L419.64 437.66L419.08 437.77L418.53 437.88L417.97 437.99L417.41 438.1L416.86 438.2L416.3 438.3L415.74 438.4L415.18 438.49L414.62 438.58L414.06 438.67L413.5 438.76L412.94 438.84L412.38 438.92L411.81 439L411.25 439.07L410.69 439.14L410.12 439.21L409.56 439.27L409 439.33L408.43 439.39L407.87 439.45L407.54 439.48L407.21 439.51L406.88 439.54L406.55 439.57L406.22 439.6L405.89 439.63L405.56 439.65L405.23 439.68L404.9 439.7L404.57 439.73L404.24 439.75L403.91 439.78L403.58 439.8L403.25 439.82L402.92 439.84L402.59 439.86L402.26 439.88L401.93 439.9L401.6 439.91L401.27 439.93L400.94 439.95L400.6 439.96L400.27 439.97L399.94 439.99L399.61 440L399.28 440.01L398.95 440.02L398.62 440.03L398.29 440.04L397.96 440.05L397.63 440.06L397.3 440.06L396.97 440.07L396.64 440.07L396.3 440.08L395.97 440.08L395.64 440.08L395.31 440.08L394.98 440.08L394.65 440.08L394.37 440.08L394.08 440.08L393.8 440.08L393.52 440.08L393.23 440.08L392.95 440.07L392.67 440.07L392.4 440.07L392.12 440.06L391.85 440.06L391.58 440.05L391.31 440.05L391.04 440.04L390.78 440.04L390.52 440.03L390.27 440.02L390.02 440.02L389.77 440.01L389.53 440L389.3 440L389.07 439.99L388.85 439.98L388.63 439.98L388.42 439.97L388.21 439.96L388.01 439.96L387.82 439.95L387.64 439.94L387.47 439.94L387.3 439.93L387.14 439.93L386.99 439.92L386.85 439.92L386.72 439.91L386.6 439.91L386.49 439.9L386.38 439.9L386.29 439.9L386.21 439.9L386.14 439.89L386.06 439.89L385.99 439.89L385.87 439.88L385.79 439.88L385.67 439.87L385.59 439.87L385.47 439.87L385.4 439.86L385.28 439.86L385.2 439.85L385.08 439.85L384.96 439.84L384.88 439.84L384.77 439.84L384.69 439.83L384.57 439.83L384.32 439.81L384.07 439.8L383.83 439.79L383.58 439.78L383.33 439.76L383.08 439.75L382.84 439.74L382.59 439.72L382.34 439.71L382.1 439.69L381.85 439.67L381.6 439.66L381.35 439.64L381.11 439.62L380.86 439.61L380.61 439.59L380.37 439.57L380.12 439.55L379.87 439.53L379.63 439.51L379.38 439.49L379.13 439.47L378.89 439.45L378.64 439.43L378.39 439.4L378.15 439.38L377.9 439.36L377.65 439.34L377.41 439.31L377.16 439.29L376.91 439.26L376.67 439.24L376.42 439.21L376.17 439.19L375.93 439.16L375.68 439.13L375.44 439.11L375.19 439.08L374.94 439.05L374.7 439.02L374.65 439.02L374.6 439.01L374.51 439L374.46 438.99L374.37 438.98L374.32 438.98L374.22 438.97L374.18 438.96L374.08 438.95L374.04 438.94L373.94 438.93L373.89 438.93L373.8 438.92L373.75 438.91L373.71 438.9L373.66 438.9L373.56 438.89L373.52 438.88L373.42 438.87L373.37 438.86L373.28 438.85L373.23 438.85L373.14 438.83L373.09 438.83L373 438.82L372.95 438.81L372.86 438.8L372.81 438.79L372.35 438.73L371.91 438.67L371.46 438.62L371.02 438.55L370.59 438.49L370.16 438.43L369.74 438.37L369.33 438.31L368.92 438.25L368.52 438.19L368.12 438.13L367.73 438.07L367.35 438.01L366.98 437.95L366.61 437.89L366.26 437.83L365.91 437.77L365.57 437.72L365.23 437.66L364.91 437.61L364.6 437.55L364.29 437.5L364 437.45L363.71 437.4L363.44 437.35L363.17 437.3L362.92 437.26L362.67 437.21L362.44 437.17L362.22 437.13L362.01 437.09L361.81 437.06L361.62 437.02L361.44 436.99L361.28 436.96L361.13 436.93L360.99 436.91L360.87 436.89L360.76 436.87L360.66 436.85L360.46 436.82L360.26 436.78L360.06 436.74L359.86 436.7L359.66 436.66L359.45 436.61L359.25 436.57L359.05 436.53L358.85 436.49L358.65 436.44L358.45 436.4L358.26 436.35L358.06 436.31L357.86 436.26L357.66 436.21L357.46 436.16L357.26 436.12L357.06 436.07L356.86 436.02L356.66 435.97L356.47 435.92L356.27 435.86L356.07 435.81L355.87 435.76L355.68 435.71L355.48 435.65L355.28 435.6L355.08 435.54L354.89 435.48L354.69 435.43L354.49 435.37L354.3 435.31L354.1 435.25L353.91 435.2L353.71 435.14L353.51 435.08L353.32 435.01L353.12 434.95L352.93 434.89L352.73 434.83L352.65 434.8L352.57 434.77L352.48 434.74L352.4 434.72L352.32 434.69L352.23 434.66L352.15 434.63L352.06 434.6L351.98 434.57L351.9 434.55L351.81 434.52L351.73 434.49L351.65 434.46L351.56 434.43L351.48 434.4L351.4 434.37L351.31 434.34L351.23 434.31L351.15 434.28L351.07 434.25L350.98 434.22L350.9 434.19L350.82 434.16L350.73 434.13L350.65 434.1L350.57 434.07L350.49 434.04L350.4 434.01L350.32 433.98L350.24 433.94L350.16 433.91L350.07 433.88L349.99 433.85L349.91 433.82L349.83 433.79L349.74 433.75L349.66 433.72L349.58 433.69L349.5 433.66L349.42 433.62L349.23 433.56L349.05 433.49L348.87 433.42L348.69 433.35L348.51 433.27L348.34 433.2L348.16 433.12L347.98 433.05L347.8 432.97L347.63 432.89L347.45 432.81L347.28 432.73L347.1 432.65L346.93 432.57L346.75 432.48L346.58 432.4L346.41 432.31L346.24 432.22L346.06 432.13L345.89 432.04L345.72 431.95L345.55 431.86L345.39 431.77L345.22 431.67L345.05 431.57L344.88 431.48L344.72 431.38L344.55 431.28L344.39 431.18L344.22 431.08L344.06 430.97L343.9 430.87L343.74 430.76L343.57 430.66L343.41 430.55L343.25 430.44L343.1 430.33L342.94 430.22L342.78 430.11L342.62 430L342.09 429.58L341.58 429.16L341.11 428.73L340.66 428.3L340.24 427.85L339.84 427.41L339.47 426.95L339.12 426.5L338.79 426.04L338.48 425.58L338.2 425.11L337.94 424.65L337.69 424.19L337.47 423.73L337.26 423.27L337.07 422.82L336.89 422.37L336.73 421.92L336.58 421.48L336.45 421.05L336.33 420.62L336.22 420.2L336.12 419.79L336.03 419.39L335.95 419.01L335.88 418.63L335.81 418.26L335.75 417.91L335.7 417.58L335.65 417.26L335.6 416.95L335.56 416.66L335.52 416.39L335.47 416.14L335.43 415.9L335.39 415.69L335.35 415.5L335.3 415.33L335.25 415.18L335.2 415.06L335.2 415L335.2 414.98L335.2 414.94L335.2 414.91L335.2 414.86L335.2 414.84L335.2 414.78L335.2 414.75L335.2 294.04L335.2 293.96L335.2 293.87L335.2 293.79L335.2 293.7L335.2 293.62L335.2 293.53L335.21 293.45L335.21 293.36L335.21 293.28L335.22 293.2L335.22 293.11L335.22 293.03L335.23 292.94L335.23 292.86L335.24 292.77L335.25 292.69L335.25 292.6L335.26 292.52L335.27 292.43L335.28 292.35L335.29 292.27L335.29 292.18L335.3 292.1L335.31 292.01L335.32 291.93L335.34 291.85L335.35 291.76L335.36 291.68L335.37 291.59L335.38 291.51L335.4 291.43L335.41 291.34L335.42 291.26L335.44 291.18L335.45 291.09L335.47 291.01L335.48 290.92L335.5 290.84L335.52 290.76L335.54 290.68L335.57 290.52L335.61 290.36L335.65 290.21L335.69 290.06L335.73 289.91L335.77 289.77L335.82 289.63L335.86 289.49L335.91 289.36L335.96 289.23L336 289.11L336.05 288.99L336.1 288.87L336.15 288.75L336.2 288.64L336.25 288.53L336.3 288.42L336.34 288.32L336.39 288.22L336.44 288.13L336.49 288.04L336.53 287.95L336.58 287.86L336.62 287.78L336.67 287.7L336.71 287.63L336.75 287.55L336.79 287.48L336.83 287.42L336.87 287.36L336.9 287.3L336.93 287.24L336.96 287.19L336.99 287.14L337.02 287.09L337.04 287.05L337.07 287.01L337.08 286.97L337.1 286.94L337.11 286.91L337.14 286.88L337.16 286.84L337.19 286.81L337.21 286.78L337.23 286.74L337.26 286.71L337.28 286.68L337.31 286.64L337.33 286.61L337.36 286.58L337.38 286.54L337.41 286.51L337.43 286.48L337.46 286.45L337.48 286.41L337.51 286.38L337.54 286.35L337.56 286.32L337.59 286.29L337.61 286.25L337.64 286.22L337.67 286.19L337.69 286.16L337.72 286.13L337.75 286.1L337.78 286.06L337.8 286.03L337.83 286L337.86 285.97L337.89 285.94L337.91 285.91L337.94 285.88L337.97 285.85L338 285.82L338.03 285.79L338.06 285.76L338.08 285.73L338.11 285.7L338.14 285.67L338.17 285.64L338.38 285.44L338.58 285.25L338.79 285.06L339.01 284.88L339.22 284.7L339.44 284.53L339.66 284.36L339.88 284.19L340.1 284.03L340.33 283.88L340.55 283.73L340.77 283.58L341 283.44L341.22 283.31L341.44 283.18L341.65 283.05L341.87 282.93L342.08 282.81L342.29 282.7L342.5 282.59L342.7 282.48L342.9 282.38L343.1 282.28L343.29 282.19L343.47 282.1L343.65 282.02L343.82 281.94L343.99 281.86L344.15 281.79L344.3 281.72L344.45 281.65L344.59 281.59L344.71 281.53L344.83 281.48L344.95 281.42L345.05 281.38L345.14 281.33L345.22 281.29L345.29 281.25L345.35 281.22L345.4 281.2L345.42 281.19L345.47 281.17L345.52 281.15L345.54 281.14L345.59 281.13L345.64 281.11L345.66 281.1L345.71 281.08L345.76 281.06L345.78 281.05L345.83 281.04L345.88 281.02L345.93 281L345.95 280.99L346 280.97L346.05 280.96L346.07 280.95L346.12 280.93L346.17 280.91L346.19 280.9L346.24 280.89L346.29 280.87L346.31 280.86L346.84 280.69L347.37 280.53L347.9 280.36L348.43 280.2L348.96 280.05L349.49 279.89L350.02 279.74L350.55 279.59L351.08 279.44L351.62 279.3L352.15 279.16L352.69 279.02L353.22 278.88L353.76 278.75L354.3 278.62L354.83 278.49L355.37 278.37L355.91 278.25L356.45 278.13L356.99 278.01L357.53 277.9L358.07 277.79L358.62 277.68L359.16 277.58L359.7 277.47L360.24 277.37L360.79 277.28L361.33 277.18L361.88 277.09L362.42 277L362.97 276.92L363.52 276.84L364.06 276.76L364.61 276.68L365.16 276.6L365.71 276.53L366.26 276.46L366.81 276.4L367.35 276.34L367.9 276.28L367.95 276.27L368 276.26L368.05 276.26L368.1 276.25L368.15 276.25L368.19 276.24L368.24 276.24L368.29 276.23L368.34 276.23L368.39 276.22L368.44 276.22L368.48 276.21L368.53 276.21L368.58 276.2L368.63 276.2L368.68 276.19L368.72 276.19L368.77 276.18L368.82 276.18L368.87 276.17L368.92 276.17L368.97 276.16L369.01 276.16L369.06 276.15L369.11 276.15L369.16 276.14L369.21 276.14L369.26 276.13L369.3 276.13L369.35 276.13L369.4 276.12L369.45 276.12L369.5 276.11L369.55 276.11L369.59 276.1L369.64 276.1L369.69 276.09L369.74 276.09L369.79 276.08L369.84 276.08L370.7 276L371.54 275.92L372.37 275.85L373.18 275.79L373.97 275.72L374.75 275.66L375.51 275.61L376.26 275.55L376.98 275.5L377.7 275.46L378.39 275.41L379.07 275.37L379.72 275.33L380.37 275.3L380.99 275.27L381.6 275.24L382.19 275.21L382.76 275.18L383.31 275.16L383.85 275.14L384.37 275.12L384.87 275.1L385.35 275.08L385.82 275.07L386.27 275.05L386.7 275.04L387.11 275.03L387.5 275.02L387.87 275.01L388.23 275L388.56 274.99L388.88 274.98L389.18 274.97L389.46 274.97L389.73 274.96L389.97 274.95L390.19 274.94L390.4 274.94L390.58 274.93L390.75 274.92L390.81 274.92L390.88 274.92L390.98 274.92L391.05 274.92L391.14 274.92L391.21 274.92L391.28 274.92L391.37 274.92L391.44 274.92L391.54 274.92L391.6 274.92L391.67 274.92L391.77 274.92L391.83 274.92L391.93 274.92L392 274.92L392.06 274.92L392.58 274.92L393.09 274.92L393.6 274.92L393.6 274.92L394.11 274.92ZM277.94 276.47L278.1 276.47L278.25 276.47L278.41 276.47L278.57 276.48L278.73 276.48L278.89 276.48L279.05 276.49L279.21 276.49L279.37 276.5L279.53 276.5L279.69 276.51L279.85 276.51L280 276.52L280.16 276.53L280.32 276.53L280.48 276.54L280.64 276.55L280.8 276.56L280.96 276.57L281.12 276.58L281.28 276.59L281.44 276.6L281.59 276.61L281.75 276.62L281.91 276.63L282.07 276.65L282.23 276.66L282.39 276.67L282.55 276.69L282.7 276.7L282.86 276.72L283.02 276.73L283.18 276.75L283.34 276.76L283.5 276.78L283.66 276.79L284.16 276.85L284.64 276.92L285.11 276.99L285.57 277.06L286.02 277.14L286.45 277.22L286.87 277.31L287.27 277.4L287.67 277.49L288.05 277.58L288.41 277.68L288.77 277.78L289.11 277.88L289.44 277.98L289.76 278.08L290.07 278.19L290.37 278.29L290.65 278.39L290.93 278.5L291.19 278.6L291.44 278.7L291.68 278.8L291.91 278.9L292.14 279L292.35 279.1L292.55 279.19L292.74 279.28L292.93 279.37L293.1 279.45L293.26 279.54L293.42 279.61L293.57 279.69L293.71 279.75L293.84 279.82L293.96 279.88L294.07 279.93L294.18 279.98L294.28 280.02L294.37 280.05L294.45 280.08L294.49 280.1L294.53 280.13L294.57 280.15L294.61 280.18L294.64 280.2L294.68 280.22L294.72 280.25L294.76 280.27L294.79 280.3L294.83 280.32L294.87 280.35L294.9 280.37L294.94 280.4L294.98 280.42L295.02 280.45L295.05 280.47L295.09 280.5L295.13 280.52L295.16 280.55L295.2 280.58L295.24 280.6L295.27 280.63L295.31 280.66L295.34 280.68L295.38 280.71L295.42 280.73L295.45 280.76L295.49 280.79L295.52 280.82L295.56 280.84L295.59 280.87L295.63 280.9L295.66 280.92L295.7 280.95L295.74 280.98L295.77 281.01L295.81 281.04L295.84 281.06L295.88 281.09L295.91 281.12L296.19 281.36L296.46 281.6L296.73 281.86L296.99 282.13L297.24 282.41L297.49 282.7L297.73 282.99L297.96 283.3L298.18 283.62L298.4 283.95L298.61 284.28L298.81 284.63L299.01 284.99L299.19 285.36L299.38 285.74L299.55 286.12L299.72 286.52L299.88 286.93L300.03 287.35L300.17 287.78L300.31 288.21L300.44 288.66L300.57 289.12L300.69 289.59L300.8 290.07L300.9 290.55L301 291.05L301.08 291.56L301.17 292.08L301.24 292.61L301.31 293.14L301.37 293.69L301.42 294.25L301.47 294.82L301.51 295.4L301.54 295.98L301.56 296.58L301.58 297.19L301.59 297.81L301.6 298.44L301.6 435.69L301.43 435.74L301.26 435.78L301.09 435.82L300.91 435.87L300.73 435.91L300.55 435.95L300.37 435.99L300.18 436.03L299.99 436.07L299.8 436.11L299.61 436.15L299.42 436.19L299.23 436.22L299.04 436.26L298.86 436.3L298.67 436.33L298.48 436.37L298.3 436.4L298.11 436.43L297.93 436.46L297.76 436.49L297.58 436.52L297.41 436.55L297.25 436.58L297.09 436.61L296.93 436.63L296.78 436.66L296.63 436.68L296.49 436.7L296.36 436.73L296.23 436.75L296.11 436.77L295.99 436.78L295.89 436.8L295.79 436.82L295.7 436.83L295.62 436.84L295.55 436.86L295.49 436.87L295.44 436.88L295.37 436.89L295.31 436.9L295.24 436.91L295.18 436.92L295.11 436.93L295.05 436.93L294.98 436.94L294.91 436.95L294.85 436.96L294.78 436.97L294.72 436.98L294.65 436.99L294.59 437L294.52 437.01L294.45 437.02L294.39 437.03L294.32 437.04L294.26 437.05L294.19 437.06L294.12 437.07L294.06 437.07L293.99 437.08L293.93 437.09L293.86 437.1L293.8 437.11L293.73 437.12L293.66 437.13L293.6 437.14L293.53 437.15L293.47 437.15L293.4 437.16L293.33 437.17L293.27 437.18L293.2 437.19L293.14 437.2L293.07 437.21L293.01 437.22L292.94 437.22L292.87 437.23L292.81 437.24L292.36 437.3L291.92 437.35L291.49 437.4L291.06 437.45L290.63 437.49L290.21 437.54L289.79 437.58L289.38 437.61L288.97 437.65L288.57 437.68L288.18 437.71L287.79 437.74L287.41 437.76L287.04 437.79L286.67 437.81L286.31 437.83L285.96 437.85L285.62 437.86L285.29 437.88L284.96 437.89L284.64 437.9L284.34 437.91L284.04 437.92L283.75 437.93L283.47 437.94L283.2 437.95L282.94 437.96L282.7 437.96L282.46 437.97L282.23 437.97L282.02 437.98L281.82 437.98L281.63 437.99L281.45 437.99L281.29 437.99L281.13 438L281 438L280.87 438.01L280.76 438.01L280.66 438.02L279.65 438.01L278.68 437.99L277.75 437.95L276.85 437.9L275.99 437.84L275.16 437.76L274.37 437.67L273.61 437.58L272.88 437.47L272.18 437.36L271.51 437.23L270.87 437.1L270.26 436.96L269.68 436.82L269.13 436.67L268.6 436.51L268.1 436.36L267.62 436.19L267.17 436.03L266.74 435.87L266.33 435.7L265.94 435.53L265.57 435.37L265.22 435.2L264.9 435.04L264.58 434.88L264.29 434.73L264.01 434.57L263.75 434.43L263.5 434.29L263.27 434.15L263.05 434.03L262.84 433.91L262.65 433.8L262.46 433.7L262.28 433.61L262.12 433.53L261.96 433.46L261.81 433.41L261.66 433.36L261.55 433.26L261.45 433.16L261.34 433.06L261.23 432.96L261.13 432.85L261.03 432.75L260.93 432.64L260.83 432.54L260.73 432.43L260.63 432.32L260.53 432.21L260.44 432.09L260.34 431.98L260.25 431.87L260.16 431.75L260.07 431.64L259.98 431.52L259.9 431.4L259.81 431.28L259.72 431.16L259.64 431.04L259.56 430.92L259.48 430.8L259.4 430.68L259.32 430.55L259.25 430.43L259.17 430.3L259.1 430.17L259.03 430.05L258.96 429.92L258.89 429.79L258.82 429.66L258.75 429.53L258.69 429.39L258.62 429.26L258.56 429.13L258.5 428.99L258.44 428.86L258.39 428.72L258.33 428.59L258.2 428.27L258.08 427.96L257.96 427.63L257.85 427.31L257.75 426.98L257.65 426.65L257.55 426.32L257.47 425.99L257.38 425.66L257.31 425.33L257.23 425L257.16 424.67L257.1 424.34L257.04 424.01L256.99 423.69L256.94 423.37L256.89 423.06L256.84 422.74L256.8 422.44L256.77 422.14L256.73 421.84L256.7 421.55L256.67 421.27L256.64 420.99L256.62 420.72L256.59 420.47L256.57 420.22L256.55 419.98L256.54 419.74L256.52 419.52L256.5 419.32L256.49 419.12L256.48 418.93L256.46 418.76L256.45 418.6L256.44 418.45L256.42 418.32L256.41 418.2L256.4 418.1L256.38 418.01L256.38 417.97L256.38 417.94L256.38 417.9L256.38 417.87L256.38 417.83L256.38 417.79L256.38 417.76L256.37 417.68L256.37 417.65L256.37 417.61L256.37 417.58L256.37 417.54L256.37 417.5L256.37 417.47L256.37 417.43L256.37 417.4L256.37 417.32L256.37 417.29L256.37 417.25L256.37 417.21L256.37 417.18L256.37 417.14L256.37 417.11L256.37 417.07L256.36 417.03L256.36 416.96L256.36 416.93L256.36 416.89L256.36 416.85L256.36 416.82L256.36 416.78L256.36 416.74L256.36 416.71L256.36 416.67L256.36 416.6L256.36 416.56L256.36 375.46L206.73 375.46L206.73 435.69L206.57 435.74L206.4 435.78L206.23 435.82L206.05 435.87L205.87 435.91L205.69 435.95L205.5 435.99L205.32 436.03L205.13 436.07L204.94 436.11L204.75 436.15L204.56 436.19L204.37 436.22L204.18 436.26L203.99 436.3L203.81 436.33L203.62 436.37L203.43 436.4L203.25 436.43L203.07 436.46L202.89 436.49L202.72 436.52L202.55 436.55L202.38 436.58L202.22 436.61L202.07 436.63L201.91 436.66L201.77 436.68L201.63 436.7L201.49 436.73L201.37 436.75L201.25 436.77L201.13 436.78L201.03 436.8L200.93 436.82L200.84 436.83L200.76 436.84L200.69 436.86L200.63 436.87L200.58 436.88L200.51 436.89L200.45 436.9L200.38 436.91L200.31 436.92L200.25 436.93L200.18 436.93L200.12 436.94L200.05 436.95L199.99 436.96L199.92 436.97L199.85 436.98L199.79 436.99L199.72 437L199.66 437.01L199.59 437.02L199.53 437.03L199.46 437.04L199.39 437.05L199.33 437.06L199.26 437.07L199.2 437.07L199.13 437.08L199.06 437.09L199 437.1L198.93 437.11L198.87 437.12L198.8 437.13L198.74 437.14L198.67 437.15L198.6 437.15L198.54 437.16L198.47 437.17L198.41 437.18L198.34 437.19L198.28 437.2L198.21 437.21L198.14 437.22L198.08 437.22L198.01 437.23L197.95 437.24L197.5 437.3L197.06 437.35L196.63 437.4L196.19 437.45L195.77 437.49L195.34 437.54L194.93 437.58L194.52 437.61L194.11 437.65L193.71 437.68L193.32 437.71L192.93 437.74L192.55 437.76L192.18 437.79L191.81 437.81L191.45 437.83L191.1 437.85L190.76 437.86L190.42 437.88L190.1 437.89L189.78 437.9L189.47 437.91L189.17 437.92L188.89 437.93L188.61 437.94L188.34 437.95L188.08 437.96L187.83 437.96L187.6 437.97L187.37 437.97L187.16 437.98L186.96 437.98L186.77 437.99L186.59 437.99L186.42 437.99L186.27 438L186.13 438L186.01 438.01L185.9 438.01L185.8 438.02L184.79 438.01L183.82 437.99L182.88 437.95L181.99 437.9L181.13 437.84L180.3 437.76L179.5 437.67L178.74 437.58L178.01 437.47L177.32 437.36L176.65 437.23L176.01 437.1L175.4 436.96L174.82 436.82L174.27 436.67L173.74 436.51L173.24 436.36L172.76 436.19L172.3 436.03L171.87 435.87L171.46 435.7L171.08 435.53L170.71 435.37L170.36 435.2L170.03 435.04L169.72 434.88L169.43 434.73L169.15 434.57L168.89 434.43L168.64 434.29L168.41 434.15L168.19 434.03L167.98 433.91L167.78 433.8L167.6 433.7L167.42 433.61L167.26 433.53L167.1 433.46L166.94 433.41L166.8 433.36L166.69 433.26L166.58 433.16L166.48 433.06L166.37 432.96L166.27 432.85L166.16 432.75L166.06 432.64L165.96 432.54L165.86 432.43L165.77 432.32L165.67 432.21L165.58 432.09L165.48 431.98L165.39 431.87L165.3 431.75L165.21 431.64L165.12 431.52L165.03 431.4L164.95 431.28L164.86 431.16L164.78 431.04L164.7 430.92L164.62 430.8L164.54 430.68L164.46 430.55L164.38 430.43L164.31 430.3L164.24 430.17L164.16 430.05L164.09 429.92L164.02 429.79L163.96 429.66L163.89 429.53L163.83 429.39L163.76 429.26L163.7 429.13L163.64 428.99L163.58 428.86L163.52 428.72L163.47 428.59L163.34 428.27L163.21 427.96L163.1 427.63L162.99 427.31L162.88 426.98L162.78 426.65L162.69 426.32L162.6 425.99L162.52 425.66L162.44 425.33L162.37 425L162.3 424.67L162.24 424.34L162.18 424.01L162.12 423.69L162.07 423.37L162.03 423.06L161.98 422.74L161.94 422.44L161.9 422.14L161.87 421.84L161.84 421.55L161.81 421.27L161.78 420.99L161.76 420.72L161.73 420.47L161.71 420.22L161.69 419.98L161.67 419.74L161.66 419.52L161.64 419.32L161.63 419.12L161.61 418.93L161.6 418.76L161.59 418.6L161.57 418.45L161.56 418.32L161.55 418.2L161.53 418.1L161.52 418.01L161.52 417.97L161.52 417.94L161.52 417.9L161.52 417.87L161.52 417.83L161.52 417.79L161.51 417.76L161.51 417.68L161.51 417.65L161.51 417.61L161.51 417.58L161.51 417.54L161.51 417.5L161.51 417.47L161.51 417.43L161.51 417.4L161.51 417.32L161.51 417.29L161.5 417.25L161.5 417.21L161.5 417.18L161.5 417.14L161.5 417.11L161.5 417.07L161.5 417.03L161.5 416.96L161.5 416.93L161.5 416.89L161.5 416.85L161.5 416.82L161.5 416.78L161.5 416.74L161.5 416.71L161.5 416.67L161.5 416.6L161.5 416.56L161.5 278.79L161.68 278.76L161.86 278.73L162.05 278.7L162.24 278.67L162.43 278.64L162.63 278.61L162.82 278.58L163.02 278.54L163.22 278.51L163.41 278.48L163.61 278.45L163.81 278.42L164.01 278.39L164.21 278.35L164.4 278.32L164.6 278.29L164.79 278.26L164.98 278.23L165.17 278.2L165.36 278.17L165.54 278.15L165.72 278.12L165.89 278.09L166.06 278.06L166.23 278.04L166.39 278.01L166.55 277.99L166.7 277.96L166.84 277.94L167.11 277.9L167.23 277.88L167.35 277.86L167.45 277.85L167.55 277.83L167.64 277.82L167.73 277.8L167.8 277.79L167.86 277.78L167.92 277.77L167.98 277.76L168.18 277.73L168.31 277.71L168.51 277.68L168.64 277.66L168.77 277.64L168.97 277.61L169.1 277.59L169.3 277.56L169.43 277.54L169.63 277.51L169.76 277.49L169.89 277.47L170.09 277.44L170.22 277.42L170.42 277.39L170.55 277.37L170.99 277.31L171.43 277.24L171.86 277.18L172.29 277.13L172.72 277.08L173.13 277.03L173.55 276.98L173.95 276.94L174.35 276.9L174.75 276.86L175.13 276.83L175.51 276.79L175.88 276.76L176.25 276.74L176.61 276.71L176.96 276.69L177.3 276.67L177.63 276.65L177.96 276.63L178.28 276.61L178.58 276.6L178.88 276.59L179.17 276.57L179.45 276.56L179.72 276.55L179.98 276.55L180.23 276.54L180.47 276.53L180.7 276.52L180.91 276.52L181.12 276.51L181.31 276.51L181.5 276.5L181.67 276.5L181.83 276.49L181.98 276.49L182.11 276.48L182.23 276.48L182.34 276.47L182.44 276.47L182.6 276.47L182.76 276.47L182.91 276.47L183.07 276.47L183.23 276.47L183.39 276.47L183.55 276.47L183.71 276.48L183.87 276.48L184.03 276.48L184.19 276.49L184.35 276.49L184.51 276.49L184.66 276.5L184.82 276.5L184.98 276.51L185.14 276.52L185.3 276.52L185.46 276.53L185.62 276.54L185.78 276.55L185.94 276.55L186.1 276.56L186.25 276.57L186.41 276.58L186.57 276.59L186.73 276.6L186.89 276.61L187.05 276.62L187.21 276.64L187.37 276.65L187.52 276.66L187.68 276.67L187.84 276.69L188 276.7L188.16 276.72L188.32 276.73L188.48 276.75L188.63 276.76L188.79 276.78L189.27 276.83L189.74 276.89L190.2 276.95L190.64 277.02L191.07 277.09L191.48 277.16L191.89 277.24L192.28 277.32L192.66 277.4L193.02 277.48L193.38 277.57L193.72 277.66L194.06 277.74L194.38 277.83L194.69 277.93L194.99 278.02L195.27 278.11L195.55 278.2L195.82 278.29L196.07 278.38L196.32 278.47L196.56 278.56L196.78 278.65L197 278.74L197.21 278.82L197.4 278.91L197.59 278.99L197.77 279.06L197.94 279.14L198.1 279.21L198.26 279.28L198.4 279.34L198.54 279.4L198.66 279.46L198.78 279.51L198.89 279.56L199 279.6L199.1 279.64L199.18 279.67L199.27 279.69L199.31 279.72L199.36 279.74L199.41 279.77L199.45 279.8L199.5 279.82L199.54 279.85L199.59 279.88L199.64 279.9L199.68 279.93L199.73 279.96L199.77 279.99L199.82 280.02L199.86 280.04L199.91 280.07L199.95 280.1L200 280.13L200.04 280.16L200.09 280.19L200.13 280.21L200.18 280.24L200.22 280.27L200.27 280.3L200.31 280.33L200.36 280.36L200.4 280.39L200.44 280.42L200.49 280.45L200.53 280.48L200.58 280.51L200.62 280.54L200.66 280.58L200.71 280.61L200.75 280.64L200.79 280.67L200.83 280.7L200.88 280.73L200.92 280.76L200.96 280.8L201.01 280.83L201.05 280.86L201.43 281.17L201.79 281.51L202.13 281.86L202.46 282.22L202.77 282.6L203.05 283L203.33 283.41L203.58 283.83L203.83 284.26L204.05 284.7L204.26 285.15L204.46 285.6L204.65 286.06L204.82 286.53L204.98 286.99L205.13 287.46L205.26 287.93L205.39 288.4L205.51 288.87L205.62 289.33L205.72 289.79L205.81 290.24L205.89 290.68L205.97 291.12L206.04 291.54L206.1 291.96L206.16 292.36L206.21 292.75L206.26 293.12L206.31 293.48L206.35 293.82L206.39 294.14L206.43 294.44L206.47 294.73L206.5 294.98L206.54 295.22L206.58 295.43L206.62 295.61L206.65 295.77L206.7 295.9L206.7 295.95L206.7 296L206.7 296.05L206.7 296.1L206.7 296.15L206.71 296.2L206.71 296.25L206.71 296.3L206.71 296.35L206.71 296.4L206.71 296.45L206.72 296.5L206.72 296.55L206.72 296.6L206.72 296.66L206.72 296.71L206.72 296.76L206.72 296.81L206.72 296.86L206.72 296.91L206.73 296.96L206.73 297.01L206.73 297.06L206.73 297.11L206.73 297.16L206.73 297.21L206.73 297.26L206.73 297.31L206.73 297.36L206.73 297.41L206.73 297.47L206.73 297.52L206.73 297.57L206.73 297.62L206.73 297.67L206.73 297.72L206.73 297.77L206.73 297.82L206.73 297.87L206.73 297.92L206.73 339.79L256.36 339.79L256.36 278.79L256.45 278.78L256.54 278.76L256.62 278.75L256.71 278.74L256.79 278.72L256.88 278.71L256.97 278.69L257.05 278.68L257.14 278.66L257.23 278.65L257.31 278.64L257.4 278.62L257.49 278.61L257.57 278.59L257.66 278.58L257.75 278.57L257.83 278.55L257.92 278.54L258.01 278.53L258.09 278.51L258.24 278.49L258.39 278.46L258.54 278.44L258.69 278.42L258.84 278.39L258.99 278.37L259.14 278.34L259.29 278.32L259.44 278.3L259.59 278.27L259.73 278.25L259.88 278.23L260.03 278.2L260.17 278.18L260.31 278.16L260.45 278.14L260.59 278.11L260.73 278.09L260.86 278.07L261 278.05L261.12 278.03L261.25 278.01L261.37 277.99L261.49 277.97L261.61 277.96L261.72 277.94L261.83 277.92L262.03 277.89L262.38 277.84L262.45 277.83L262.59 277.8L262.64 277.8L262.69 277.79L262.74 277.78L262.78 277.77L262.84 277.76L263.04 277.73L263.17 277.71L263.37 277.68L263.5 277.66L263.63 277.64L263.83 277.61L263.96 277.59L264.16 277.56L264.29 277.54L264.49 277.51L264.62 277.49L264.75 277.47L264.95 277.44L265.08 277.42L265.28 277.39L265.41 277.37L265.85 277.31L266.29 277.24L266.73 277.18L267.15 277.13L267.58 277.08L268 277.03L268.41 276.98L268.81 276.94L269.21 276.9L269.61 276.86L269.99 276.83L270.37 276.79L270.75 276.76L271.11 276.74L271.47 276.71L271.82 276.69L272.16 276.67L272.5 276.65L272.82 276.63L273.14 276.61L273.45 276.6L273.74 276.59L274.03 276.57L274.31 276.56L274.58 276.55L274.84 276.55L275.09 276.54L275.33 276.53L275.56 276.52L275.78 276.52L275.98 276.51L276.18 276.51L276.36 276.5L276.53 276.5L276.69 276.49L276.84 276.49L276.97 276.48L277.09 276.48L277.2 276.47L277.3 276.47L277.46 276.47L277.62 276.47L277.78 276.47L277.78 276.47L277.94 276.47ZM394.63 311.36L394.36 311.37L394.1 311.37L393.84 311.37L393.58 311.38L393.33 311.38L393.08 311.39L392.84 311.39L392.59 311.4L392.35 311.41L392.12 311.41L391.89 311.42L391.66 311.43L391.44 311.44L391.22 311.45L391.01 311.45L390.8 311.46L390.6 311.47L390.4 311.48L390.21 311.49L390.02 311.5L389.84 311.51L389.67 311.52L389.5 311.53L389.34 311.54L389.18 311.54L389.03 311.55L388.89 311.56L388.75 311.57L388.5 311.58L388.39 311.59L388.28 311.6L388.18 311.6L388.09 311.61L388 311.61L387.93 311.61L387.86 311.62L387.8 311.62L387.61 311.63L387.42 311.65L387.24 311.66L387.05 311.67L386.86 311.69L386.67 311.7L386.48 311.72L386.3 311.73L386.11 311.75L385.92 311.77L385.73 311.78L385.54 311.8L385.35 311.82L385.16 311.83L384.97 311.85L384.78 311.87L384.59 311.89L384.4 311.9L384.21 311.92L384.02 311.94L383.83 311.96L383.64 311.98L383.45 312L383.26 312.02L383.06 312.04L382.87 312.07L382.68 312.09L382.49 312.11L382.3 312.13L382.11 312.15L381.91 312.18L381.72 312.2L381.53 312.22L381.33 312.25L381.14 312.27L380.95 312.29L380.76 312.32L380.56 312.34L380.37 312.37L380.17 312.4L380.17 402.35L380.32 402.37L380.47 402.4L380.62 402.42L380.76 402.45L380.91 402.47L381.06 402.5L381.21 402.52L381.35 402.55L381.5 402.57L381.64 402.59L381.79 402.61L381.93 402.63L382.07 402.65L382.21 402.67L382.34 402.69L382.48 402.71L382.61 402.73L382.74 402.75L382.87 402.76L383 402.78L383.12 402.8L383.24 402.81L383.36 402.83L383.47 402.84L383.58 402.86L383.69 402.87L383.79 402.88L383.89 402.9L383.98 402.91L384.07 402.92L384.24 402.94L384.32 402.95L384.39 402.96L384.45 402.97L384.51 402.97L384.57 402.98L384.62 402.99L384.66 402.99L384.7 403L384.76 403.01L384.82 403.01L384.88 403.02L384.94 403.03L385 403.03L385.06 403.04L385.13 403.05L385.19 403.05L385.25 403.06L385.31 403.07L385.37 403.07L385.43 403.08L385.49 403.09L385.56 403.09L385.62 403.1L385.68 403.11L385.74 403.11L385.8 403.12L385.86 403.12L385.92 403.13L385.99 403.14L386.05 403.14L386.11 403.15L386.17 403.16L386.23 403.16L386.29 403.17L386.35 403.17L386.42 403.18L386.48 403.19L386.54 403.19L386.6 403.2L386.66 403.2L386.72 403.21L386.78 403.22L386.85 403.22L386.91 403.23L386.97 403.23L387.03 403.24L387.09 403.25L387.15 403.25L387.46 403.28L387.76 403.31L388.06 403.33L388.35 403.36L388.64 403.38L388.92 403.4L389.2 403.42L389.47 403.44L389.74 403.45L390 403.47L390.26 403.48L390.51 403.5L390.75 403.51L390.99 403.52L391.22 403.53L391.45 403.54L391.67 403.55L391.88 403.56L392.09 403.57L392.29 403.58L392.49 403.58L392.68 403.59L392.86 403.59L393.03 403.6L393.2 403.6L393.37 403.61L393.52 403.61L393.67 403.61L393.82 403.61L393.95 403.62L394.08 403.62L394.2 403.62L394.32 403.62L394.42 403.63L394.52 403.63L394.61 403.63L394.7 403.63L394.78 403.63L394.85 403.64L394.91 403.64L395.25 403.64L395.59 403.64L395.93 403.64L396.27 403.63L396.61 403.62L396.94 403.61L397.28 403.6L397.62 403.58L397.96 403.57L398.3 403.55L398.64 403.52L398.97 403.5L399.31 403.47L399.65 403.44L399.99 403.4L400.32 403.37L400.66 403.33L401 403.29L401.33 403.25L401.67 403.2L402 403.15L402.34 403.1L402.67 403.05L403.01 402.99L403.34 402.93L403.67 402.87L404.01 402.81L404.34 402.74L404.67 402.68L405 402.6L405.33 402.53L405.67 402.46L406 402.38L406.32 402.3L406.65 402.21L406.98 402.13L407.31 402.04L407.64 401.95L407.96 401.86L408.29 401.76L408.73 401.63L409.17 401.48L409.61 401.34L410.05 401.18L410.48 401.02L410.91 400.86L411.34 400.69L411.77 400.51L412.19 400.33L412.61 400.15L413.03 399.96L413.45 399.76L413.86 399.56L414.27 399.35L414.68 399.14L415.09 398.93L415.49 398.7L415.89 398.48L416.29 398.24L416.68 398.01L417.07 397.77L417.46 397.52L417.84 397.27L418.22 397.01L418.6 396.75L418.98 396.48L419.35 396.21L419.72 395.94L420.08 395.66L420.44 395.37L420.8 395.08L421.16 394.79L421.51 394.49L421.85 394.18L422.2 393.88L422.54 393.56L422.87 393.24L423.21 392.92L423.53 392.6L423.86 392.27L424.14 391.97L424.41 391.68L424.68 391.38L424.95 391.08L425.21 390.77L425.47 390.46L425.72 390.15L425.98 389.84L426.22 389.53L426.47 389.21L426.71 388.89L426.95 388.56L427.18 388.24L427.41 387.91L427.64 387.58L427.86 387.24L428.08 386.91L428.29 386.57L428.51 386.23L428.71 385.88L428.92 385.54L429.12 385.19L429.31 384.84L429.5 384.49L429.69 384.13L429.87 383.78L430.05 383.42L430.23 383.06L430.4 382.7L430.57 382.33L430.73 381.96L430.89 381.6L431.05 381.22L431.2 380.85L431.35 380.48L431.49 380.1L431.63 379.72L431.76 379.34L431.89 378.96L432.02 378.58L432.23 377.92L432.44 377.27L432.63 376.61L432.81 375.95L432.98 375.29L433.14 374.63L433.29 373.97L433.43 373.31L433.56 372.65L433.68 372L433.8 371.36L433.9 370.71L434 370.08L434.09 369.45L434.17 368.83L434.25 368.22L434.32 367.61L434.38 367.02L434.44 366.44L434.49 365.87L434.54 365.31L434.58 364.76L434.62 364.23L434.66 363.72L434.69 363.21L434.71 362.73L434.74 362.26L434.76 361.82L434.78 361.39L434.8 360.98L434.82 360.59L434.84 360.22L434.85 359.88L434.87 359.55L434.88 359.25L434.9 358.98L434.91 358.73L434.93 358.51L434.95 358.31L434.97 358.15L434.96 357.01L434.94 355.91L434.9 354.83L434.85 353.78L434.79 352.76L434.71 351.76L434.63 350.79L434.53 349.85L434.42 348.94L434.3 348.05L434.18 347.18L434.05 346.35L433.91 345.54L433.76 344.75L433.61 343.99L433.45 343.25L433.29 342.54L433.13 341.86L432.97 341.19L432.8 340.56L432.63 339.94L432.46 339.35L432.3 338.78L432.13 338.24L431.97 337.72L431.81 337.22L431.65 336.75L431.5 336.29L431.35 335.86L431.21 335.45L431.07 335.07L430.94 334.7L430.82 334.36L430.71 334.03L430.61 333.73L430.52 333.45L430.44 333.19L430.37 332.94L430.32 332.72L430.28 332.52L430.16 332.26L430.04 332.01L429.92 331.75L429.8 331.5L429.67 331.24L429.55 330.99L429.42 330.74L429.29 330.49L429.16 330.24L429.02 329.99L428.89 329.74L428.75 329.5L428.61 329.25L428.47 329.01L428.32 328.77L428.18 328.53L428.03 328.29L427.88 328.05L427.73 327.81L427.57 327.57L427.42 327.34L427.26 327.11L427.1 326.87L426.94 326.64L426.78 326.41L426.61 326.18L426.45 325.96L426.28 325.73L426.11 325.5L425.94 325.28L425.76 325.06L425.59 324.84L425.41 324.62L425.23 324.4L425.05 324.18L424.87 323.97L424.68 323.76L424.49 323.54L424.31 323.33L424.12 323.12L423.66 322.64L423.2 322.17L422.73 321.7L422.26 321.25L421.77 320.8L421.28 320.37L420.78 319.94L420.27 319.53L419.76 319.12L419.24 318.72L418.71 318.33L418.18 317.96L417.64 317.59L417.1 317.23L416.54 316.89L415.98 316.55L415.42 316.22L414.85 315.91L414.28 315.6L413.7 315.3L413.11 315.02L412.52 314.75L411.92 314.48L411.32 314.23L410.72 313.99L410.11 313.76L409.49 313.54L408.87 313.33L408.25 313.13L407.62 312.94L406.99 312.77L406.36 312.6L405.72 312.45L405.08 312.31L404.44 312.18L403.79 312.06L403.14 311.96L402.49 311.86L401.83 311.78L401.17 311.71L401.02 311.69L400.87 311.68L400.72 311.66L400.58 311.64L400.43 311.63L400.28 311.61L400.13 311.6L399.98 311.58L399.83 311.57L399.68 311.56L399.53 311.54L399.38 311.53L399.23 311.52L399.08 311.51L398.93 311.5L398.78 311.48L398.63 311.47L398.48 311.46L398.33 311.46L398.18 311.45L398.03 311.44L397.87 311.43L397.72 311.42L397.57 311.41L397.42 311.41L397.27 311.4L397.12 311.4L396.97 311.39L396.82 311.39L396.67 311.38L396.52 311.38L396.37 311.37L396.22 311.37L396.07 311.37L395.92 311.37L395.77 311.36L395.62 311.36L395.47 311.36L395.32 311.36L395.17 311.36L394.9 311.36L394.9 311.36L394.63 311.36ZM322.96 90.12L323.65 90.22L324.33 90.34L325.01 90.49L325.68 90.66L326.35 90.87L327.01 91.1L327.66 91.35L328.31 91.64L328.95 91.95L329.58 92.29L330.2 92.65L330.8 93.04L331.4 93.46L331.99 93.91L332.56 94.38L333.12 94.88L333.67 95.41L455.94 217.69L456.78 218.57L457.54 219.49L458.23 220.42L458.85 221.38L459.39 222.36L459.87 223.35L460.27 224.35L460.61 225.37L460.89 226.39L461.1 227.42L461.24 228.45L461.32 229.49L461.34 230.52L461.3 231.55L461.2 232.57L461.05 233.58L460.83 234.58L460.76 234.84L181.04 234.84L180.97 234.58L180.75 233.58L180.6 232.57L180.5 231.55L180.46 230.52L180.48 229.49L180.56 228.45L180.71 227.42L180.91 226.39L181.19 225.37L181.53 224.35L181.93 223.35L182.41 222.36L182.95 221.38L183.57 220.42L184.26 219.49L185.02 218.57L185.86 217.69L308.13 95.41L308.68 94.88L309.24 94.38L309.81 93.91L310.4 93.46L311 93.04L311.6 92.65L312.22 92.29L312.85 91.95L313.49 91.64L314.14 91.35L314.79 91.1L315.46 90.87L316.12 90.66L316.8 90.49L317.47 90.34L318.15 90.22L318.84 90.12L319.52 90.05L320.21 90.01L320.9 90L321.59 90.01L322.28 90.05L322.28 90.05L322.96 90.12Z" id="bh9JBV6DY"></path></defs><g><g><g><use xlink:href="#iJ72df5az" opacity="1" fill="#000000" fill-opacity="0"></use></g><g><use xlink:href="#bh9JBV6DY" opacity="1" fill="#ffffff" fill-opacity="1"></use><g><use xlink:href="#bh9JBV6DY" opacity="1" fill-opacity="0" stroke="#000000" stroke-width="1" stroke-opacity="0"></use></g></g></g></g></svg>
