<svg xmlns="http://www.w3.org/2000/svg" xmlns:xlink="http://www.w3.org/1999/xlink" width="640" height="640"><defs><path d="M0 0h643v643H0V0z" id="a"/><path d="m520.57 339.28 1.35.19 1.33.24 1.31.29 1.3.34 1.26.38 1.25.44 1.22.48 1.2.53 1.17.57 1.14.61 1.12.66 1.08.69 1.06.74 1.02.78.99.82.96.85.93.89.89.92.85.96.82.99.77 1.03.74 1.05.7 1.09.66 1.11.61 1.15.57 1.17.53 1.19.48 1.23.43 1.24.39 1.27.34 1.29.29 1.31.24 1.34.19 1.35.13 1.37.08 1.39.03 1.4v73.9l-.09 4.25-.25 4.2-.42 4.16-.59 4.11-.74 4.06-.9 4-1.06 3.95-1.2 3.88-1.35 3.81-1.5 3.75-1.63 3.67-1.77 3.6-1.9 3.52-2.04 3.43-2.16 3.35-2.28 3.26-2.4 3.16-2.52 3.07-2.63 2.97-2.75 2.87-2.85 2.76-2.95 2.65-3.05 2.53-3.15 2.42-3.24 2.3-3.34 2.18-3.42 2.04-3.5 1.92-3.58 1.79-3.66 1.64-3.74 1.51-3.8 1.36-3.87 1.21-3.94 1.07-3.99.91-4.05.75-4.11.59-4.15.43-4.2.25-4.25.09H193.47l-4.28-.09-4.24-.25-4.18-.43-4.13-.59-4.08-.75-4.02-.91-3.96-1.07-3.89-1.21-3.82-1.36-3.76-1.51-3.68-1.64-3.6-1.79-3.51-1.92-3.44-2.04-3.35-2.18-3.25-2.3-3.16-2.42-3.07-2.53-2.96-2.65-2.86-2.76-2.75-2.87-2.64-2.97-2.52-3.07-2.41-3.16-2.29-3.26-2.16-3.35-2.04-3.43-1.91-3.52-1.77-3.6-1.64-3.67-1.49-3.75-1.35-3.81-1.21-3.88-1.05-3.95-.91-4-.74-4.06-.59-4.11-.42-4.16-.25-4.2-.09-4.25v-73.9l.03-1.4.08-1.39.14-1.37.19-1.35.25-1.34.3-1.31.34-1.29.4-1.27.45-1.24.49-1.23.53-1.19.59-1.17.62-1.15.67-1.11.71-1.09.75-1.05.78-1.03.83-.99.86-.96.9-.92.93-.89.97-.85 1-.82 1.02-.78 1.06-.74 1.09-.69 1.12-.66 1.14-.61 1.17-.57 1.19-.53 1.21-.48 1.24-.44 1.25-.38 1.28-.34 1.3-.29 1.31-.24 1.33-.19 1.34-.13 1.36-.09 1.37-.02 1.37.02 1.36.09 1.35.13 1.33.19 1.31.24 1.29.29 1.28.34 1.26.38 1.23.44 1.22.48 1.19.53 1.17.57 1.14.61 1.11.66 1.09.69 1.06.74 1.03.78 1 .82.96.85.94.89.89.92.87.96.82.99.79 1.03.75 1.05.71 1.09.67 1.11.62 1.15.58 1.17.54 1.19.49 1.23.45 1.24.39 1.27.35 1.29.3 1.31.24 1.34.19 1.35.14 1.37.09 1.39.03 1.4v73.9l.03 1.48.09 1.45.14 1.45.21 1.43.26 1.41.31 1.4.37 1.37.42 1.35.48 1.34.52 1.31.57 1.28.62 1.26.67 1.23.71 1.21.76 1.17.8 1.15.85 1.11.88 1.08.92 1.05.97 1 1 .98 1.04.93 1.07.9 1.11.85 1.14.81 1.17.77 1.21.72 1.23.68 1.26.63 1.29.59 1.32.53 1.34.48 1.37.43 1.39.38 1.41.32 1.43.27 1.45.21 1.47.15 1.49.09 1.51.03h253.51l1.47-.03 1.46-.09 1.44-.15 1.42-.21 1.41-.27 1.39-.32 1.36-.38 1.35-.43 1.32-.48 1.29-.53 1.28-.59 1.24-.63 1.22-.68 1.19-.72 1.16-.77 1.13-.81 1.09-.85 1.07-.9 1.03-.93.99-.98.95-1 .92-1.05.88-1.08.84-1.11.79-1.15.76-1.17.71-1.21.66-1.23.62-1.26.57-1.28.52-1.31.47-1.34.42-1.35.37-1.37.31-1.4.26-1.41.21-1.43.14-1.45.09-1.45.03-1.48v-73.9l.03-1.4.09-1.39.14-1.37.19-1.35.24-1.34.3-1.31.35-1.29.39-1.27.45-1.24.49-1.23.54-1.19.58-1.17.62-1.15.67-1.11.71-1.09.75-1.05.79-1.03.82-.99.87-.96.89-.92.94-.89.96-.85 1-.82 1.03-.78 1.06-.74 1.09-.69 1.11-.66 1.14-.61 1.17-.57 1.19-.53 1.22-.48 1.23-.44 1.26-.38 1.28-.34 1.29-.29 1.31-.24 1.33-.19 1.35-.13 1.36-.09 1.37-.02 1.4.02 1.39.09 1.37.13zm-126.46-64.36.51.01.51.01.51.01.51.01.51.01.51.02.51.02.51.02.51.02.51.02.51.03.51.02.51.03.51.03.51.03.51.04.51.03.51.04.51.04.51.04.51.04.51.05.5.04.51.05.51.05.51.05.51.06.5.05.51.06.51.06.51.06.5.06.51.07.51.07.5.06.51.07.41.06.41.06.41.06.41.07.41.06.41.07.41.07.41.07.41.07.41.07.41.07.4.08.41.07.41.08.41.08.4.08.41.09.41.08.4.09.41.08.4.09.41.09.4.1.41.09.4.09.41.1.4.1.4.1.41.1.4.1.4.11.4.1.4.11.4.11.4.11.4.11.4.11.4.11.4.12.4.12.49.14.49.15.49.15.49.16.49.16.48.16.49.16.48.17.48.17.49.18.48.17.47.18.48.18.48.19.47.19.48.19.47.2.47.19.47.21.47.2.47.21.47.21.46.21.47.22.46.22.46.22.46.22.46.23.45.23.46.24.45.23.45.24.46.25.44.24.45.25.45.25.44.26.45.25.44.26.44.27.25.15.25.15.25.16.25.15.25.16.24.16.25.16.24.16.25.16.24.16.25.17.24.16.24.17.25.16.24.17.24.17.24.17.24.17.23.17.24.17.24.18.23.17.24.18.23.17.24.18.23.18.23.18.24.18.23.18.23.18.23.18.22.19.23.18.23.19.22.19.23.19.22.18.23.2.22.19.22.19.52.46.52.46.51.47.5.48.5.48.5.48.48.49.49.49.48.5.47.51.47.5.46.52.46.52.45.52.44.52.44.54.44.53.43.54.42.55.42.55.41.55.41.56.4.56.4.56.39.57.38.58.38.57.37.59.37.58.36.59.35.6.35.59.34.6.33.61.33.61.33.61.31.61.32.62.3.63.3.62.04.1.05.09.04.09.05.1.04.09.05.1.04.09.04.09.05.1.04.09.05.1.04.09.04.1.05.09.04.09.04.1.04.09.05.1.04.09.04.1.05.09.04.1.04.09.04.1.04.09.05.1.04.09.04.1.04.09.04.1.04.1.04.09.04.1.05.09.04.1.04.09.04.1.04.09.04.1.04.1.17.42.17.42.16.43.17.42.16.43.16.43.16.42.15.43.15.43.15.43.15.43.15.44.14.43.14.43.14.44.13.43.13.44.13.43.13.44.13.44.12.44.12.44.12.44.11.44.11.44.11.44.11.45.11.44.1.44.1.45.1.44.09.45.1.44.08.45.09.45.09.45.08.45.08.44.08.45.07.45.11.67.11.67.1.66.09.66.09.65.08.65.08.65.07.64.06.63.07.62.06.62.05.61.05.6.05.59.04.58.04.57.03.56.04.54.03.54.02.52.03.51.02.5.02.48.02.47.01.45.02.43.01.42.01.41.01.38.01.37.01.35.01.32.01.31v.29l.01.27.01.25.01.22.01.21.01.18.01.15v1.33l-.01.45v.44l-.01.44-.01.45-.01.44-.01.44-.02.45-.01.44-.02.44-.02.45-.02.44-.02.44-.03.45-.02.44-.03.44-.03.44-.03.45-.03.44-.04.44-.04.44-.03.44-.04.45-.04.44-.05.44-.04.44-.05.44-.04.44-.05.44-.06.44-.05.44-.05.44-.06.44-.06.44-.06.44-.06.44-.06.44-.07.44-.11.72-.12.71-.12.7-.13.69-.13.67-.13.66-.13.64-.14.64-.14.62-.14.61-.15.59-.14.58-.15.56-.14.56-.15.53-.14.53-.15.51-.14.49-.15.48-.14.47-.14.45-.13.44-.14.42-.13.4-.13.39-.12.38-.12.36-.12.34-.11.33-.11.31-.1.29-.1.28-.09.26-.08.25-.08.23-.07.21-.06.2-.06.17-.05.16-.04.15-.03.08-.01.02-.03.08-.02.06-.01.04-.03.05-.02.07-.02.04-.02.06-.01.03-.21.51-.2.51-.21.5-.22.51-.21.5-.23.5-.22.5-.23.5-.23.49-.24.5-.24.49-.25.49-.24.48-.26.49-.25.48-.26.49-.26.48-.27.47-.27.48-.27.47-.28.47-.28.47-.29.47-.29.46-.29.47-.29.46-.3.45-.3.46-.31.45-.31.45-.31.45-.32.45-.32.44-.32.45-.33.43-.33.44-.34.44-.33.43-.35.43-.34.42-.15.19-.16.19-.16.18-.15.19-.16.18-.16.19-.16.18-.16.19-.16.18-.16.18-.16.18-.16.18-.16.18-.17.18-.16.18-.17.18-.16.18-.17.17-.17.18-.16.18-.17.17-.17.18-.17.17-.17.17-.17.18-.17.17-.17.17-.18.17-.17.17-.17.17-.18.17-.17.17-.18.16-.18.17-.17.17-.18.16-.18.17-.18.16-.18.16-.18.17-.5.44-.5.44-.51.43-.51.43-.52.42-.52.42-.52.41-.53.41-.53.4-.53.4-.54.39-.54.39-.54.38-.55.38-.55.38-.55.37-.56.36-.56.36-.56.35-.57.35-.57.34-.57.34-.58.33-.58.33-.58.32-.58.32-.59.31-.59.31-.59.3-.6.29-.6.29-.6.29-.61.28-.6.27-.61.27-.62.27-.61.25-.62.26-.62.24-.62.24-.12.05-.12.05-.12.04-.13.05-.12.05-.12.04-.12.05-.12.04-.12.05-.13.05-.12.04-.12.05-.12.04-.12.05-.12.04-.13.05-.12.04-.12.04-.12.05-.13.04-.12.04-.12.05-.12.04-.13.04-.12.05-.12.04-.13.04-.12.04-.12.05-.12.04-.13.04-.12.04-.12.04-.13.04-.12.04-.12.04-.13.04-.12.05-.12.04-.13.04-.54.17-.54.16-.55.17-.54.16-.55.16-.54.16-.55.15-.54.15-.55.15-.55.14-.55.14-.55.14-.55.14-.55.13-.56.13-.55.12-.55.13-.56.12-.55.12-.56.11-.55.11-.56.11-.56.11-.55.1-.56.1-.56.1-.56.09-.56.09-.56.09-.56.09-.56.08-.56.08-.57.08-.56.07-.56.07-.57.07-.56.06-.56.06-.57.06-.56.06-.33.03-.33.03-.33.03-.33.03-.33.03-.33.03-.33.02-.33.03-.33.02-.33.03-.33.02-.33.03-.33.02-.33.02-.33.02-.33.02-.33.02-.33.02-.33.01-.33.02-.33.02-.34.01-.33.01-.33.02-.33.01-.33.01-.33.01-.33.01-.33.01-.33.01-.33.01h-.33l-.33.01h-.33l-.34.01h-3.07l-.28-.01h-.55l-.28-.01h-.27l-.27-.01h-.27l-.27-.01h-.26l-.26-.01-.25-.01h-.25l-.25-.01-.24-.01h-.23l-.23-.01-.22-.01h-.22l-.21-.01-.21-.01h-.2l-.19-.01-.18-.01h-.17l-.17-.01h-.16l-.15-.01h-.14l-.13-.01h-.12l-.11-.01h-.28l-.07-.01h-.15l-.12-.01h-.08l-.12-.01h-.2l-.07-.01h-.12l-.08-.01h-.12l-.12-.01h-.19l-.08-.01h-.12l-.25-.02-.25-.01-.24-.01-.25-.01-.25-.02-.25-.01-.24-.01-.25-.02-.25-.01-.24-.02-.25-.02-.25-.01-.25-.02-.24-.02-.25-.01-.25-.02-.24-.02-.25-.02-.25-.02-.24-.02-.25-.02-.25-.02-.24-.02-.25-.02-.25-.03-.24-.02-.25-.02-.25-.02-.24-.03-.25-.02-.25-.03-.24-.02-.25-.03-.25-.02-.24-.03-.25-.03-.24-.02-.25-.03-.25-.03-.24-.03h-.05l-.05-.01-.09-.01-.05-.01-.09-.01h-.05l-.1-.01-.04-.01-.1-.01-.04-.01-.1-.01h-.05l-.09-.01-.05-.01-.04-.01h-.05l-.1-.01-.04-.01-.1-.01-.05-.01-.09-.01h-.05l-.09-.02h-.05l-.09-.01-.05-.01-.09-.01-.05-.01-.46-.06-.44-.06-.45-.05-.44-.07-.43-.06-.43-.06-.42-.06-.41-.06-.41-.06-.4-.06-.4-.06-.39-.06-.38-.06-.37-.06-.37-.06-.35-.06-.35-.06-.34-.05-.34-.06-.32-.05-.31-.06-.31-.05-.29-.05-.29-.05-.27-.05-.27-.05-.25-.04-.25-.05-.23-.04-.22-.04-.21-.04-.2-.03-.19-.04-.18-.03-.16-.03-.15-.03-.14-.02-.12-.02-.11-.02-.1-.02-.2-.03-.2-.04-.2-.04-.2-.04-.2-.04-.21-.05-.2-.04-.2-.04-.2-.04-.2-.05-.2-.04-.19-.05-.2-.04-.2-.05-.2-.05-.2-.05-.2-.04-.2-.05-.2-.05-.2-.05-.19-.05-.2-.06-.2-.05-.2-.05-.19-.05-.2-.06-.2-.05-.2-.06-.19-.06-.2-.05-.2-.06-.19-.06-.2-.06-.19-.05-.2-.06-.2-.06-.19-.07-.2-.06-.19-.06-.2-.06-.08-.03-.08-.03-.09-.03-.08-.02-.08-.03-.09-.03-.08-.03-.09-.03-.08-.03-.08-.02-.09-.03-.08-.03-.08-.03-.09-.03-.08-.03-.08-.03-.09-.03-.08-.03-.08-.03-.08-.03-.09-.03-.08-.03-.08-.03-.09-.03-.08-.03-.08-.03-.08-.03-.09-.03-.08-.03-.08-.04-.08-.03-.09-.03-.08-.03-.08-.03-.08-.03-.09-.04-.08-.03-.08-.03-.08-.03-.08-.04-.19-.06-.18-.07-.18-.07-.18-.07-.18-.08-.17-.07-.18-.08-.18-.07-.18-.08-.17-.08-.18-.08-.17-.08-.18-.08-.17-.08-.18-.09-.17-.08-.17-.09-.17-.09-.18-.09-.17-.09-.17-.09-.17-.09-.16-.09-.17-.1-.17-.1-.17-.09-.16-.1-.17-.1-.16-.1-.17-.1-.16-.11-.16-.1-.16-.11-.17-.1-.16-.11-.16-.11-.15-.11-.16-.11-.16-.11-.16-.11-.53-.42-.51-.42-.47-.43-.45-.43-.42-.45-.4-.44-.37-.46-.35-.45-.33-.46-.31-.46-.28-.47-.26-.46-.25-.46-.22-.46-.21-.46-.19-.45-.18-.45-.16-.45-.15-.44-.13-.43-.12-.43-.11-.42-.1-.41-.09-.4-.08-.38-.07-.38-.07-.37-.06-.35-.05-.33-.05-.32-.05-.31-.04-.29-.04-.27-.05-.25-.04-.24-.04-.21-.04-.19-.05-.17-.05-.15-.05-.12V293.53l.01-.08v-.17l.01-.08v-.17l.01-.09v-.08l.01-.09.01-.08v-.09l.01-.08.01-.09.01-.08.01-.08v-.09l.01-.08.01-.09.01-.08.02-.08.01-.09.01-.08.01-.09.01-.08.02-.08.01-.09.01-.08.02-.08.01-.09.02-.08.01-.09.02-.08.02-.08.02-.08.03-.16.04-.16.04-.15.04-.15.04-.15.04-.14.05-.14.04-.14.05-.13.05-.13.04-.12.05-.12.05-.12.05-.12.05-.11.05-.11.05-.11.04-.1.05-.1.05-.09.05-.09.04-.09.05-.09.04-.08.05-.08.04-.07.04-.08.04-.07.04-.06.04-.06.03-.06.03-.06.03-.05.03-.05.03-.05.02-.04.03-.04.01-.04.02-.03.01-.03.03-.03.02-.04.03-.03.02-.03.02-.04.03-.03.02-.03.03-.04.02-.03.03-.03.02-.04.03-.03.02-.03.03-.03.02-.04.03-.03.03-.03.02-.03.03-.03.02-.04.03-.03.03-.03.02-.03.03-.03.03-.03.03-.04.02-.03.03-.03.03-.03.03-.03.02-.03.03-.03.03-.03.03-.03.03-.03.03-.03.02-.03.03-.03.03-.03.03-.03.21-.2.2-.19.21-.19.22-.18.21-.18.22-.17.22-.17.22-.17.22-.16.23-.15.22-.15.22-.15.23-.14.22-.13.22-.13.21-.13.22-.12.21-.12.21-.11.21-.11.2-.11.2-.1.2-.1.19-.09.18-.09.18-.08.17-.08.17-.08.16-.07.15-.07.15-.07.14-.06.12-.06.12-.05.12-.06.1-.04.09-.05.08-.04.07-.04.06-.03.05-.02.02-.01.05-.02.05-.02.02-.01.05-.01.05-.02.02-.01.05-.02.05-.02.02-.01.05-.01.05-.02.05-.02.02-.01.05-.02.05-.01.02-.01.05-.02.05-.02.02-.01.05-.01.05-.02.02-.01.53-.17.53-.16.53-.17.53-.16.53-.15.53-.16.53-.15.53-.15.53-.15.54-.14.53-.14.54-.14.53-.14.54-.13.54-.13.53-.13.54-.12.54-.12.54-.12.54-.12.54-.11.54-.11.55-.11.54-.1.54-.11.54-.1.55-.09.54-.1.55-.09.54-.09.55-.08.55-.08.54-.08.55-.08.55-.08.55-.07.55-.07.55-.06.54-.06.55-.06.05-.01.05-.01h.05l.05-.01h.05l.04-.01h.05l.05-.01h.05l.05-.01h.05l.04-.01h.05l.05-.01h.05l.05-.01h.04l.05-.01h.05l.05-.01h.05l.05-.01h.04l.05-.01h.05l.05-.01h.05l.05-.01h.09l.05-.01h.05l.05-.01h.05l.04-.01h.05l.05-.01h.05l.05-.01h.05l.86-.08.84-.08.83-.07.81-.06.79-.07.78-.06.76-.05.75-.06.72-.05.72-.04.69-.05.68-.04.65-.04.65-.03.62-.03.61-.03.59-.03.57-.03.55-.02.54-.02.52-.02.5-.02.48-.02.47-.01.45-.02.43-.01.41-.01.39-.01.37-.01.36-.01.33-.01.32-.01.3-.01h.28l.27-.01.24-.01.22-.01h.21l.18-.01.17-.01h3.36zm-116.17 1.55h.47l.16.01h.32l.16.01h.16l.16.01h.16l.16.01h.16l.15.01.16.01h.16l.16.01.16.01.16.01.16.01.16.01.16.01.16.01.15.01.16.01.16.01.16.02.16.01.16.01.16.02.15.01.16.02.16.01.16.02.16.01.16.02.16.01.5.06.48.07.47.07.46.07.45.08.43.08.42.09.4.09.4.09.38.09.36.1.36.1.34.1.33.1.32.1.31.11.3.1.28.1.28.11.26.1.25.1.24.1.23.1.23.1.21.1.2.09.19.09.19.09.17.08.16.09.16.07.15.08.14.06.13.07.12.06.11.05.11.05.1.04.09.03.08.03.04.02.04.03.04.02.04.03.03.02.04.02.04.03.04.02.03.03.04.02.04.03.03.02.04.03.04.02.04.03.03.02.04.03.04.02.03.03.04.03.04.02.03.03.04.03.03.02.04.03.04.02.03.03.04.03.03.03.04.02.03.03.04.03.03.02.04.03.04.03.03.03.04.03.03.02.04.03.03.03.28.24.27.24.27.26.26.27.25.28.25.29.24.29.23.31.22.32.22.33.21.33.2.35.2.36.18.37.19.38.17.38.17.4.16.41.15.42.14.43.14.43.13.45.13.46.12.47.11.48.1.48.1.5.08.51.09.52.07.53.07.53.06.55.05.56.05.57.04.58.03.58.02.6.02.61.01.62.01.63v137.25l-.17.05-.17.04-.17.04-.18.05-.18.04-.18.04-.18.04-.19.04-.19.04-.19.04-.19.04-.19.04-.19.03-.19.04-.18.04-.19.03-.19.04-.18.03-.19.03-.18.03-.17.03-.18.03-.17.03-.16.03-.16.03-.16.02-.15.03-.15.02-.14.02-.13.03-.13.02-.12.02-.12.01-.1.02-.1.02-.09.01-.08.01-.07.02-.06.01-.05.01-.07.01-.06.01-.07.01-.06.01-.07.01h-.06l-.07.01-.07.01-.06.01-.07.01-.06.01-.07.01-.06.01-.07.01-.07.01-.06.01-.07.01-.06.01-.07.01-.07.01h-.06l-.07.01-.06.01-.07.01-.06.01-.07.01-.07.01-.06.01-.07.01h-.06l-.07.01-.07.01-.06.01-.07.01-.06.01-.07.01-.06.01h-.07l-.07.01-.06.01-.45.06-.44.05-.43.05-.43.05-.43.04-.42.05-.42.04-.41.03-.41.04-.4.03-.39.03-.39.03-.38.02-.37.03-.37.02-.36.02-.35.02-.34.01-.33.02-.33.01-.32.01-.3.01-.3.01-.29.01-.28.01-.27.01-.26.01h-.24l-.24.01h-.23l-.21.01h-.2l-.19.01h-.34l-.16.01H281l-.13.01h-.11l-.1.01-1.01-.01-.97-.02-.93-.04-.9-.05-.86-.06-.83-.08-.79-.09-.76-.09-.73-.11-.7-.11-.67-.13-.64-.13-.61-.14-.58-.14-.55-.15-.53-.16-.5-.15-.48-.17-.45-.16-.43-.16-.41-.17-.39-.17-.37-.16-.35-.17-.32-.16-.32-.16-.29-.15-.28-.16-.26-.14-.25-.14-.23-.14-.22-.12-.21-.12-.19-.11-.19-.1-.18-.09-.16-.08-.16-.07-.15-.05-.15-.05-.11-.1-.1-.1-.11-.1-.11-.1-.1-.11-.1-.1-.1-.11-.1-.1-.1-.11-.1-.11-.1-.11-.09-.12-.1-.11-.09-.11-.09-.12-.09-.11-.09-.12-.08-.12-.09-.12-.09-.12-.08-.12-.08-.12-.08-.12-.08-.12-.08-.13-.07-.12-.08-.13-.07-.13-.07-.12-.07-.13-.07-.13-.07-.13-.07-.13-.06-.14-.07-.13-.06-.13-.06-.14-.06-.13-.05-.14-.06-.13-.13-.32-.12-.31-.12-.33-.11-.32-.1-.33-.1-.33-.1-.33-.08-.33-.09-.33-.07-.33-.08-.33-.07-.33-.06-.33-.06-.33-.05-.32-.05-.32-.05-.31-.05-.32-.04-.3-.03-.3-.04-.3-.03-.29-.03-.28-.03-.28-.02-.27-.03-.25-.02-.25-.02-.24-.01-.24-.02-.22-.02-.2-.01-.2-.01-.19-.02-.17-.01-.16-.01-.15-.02-.13-.01-.12-.01-.1-.02-.09v-.25l-.01-.08v-.61l-.01-.04v-41.57h-49.63v60.23l-.16.05-.17.04-.17.04-.18.05-.18.04-.18.04-.19.04-.18.04-.19.04-.19.04-.19.04-.19.04-.19.03-.19.04-.19.04-.18.03-.19.04-.19.03-.18.03-.18.03-.18.03-.17.03-.17.03-.17.03-.16.03-.15.02-.16.03-.14.02-.14.02-.14.03-.12.02-.12.02-.12.01-.1.02-.1.02-.09.01-.08.01-.07.02-.06.01-.05.01-.07.01-.06.01-.07.01-.07.01-.06.01h-.07l-.06.01-.07.01-.06.01-.07.01-.07.01-.06.01-.07.01-.06.01-.07.01-.06.01-.07.01-.07.01-.06.01-.07.01h-.06l-.07.01-.07.01-.06.01-.07.01-.06.01-.07.01-.06.01-.07.01h-.07l-.06.01-.07.01-.06.01-.07.01-.06.01-.07.01-.07.01h-.06l-.07.01-.06.01-.45.06-.44.05-.43.05-.44.05-.42.04-.43.05-.41.04-.41.03-.41.04-.4.03-.39.03-.39.03-.38.02-.37.03-.37.02-.36.02-.35.02-.34.01-.34.02-.32.01-.32.01-.31.01-.3.01-.28.01-.28.01-.27.01-.26.01h-.25l-.23.01h-.23l-.21.01h-.2l-.19.01h-.35l-.15.01h-.14l-.12.01h-.11l-.1.01-1.01-.01-.97-.02-.94-.04-.89-.05-.86-.06-.83-.08-.8-.09-.76-.09-.73-.11-.69-.11-.67-.13-.64-.13-.61-.14-.58-.14-.55-.15-.53-.16-.5-.15-.48-.17-.46-.16-.43-.16-.41-.17-.38-.17-.37-.16-.35-.17-.33-.16-.31-.16-.29-.15-.28-.16-.26-.14-.25-.14-.23-.14-.22-.12-.21-.12-.2-.11-.18-.1-.18-.09-.16-.08-.16-.07-.16-.05-.14-.05-.11-.1-.11-.1-.1-.1-.11-.1-.1-.11-.11-.1-.1-.11-.1-.1-.1-.11-.09-.11-.1-.11-.09-.12-.1-.11-.09-.11-.09-.12-.09-.11-.09-.12-.09-.12-.08-.12-.09-.12-.08-.12-.08-.12-.08-.12-.08-.12-.08-.13-.08-.12-.07-.13-.07-.13-.08-.12-.07-.13-.07-.13-.06-.13-.07-.13-.06-.14-.07-.13-.06-.13-.06-.14-.06-.13-.06-.14-.05-.13-.13-.32-.13-.31-.11-.33-.11-.32-.11-.33-.1-.33-.09-.33-.09-.33-.08-.33-.08-.33-.07-.33-.07-.33-.06-.33-.06-.33-.06-.32-.05-.32-.04-.31-.05-.32-.04-.3-.04-.3-.03-.3-.03-.29-.03-.28-.03-.28-.02-.27-.03-.25-.02-.25-.02-.24-.02-.24-.01-.22-.02-.2-.01-.2-.02-.19-.01-.17-.01-.16-.02-.15-.01-.13-.01-.12-.02-.1-.01-.09v-.22l-.01-.03v-.47l-.01-.04V278.79l.18-.03.18-.03.19-.03.19-.03.19-.03.2-.03.19-.03.2-.04.2-.03.19-.03.2-.03.2-.03.2-.03.2-.04.19-.03.2-.03.19-.03.19-.03.19-.03.19-.03.18-.02.18-.03.17-.03.17-.03.17-.02.16-.03.16-.02.15-.03.14-.02.27-.04.12-.02.12-.02.1-.01.1-.02.09-.01.09-.02.07-.01.06-.01.06-.01.06-.01.2-.03.13-.02.2-.03.13-.02.13-.02.2-.03.13-.02.2-.03.13-.02.2-.03.13-.02.13-.02.2-.03.13-.02.2-.03.13-.02.44-.06.44-.07.43-.06.43-.05.43-.05.41-.05.42-.05.4-.04.4-.04.4-.04.38-.03.38-.04.37-.03.37-.02.36-.03.35-.02.34-.02.33-.02.33-.02.32-.02.3-.01.3-.01.29-.02.28-.01.27-.01h.26l.25-.01.24-.01.23-.01h.21l.21-.01h.19l.19-.01h.17l.16-.01h.15l.13-.01h.12l.11-.01h1.21l.16.01h.32l.16.01h.32l.15.01h.16l.16.01.16.01h.16l.16.01.16.01.16.01h.16l.16.01.15.01.16.01.16.01.16.01.16.01.16.01.16.02.16.01.15.01.16.01.16.02.16.01.16.02.16.01.16.02.15.01.16.02.48.05.47.06.46.06.44.07.43.07.41.07.41.08.39.08.38.08.36.08.36.09.34.09.34.08.32.09.31.1.3.09.28.09.28.09.27.09.25.09.25.09.24.09.22.09.22.09.21.08.19.09.19.08.18.07.17.08.16.07.16.07.14.06.14.06.12.06.12.05.11.05.11.04.1.04.08.03.09.02.04.03.05.02.05.03.04.03.05.02.04.03.05.03.05.02.04.03.05.03.04.03.05.03.04.02.05.03.04.03.05.03.04.03.05.03.04.02.05.03.04.03.05.03.04.03.05.03.04.03.04.03.05.03.04.03.05.03.04.03.04.04.05.03.04.03.04.03.04.03.05.03.04.03.04.04.05.03.04.03.38.31.36.34.34.35.33.36.31.38.28.4.28.41.25.42.25.43.22.44.21.45.2.45.19.46.17.47.16.46.15.47.13.47.13.47.12.47.11.46.1.46.09.45.08.44.08.44.07.42.06.42.06.4.05.39.05.37.05.36.04.34.04.32.04.3.04.29.03.25.04.24.04.21.04.18.03.16.05.13v.25l.01.05v.25l.01.05v.41l.01.05v42.83h49.63v-61l.09-.01.09-.02.08-.01.09-.01.08-.02.09-.01.09-.02.08-.01.09-.02.09-.01.08-.01.09-.02.09-.01.08-.02.09-.01.09-.01.08-.02.09-.01.09-.01.08-.02.15-.02.15-.03.15-.02.15-.02.15-.03.15-.02.15-.03.15-.02.15-.02.15-.03.14-.02.15-.02.15-.03.14-.02.14-.02.14-.02.14-.03.14-.02.13-.02.14-.02.12-.02.13-.02.12-.02.12-.02.12-.01.11-.02.11-.02.2-.03.35-.05.07-.01.14-.03h.05l.05-.01.05-.01.04-.01.06-.01.2-.03.13-.02.2-.03.13-.02.13-.02.2-.03.13-.02.2-.03.13-.02.2-.03.13-.02.13-.02.2-.03.13-.02.2-.03.13-.02.44-.06.44-.07.44-.06.42-.05.43-.05.42-.05.41-.05.4-.04.4-.04.4-.04.38-.03.38-.04.38-.03.36-.02.36-.03.35-.02.34-.02.34-.02.32-.02.32-.02.31-.01.29-.01.29-.02.28-.01.27-.01h.26l.25-.01.24-.01.23-.01h.22l.2-.01h.2l.18-.01h.17l.16-.01h.15l.13-.01h.12l.11-.01h.74zm116.69 34.89-.27.01h-.52l-.26.01h-.25l-.25.01h-.24l-.25.01-.24.01h-.23l-.23.01-.23.01-.22.01-.22.01h-.21l-.21.01-.2.01-.2.01-.19.01-.19.01-.18.01-.17.01-.17.01-.16.01h-.16l-.15.01-.14.01-.14.01-.25.01-.11.01-.11.01h-.1l-.09.01h-.16l-.07.01h-.06l-.19.01-.19.02-.18.01-.19.01-.19.02-.19.01-.19.02-.18.01-.19.02-.19.02-.19.01-.19.02-.19.02-.19.01-.19.02-.19.02-.19.02-.19.01-.19.02-.19.02-.19.02-.19.02-.19.02-.19.02-.2.02-.19.03-.19.02-.19.02-.19.02-.19.02-.2.03-.19.02-.19.02-.2.03-.19.02-.19.02-.19.03-.2.02-.19.03-.2.03v89.95l.15.02.15.03.15.02.14.03.15.02.15.03.15.02.14.03.15.02.14.02.15.02.14.02.14.02.14.02.13.02.14.02.13.02.13.02.13.01.13.02.12.02.12.01.12.02.11.01.11.02.11.01.1.01.1.02.09.01.09.01.17.02.08.01.07.01.06.01h.06l.06.01.05.01h.04l.04.01.06.01h.06l.06.01.06.01h.06l.06.01.07.01h.06l.06.01.06.01h.06l.06.01.06.01h.07l.06.01.06.01h.06l.06.01h.06l.06.01.07.01h.06l.06.01.06.01h.06l.06.01h.06l.07.01.06.01h.06l.06.01h.06l.06.01.06.01h.07l.06.01h.06l.06.01.06.01h.06l.31.03.3.03.3.02.29.03.29.02.28.02.28.02.27.02.27.01.26.02.26.01.25.02.24.01.24.01.23.01.23.01.22.01.21.01.21.01.2.01h.2l.19.01h.18l.17.01h.17l.17.01h.45l.13.01h.37l.1.01h.36l.07.01h1.08l.34-.01.34-.01.33-.01.34-.01.34-.02.34-.01.34-.02.34-.03.33-.02.34-.03.34-.03.34-.04.33-.03.34-.04.34-.04.33-.04.34-.05.33-.05.34-.05.33-.05.34-.06.33-.06.33-.06.34-.06.33-.07.33-.06.33-.08.33-.07.34-.07.33-.08.32-.08.33-.09.33-.08.33-.09.33-.09.32-.09.33-.1.44-.13.44-.15.44-.14.44-.16.43-.16.43-.16.43-.17.43-.18.42-.18.42-.18.42-.19.42-.2.41-.2.41-.21.41-.21.41-.21.4-.23.4-.22.4-.24.39-.23.39-.24.39-.25.38-.25.38-.26.38-.26.38-.27.37-.27.37-.27.36-.28.36-.29.36-.29.36-.29.35-.3.34-.31.35-.3.34-.32.33-.32.34-.32.32-.32.33-.33.28-.3.27-.29.27-.3.27-.3.26-.31.26-.31.25-.31.26-.31.24-.31.25-.32.24-.32.24-.33.23-.32.23-.33.23-.33.22-.34.22-.33.21-.34.22-.34.2-.35.21-.34.2-.35.19-.35.19-.35.19-.36.18-.35.18-.36.18-.36.17-.36.17-.37.16-.37.16-.36.16-.38.15-.37.15-.37.14-.38.14-.38.13-.38.13-.38.13-.38.21-.66.21-.65.19-.66.18-.66.17-.66.16-.66.15-.66.14-.66.13-.66.12-.65.12-.64.1-.65.1-.63.09-.63.08-.62.08-.61.07-.61.06-.59.06-.58.05-.57.05-.56.04-.55.04-.53.04-.51.03-.51.02-.48.03-.47.02-.44.02-.43.02-.41.02-.39.02-.37.01-.34.02-.33.01-.3.02-.27.01-.25.02-.22.02-.2.02-.16-.01-1.14-.02-1.1-.04-1.08-.05-1.05-.06-1.02-.08-1-.08-.97-.1-.94-.11-.91-.12-.89-.12-.87-.13-.83-.14-.81-.15-.79-.15-.76-.16-.74-.16-.71-.16-.68-.16-.67-.17-.63-.17-.62-.17-.59-.16-.57-.17-.54-.16-.52-.16-.5-.16-.47-.15-.46-.15-.43-.14-.41-.14-.38-.13-.37-.12-.34-.11-.33-.1-.3-.09-.28-.08-.26-.07-.25-.05-.22-.04-.2-.12-.26-.12-.25-.12-.26-.12-.25-.13-.26-.12-.25-.13-.25-.13-.25-.13-.25-.14-.25-.13-.25-.14-.24-.14-.25-.14-.24-.15-.24-.14-.24-.15-.24-.15-.24-.15-.24-.16-.24-.15-.23-.16-.23-.16-.24-.16-.23-.16-.23-.17-.23-.16-.22-.17-.23-.17-.23-.17-.22-.18-.22-.17-.22-.18-.22-.18-.22-.18-.22-.18-.21-.19-.21-.19-.22-.18-.21-.19-.21-.46-.48-.46-.47-.47-.47-.47-.45-.49-.45-.49-.43-.5-.43-.51-.41-.51-.41-.52-.4-.53-.39-.53-.37-.54-.37-.54-.36-.56-.34-.56-.34-.56-.33-.57-.31-.57-.31-.58-.3-.59-.28-.59-.27-.6-.27-.6-.25-.6-.24-.61-.23-.62-.22-.62-.21-.62-.2-.63-.19-.63-.17-.63-.17-.64-.15-.64-.14-.64-.13-.65-.12-.65-.1-.65-.1-.66-.08-.66-.07-.15-.02-.15-.01-.15-.02-.14-.02-.15-.01-.15-.02-.15-.01-.15-.02-.15-.01-.15-.01-.15-.02-.15-.01-.15-.01-.15-.01-.15-.01-.15-.02-.15-.01-.15-.01h-.15l-.15-.01-.15-.01-.16-.01-.15-.01-.15-.01h-.15l-.15-.01h-.15l-.15-.01h-.15l-.15-.01h-.15l-.15-.01h-.45l-.15-.01h-1.14zM322.96 90.12l.69.1.68.12.68.15.67.17.67.21.66.23.65.25.65.29.64.31.63.34.62.36.6.39.6.42.59.45.57.47.56.5.55.53 122.27 122.28.84.88.76.92.69.93.62.96.54.98.48.99.4 1 .34 1.02.28 1.02.21 1.03.14 1.03.08 1.04.02 1.03-.04 1.03-.1 1.02-.15 1.01-.22 1-.07.26H181.04l-.07-.26-.22-1-.15-1.01-.1-1.02-.04-1.03.02-1.03.08-1.04.15-1.03.2-1.03.28-1.02.34-1.02.4-1 .48-.99.54-.98.62-.96.69-.93.76-.92.84-.88L308.13 95.41l.55-.53.56-.5.57-.47.59-.45.6-.42.6-.39.62-.36.63-.34.64-.31.65-.29.65-.25.67-.23.66-.21.68-.17.67-.15.68-.12.69-.1.68-.07.69-.04.69-.01.69.01.69.04.68.07z" id="b"/></defs><use xlink:href="#a" fill-opacity="0"/><use xlink:href="#b" fill="#fff"/><use xlink:href="#b" fill-opacity="0" stroke="#000" stroke-opacity="0"/></svg>