<svg xmlns="http://www.w3.org/2000/svg" width="20" height="20"><path fill="#855CD6" fill-rule="evenodd" d="M9.09 5.282a3.816 3.816 0 0 1 3.804 3.806c0 2.1-1.72 3.805-3.805 3.805a3.807 3.807 0 0 1-3.805-3.805c0-2.1 1.705-3.806 3.805-3.806m7.579 9.772-2.122-2.123c-.245-.246-.279-.62-.111-.925.852-1.579 1.06-3.593.144-5.568a5.949 5.949 0 0 0-3.867-3.229 6.104 6.104 0 0 0-7.61 7.017c.403 2.223 2.101 4.093 4.273 4.708a6.08 6.08 0 0 0 4.617-.5.778.778 0 0 1 .928.11l2.136 2.124c.213.228.502.335.807.335.289 0 .578-.107.805-.335a1.146 1.146 0 0 0 0-1.614"/></svg>