<?xml version="1.0" encoding="UTF-8" standalone="no"?>
<svg
   width="20"
   height="20"
   version="1.1"
   id="svg1"
   sodipodi:docname="export.svg"
   inkscape:version="1.4.2 (f4327f4, 2025-05-13)"
   xmlns:inkscape="http://www.inkscape.org/namespaces/inkscape"
   xmlns:sodipodi="http://sodipodi.sourceforge.net/DTD/sodipodi-0.dtd"
   xmlns="http://www.w3.org/2000/svg"
   xmlns:svg="http://www.w3.org/2000/svg">
  <defs
     id="defs1" />
  <sodipodi:namedview
     id="namedview1"
     pagecolor="#ffffff"
     bordercolor="#000000"
     borderopacity="0.25"
     inkscape:showpageshadow="2"
     inkscape:pageopacity="0.0"
     inkscape:pagecheckerboard="true"
     inkscape:deskcolor="#d1d1d1"
     showborder="false"
     inkscape:zoom="18.632264"
     inkscape:cx="0.6708793"
     inkscape:cy="6.547782"
     inkscape:window-width="2560"
     inkscape:window-height="1316"
     inkscape:window-x="-12"
     inkscape:window-y="1878"
     inkscape:window-maximized="1"
     inkscape:current-layer="svg1" />
  <path
     d="m 18,11.812 v 2.579 C 18,16.375 16.395,18 14.417,18 H 5.6 A 3.607,3.607 0 0 1 2,14.39 v -2.578 a 1.17,1.17 0 1 1 2.337,0 v 2.579 A 1.27,1.27 0 0 0 5.6,15.656 h 8.817 c 0.686,0 1.246,-0.578 1.246,-1.265 v -2.579 c 0,-0.656 0.53,-1.172 1.169,-1.172 0.654,0 1.168,0.516 1.168,1.172 z"
     id="path2"
     style="fill:#ffffff;fill-opacity:1" />
  <path
     d="m 5.4417483,6.5335381 4.253,-4.2640005 a 0.619,0.619 0 0 1 0.8900007,0 l 4.251,4.2640005 a 0.63,0.63 0 0 1 -0.452,1.079 h -2.117 l -1.263,5.0159999 a 0.912,0.912 0 0 1 -1.1060007,0.656 0.89,0.89 0 0 1 -0.668,-0.656 l -1.264,-5.0159999 h -2.072 c -0.559,0 -0.856,-0.67 -0.451,-1.078 z"
     id="path1"
     style="fill:#ffffff;fill-opacity:1" />
</svg>
