<svg xmlns="http://www.w3.org/2000/svg" width="16" height="16"><path d="M3.736 1.45a.518.518 0 0 0-.484.535l.083 3.988C3.113 6.456 3 7.033 3 7.714c0 2.76 2.235 3.914 4.993 3.914 2.76 0 5.007-1.154 5.007-3.914 0-.682-.116-1.258-.336-1.74l.084-3.989c0-.44-.494-.693-.84-.43L9.778 3.16c-.494-.262-1.112-.378-1.785-.378-.67 0-1.28.116-1.772.378L4.09 1.555a.529.529 0 0 0-.355-.105z" style="fill:#855cd6;fill-opacity:.50196081;stroke-width:.848244" transform="translate(-1.274 -.114)"/><path d="M6.283 4.602a.518.518 0 0 0-.484.536l.083 3.987c-.222.483-.335 1.06-.335 1.741 0 2.76 2.235 3.914 4.993 3.914 2.76 0 5.007-1.154 5.007-3.914 0-.682-.116-1.258-.336-1.74l.084-3.988c0-.441-.493-.694-.84-.431l-2.13 1.605c-.493-.262-1.112-.378-1.785-.378-.67 0-1.28.116-1.772.378l-2.13-1.605a.529.529 0 0 0-.355-.105Z" style="fill:#855cd6;fill-opacity:1;stroke-width:.848244" transform="translate(-1.274 -.114)"/></svg>