<svg xmlns="http://www.w3.org/2000/svg" viewBox="0 0 135.467 135.467" height="512" width="512"><g font-weight="400" font-family="sans-serif" letter-spacing="0" word-spacing="0"><g style="line-height:1.25"><path d="M103.936 31.746c-.704 3.079-1.232 6.422-1.584 10.029-.087.967 0 2.199.264 3.694.264 1.76.396 2.991.396 3.695 0 2.287-1.495 3.43-4.486 3.43-1.935 0-3.211-.571-3.827-1.715-.088-1.935-.044-4.574.132-7.917.176-3.958.264-6.598.264-7.917-.088 0-.22-.088-.396-.264-8.18.352-15.878.88-23.091 1.583-.176 1.144-.176 2.552 0 4.223l.527 4.75c-.352 2.727-.527 6.774-.527 12.14.263 2.287.395 12.096.395 29.425v9.633c0 1.495.22 2.55.66 3.167h8.181c3.343-.44 5.014.967 5.014 4.222 0 1.935-.923 3.299-2.77 4.09-1.144.44-3.167.528-6.07.265-1.76-.176-3.827-.22-6.202-.132-3.255.44-7.214.791-11.876 1.055-4.75.264-7.653-.396-8.709-1.98-.704-1.055-.704-2.154 0-3.298 1.232-1.935 4.443-2.903 9.633-2.903 2.727 0 4.09-.748 4.09-2.243 0-.792-.044-1.54-.132-2.243 0-2.2.044-4.135.132-5.806.264-4.75.264-11.436 0-20.057-.352-12.491-.22-23.707.396-33.648l-.396-.396c-2.727.176-7.829.132-15.306-.132-.352 0-3.035.176-8.05.528 1.232 8.445 1.936 14.471 2.112 18.078l-.264 3.562c-.088 1.32-1.188 1.98-3.299 1.98-1.671 0-3.079-3.167-4.222-9.5-.528-3.783-1.056-7.61-1.584-11.48 0-.616-.308-1.672-.923-3.168-.528-1.583-.473-2.838-.792-3.562-2.173-4.94 1.671-3.563 5.014-4.09.264 0 .704.043 1.32.131.615.088 1.055.132 1.32.132h32.723c8.093-.352 15.923-1.056 23.488-2.111.528-.264 1.32-.528 2.375-.792 1.847-.176 3.43.264 4.75 1.32 1.32.967 1.76 2.375 1.32 4.222z" fill="none" stroke="#fff" stroke-width="49.99980942"/></g><g style="line-height:1.25"><path d="M103.882 31.755q-1.055 4.618-1.583 10.028-.132 1.452.264 3.695.396 2.64.396 3.695 0 3.43-4.487 3.43-2.903 0-3.826-1.715-.132-2.903.132-7.917.263-5.938.263-7.917-.131 0-.395-.264-12.272.528-23.092 1.583-.264 1.716 0 4.223l.528 4.75q-.528 4.09-.528 12.14.396 3.43.396 29.425v9.633q0 2.243.66 3.167h8.18q5.015-.66 5.015 4.222 0 2.903-2.771 4.09-1.716.66-6.07.265-2.64-.264-6.202-.132-4.882.66-11.876 1.055-7.125.396-8.708-1.98-1.056-1.583 0-3.298 1.847-2.903 9.632-2.903 4.09 0 4.09-2.243 0-1.188-.131-2.243 0-3.3.132-5.806.396-7.126 0-20.057-.528-18.737.396-33.648l-.396-.396q-4.09.264-15.307-.132-.528 0-8.049.528 1.847 12.668 2.111 18.078l-.264 3.562q-.132 1.98-3.298 1.98-2.507 0-4.223-9.5-.792-5.675-1.583-11.48 0-.924-.924-3.168-.792-2.375-.792-3.562 0-3.3 5.015-4.09.395 0 1.32.131.923.132 1.319.132h32.723q12.14-.528 23.488-2.111.792-.396 2.375-.792 2.771-.264 4.75 1.32 1.98 1.451 1.32 4.222z" fill="none" stroke="#ff4c4c" stroke-width="25.00030404"/></g><g style="line-height:1.25"><path d="M103.81 31.766q-1.056 4.619-1.584 10.029-.132 1.451.264 3.694.396 2.64.396 3.695 0 3.43-4.487 3.43-2.903 0-3.826-1.715-.132-2.903.131-7.917.264-5.938.264-7.917-.132 0-.395-.264-12.272.528-23.092 1.584-.264 1.715 0 4.222l.528 4.75q-.528 4.09-.528 12.14.396 3.43.396 29.425v9.633q0 2.243.66 3.167h8.18q5.015-.66 5.015 4.222 0 2.903-2.771 4.09-1.716.66-6.07.265-2.64-.264-6.202-.132-4.882.66-11.876 1.055-7.125.396-8.708-1.979-1.056-1.583 0-3.299 1.847-2.903 9.632-2.903 4.09 0 4.09-2.243 0-1.187-.131-2.243 0-3.299.132-5.806.395-7.125 0-20.057-.528-18.737.395-33.648l-.395-.395q-4.09.263-15.307-.132-.528 0-8.049.527 1.847 12.668 2.111 18.078l-.264 3.563q-.132 1.979-3.298 1.979-2.508 0-4.223-9.5-.792-5.675-1.583-11.48 0-.924-.924-3.167-.792-2.376-.792-3.563 0-3.299 5.014-4.09.396 0 1.32.131.924.132 1.32.132h32.723q12.14-.528 23.488-2.111.792-.396 2.375-.792 2.771-.264 4.75 1.32 1.98 1.451 1.32 4.222z" font-size="148.867" fill="#fff" stroke-width="1.8"/></g></g></svg>
