<?xml version="1.0" encoding="UTF-8" standalone="no"?>
<svg
   xmlns:dc="http://purl.org/dc/elements/1.1/"
   xmlns:cc="http://creativecommons.org/ns#"
   xmlns:rdf="http://www.w3.org/1999/02/22-rdf-syntax-ns#"
   xmlns:svg="http://www.w3.org/2000/svg"
   xmlns="http://www.w3.org/2000/svg"
   xmlns:sodipodi="http://sodipodi.sourceforge.net/DTD/sodipodi-0.dtd"
   xmlns:inkscape="http://www.inkscape.org/namespaces/inkscape"
   sodipodi:docname="favicon.svg"
   inkscape:version="1.0 (4035a4fb49, 2020-05-01)"
   inkscape:export-ydpi="96"
   inkscape:export-xdpi="96"
   inkscape:export-filename="C:\Users\Thomas\Desktop\favicon.png"
   id="svg8"
   version="1.1"
   viewBox="0 0 135.46666 135.46667"
   height="512"
   width="512">
  <defs
     id="defs2" />
  <sodipodi:namedview
     inkscape:window-maximized="1"
     inkscape:window-y="-8"
     inkscape:window-x="1912"
     inkscape:window-height="1017"
     inkscape:window-width="1920"
     units="px"
     showgrid="false"
     inkscape:document-rotation="0"
     inkscape:current-layer="layer1"
     inkscape:document-units="mm"
     inkscape:cy="160.53788"
     inkscape:cx="230.14415"
     inkscape:zoom="0.98994949"
     inkscape:pageshadow="2"
     inkscape:pageopacity="0.0"
     borderopacity="1.0"
     bordercolor="#666666"
     pagecolor="#ffffff"
     id="base" />
  <metadata
     id="metadata5">
    <rdf:RDF>
      <cc:Work
         rdf:about="">
        <dc:format>image/svg+xml</dc:format>
        <dc:type
           rdf:resource="http://purl.org/dc/dcmitype/StillImage" />
        <dc:title />
      </cc:Work>
    </rdf:RDF>
  </metadata>
  <g
     id="layer1"
     inkscape:groupmode="layer"
     inkscape:label="Layer 1">
    <g
       transform="matrix(0.88637803,0,0,0.88637803,7.9005395,9.2508495)"
       style="font-style:normal;font-weight:normal;font-size:148.867px;line-height:1.25;font-family:sans-serif;letter-spacing:0px;word-spacing:0px;fill:none;fill-opacity:1;stroke:#ffffff;stroke-width:56.40934038;stroke-miterlimit:4;stroke-dasharray:none;stroke-opacity:1"
       id="text12"
       aria-label="T">
      <path
         sodipodi:nodetypes="cccssccccccccssccsccccscsscccccccccscccscsscccccc"
         id="path853"
         style="font-style:normal;font-variant:normal;font-weight:normal;font-stretch:normal;font-family:'Black boys on mopeds';-inkscape-font-specification:'Black boys on mopeds';fill:none;fill-opacity:1;stroke:#ffffff;stroke-width:56.4093;stroke-miterlimit:4;stroke-dasharray:none;stroke-opacity:1"
         d="m 108.34581,25.3789 c -0.79395,3.473563 -1.38942,7.244861 -1.7864,11.313892 -0.0992,1.091691 0,2.481117 0.29773,4.168276 0.29773,1.984893 0.4466,3.374319 0.4466,4.168276 0,2.580361 -1.68716,3.870542 -5.06147,3.870542 -2.18339,0 -3.622435,-0.64509 -4.317148,-1.935271 -0.09925,-2.183383 -0.04962,-5.160723 0.14887,-8.93202 0.198487,-4.46601 0.29773,-7.44335 0.29773,-8.93202 -0.09924,0 -0.248107,-0.09924 -0.4466,-0.297734 -9.229753,0.396979 -17.91366,0.992447 -26.05172,1.786404 -0.198493,1.290181 -0.198493,2.878095 0,4.763744 l 0.59546,5.359212 c -0.396973,3.076585 -0.59546,7.64184 -0.59546,13.695765 0.297733,2.580361 0.4466,13.646143 0.4466,33.197344 V 98.4726 c 0,1.68716 0.24811,2.8781 0.74433,3.57281 h 9.22976 c 3.771293,-0.49623 5.65694,1.09169 5.65694,4.76374 0,2.18339 -1.042067,3.72168 -3.1262,4.61488 -1.290187,0.49623 -3.572817,0.59547 -6.84789,0.29774 -1.984893,-0.19849 -4.317143,-0.24812 -6.99675,-0.14887 -3.672053,0.49622 -8.138063,0.8932 -13.39803,1.19093 -5.359207,0.29774 -8.634279,-0.44659 -9.825218,-2.233 -0.793957,-1.19093 -0.793957,-2.43149 0,-3.72168 1.389425,-2.18338 5.011855,-3.27507 10.867288,-3.27507 3.076587,0 4.61488,-0.84358 4.61488,-2.53074 0,-0.8932 -0.04962,-1.73678 -0.14887,-2.53074 0,-2.48112 0.04962,-4.664503 0.14887,-6.55015 0.297733,-5.359213 0.297733,-12.901808 0,-22.627784 -0.39698,-14.092743 -0.248113,-26.746439 0.4466,-37.961086 l -0.4466,-0.446601 c -3.076587,0.198489 -8.832777,0.148867 -17.268572,-0.148867 -0.396979,0 -3.423941,0.198489 -9.080887,0.595468 1.389425,9.527488 2.183383,16.325748 2.381872,20.394779 l -0.297734,4.01941 c -0.09924,1.48867 -1.339803,2.233005 -3.721676,2.233005 -1.885649,0 -3.473563,-3.572808 -4.763744,-10.718425 -0.595468,-4.267521 -1.190936,-8.584664 -1.786404,-12.951429 0,-0.694713 -0.347356,-1.885649 -1.042069,-3.572808 -0.595468,-1.786404 -0.53348,-3.201846 -0.893202,-4.019409 -2.45196,-5.572718 1.885649,-4.019409 5.656946,-4.614877 0.297734,0 0.793957,0.04962 1.48867,0.148867 0.694713,0.09924 1.190936,0.148867 1.48867,0.148867 h 15.48217 21.43685 c 9.130507,-0.396979 17.96328,-1.190936 26.49832,-2.381872 0.595473,-0.297734 1.488678,-0.595468 2.679608,-0.893202 2.08414,-0.19849 3.87054,0.297733 5.35921,1.48867 1.48867,1.091691 1.9849,2.679606 1.48867,4.763744 z" />
    </g>
    <g
       inkscape:export-ydpi="96"
       inkscape:export-xdpi="96"
       transform="matrix(0.81413335,0,0,0.81413335,12.72597,14.026039)"
       aria-label="T"
       id="g860"
       style="font-style:normal;font-weight:normal;font-size:148.867px;line-height:1.25;font-family:sans-serif;letter-spacing:0px;word-spacing:0px;fill:none;fill-opacity:1;stroke:#ff4c4c;stroke-width:30.70750019;stroke-miterlimit:4;stroke-dasharray:none;stroke-opacity:1">
      <path
         d="m 111.96729,21.776581 q -1.29661,5.672702 -1.94492,12.317866 -0.16208,1.782849 0.32415,4.538161 0.48623,3.241544 0.48623,4.538161 0,4.214007 -5.51062,4.214007 -3.5657,0 -4.70024,-2.107004 -0.16208,-3.565698 0.16208,-9.72463 0.32415,-7.293474 0.32415,-9.724631 -0.16207,0 -0.48623,-0.324155 -15.073176,0.648309 -28.3635,1.944927 -0.324161,2.107003 0,5.186469 l 0.6483,5.834779 q -0.6483,5.024392 -0.6483,14.911102 0.48623,4.214006 0.48623,36.143214 v 11.831633 q 0,2.75531 0.81038,3.88985 h 10.048792 q 6.158927,-0.81039 6.158927,5.18647 0,3.5657 -3.403614,5.0244 -2.107013,0.81039 -7.455559,0.32416 -3.241543,-0.32416 -7.617628,-0.16208 -5.996857,0.81038 -14.586946,1.29661 -8.75216,0.48624 -10.69709,-2.43115 -1.296617,-1.94493 0,-4.05194 2.26908,-3.56569 11.831631,-3.56569 5.024396,0 5.024396,-2.75532 0,-1.45869 -0.162081,-2.75531 0,-4.051935 0.162081,-7.131398 0.48623,-8.75217 0,-24.635731 -0.648311,-23.014961 0.48623,-41.329683 l -0.48623,-0.486231 q -5.024396,0.324154 -18.800953,-0.162077 -0.648309,0 -9.886708,0.648308 2.26908,15.55941 2.593235,22.204574 0,0 -0.324155,4.376085 -0.162077,2.431158 -4.05193,2.431158 -3.079467,0 -5.18647,-11.669558 -0.972463,-6.969319 -1.944926,-14.100715 0,-1.13454 -1.134541,-3.889852 -0.972463,-2.91739 -0.972463,-4.376084 0,-4.05193 6.158933,-5.024393 0.486232,0 1.620772,0.162077 1.13454,0.162078 1.620772,0.162078 h 16.856029 q 23.339116,0 23.339116,0 14.911096,-0.648309 28.84973,-2.593235 0.97247,-0.486232 2.91739,-0.972463 3.40363,-0.324156 5.83478,1.620771 2.43116,1.782849 1.62077,5.18647 z"
         style="font-style:normal;font-variant:normal;font-weight:normal;font-stretch:normal;font-family:'Black boys on mopeds';-inkscape-font-specification:'Black boys on mopeds';fill:none;fill-opacity:1;stroke:#ff4c4c;stroke-width:30.70750019;stroke-miterlimit:4;stroke-dasharray:none;stroke-opacity:1"
         id="path858" />
    </g>
    <g
       transform="matrix(0.88637803,0,0,0.88637803,7.7738319,9.2709979)"
       style="font-style:normal;font-weight:normal;font-size:148.867px;line-height:1.25;font-family:sans-serif;letter-spacing:0px;word-spacing:0px;fill:#ffffff;fill-opacity:1;stroke:none;stroke-width:1.8;stroke-miterlimit:4;stroke-dasharray:none;stroke-opacity:1"
       id="g866"
       aria-label="T">
      <path
         id="path864"
         style="font-style:normal;font-variant:normal;font-weight:normal;font-stretch:normal;font-family:'Black boys on mopeds';-inkscape-font-specification:'Black boys on mopeds';fill:#ffffff;fill-opacity:1;stroke:none;stroke-width:1.8;stroke-miterlimit:4;stroke-dasharray:none;stroke-opacity:1"
         d="m 108.34581,25.3789 q -1.19093,5.210345 -1.7864,11.313892 -0.14887,1.637537 0.29773,4.168276 0.4466,2.97734 0.4466,4.168276 0,3.870542 -5.06147,3.870542 -3.275078,0 -4.317148,-1.935271 -0.14887,-3.275074 0.14887,-8.93202 0.29773,-6.699015 0.29773,-8.93202 -0.14886,0 -0.4466,-0.297734 -13.84463,0.595468 -26.05172,1.786404 -0.29774,1.935271 0,4.763744 l 0.59546,5.359212 q -0.59546,4.614877 -0.59546,13.695765 0.4466,3.870542 0.4466,33.197344 V 98.4726 q 0,2.53074 0.74433,3.57281 h 9.22976 q 5.65694,-0.74434 5.65694,4.76374 0,3.27508 -3.1262,4.61488 -1.93528,0.74434 -6.84789,0.29774 -2.97734,-0.29774 -6.99675,-0.14887 -5.50808,0.74433 -13.39803,1.19093 -8.03881,0.44661 -9.825218,-2.233 -1.190936,-1.7864 0,-3.72168 2.084138,-3.27507 10.867288,-3.27507 4.61488,0 4.61488,-2.53074 0,-1.3398 -0.14887,-2.53074 0,-3.72168 0.14887,-6.55015 0.4466,-8.03882 0,-22.627784 -0.59547,-21.139115 0.4466,-37.961086 l -0.4466,-0.446601 q -4.61488,0.297734 -17.268572,-0.148867 -0.595468,0 -9.080887,0.595468 2.084138,14.291232 2.381872,20.394779 0,0 -0.297734,4.01941 -0.148867,2.233005 -3.721676,2.233005 -2.828473,0 -4.763744,-10.718425 -0.893202,-6.401281 -1.786404,-12.951429 0,-1.042069 -1.042069,-3.572808 -0.893202,-2.679606 -0.893202,-4.019409 0,-3.721675 5.656946,-4.614877 0.446601,0 1.48867,0.148867 1.042069,0.148867 1.48867,0.148867 h 15.48217 q 21.43685,0 21.43685,0 13.69576,-0.595468 26.49832,-2.381872 0.89321,-0.446601 2.679608,-0.893202 3.12621,-0.297735 5.35921,1.48867 2.23301,1.637537 1.48867,4.763744 z" />
    </g>
    <text
       id="text878"
       y="117.92857"
       x="-103.37649"
       style="font-style:normal;font-weight:normal;font-size:10.5833px;line-height:1.25;font-family:sans-serif;letter-spacing:0px;word-spacing:0px;fill:#000000;fill-opacity:1;stroke:none;stroke-width:0.264583"
       xml:space="preserve"><tspan
         style="stroke-width:0.264583"
         y="117.92857"
         x="-103.37649"
         id="tspan876"
         sodipodi:role="line" /></text>
  </g>
</svg>
