<?xml version="1.0" encoding="UTF-8"?>
<svg id="Layer_1" data-name="Layer 1" xmlns="http://www.w3.org/2000/svg" viewBox="0 0 20 20">
  <defs>
    <style>
      .cls-1, .cls-2 {
        fill: #575e75;
      }

      .cls-1, .cls-3 {
        fill-rule: evenodd;
      }

      .cls-3 {
        fill: rgba(87, 94, 117, .15);
      }
    </style>
  </defs>
  <path id="Combined-Shape" class="cls-1" d="M10.42,10.75c-.89-.18-1.56-.97-1.56-1.91,0-1.08.87-1.95,1.95-1.95s1.95.87,1.95,1.95c0,.05,0,.11,0,.16l-.24-.22c-.8-.73-2.09-.17-2.09.92v1.06Z"/>
  <path id="Oval-2" class="cls-3" d="M10.42,11.54c-1.32-.19-2.34-1.33-2.34-2.7,0-1.51,1.22-2.73,2.73-2.73s2.73,1.22,2.73,2.73c0,.27-.04.53-.11.77l-.92-.84c-.8-.73-2.09-.17-2.09.92v1.85Z"/>
  <path id="select-icon" class="cls-1" d="M13.45,15.6l.86,1.92c.17.38.61.55.99.38.38-.17.54-.62.37-1l-.85-1.9h2.15c.43,0,.63-.52.32-.81l-5.3-4.84c-.3-.27-.79-.06-.79.34v7.18c0,.43.53.63.82.31l1.43-1.58Z"/>
  <path class="cls-2" d="M4.09,9.02v7.08h1.5v-7.08c0-2.76,2.25-5.01,5.01-5.01h5.58v-1.5h-5.58c-3.59,0-6.51,2.92-6.51,6.51Z"/>
</svg>