<?xml version="1.0" encoding="UTF-8" standalone="no"?>
<svg
   width="20"
   height="20"
   viewBox="0 0 20 20"
   version="1.1"
   id="svg4"
   sodipodi:docname="sparkle.svg"
   inkscape:version="1.2.2 (732a01da63, 2022-12-09)"
   xmlns:inkscape="http://www.inkscape.org/namespaces/inkscape"
   xmlns:sodipodi="http://sodipodi.sourceforge.net/DTD/sodipodi-0.dtd"
   xmlns="http://www.w3.org/2000/svg"
   xmlns:svg="http://www.w3.org/2000/svg">
  <defs
     id="defs8" />
  <sodipodi:namedview
     id="namedview6"
     pagecolor="#ffffff"
     bordercolor="#000000"
     borderopacity="0.25"
     inkscape:showpageshadow="2"
     inkscape:pageopacity="0.0"
     inkscape:pagecheckerboard="0"
     inkscape:deskcolor="#d1d1d1"
     showgrid="false"
     inkscape:zoom="25.85"
     inkscape:cx="7.8336557"
     inkscape:cy="9.9806576"
     inkscape:window-width="1366"
     inkscape:window-height="697"
     inkscape:window-x="-8"
     inkscape:window-y="-8"
     inkscape:window-maximized="1"
     inkscape:current-layer="svg4" />
  <path
     fill="currentColor"
     d="M7.398 12.809a1.04 1.04 0 0 0 1.204-.003c.178-.13.313-.31.387-.518l.447-1.373a2.34 2.34 0 0 1 1.477-1.479l1.391-.45a1.045 1.045 0 0 0-.044-1.98l-1.375-.448a2.34 2.34 0 0 1-1.48-1.477l-.452-1.388a1.044 1.044 0 0 0-1.973.017l-.457 1.4a2.34 2.34 0 0 1-1.44 1.45l-1.39.447a1.045 1.045 0 0 0 .016 1.974l1.374.445a2.33 2.33 0 0 1 1.481 1.488l.452 1.391c.072.204.206.38.382.504m6.137 4.042a.806.806 0 0 0 1.226-.398l.248-.762a1.1 1.1 0 0 1 .26-.42c.118-.12.262-.208.42-.26l.772-.252a.8.8 0 0 0-.023-1.52l-.764-.25a1.08 1.08 0 0 1-.68-.678l-.252-.773a.8.8 0 0 0-1.518.01l-.247.762a1.07 1.07 0 0 1-.665.679l-.773.252a.8.8 0 0 0 .008 1.518l.763.247c.16.054.304.143.422.261c.119.119.207.263.258.422l.253.774a.8.8 0 0 0 .292.388"
     id="path2"
     style="fill:#ffffff;fill-opacity:1" />
</svg>
