<svg xmlns="http://www.w3.org/2000/svg" xmlns:xlink="http://www.w3.org/1999/xlink" width="20" height="20"><defs><path id="a" d="M15.465 15.467a1.8 1.8 0 0 1-2.557 0l-2.91-2.909-2.91 2.91a1.808 1.808 0 1 1-2.556-2.558l2.909-2.909-2.914-2.915A1.784 1.784 0 0 1 4 5.802c0-.46.174-.92.527-1.272a1.808 1.808 0 0 1 2.557 0l2.915 2.913 2.914-2.913a1.81 1.81 0 0 1 2.557 2.556l-2.915 2.915 2.915 2.914c.707.706.707 1.84-.005 2.552"/></defs><g fill="none" fill-rule="evenodd"><mask id="b" fill="#fff"><use xlink:href="#a"/></mask><use xlink:href="#a" fill="#FFF"/><g fill="#FFF" mask="url(#b)"><path d="M0 0h20v20H0z"/></g></g></svg>