<svg xmlns="http://www.w3.org/2000/svg" xml:space="preserve" width="48" height="48"><path d="M16.922 47.218c-4.464-1.8-7.93-5.182-9.424-9.196-.641-1.721-.778-2.647-.774-5.232.004-2.2.037-2.606.328-3.972 1.007-4.73 3.058-8.47 6.85-12.49 2.597-2.75 3.95-4.415 5.372-6.607 2.231-3.438 3.167-5.988 3.167-8.633V.018l.807.569c3.548 2.497 5.227 4.303 6.542 7.036 1.065 2.214 1.498 4.114 1.498 6.583 0 2.163-.29 3.936-.986 6.03-.38 1.143-.353 2.394.07 3.259.427.874 1.285 1.66 2.177 1.995 1.807.68 3.974-.204 4.846-1.976.24-.486.29-.769.29-1.633 0-.576.03-1.046.068-1.046.111 0 1.014 1.64 1.645 2.988 1.277 2.733 1.927 5.572 1.93 8.43.004 3.287-.866 6.156-2.661 8.773-.79 1.152-2.966 3.359-4.21 4.271-.834.611-3.521 2.08-3.805 2.08-.056 0 .196-.329.56-.73a9.53 9.53 0 0 0 1.144-1.66c.678-1.302.884-2.275.812-3.827-.1-2.16-.883-3.953-2.462-5.635l-.828-.881-.082.478c-.28 1.637-.745 2.44-1.724 2.971-1.379.75-2.813.487-4.072-.744-1.302-1.275-2.127-2.872-2.455-4.753-.475-2.72-.055-4.85 1.933-9.827.429-1.073.754-1.977.722-2.008-.107-.108-1.934 1.444-3.254 2.763-3.244 3.244-5.432 7.037-6.224 10.792-.267 1.268-.355 3.674-.182 4.99.146 1.11.604 2.962.926 3.742.777 1.886 1.433 2.977 2.402 3.992.365.383.588.695.496.694-.092 0-.741-.233-1.442-.516z" style="fill:#fff;stroke-width:1.25386"/></svg>