<?xml version="1.0" encoding="UTF-8" standalone="no"?>
<!-- Created with Inkscape (http://www.inkscape.org/) -->

<svg
   width="48"
   height="48"
   viewBox="0 0 48 48"
   version="1.1"
   id="svg1"
   xml:space="preserve"
   xmlns="http://www.w3.org/2000/svg"
   xmlns:svg="http://www.w3.org/2000/svg"><defs
     id="defs1" /><g
     id="layer1"><path
       style="fill:#ffffff;stroke-width:1.25386"
       d="M 16.921635,47.218417 C 12.457933,45.418001 8.9919072,42.035531 7.4976017,38.021569 6.8569154,36.300576 6.7201491,35.375252 6.7244223,32.790445 c 0.00364,-2.201014 0.037077,-2.606171 0.3278025,-3.972353 1.0067787,-4.731008 3.0579352,-8.470689 6.8504302,-12.489746 2.596015,-2.7511 3.949306,-4.415739 5.371406,-6.6071899 2.230992,-3.4379527 3.166456,-5.9885805 3.166456,-8.6336328 V 0.01864079 l 0.807037,0.56802085 c 3.548452,2.49752486 5.227184,4.30291006 6.54258,7.03618586 1.065361,2.2137276 1.497899,4.1146175 1.497899,6.5828665 0,2.163349 -0.289929,3.936124 -0.986314,6.030822 -0.379863,1.142613 -0.353062,2.393852 0.06979,3.258127 0.427912,0.87462 1.285238,1.66023 2.177964,1.995775 1.806891,0.679149 3.973901,-0.20454 4.845827,-1.976091 0.23913,-0.485857 0.289249,-0.768921 0.289249,-1.633618 0,-0.575264 0.03076,-1.046035 0.06835,-1.046159 0.111593,-3.73e-4 1.014572,1.640492 1.644748,2.988798 1.277152,2.732552 1.927391,5.571487 1.930619,8.429052 0.0038,3.287111 -0.866661,6.156137 -2.661505,8.773157 -0.790528,1.15265 -2.965521,3.359373 -4.210359,4.271784 -0.833171,0.610675 -3.520506,2.079529 -3.804595,2.079529 -0.05566,0 0.196343,-0.328799 0.56001,-0.730663 0.363666,-0.401864 0.87851,-1.148338 1.144097,-1.65883 0.677604,-1.302442 0.88402,-2.275003 0.812385,-3.82768 -0.09966,-2.160084 -0.883257,-3.953071 -2.462439,-5.634425 l -0.828076,-0.881651 -0.0818,0.478243 c -0.279998,1.637033 -0.745449,2.439234 -1.723973,2.971249 -1.378575,0.749519 -2.812854,0.487257 -4.071698,-0.744522 -1.302468,-1.274465 -2.127793,-2.871703 -2.455809,-4.752689 -0.474212,-2.719336 -0.05499,-4.849724 1.933727,-9.826723 0.428745,-1.072983 0.753663,-1.976748 0.722042,-2.008369 -0.107506,-0.107506 -1.934466,1.443833 -3.254635,2.763634 -3.243942,3.243039 -5.431353,7.036039 -6.223475,10.791588 -0.267511,1.268309 -0.355127,3.673458 -0.181796,4.990469 0.146066,1.10983 0.604031,2.96106 0.925467,3.741002 0.777641,1.886896 1.433633,2.977138 2.402512,3.992906 0.364681,0.382329 0.587612,0.694445 0.495405,0.693592 -0.09221,-8.56e-4 -0.741161,-0.232877 -1.442116,-0.515604 z"
       id="path1" /></g></svg>
