<?xml version="1.0" encoding="UTF-8" standalone="no"?>
<!-- Created with Inkscape (http://www.inkscape.org/) -->

<svg
   width="44.207581"
   height="29.010063"
   viewBox="0 0 44.207581 29.010063"
   version="1.1"
   id="svg1"
   xml:space="preserve"
   xmlns="http://www.w3.org/2000/svg"
   xmlns:svg="http://www.w3.org/2000/svg"><defs
     id="defs1" /><g
     id="layer1"
     transform="translate(-1.8962082,-9.4949685)"><path
       style="fill:#ffffff"
       d="M 2.2551455,38.435786 C 2.2316075,38.397696 2.1429078,37.921479 2.0580347,37.377514 1.8244973,35.880738 1.8470767,32.83454 2.1041067,31.161919 2.209978,30.472962 2.3474858,29.85778 2.4096798,29.794848 c 0.093786,-0.0949 0.2504367,-0.07678 0.9181342,0.106181 0.4427799,0.121331 0.8437453,0.259293 0.8910344,0.306582 0.091136,0.09114 0.095041,0.07131 -0.3580735,1.818204 -0.3846663,1.483005 -0.5498662,2.784082 -0.600554,4.729828 l -0.045573,1.749389 H 2.756295 c -0.2520943,0 -0.4776116,-0.03116 -0.5011495,-0.06925 z M 36.808273,38.008292 c 0.382903,-1.663322 0.476349,-3.894174 0.240924,-5.751575 -0.08912,-0.703099 -0.110333,-1.138258 -0.05804,-1.190547 0.117707,-0.117707 7.626106,-2.247814 7.719609,-2.190026 0.183383,0.113337 0.750256,2.308365 1.025361,3.970372 0.295728,1.786594 0.473183,5.067154 0.298693,5.521866 -0.04692,0.122262 -0.54143,0.13665 -4.696666,0.13665 h -4.644229 z m -16.470119,0.08452 c -1.012344,-0.38387 -1.652577,-0.966179 -2.099595,-1.909638 -0.251867,-0.53158 -0.270769,-0.636569 -0.26632,-1.479281 0.0046,-0.871828 0.01849,-0.937315 0.357183,-1.684596 0.737726,-1.627674 11.352232,-23.2344899 11.487591,-23.3840601 0.27241,-0.3010086 0.979288,-0.079803 0.979288,0.3064516 0,0.064894 -1.33871,5.9314475 -2.974911,13.0367845 -2.079867,9.031994 -3.038845,13.044672 -3.187416,13.337184 -0.356632,0.702155 -0.865597,1.201967 -1.587088,1.558547 -0.600652,0.296858 -0.722139,0.325141 -1.484577,0.345617 -0.62048,0.01666 -0.92993,-0.01544 -1.224155,-0.127009 z m 2.226754,-2.032983 c 0.482506,-0.334376 0.744404,-0.84015 0.743851,-1.436511 -5.21e-4,-0.561671 -0.158433,-0.911252 -0.57806,-1.279689 -0.880792,-0.773345 -2.165637,-0.523219 -2.687039,0.523098 -0.324556,0.651299 -0.267644,1.240488 0.177852,1.841237 0.494997,0.667502 1.639873,0.839408 2.343396,0.351865 z m 13.953703,-6.560907 c -0.04782,-0.05939 -0.18907,-0.399552 -0.313889,-0.755909 -0.356619,-1.01815 -1.381717,-2.988374 -2.019256,-3.880986 -0.319828,-0.447785 -0.905635,-1.178652 -1.301795,-1.624146 -0.415707,-0.467478 -0.701074,-0.860067 -0.674847,-0.928414 0.111015,-0.2893 4.06644,-4.969876 4.199905,-4.969876 0.397332,0 3.270692,2.752389 4.419137,4.233088 1.045088,1.34744 1.99942,2.869222 2.722172,4.340787 0.28813,0.586649 0.313044,0.684457 0.201901,0.792623 -0.0984,0.09577 -6.977764,2.90082 -7.114231,2.90082 -0.01768,0 -0.07128,-0.04859 -0.119097,-0.107987 z M 3.8427569,28.142946 c -0.6242087,-0.247901 -0.8270223,-0.368014 -0.8471041,-0.50168 -0.031261,-0.208078 0.6373073,-1.935111 1.128596,-2.915369 0.9388121,-1.873193 2.3322375,-3.849511 3.7402239,-5.304823 0.6769717,-0.699726 0.8996472,-0.881612 1.0047512,-0.820701 0.1935729,0.112182 2.1387831,2.391387 2.1415521,2.509261 0.0013,0.05417 -0.423304,0.4535 -0.943506,0.887402 -1.926339,1.606772 -3.6468612,3.789335 -4.7219892,5.990067 -0.2963945,0.606704 -0.3525939,0.612533 -1.5025239,0.155843 z M 30.221092,20.881321 29.602689,20.448507 29.718518,19.95232 c 0.06371,-0.272903 0.380863,-1.654251 0.704793,-3.069663 l 0.588964,-2.573477 0.215974,0.05058 c 0.288516,0.06758 2.623187,1.201183 2.943328,1.429143 0.139197,0.09912 0.252666,0.22616 0.252153,0.282317 -0.0016,0.172683 -3.335161,5.197663 -3.463624,5.220999 -0.06634,0.01205 -0.398892,-0.172856 -0.739014,-0.410903 z M 12.433933,20.124329 c -0.182368,-0.12723 -1.939102,-2.791991 -1.936465,-2.937392 0.0029,-0.161573 0.05625,-0.205902 1.03396,-0.85956 2.423176,-1.620042 5.290082,-2.740655 8.24758,-3.223804 0.827169,-0.13513 1.055654,-0.147325 1.142025,-0.06095 0.120397,0.120397 0.43949,4.515909 0.345596,4.760592 -0.04167,0.10858 -0.172142,0.141106 -0.566043,0.141106 -2.202442,0 -4.811281,0.639529 -7.074287,1.734186 -0.582091,0.281568 -1.068033,0.511347 -1.07987,0.51062 -0.01184,-7.28e-4 -0.06246,-0.02988 -0.112496,-0.06479 z m 11.124392,-1.96334 c -0.298532,-0.05895 -0.568116,-0.132519 -0.599077,-0.16348 -0.0605,-0.0605 0.137292,-4.975954 0.204605,-5.084869 0.09067,-0.146707 2.937317,0.006 3.416568,0.183319 0.129594,0.04794 -0.02225,0.40715 -1.100382,2.603167 -0.687896,1.401154 -1.279567,2.55239 -1.314825,2.558302 -0.03526,0.0059 -0.308358,-0.03749 -0.606889,-0.09644 z"
       id="path1" /></g></svg>
