<svg xmlns="http://www.w3.org/2000/svg" xml:space="preserve" width="44.208" height="29.01"><path d="M2.255 38.436c-.023-.038-.112-.515-.197-1.058-.234-1.497-.21-4.543.046-6.216.106-.689.243-1.304.306-1.367.093-.095.25-.077.918.106.443.121.844.26.89.307.092.09.096.07-.357 1.818-.385 1.483-.55 2.784-.6 4.73l-.046 1.749h-.459c-.252 0-.477-.031-.5-.07zm34.553-.428c.383-1.663.477-3.894.241-5.751-.089-.703-.11-1.139-.058-1.19.118-.119 7.626-2.249 7.72-2.19.183.112.75 2.308 1.025 3.97.296 1.786.473 5.067.299 5.521-.047.123-.542.137-4.697.137h-4.644zm-16.47.085c-1.012-.384-1.652-.966-2.1-1.91-.251-.531-.27-.636-.266-1.48.005-.87.019-.936.357-1.684.738-1.627 11.353-23.234 11.488-23.384.272-.3.98-.08.98.307 0 .065-1.34 5.931-2.976 13.036-2.08 9.032-3.038 13.045-3.187 13.338a3.378 3.378 0 0 1-1.587 1.558c-.6.297-.722.325-1.485.346-.62.016-.93-.016-1.224-.127zm2.227-2.033a1.69 1.69 0 0 0 .744-1.437c0-.561-.159-.91-.578-1.28-.881-.773-2.166-.523-2.687.524-.325.651-.268 1.24.178 1.841.495.667 1.64.84 2.343.352zm13.954-6.561c-.048-.06-.19-.4-.314-.756-.357-1.018-1.382-2.988-2.02-3.881a23.682 23.682 0 0 0-1.301-1.624c-.416-.468-.701-.86-.675-.929.11-.289 4.066-4.97 4.2-4.97.397 0 3.27 2.753 4.419 4.234 1.045 1.347 2 2.869 2.722 4.34.288.587.313.685.202.793-.098.096-6.978 2.9-7.114 2.9-.018 0-.072-.048-.12-.107zM3.843 28.143c-.624-.248-.827-.368-.847-.502-.032-.208.637-1.935 1.128-2.915.94-1.873 2.332-3.85 3.74-5.305.677-.7.9-.882 1.005-.82.194.112 2.139 2.39 2.142 2.509.001.054-.424.453-.944.887-1.926 1.607-3.647 3.79-4.722 5.99-.296.607-.352.613-1.502.156zM30.22 20.88l-.618-.432.116-.497.704-3.07.59-2.573.215.05c.289.068 2.623 1.202 2.944 1.43.139.099.252.226.252.282-.002.173-3.335 5.198-3.464 5.221-.066.012-.399-.173-.739-.41zm-17.787-.757c-.182-.127-1.94-2.792-1.937-2.937.003-.162.057-.206 1.034-.86 2.424-1.62 5.29-2.74 8.248-3.223.827-.136 1.056-.148 1.142-.061.12.12.44 4.516.346 4.76-.042.109-.173.141-.566.141-2.203 0-4.812.64-7.075 1.735a34.96 34.96 0 0 1-1.08.51.49.49 0 0 1-.112-.065zm11.124-1.963c-.298-.059-.568-.133-.599-.163-.06-.061.138-4.976.205-5.085.09-.147 2.937.006 3.416.183.13.048-.022.407-1.1 2.603-.688 1.401-1.28 2.553-1.315 2.558-.035.006-.308-.037-.607-.096z" style="fill:#fff" transform="translate(-1.896 -9.495)"/></svg>