<svg xmlns="http://www.w3.org/2000/svg" fill="none" stroke="#855cd6" viewBox="0 0 89.364 100"><path fill="#855cd6" d="M65.959 54.254H47.874V36.17c0-2.66-.666-4.256-3.191-4.256-1.796 0-3.191.541-3.191 4.256v20.213c0 .239.021.458.04.682-.014.127-.04.248-.04.381 0 0 .052.539.381 1.17.497 1.285 1.466 2.021 2.811 2.021 0 0 .114-.018.269-.05.248.03.509.05.796.05h20.213c2.658 0 4.254-.664 4.254-3.191-.003-1.794-.543-3.192-4.257-3.192z"/><path fill="#855cd6" d="m80.567 27.146 4.624-4.623a2.43 2.43 0 0 0 0-3.436l-6.872-6.873a2.432 2.432 0 0 0-3.438 0l-4.884 4.883c-5.219-3.494-11.271-5.89-17.869-6.93V4.254h4.257c2.165 0 3.19-.354 3.19-2.127C59.575.367 58.312 0 56.385 0H32.98c-1.829 0-3.191.299-3.191 2.127 0 1.896 1.463 2.127 3.191 2.127h5.319v5.753C16.214 12.969 0 31.161 0 54.254 0 79.523 19.409 100 44.682 100c25.273 0 44.682-20.477 44.682-45.746 0-10.322-3.244-19.665-8.797-27.108zM44.682 93.617c-21.284 0-38.298-18.083-38.298-39.362 0-21.278 17.014-38.296 38.298-38.296 21.283 0 38.298 17.019 38.298 38.296 0 21.279-17.015 39.362-38.298 39.362z"/></svg>