<svg xmlns="http://www.w3.org/2000/svg" fill="none" viewBox="0 0 89.364 125" stroke="#855cd6">
	<path fill="#855cd6" d="M65.959,54.254H47.874V36.17c0-2.66-0.666-4.256-3.191-4.256c-1.796,0-3.191,0.541-3.191,4.256v20.213
	c0,0.239,0.021,0.458,0.04,0.682c-0.014,0.127-0.04,0.248-0.04,0.381c0,0,0.052,0.539,0.381,1.17
	c0.497,1.285,1.466,2.021,2.811,2.021c0,0,0.114-0.018,0.269-0.05c0.248,0.03,0.509,0.05,0.796,0.05h20.213
	c2.658,0,4.254-0.664,4.254-3.191C70.213,55.652,69.673,54.254,65.959,54.254z" />
	<path fill="#855cd6" d="M80.567,27.146l4.624-4.623c0.949-0.949,0.949-2.487,0-3.436l-6.872-6.873c-0.951-0.949-2.49-0.949-3.438,0
	l-4.884,4.883c-5.219-3.494-11.271-5.89-17.869-6.93V4.254h4.257c2.165,0,3.19-0.354,3.19-2.127c0-1.76-1.263-2.127-3.19-2.127
	H32.98c-1.829,0-3.191,0.299-3.191,2.127c0,1.896,1.463,2.127,3.191,2.127h5.319v5.753C16.214,12.969,0,31.161,0,54.254
	C0,79.523,19.409,100,44.682,100c25.273,0,44.682-20.477,44.682-45.746C89.364,43.932,86.12,34.589,80.567,27.146z M44.682,93.617
	c-21.284,0-38.298-18.083-38.298-39.362c0-21.278,17.014-38.296,38.298-38.296c21.283,0,38.298,17.019,38.298,38.296
	C82.98,75.534,65.965,93.617,44.682,93.617z" />
</svg>
