<svg xmlns="http://www.w3.org/2000/svg" width="40" height="40" fill="none" viewBox="0 0 23.84 21.46"><circle cx="8.35" cy="9.65" r=".97" fill="#231f20"/><circle cx="14.19" cy="9.65" r=".97" fill="#231f20"/><path fill="#231f20" d="M11.27 4.14c-3.94 0-7.13 3.19-7.13 7.13s3.19 7.13 7.13 7.13 7.13-3.19 7.13-7.13-3.19-7.13-7.13-7.13m0 1.3c3.22 0 5.84 2.61 5.84 5.84s-2.61 5.84-5.84 5.84-5.84-2.61-5.84-5.84 2.61-5.84 5.84-5.84"/><path fill="#ffbf00" fill-rule="evenodd" stroke="#0b8e69" stroke-miterlimit="2" stroke-width=".5" d="M17.57 13.88c.57-.15 1.02-.6 1.17-1.17l.35-1.3c.16-.61 1.04-.61 1.2 0l.35 1.3c.15.57.6 1.02 1.18 1.17l1.3.35c.61.16.61 1.04 0 1.2l-1.3.35c-.57.15-1.02.6-1.18 1.17l-.35 1.3c-.17.62-1.04.62-1.2 0l-.35-1.3c-.15-.57-.6-1.02-1.17-1.17l-1.3-.35c-.61-.17-.61-1.04 0-1.2zm-16-11.43c.43-.12.76-.45.88-.88l.26-.98c.12-.46.78-.46.9 0l.26.98c.12.43.45.76.88.88l.98.26c.46.12.46.78 0 .9l-.98.26c-.43.11-.77.45-.88.88l-.26.98c-.12.46-.78.46-.9 0l-.26-.98a1.26 1.26 0 0 0-.88-.88l-.98-.26c-.46-.12-.46-.78 0-.9z"/><path fill="#231f20" d="M12.68 12.53c.2-.3.6-.38.9-.18s.38.6.18.9c-.56.83-1.41 1.26-2.48 1.26s-1.93-.43-2.48-1.26c-.2-.3-.12-.7.18-.9s.7-.12.9.18c.31.46.75.68 1.41.68s1.1-.22 1.41-.68Z"/><path fill="#0b8e69" d="M20.89 6.06a.57.57 0 0 1-.57-.57V2.2h-3.31c-.31 0-.57-.25-.57-.57s.25-.57.57-.57h3.88c.31 0 .57.25.57.57v3.86c0 .31-.25.57-.57.57M5.44 21.46H1.59a.57.57 0 0 1-.57-.57v-3.82c0-.31.25-.57.57-.57s.57.25.57.57v3.25h3.28c.31 0 .57.25.57.57s-.25.57-.57.57"/></svg>