<svg width="40" height="40" fill="none" xmlns="http://www.w3.org/2000/svg"><path d="M26.434 30c3.079 0 5.203-1.843 4.745-4.126-2.88-12.83-3.753-16.023-3.234-16.269.367-.173 1.43 1.123 2.971 1.53 3.726.978 9.358-4.727 3.65-3.843-2.244.347-4.407-1.054-6.078-2.135-2.58-1.67-3.986-2.58-2.69 4.888.637 3.659 1.172 6.278 1.55 8.129.648 3.175.834 4.088.285 4.1-.3-.122-.6-.216-.937-.302a7.907 7.907 0 0 0-1.89-.234c-3.079 0-5.202 1.851-4.744 4.136.449 2.283 3.303 4.126 6.372 4.126ZM9.439 36c3.068 0 5.191-1.852 4.743-4.136-2.879-12.83-3.752-16.022-3.232-16.268.367-.174 1.428 1.122 2.969 1.53 3.724.988 9.354-4.728 3.648-3.834-2.242.347-4.405-1.054-6.075-2.135-2.58-1.67-3.984-2.58-2.69 4.888a264.05 264.05 0 0 0 1.556 8.167c.633 3.103.822 4.026.306 4.061a7.794 7.794 0 0 0-2.853-.544c-3.077 0-5.2 1.851-4.751 4.135C3.518 34.148 6.37 36 9.439 36Z" fill="#000"/></svg>