<svg width="40" height="40" fill="none" xmlns="http://www.w3.org/2000/svg"><path fill-rule="evenodd" clip-rule="evenodd" d="m8.753 34.602-4.251 1.779 1.784-4.236c1.218-2.892 2.907-5.423 5.03-7.538L31.066 4.93c.846-.842 2.65-.41 4.032.966 1.38 1.377 1.816 3.174.97 4.016L16.318 29.59c-2.123 2.116-4.664 3.799-7.565 5.012Z" fill="#fff"/><path d="m8.753 34.602-4.251 1.779 1.784-4.236c1.218-2.892 2.907-5.423 5.03-7.538L31.066 4.93c.846-.842 2.65-.41 4.032.966 1.38 1.377 1.816 3.174.97 4.016L16.318 29.59c-2.123 2.116-4.664 3.799-7.565 5.012M29.41 6.111s-4.45-2.379-8.202 5.771c-1.734 3.766-4.35 1.546-4.35 1.546" stroke="#0B8E69" stroke-linecap="round" stroke-linejoin="round"/><path fill-rule="evenodd" clip-rule="evenodd" d="M36.42 8.825c0 .463-.14.873-.432 1.164l-9.335 9.301c.282-.29.41-.668.41-1.12 0-.874-.507-1.963-1.406-2.868-1.362-1.358-3.147-1.8-4.002-.99L30.99 5.01c.844-.84 2.65-.41 4.035.96.898.904 1.396 1.982 1.396 2.855Z" fill="#4C97FF"/><path d="M36.42 8.825c0 .463-.14.873-.432 1.164l-9.335 9.301c.282-.29.41-.668.41-1.12 0-.874-.507-1.963-1.406-2.868-1.362-1.358-3.147-1.8-4.002-.99L30.99 5.01c.844-.84 2.65-.41 4.035.96.898.904 1.396 1.982 1.396 2.855" stroke="#0B8E69" stroke-linecap="round" stroke-linejoin="round"/><path fill-rule="evenodd" clip-rule="evenodd" d="M10.515 33.774a23.74 23.74 0 0 1-1.764.83L4.5 36.382l1.786-4.235c.258-.604.529-1.186.833-1.757.69.183 1.449.625 2.109 1.282.659.658 1.102 1.412 1.287 2.102Z" fill="#4C97FF"/><path d="M10.515 33.774a23.74 23.74 0 0 1-1.764.83L4.5 36.382l1.786-4.235c.258-.604.529-1.186.833-1.757.69.183 1.449.625 2.109 1.282.659.658 1.102 1.412 1.287 2.102" stroke="#0B8E69" stroke-linecap="round" stroke-linejoin="round"/><g opacity=".15"><path fill-rule="evenodd" clip-rule="evenodd" d="M36.498 8.748c0 .463-.141.873-.433 1.165l-19.742 19.68c-2.131 2.111-4.673 3.793-7.572 5.01L4.5 36.382l.974-2.317 1.925-.808c2.899-1.218 5.441-2.9 7.572-5.011l19.742-19.68c.292-.292.432-.702.432-1.165 0-.646-.27-1.4-.779-2.122.249.171.498.377.736.614.898.905 1.396 1.982 1.396 2.856Z" fill="#0B8E69"/><path d="M36.498 8.748c0 .463-.141.873-.433 1.165l-19.742 19.68c-2.131 2.111-4.673 3.793-7.572 5.01L4.5 36.382l.974-2.317 1.925-.808c2.899-1.218 5.441-2.9 7.572-5.011l19.742-19.68c.292-.292.432-.702.432-1.165 0-.646-.27-1.4-.779-2.122.249.171.498.377.736.614.898.905 1.396 1.982 1.396 2.856" stroke="#0B8E69" stroke-linecap="round" stroke-linejoin="round"/></g><path fill-rule="evenodd" clip-rule="evenodd" d="M18.45 12.831a.904.904 0 1 1-1.807 0 .904.904 0 0 1 1.807 0Z" fill="#0B8E69" stroke="#0B8E69" stroke-linecap="round" stroke-linejoin="round"/></svg>