<svg width="40" height="40" fill="none" xmlns="http://www.w3.org/2000/svg"><path d="M16 21.67v12.613c0 1.532-2 2.253-3.2 1.262l-2.6-2.163c-1-.81-2.2-1.17-3.5-1.17h-.4c-1.3 0-2.3-.902-2.3-2.073v-4.235c0-1.171 1-2.072 2.3-2.072h.4c1.3 0 2.5-.45 3.4-1.172l2.7-2.162c1.2-1.081 3.2-.27 3.2 1.171Z" fill="#000"/><path d="M24 4a8 8 0 0 0-3.622 15.135c-.169 1.774-.722 2.53-1.074 3.012-.177.243-.304.417-.304.615 0 .667.667.667.667.667.946 0 3.914-1.167 5.743-3.429H28a8 8 0 1 0 0-16h-4Z" fill="#fff" stroke="#0B8E69"/></svg>