<svg width="40" height="40" fill="none" xmlns="http://www.w3.org/2000/svg"><path d="M8 5a4 4 0 0 0-4 4v8a4 4 0 0 0 4 4h.253c-.237 1.173-.66 1.752-.949 2.147-.177.243-.304.417-.304.615 0 .667.667.667.667.667.946 0 3.914-1.167 5.743-3.429H20a4 4 0 0 0 4-4V9a4 4 0 0 0-4-4H8Z" fill="#fff" stroke="#0B8E69"/><path fill-rule="evenodd" clip-rule="evenodd" d="M13.422 7.913a.735.735 0 0 1 .485-.163c.186 0 .36.05.492.162a.579.579 0 0 1 .208.45v1.166h4.097c.176 0 .323.082.419.212a.71.71 0 0 1 .127.423.78.78 0 0 1-.12.434.506.506 0 0 1-.426.233H17.1c-.44 1.45-1.153 2.808-2.174 3.952.134.11.262.21.394.3l.007.005c.994.727 2.22 1.298 3.407 1.676.305.096.493.34.493.644 0 .087-.017.17-.047.25a.776.776 0 0 1-.238.37.61.61 0 0 1-.393.135.914.914 0 0 1-.324-.057c-1.426-.47-2.648-1.085-3.793-1.983l-.002-.001-.05-.04a13.172 13.172 0 0 1-.422-.348 9.055 9.055 0 0 1-.472.381c-1.21.918-2.364 1.489-3.742 2l-.007.003a.866.866 0 0 1-.277.045.694.694 0 0 1-.402-.12.72.72 0 0 1-.26-.348.689.689 0 0 1-.049-.254c0-.32.226-.548.489-.65l.01-.004c1.219-.41 2.365-.935 3.63-1.92l.106-.088c-1-1.144-1.702-2.51-2.14-3.948H9.306a.505.505 0 0 1-.431-.235.79.79 0 0 1-.115-.432c0-.143.031-.296.121-.42a.51.51 0 0 1 .425-.215h3.91V8.362c0-.174.072-.335.205-.449Zm-1.183 2.917a9.063 9.063 0 0 0 1.724 3.008 8.379 8.379 0 0 0 1.686-3.008h-3.41Z" fill="#4C97FF"/><path fill-rule="evenodd" clip-rule="evenodd" d="M32 16a4 4 0 0 1 4 4v8a4 4 0 0 1-4 4h-.253c.236 1.173.66 1.752.949 2.147.178.243.304.416.304.615 0 .667-.667.667-.667.667-.946 0-3.914-1.167-5.743-3.429H20a4 4 0 0 1-4-4v-8a4 4 0 0 1 4-4h12Z" fill="#fff"/><path d="m31.747 32-.49.099-.12-.599h.61v.5Zm.949 2.147.403-.295-.403.295ZM26.59 32v-.5h.24l.15.186-.39.314Zm8.91-12a3.5 3.5 0 0 0-3.5-3.5v-1a4.5 4.5 0 0 1 4.5 4.5h-1Zm0 8v-8h1v8h-1ZM32 31.5a3.5 3.5 0 0 0 3.5-3.5h1a4.5 4.5 0 0 1-4.5 4.5v-1Zm-.253 0H32v1h-.253v-1Zm.545 2.942c-.308-.421-.778-1.07-1.035-2.343l.98-.198c.216 1.072.593 1.583.862 1.951l-.807.59Zm.208.32c0 .014.006.005-.024-.05a2.753 2.753 0 0 0-.184-.27l.807-.59c.083.114.181.246.254.38.078.141.147.318.147.53h-1Zm-.167.667v-.5H32.323h.002a.323.323 0 0 0 .117-.031.089.089 0 0 0 .037-.028c.002-.003.02-.029.02-.108h1c0 .254-.065.478-.188.663a1.086 1.086 0 0 1-.422.367 1.322 1.322 0 0 1-.532.136h-.024v-.5Zm-5.354-3.743c.86 1.064 2 1.882 3.047 2.434a9.44 9.44 0 0 0 1.424.616c.423.139.726.193.883.193v1c-.316 0-.738-.093-1.195-.243a10.436 10.436 0 0 1-1.579-.681c-1.13-.597-2.39-1.493-3.358-2.69l.778-.63ZM20 31.5h6.59v1H20v-1ZM16.5 28a3.5 3.5 0 0 0 3.5 3.5v1a4.5 4.5 0 0 1-4.5-4.5h1Zm0-8v8h-1v-8h1Zm3.5-3.5a3.5 3.5 0 0 0-3.5 3.5h-1a4.5 4.5 0 0 1 4.5-4.5v1Zm12 0H20v-1h12v1Z" fill="#0B8E69"/><path fill-rule="evenodd" clip-rule="evenodd" d="M24.923 25.02h2.12l-1.031-3.003h-.024l-1.065 3.003Zm.172-5.02h1.845L30 28.183h-1.868l-.62-1.822h-3.06l-.641 1.822H22L25.095 20ZM33.033 12.876a1.074 1.074 0 0 1-1.5 0l-2.655-2.66a1.056 1.056 0 0 1 .745-1.805h.955a2.944 2.944 0 0 0-.31-1.005c-.055-.09-.05-.115-.125-.225-.12-.18-.23-.315-.36-.47a3.528 3.528 0 0 0-.925-.71 3.72 3.72 0 0 0-1.025-.35 4.528 4.528 0 0 0-.775-.06c-.085-.005-.195.015-.25.02-.06.005-.095.01-.095.01a.65.65 0 0 1-.3-1.25s.035-.015.09-.035c.065-.02.125-.055.265-.095.28-.085.635-.175 1.1-.22.46-.04 1.015-.03 1.6.09.585.125 1.2.36 1.77.7.27.175.56.38.785.58.1.075.27.245.37.35.115.12.22.24.326.365a6 6 0 0 1 1.154 2.305h1.07a1.056 1.056 0 0 1 .745 1.805l-2.655 2.66ZM6.967 27.125a1.074 1.074 0 0 1 1.5 0l2.655 2.66a1.056 1.056 0 0 1-.745 1.805h-.955a2.944 2.944 0 0 0 .31 1.005c.055.09.05.115.125.225.12.18.23.315.36.47.265.285.585.53.925.71.345.18.705.29 1.025.35.315.055.605.06.775.06.085.005.195-.015.25-.02.06-.005.095-.01.095-.01a.65.65 0 0 1 .3 1.25s-.035.015-.09.035c-.065.02-.125.055-.265.095-.28.085-.635.175-1.1.22-.46.04-1.015.03-1.6-.09a5.915 5.915 0 0 1-1.77-.7c-.27-.175-.56-.38-.785-.58-.1-.075-.27-.245-.37-.35a7.65 7.65 0 0 1-.326-.365 6 6 0 0 1-1.154-2.305h-1.07a1.056 1.056 0 0 1-.745-1.805l2.655-2.66Z" fill="#000"/></svg>