<svg width="40" height="40" fill="none" xmlns="http://www.w3.org/2000/svg"><circle opacity=".25" cx="32" cy="26" r="4" fill="#fff" stroke="#0B8E69" stroke-linecap="round" stroke-linejoin="round"/><circle opacity=".5" cx="32" cy="22" r="4" fill="#fff" stroke="#0B8E69" stroke-linecap="round" stroke-linejoin="round"/><circle opacity=".75" cx="32" cy="18" r="4" fill="#fff" stroke="#0B8E69" stroke-linecap="round" stroke-linejoin="round"/><circle cx="32" cy="14" r="4" fill="#fff" stroke="#0B8E69" stroke-linecap="round" stroke-linejoin="round"/><path d="m17 17.5 5.4-3.5c.5-.3 1.1-.2 1.4.3.1.2.2.4.2.5v10.3c0 .6-.5 1-1 1-.2 0-.4-.1-.5-.2L17 22.6V24c0 2.2-1.8 4.1-4 4.1H4.1C1.8 28 0 26.2 0 24v-7.9C0 13.8 1.8 12 4.1 12H13c2.2 0 4 1.8 4 4.1v1.4Z" fill="#000"/></svg>