<svg xmlns="http://www.w3.org/2000/svg" viewBox="569 195 102 87"><g stroke="#FFF" stroke-linecap="round" stroke-width="1.5" fill="none" fill-rule="evenodd"><path d="M12.294 8.131 9.836 5.598a.97.97 0 0 0-1.347-.061L5.445 8.01c-.469.362-1.113.302-1.464-.181l-.293-.362c-.351-.482-1.053-.543-1.463-.181L0 9.156c0 .852.691 1.543 1.543 1.543h8.81a2 2 0 0 0 2-2v-.568h-.059Z" fill="#FFF" stroke-linejoin="round" transform="matrix(7.45484 0 0 7.16414 574.16 200.286)"/><path d="M12.353 1.772v7.052c0 .974-.79 1.764-1.765 1.764H1.765C.79 10.588 0 9.798 0 8.824V1.765C0 .79.79 0 1.765 0h8.851c.828 0 1.742.883 1.746 1.756" transform="matrix(7.45484 0 0 7.16414 574.16 200.286)"/></g></svg>