<svg xmlns="http://www.w3.org/2000/svg" viewBox="569 195 102 87">
  <g id="Page-1" stroke="none" stroke-width="1" fill="none" fill-rule="evenodd" transform="matrix(7.454836, 0, 0, 7.164141, 545.45813, 166.972961)" style="">
    <g id="backdrop-library">
      <g id="backdrop-lib-icon" transform="translate(3.850000, 4.650000)" stroke="#FFFFFF" stroke-linecap="round" stroke-width="1.5">
        <path d="M 12.294 8.131 L 9.836 5.598 C 9.484 5.236 8.899 5.175 8.489 5.537 L 5.445 8.01 C 4.976 8.372 4.332 8.312 3.981 7.829 L 3.688 7.467 C 3.337 6.985 2.635 6.924 2.225 7.286 L 0 9.156 C 0 10.008 0.691 10.699 1.543 10.699 L 10.353 10.699 C 11.458 10.699 12.353 9.803 12.353 8.699 L 12.353 8.131 L 12.294 8.131 Z" id="Shape" fill="#FFFFFF" stroke-linejoin="round"/>
        <path d="M 12.353 1.772 L 12.353 8.824 C 12.353 9.798 11.563 10.588 10.588 10.588 L 1.765 10.588 C 0.79 10.588 0 9.798 0 8.824 L 0 1.765 C 0 0.79 0.79 0 1.765 0 L 10.616 0 C 11.444 0 12.358 0.883 12.362 1.756" id="Rectangle"/>
      </g>
    </g>
  </g>
</svg>