<svg xmlns="http://www.w3.org/2000/svg" width="20" height="20"><path fill="#FFF" fill-rule="evenodd" d="M5.917 6.886 9.64 3.165a.54.54 0 0 1 .777 0l3.721 3.721c.355.355.096.94-.395.94h-1.854L10.784 12.2a.798.798 0 0 1-.968.573.78.78 0 0 1-.586-.573L8.126 7.825H6.313c-.491 0-.75-.584-.396-.939ZM17 11.602v2.249A3.147 3.147 0 0 1 13.865 17H6.149A3.15 3.15 0 0 1 3 13.851v-2.25c0-.572.463-1.022 1.022-1.022.56 0 1.023.45 1.023 1.023v2.249c0 .6.49 1.104 1.104 1.104h7.716c.6 0 1.09-.504 1.09-1.104v-2.25c0-.572.464-1.022 1.023-1.022.572 0 1.022.45 1.022 1.023Z"/></svg>