<svg xmlns="http://www.w3.org/2000/svg" viewBox="0 0 68 50"><defs><style>.cls-1{opacity:0.3;}.cls-2{opacity:0.1;}.cls-3{fill:#ff6680;stroke-miterlimit:10;}.cls-3,.cls-4{stroke:#f35;}.cls-4{fill:#ff4d6a;stroke-linecap:round;stroke-linejoin:round;}</style></defs><g id="boolean_boolean_inputs" data-name="boolean + boolean inputs"><path class="cls-3" d="m 0,4 A 4,4 0 0,1 4,0 H 12 c 2,0 3,1 4,2 l 4,4 c 1,1 2,2 4,2 h 12 c 2,0 3,-1 4,-2 l 4,-4 c 1,-1 2,-2 4,-2 H 62 a 4,4 0 0,1 4,4 v 28  a 4,4 0 0,1 -4,4 H 48   c -2,0 -3,1 -4,2 l -4,4 c -1,1 -2,2 -4,2 h -12 c -2,0 -3,-1 -4,-2 l -4,-4 c -1,-1 -2,-2 -4,-2 H 4 a 4,4 0 0,1 -4,-4 z"></path></g></svg>